<svg width="770" height="508" viewBox="0 0 770 508" fill="none" xmlns="http://www.w3.org/2000/svg">
<mask id="mask0" mask-type="alpha" maskUnits="userSpaceOnUse" x="0" y="0" width="770" height="508">
<path d="M770 0H0V508H770V0Z" fill="#1C355E"/>
</mask>
<g mask="url(#mask0)">
<g filter="url(#filter0_dddddd)">
<path d="M158.065 216.3C172.217 216.3 183.694 204.822 183.694 190.67C183.694 176.519 172.217 165.041 158.065 165.041C153.286 165.041 148.817 166.356 144.988 168.63C144.073 155.305 132.987 144.778 119.421 144.778C116.117 144.778 112.963 145.409 110.058 146.546C106.362 134.189 94.9204 125.181 81.3641 125.181C64.8228 125.181 51.4086 138.595 51.4086 155.136C51.4086 155.563 51.4264 155.98 51.4441 156.398C51.4352 156.398 51.4264 156.398 51.4086 156.398C34.8673 156.398 21.4531 169.812 21.4531 186.353C21.4531 202.894 34.8673 216.309 51.4086 216.309C52.4391 216.309 53.4607 216.255 54.4645 216.158H155.267C156.191 216.246 157.123 216.3 158.065 216.3Z" stroke="white" stroke-width="3" stroke-miterlimit="10"/>
<path d="M726.932 189.268C726.923 189.268 726.914 189.268 726.905 189.268C726.923 188.921 726.932 188.566 726.932 188.219C726.932 174.45 715.765 163.283 701.995 163.283C690.704 163.283 681.181 170.781 678.099 181.068C675.682 180.118 673.053 179.593 670.308 179.593C659.017 179.593 649.787 188.362 649.023 199.457C645.833 197.565 642.111 196.472 638.131 196.472C626.343 196.472 616.793 206.031 616.793 217.811C616.793 229.59 626.352 239.149 638.131 239.149C638.922 239.149 639.695 239.105 640.459 239.025H724.391C725.226 239.114 726.079 239.149 726.941 239.149C740.71 239.149 751.877 227.982 751.877 214.213C751.868 200.434 740.701 189.268 726.932 189.268Z" stroke="white" stroke-width="3" stroke-miterlimit="10"/>
<path d="M123.663 272.826C117.48 272.826 112.266 276.93 110.578 282.562C109.254 282.047 107.815 281.754 106.314 281.754C100.131 281.754 95.076 286.551 94.6584 292.627C92.9084 291.588 90.874 290.993 88.6975 290.993C82.2481 290.993 77.0156 296.225 77.0156 302.675C77.0156 309.124 82.2481 314.356 88.6975 314.356C89.124 314.356 89.5504 314.33 89.9679 314.285H135.923C136.385 314.33 136.847 314.356 137.317 314.356C144.86 314.356 150.972 308.245 150.972 300.702C150.972 293.16 144.86 287.048 137.317 287.048C137.309 287.048 137.309 287.048 137.3 287.048C137.309 286.862 137.317 286.666 137.317 286.471C137.317 278.938 131.206 272.826 123.663 272.826Z" stroke="white" stroke-width="3" stroke-miterlimit="10"/>
<path d="M536.229 63.1821C536.771 63.1821 537.304 63.1465 537.837 63.0932H560.436C561.094 63.1732 561.769 63.2176 562.444 63.2176C563.039 63.2176 563.626 63.191 564.203 63.1288H596.468C596.797 63.1465 597.126 63.1821 597.454 63.1821C597.792 63.1821 598.112 63.1465 598.44 63.1288H622.062C622.586 63.1821 623.128 63.2176 623.67 63.2176C631.798 63.2176 638.381 56.6349 638.381 48.5064C638.381 40.3779 631.798 33.7952 623.67 33.7952C620.925 33.7952 618.357 34.5502 616.163 35.8561C615.639 28.2074 609.27 22.1665 601.487 22.1665C599.808 22.1665 598.201 22.4686 596.69 22.9838C594.523 15.9747 587.984 10.8755 580.265 10.8755C579.687 10.8755 579.11 10.911 578.55 10.9732C571.337 11.4263 565.322 16.3123 563.244 22.9572C561.733 22.433 560.117 22.131 558.429 22.131C550.647 22.131 544.277 28.1718 543.753 35.8206C541.559 34.5147 538.991 33.7596 536.246 33.7596C528.118 33.7596 521.535 40.3423 521.535 48.4708C521.517 56.5993 528.1 63.1821 536.229 63.1821Z" stroke="white" stroke-width="3" stroke-miterlimit="10"/>
<path d="M526.228 451.895C525.086 453.199 524.4 454.907 524.4 456.762C524.4 460.862 527.72 464.182 531.82 464.182C533.232 464.182 534.563 463.779 535.692 463.093C535.705 463.093 535.705 463.107 535.719 463.107C535.652 463.456 535.611 463.806 535.611 464.169C535.611 467.139 538.018 469.546 540.988 469.546C543.959 469.546 546.365 467.139 546.365 464.169C546.365 463.738 546.312 463.308 546.218 462.905C547.132 463.174 548.113 463.308 549.108 463.308C554.902 463.308 559.593 458.617 559.593 452.823C559.593 447.244 555.224 442.674 549.726 442.351C549.498 438.466 546.271 435.388 542.319 435.388C539.12 435.388 536.404 437.404 535.356 440.241C533.985 438.735 532.009 437.781 529.804 437.781C525.664 437.781 522.316 441.141 522.316 445.268C522.303 448.158 523.889 450.632 526.228 451.895Z" stroke="white" stroke-width="3" stroke-miterlimit="10"/>
<path d="M266.814 405.128C265.672 406.432 264.986 408.139 264.986 409.995C264.986 414.095 268.306 417.415 272.406 417.415C273.818 417.415 275.149 417.012 276.278 416.326C276.291 416.326 276.291 416.339 276.305 416.339C276.238 416.689 276.197 417.038 276.197 417.401C276.197 420.372 278.604 422.778 281.574 422.778C284.545 422.778 286.951 420.372 286.951 417.401C286.951 416.971 286.898 416.541 286.804 416.138C287.718 416.407 288.699 416.541 289.694 416.541C295.488 416.541 300.179 411.85 300.179 406.056C300.179 400.477 295.81 395.907 290.312 395.584C290.084 391.699 286.857 388.621 282.905 388.621C279.706 388.621 276.99 390.637 275.942 393.473C274.571 391.968 272.595 391.013 270.39 391.013C266.25 391.013 262.902 394.374 262.902 398.501C262.889 401.378 264.475 403.865 266.814 405.128Z" stroke="white" stroke-width="3" stroke-miterlimit="10"/>
<path d="M588.303 466.372C588.303 463.872 586.354 461.829 583.895 461.695C583.787 459.961 582.349 458.577 580.588 458.577C579.164 458.577 577.941 459.477 577.47 460.741C576.852 460.069 575.978 459.639 574.983 459.639C573.129 459.639 571.637 461.144 571.637 462.985C571.637 464.262 572.349 465.364 573.397 465.929C572.887 466.507 572.578 467.273 572.578 468.106C572.578 469.934 574.056 471.426 575.898 471.426C576.529 471.426 577.121 471.251 577.631 470.942C577.631 470.942 577.645 470.942 577.645 470.956C577.618 471.104 577.591 471.265 577.591 471.44C577.591 472.77 578.666 473.846 579.997 473.846C581.328 473.846 582.403 472.77 582.403 471.44C582.403 471.251 582.376 471.063 582.336 470.875C582.752 470.996 583.182 471.063 583.626 471.063C586.207 471.05 588.303 468.953 588.303 466.372Z" stroke="white" stroke-width="3" stroke-miterlimit="10"/>
<path d="M342.808 383.257C342.808 379.963 340.227 377.261 336.974 377.073C336.84 374.774 334.931 372.959 332.605 372.959C330.723 372.959 329.11 374.156 328.492 375.823C327.685 374.936 326.516 374.371 325.212 374.371C322.765 374.371 320.789 376.347 320.789 378.794C320.789 380.474 321.73 381.939 323.115 382.692C322.443 383.458 322.039 384.466 322.039 385.569C322.039 387.988 324.002 389.951 326.422 389.951C327.255 389.951 328.035 389.723 328.707 389.306L328.72 389.319C328.68 389.521 328.653 389.736 328.653 389.951C328.653 391.699 330.078 393.124 331.826 393.124C333.573 393.124 334.998 391.699 334.998 389.951C334.998 389.696 334.958 389.44 334.904 389.212C335.442 389.373 336.02 389.454 336.611 389.454C340.039 389.454 342.808 386.684 342.808 383.257Z" stroke="white" stroke-width="3" stroke-miterlimit="10"/>
<path d="M247.978 435.158C247.467 435.736 247.158 436.502 247.158 437.335C247.158 439.163 248.637 440.655 250.478 440.655C251.11 440.655 251.701 440.48 252.212 440.171C252.212 440.171 252.225 440.171 252.225 440.185C252.198 440.332 252.171 440.494 252.171 440.669C252.171 441.999 253.247 443.074 254.577 443.074C255.908 443.074 256.983 441.999 256.983 440.669C256.983 440.48 256.956 440.292 256.916 440.104C257.333 440.225 257.763 440.292 258.206 440.292C260.801 440.292 262.897 438.195 262.897 435.601C262.897 433.101 260.948 431.058 258.489 430.924C258.381 429.19 256.943 427.806 255.182 427.806C253.758 427.806 252.534 428.706 252.064 429.97C251.446 429.298 250.572 428.867 249.577 428.867C247.723 428.867 246.231 430.373 246.231 432.214C246.217 433.478 246.93 434.58 247.978 435.158Z" stroke="white" stroke-width="3" stroke-miterlimit="10"/>
<path d="M127.281 545.565L123.625 541.518C125.709 530.025 136.1 520.642 147.15 520.642C152.944 520.642 158.415 522.82 162.582 526.637C163.321 486.86 195.92 454.732 235.872 454.732C249.502 454.732 262.743 458.483 274.291 465.608C278.377 458.698 285.878 454.343 293.984 454.343C294.482 454.343 294.979 454.356 295.49 454.396C296.713 436.45 311.715 422.201 329.957 422.201C333.022 422.201 336.087 422.618 339.085 423.451L339.085 423.45C339.071 423.087 339.058 422.725 339.058 422.376C339.058 409.215 349.758 398.515 362.918 398.515C364.074 398.515 365.257 398.609 366.44 398.784L371.858 382.196C358.818 365.58 356.358 354.248 356.493 347.876C353.549 350.471 350.605 353.791 350.565 353.832L347.459 357.34L347.043 352.675C345.282 332.915 354.53 318.141 359.154 312.092C356.896 311.111 355.028 309.39 353.872 307.145L351.264 302.117C348.454 300.881 346.155 298.743 344.744 296.028L343.238 293.111C338.426 292.493 334.541 288.944 333.56 284.118C333.183 282.316 332.834 280.434 332.471 278.512C302.951 293.474 273.511 323.276 273.215 323.585L270.043 326.812L269.761 322.295C266.292 267.382 302.991 237.539 326.018 224.338C323.733 185.717 325.413 129.258 345.389 75.1375L345.322 75.1644L348.158 67.9726C358.106 43.2111 370.285 22.1599 385.422 3.6224L387.102 1.35059L388.917 3.67617C404.403 22.6573 417.146 44.5285 426.758 68.685L429.285 75.1241L429.218 75.1106C449.18 129.123 450.887 185.462 448.643 224.002C471.925 237.176 509.054 267.045 505.559 322.335L505.277 326.839L502.118 323.612L502.095 323.59C501.12 322.608 471.61 292.899 442.23 278.216C441.854 280.246 441.478 282.236 441.088 284.131C440.12 288.93 436.248 292.479 431.476 293.124L429.957 296.055C428.546 298.77 426.26 300.908 423.438 302.144L420.83 307.172C419.768 309.229 418.06 310.869 416.017 311.89C420.628 317.832 430.078 332.686 428.29 352.702L427.874 357.367L424.768 353.858C424.728 353.818 421.784 350.498 418.84 347.903C418.948 353.643 416.958 363.591 406.674 377.975L414.175 400.142C422.9 403.207 429.514 410.613 431.678 419.58C434.151 418.867 436.692 418.504 439.246 418.504C454.396 418.504 466.71 430.831 466.71 445.968C466.71 447.03 466.642 448.092 466.508 449.207C466.521 449.302 466.521 449.382 466.535 449.476C485.274 450.256 501.419 462.744 506.89 480.663C515.681 477.074 524.97 475.246 534.541 475.246C573.431 475.246 605.196 505.183 607.67 543.79L603.731 545.887C602.293 508.57 571.899 479.332 534.528 479.332C524.755 479.332 515.278 481.335 506.365 485.315L504.174 486.296L503.596 483.957C499.147 466.065 483.177 453.563 464.76 453.523H464.639H462.69L462.623 451.573C462.596 450.807 462.542 450.135 462.462 449.49L462.435 449.234L462.475 448.979C462.609 447.944 462.677 446.976 462.677 446.022C462.677 433.103 452.164 422.591 439.246 422.591C436.396 422.591 433.573 423.115 430.858 424.164L428.505 425.064L428.129 422.577C426.812 413.746 420.467 406.339 411.971 403.717L410.99 403.408L402.171 377.356H402.158C415.09 359.961 415.157 349.57 414.592 345.914C414.404 344.731 414.955 343.561 415.977 342.943C416.985 342.338 418.275 342.392 419.23 343.104C420.964 344.381 422.859 346.156 424.432 347.729C424.365 327.766 412.495 313.92 411.043 312.307L408.583 309.565L412.226 308.973C414.364 308.624 416.219 307.279 417.214 305.371L420.52 298.985L421.246 298.716C423.464 297.883 425.279 296.297 426.341 294.24L428.922 289.266L430.105 289.226C433.546 289.118 436.437 286.712 437.109 283.365C437.66 280.69 438.198 277.853 438.708 274.923L439.165 272.328L441.558 273.458C466.898 285.408 492.788 309.067 501.714 317.63C502.87 266.535 467.301 238.964 445.564 226.932L444.448 226.314L444.529 225.037C446.922 185.973 445.295 127.873 424.029 72.812L423.007 70.1772C413.839 47.1364 401.781 26.2061 387.156 7.92406C372.893 25.776 361.373 45.9131 351.909 69.4916L350.618 72.7985C329.298 127.981 327.712 186.241 330.132 225.387L330.212 226.65L329.11 227.269C307.615 239.327 272.463 266.871 273.605 317.603C282.45 309.108 307.978 285.785 333.116 273.74L335.509 272.597L335.966 275.205C336.477 278.042 336.987 280.77 337.512 283.351C338.197 286.726 341.087 289.132 344.556 289.212L345.752 289.239L348.333 294.213C349.409 296.27 351.21 297.87 353.428 298.69L354.154 298.958L357.461 305.344C358.523 307.4 360.553 308.772 362.892 309L366.844 309.39L364.196 312.347C362.757 313.974 350.941 327.833 350.86 347.702C352.433 346.129 354.329 344.341 356.063 343.064C357.017 342.351 358.294 342.284 359.316 342.903C360.337 343.521 360.889 344.69 360.7 345.873C360.055 349.987 360.311 361.669 376.348 381.443L369.142 403.516L367.341 403.099C365.849 402.763 364.357 402.588 362.905 402.588C351.976 402.588 343.077 411.487 343.077 422.416C343.077 423.277 343.158 424.191 343.319 425.293L343.359 425.589L343.265 426.167C343.252 426.288 343.225 426.409 343.211 426.53L342.916 429.084L340.509 428.197C337.055 426.919 333.492 426.274 329.93 426.274C313.154 426.274 299.469 439.932 299.429 456.708V459.074L297.09 458.685C295.96 458.496 294.939 458.402 293.984 458.402C286.671 458.402 279.964 462.704 276.885 469.358L275.904 471.482L273.941 470.191C262.622 462.717 249.462 458.779 235.872 458.779C197.681 458.779 166.601 489.858 166.601 528.049C166.601 529.071 166.628 530.079 166.682 531.073V531.168V531.262C166.682 531.436 166.669 531.625 166.669 531.813L166.467 538.682L162.958 533.292C159.463 527.901 153.548 524.688 147.163 524.688C137.673 524.688 128.437 533.601 127.389 543.75C127.308 544.422 127.281 545.014 127.281 545.565Z" fill="white"/>
<path d="M417.497 125.381C417.497 107.865 403.301 93.6699 385.786 93.6699C368.27 93.6699 354.074 107.865 354.074 125.381C354.074 142.897 368.27 157.093 385.786 157.093C403.301 157.093 417.497 142.897 417.497 125.381ZM363.215 133.581C363.175 133.487 363.148 133.393 363.108 133.286C362.946 132.815 362.799 132.358 362.664 131.874C362.543 131.471 362.436 131.054 362.341 130.637C362.274 130.368 362.22 130.1 362.167 129.817C362.046 129.212 361.952 128.607 361.884 127.989C361.871 127.841 361.858 127.693 361.844 127.546C361.777 126.833 361.737 126.107 361.737 125.381C361.737 125.381 361.737 125.381 361.737 125.368C361.737 116.24 366.818 108.309 374.319 104.236C375.004 103.86 375.704 103.523 376.416 103.228C379.293 102.018 382.452 101.346 385.772 101.346C386.538 101.346 387.291 101.386 388.044 101.467C388.286 101.494 388.528 101.534 388.77 101.561C389.267 101.628 389.765 101.695 390.249 101.789C390.531 101.843 390.813 101.91 391.095 101.964C391.539 102.058 391.969 102.179 392.413 102.3C392.695 102.381 392.991 102.461 393.273 102.556C393.69 102.69 394.107 102.851 394.51 103.013C394.779 103.12 395.061 103.214 395.33 103.335C395.773 103.523 396.19 103.739 396.62 103.954C397.104 104.196 397.561 104.464 398.032 104.733C398.341 104.921 398.65 105.096 398.959 105.298C399.309 105.526 399.645 105.768 399.968 106.024C400.183 106.185 400.411 106.346 400.626 106.508C400.976 106.79 401.312 107.072 401.648 107.368C401.823 107.516 401.984 107.664 402.145 107.825C402.495 108.161 402.844 108.497 403.18 108.847C403.288 108.954 403.382 109.062 403.476 109.169C405.13 110.984 406.514 113.041 407.563 115.286C407.563 115.299 407.576 115.313 407.576 115.326C407.832 115.891 408.074 116.469 408.289 117.047C408.302 117.101 408.329 117.141 408.342 117.195C408.557 117.786 408.746 118.378 408.92 118.996C409.485 121.039 409.808 123.177 409.808 125.395C409.808 138.663 399.053 149.43 385.772 149.43C375.394 149.417 366.576 142.816 363.215 133.581Z" stroke="white" stroke-width="3" stroke-miterlimit="10"/>
</g>
</g>
<defs>
<filter id="filter0_dddddd" x="-197.047" y="-95.6494" width="1177.42" height="988.537" filterUnits="userSpaceOnUse" color-interpolation-filters="sRGB">
<feFlood flood-opacity="0" result="BackgroundImageFix"/>
<feColorMatrix in="SourceAlpha" type="matrix" values="0 0 0 0 0 0 0 0 0 0 0 0 0 0 0 0 0 0 127 0"/>
<feOffset dx="5" dy="3.45907"/>
<feGaussianBlur stdDeviation="3.07165"/>
<feColorMatrix type="matrix" values="0 0 0 0 0.0431373 0 0 0 0 0.0431373 0 0 0 0 0.0980392 0 0 0 0.112458 0"/>
<feBlend mode="normal" in2="BackgroundImageFix" result="effect1_dropShadow"/>
<feColorMatrix in="SourceAlpha" type="matrix" values="0 0 0 0 0 0 0 0 0 0 0 0 0 0 0 0 0 0 127 0"/>
<feOffset dx="5" dy="8.31263"/>
<feGaussianBlur stdDeviation="7.38161"/>
<feColorMatrix type="matrix" values="0 0 0 0 0.0431373 0 0 0 0 0.0431373 0 0 0 0 0.0980392 0 0 0 0.161557 0"/>
<feBlend mode="normal" in2="effect1_dropShadow" result="effect2_dropShadow"/>
<feColorMatrix in="SourceAlpha" type="matrix" values="0 0 0 0 0 0 0 0 0 0 0 0 0 0 0 0 0 0 127 0"/>
<feOffset dx="10" dy="15.6519"/>
<feGaussianBlur stdDeviation="13.8989"/>
<feColorMatrix type="matrix" values="0 0 0 0 0.0431373 0 0 0 0 0.0431373 0 0 0 0 0.0980392 0 0 0 0.2 0"/>
<feBlend mode="normal" in2="effect2_dropShadow" result="effect3_dropShadow"/>
<feColorMatrix in="SourceAlpha" type="matrix" values="0 0 0 0 0 0 0 0 0 0 0 0 0 0 0 0 0 0 127 0"/>
<feOffset dx="5" dy="27.9204"/>
<feGaussianBlur stdDeviation="24.7933"/>
<feColorMatrix type="matrix" values="0 0 0 0 0.0431373 0 0 0 0 0.0431373 0 0 0 0 0.0980392 0 0 0 0.238443 0"/>
<feBlend mode="normal" in2="effect3_dropShadow" result="effect4_dropShadow"/>
<feColorMatrix in="SourceAlpha" type="matrix" values="0 0 0 0 0 0 0 0 0 0 0 0 0 0 0 0 0 0 127 0"/>
<feOffset dx="5" dy="52.222"/>
<feGaussianBlur stdDeviation="46.3731"/>
<feColorMatrix type="matrix" values="0 0 0 0 0.0431373 0 0 0 0 0.0431373 0 0 0 0 0.0980392 0 0 0 0.287542 0"/>
<feBlend mode="normal" in2="effect4_dropShadow" result="effect5_dropShadow"/>
<feColorMatrix in="SourceAlpha" type="matrix" values="0 0 0 0 0 0 0 0 0 0 0 0 0 0 0 0 0 0 127 0"/>
<feOffset dx="5" dy="125"/>
<feGaussianBlur stdDeviation="111"/>
<feColorMatrix type="matrix" values="0 0 0 0 0.0431373 0 0 0 0 0.0431373 0 0 0 0 0.0980392 0 0 0 0.4 0"/>
<feBlend mode="normal" in2="effect5_dropShadow" result="effect6_dropShadow"/>
<feBlend mode="normal" in="SourceGraphic" in2="effect6_dropShadow" result="shape"/>
</filter>
</defs>
</svg>
