<svg width="460" height="384" viewBox="0 0 460 384" fill="none" xmlns="http://www.w3.org/2000/svg">
<g opacity="0.41">
<g opacity="0.41">
<path opacity="0.41" d="M459.776 244.83C460.209 237.333 460.021 229.808 459.169 222.34C455.196 187.293 437.182 154.251 410.659 130.939C401.197 122.621 390.435 115.167 384.281 104.196C373.908 85.6999 374.703 64.4643 361.831 46.1985C348.946 27.9183 330.18 13.6748 309.017 6.35114C245.902 -15.4755 157.535 20.0613 165.495 95.9501C165.524 96.224 165.553 96.6132 165.582 97.1178C166.636 112.875 154.241 126.138 138.466 126.513C80.2342 127.897 30.1064 172.704 19.3729 229.462C12.4822 265.965 23.7645 305.97 50.5187 331.79C70.4831 351.065 97.2806 361.647 124.092 368.928C177.846 383.517 234.417 386.573 289.832 380.994C341.708 375.775 396.444 360.883 429.988 321.05C447.901 299.815 458.158 272.567 459.776 244.83Z" fill="#C5D9FF"/>
</g>
</g>
<g opacity="0.88">
<g opacity="0.88">
<path opacity="0.88" d="M411.886 248.405C412.233 242.538 412.074 236.627 411.409 230.788C408.289 203.339 394.175 177.447 373.416 159.196C366.005 152.679 357.569 146.841 352.758 138.248C344.64 123.76 345.246 107.123 335.177 92.8217C325.08 78.5061 310.388 67.3333 293.804 61.6099C244.355 44.5118 175.129 72.3502 181.37 131.804C181.399 132.02 181.413 132.323 181.442 132.727C182.266 145.082 172.558 155.462 160.192 155.75C114.571 156.831 75.3071 191.936 66.8995 236.396C61.4966 264.984 70.3376 296.326 91.2989 316.567C106.944 331.661 127.934 339.965 148.939 345.659C191.049 357.092 235.355 359.485 278.78 355.117C319.417 351.022 362.293 339.359 388.57 308.162C402.583 291.482 410.615 270.131 411.886 248.405Z" fill="#C5D9FF"/>
</g>
</g>
<path opacity="0.31" d="M446.887 59.9045C448.702 52.2659 443.968 44.6054 436.314 42.7942C428.66 40.9831 420.984 45.7072 419.169 53.3458C417.354 60.9844 422.088 68.645 429.742 70.4561C437.396 72.2672 445.073 67.5431 446.887 59.9045Z" fill="#C5D9FF"/>
<path opacity="0.31" d="M131.906 51.783C138.354 45.348 138.354 34.9147 131.906 28.4797C125.457 22.0446 115.003 22.0446 108.554 28.4797C102.106 34.9147 102.106 45.348 108.554 51.783C115.003 58.2181 125.457 58.2181 131.906 51.783Z" fill="#C5D9FF"/>
<path opacity="0.31" d="M21.3224 377.995C33.0984 377.995 42.6448 368.468 42.6448 356.716C42.6448 344.964 33.0984 335.438 21.3224 335.438C9.54636 335.438 0 344.964 0 356.716C0 368.468 9.54636 377.995 21.3224 377.995Z" fill="#C5D9FF"/>
<path d="M189.631 188.764C231.382 188.764 265.228 154.988 265.228 113.322C265.228 71.6568 231.382 37.8804 189.631 37.8804C147.881 37.8804 114.035 71.6568 114.035 113.322C114.035 154.988 147.881 188.764 189.631 188.764Z" fill="#3361AB"/>
<path d="M242.114 167.658C241.926 167.658 241.739 167.586 241.609 167.442C241.32 167.154 241.32 166.707 241.609 166.418C255.751 152.304 263.538 133.534 263.538 113.582C263.538 93.6291 255.751 74.8587 241.609 60.7449C227.466 46.6311 208.657 38.8606 188.664 38.8606C168.67 38.8606 149.862 46.6311 135.719 60.7449C135.43 61.0333 134.982 61.0333 134.693 60.7449C134.404 60.4566 134.404 60.0097 134.693 59.7214C149.11 45.3336 168.28 37.4189 188.664 37.4189C209.047 37.4189 228.217 45.348 242.634 59.7214C257.051 74.1091 264.982 93.2399 264.982 113.582C264.982 133.923 257.037 153.054 242.634 167.442C242.49 167.586 242.302 167.658 242.114 167.658Z" fill="#4685EB"/>
<path d="M189.63 170.729C221.399 170.729 247.154 145.027 247.154 113.322C247.154 81.6174 221.399 55.9155 189.63 55.9155C157.86 55.9155 132.105 81.6174 132.105 113.322C132.105 145.027 157.86 170.729 189.63 170.729Z" fill="white"/>
<path d="M189.629 171.449C157.516 171.449 131.383 145.37 131.383 113.322C131.383 81.2739 157.516 55.1943 189.629 55.1943C190.034 55.1943 190.352 55.5115 190.352 55.9152C190.352 56.3188 190.034 56.636 189.629 56.636C158.31 56.636 132.827 82.0668 132.827 113.322C132.827 144.577 158.31 170.008 189.629 170.008C190.034 170.008 190.352 170.325 190.352 170.729C190.352 171.132 190.019 171.449 189.629 171.449Z" fill="#4685EB"/>
<path d="M204.525 124.293H188.88C185.673 124.293 183.059 121.684 183.059 118.483V96.8295C183.059 94.0471 185.327 91.7837 188.115 91.7837C190.903 91.7837 193.171 94.0471 193.171 96.8295V114.201H204.525C207.314 114.201 209.582 116.465 209.582 119.247C209.582 122.03 207.328 124.293 204.525 124.293Z" fill="#4685EB"/>
<path d="M72.2577 139.531L153.69 220.797C169.624 236.699 195.454 236.699 211.373 220.797L221.11 211.081C224.779 207.419 224.779 201.465 221.11 197.789L187.884 164.631C184.215 160.969 178.249 160.969 174.565 164.631L157.952 181.21C156.652 182.507 154.543 182.507 153.242 181.21L112.938 140.987C111.652 139.704 111.652 137.628 112.938 136.345L129.32 119.997C132.989 116.335 132.989 110.381 129.32 106.705L95.2125 72.6673C91.5866 69.0488 85.707 68.9911 82.0232 72.552L72.7778 81.4614C56.367 97.2764 56.1359 123.442 72.2577 139.531Z" fill="#4685EB"/>
<path d="M74.8142 83.1049L120.579 128.777L122.154 127.205L129.363 120.011C133.032 116.35 133.032 110.395 129.363 106.719L95.2121 72.6673C91.5861 69.0488 85.7066 68.9911 82.0228 72.552L72.7773 81.4614L74.8142 83.1049Z" fill="#ECF1F7"/>
<path d="M120.565 129.786L74.3233 83.6382L71.6797 81.519L81.5175 72.0329C85.4612 68.2269 91.8464 68.2846 95.718 72.1626L129.854 106.229C133.812 110.179 133.812 116.594 129.854 120.53L120.565 129.786ZM73.861 81.4181L75.3201 82.6002L120.565 127.753L128.828 119.507C130.475 117.863 131.371 115.686 131.371 113.38C131.371 111.059 130.461 108.882 128.828 107.253L94.6923 73.1718C91.3552 69.8416 85.8946 69.7983 82.5142 73.0709L73.861 81.4181Z" fill="#4685EB"/>
<path d="M167.89 174.434L213.655 220.105L215.229 218.534L222.438 211.34C226.107 207.678 226.107 201.724 222.438 198.048L188.302 163.982C184.676 160.363 178.796 160.306 175.113 163.866L165.867 172.776L167.89 174.434Z" fill="#ECF1F7"/>
<path d="M213.655 221.115L167.413 174.967L164.77 172.848L174.607 163.362C178.566 159.556 184.936 159.614 188.808 163.492L222.944 197.558C224.865 199.475 225.905 202.013 225.905 204.709C225.905 207.405 224.851 209.956 222.944 211.859L213.655 221.115ZM166.936 172.747L168.395 173.929L213.641 219.082L221.904 210.836C223.551 209.192 224.446 207.015 224.446 204.709C224.446 202.388 223.536 200.211 221.904 198.582L187.768 164.515C184.431 161.2 178.97 161.142 175.59 164.414L166.936 172.747Z" fill="#4685EB"/>
<path d="M106.193 106.258C106.005 106.258 105.817 106.185 105.687 106.041L77.8065 78.2174C77.5176 77.929 77.5176 77.4821 77.8065 77.1938C78.0955 76.9055 78.5433 76.9055 78.8322 77.1938L106.713 105.018C107.002 105.306 107.002 105.753 106.713 106.041C106.569 106.185 106.381 106.258 106.193 106.258Z" fill="#4685EB"/>
<path d="M217.095 216.934C216.908 216.934 216.72 216.862 216.59 216.718L188.709 188.894C188.42 188.605 188.42 188.158 188.709 187.87C188.998 187.582 189.446 187.582 189.735 187.87L217.615 215.694C217.904 215.982 217.904 216.429 217.615 216.718C217.471 216.876 217.283 216.934 217.095 216.934Z" fill="#4685EB"/>
<path d="M339.456 359.182L232.699 343.425C220.622 341.637 212.287 330.436 214.078 318.383L252.36 60.0674C254.152 48.0151 265.376 39.6968 277.453 41.4844L384.21 57.2417C396.286 59.0294 404.622 70.2311 402.831 82.2833L364.548 340.599C362.757 352.637 351.518 360.955 339.456 359.182Z" fill="#4685EB"/>
<path d="M260.694 65.6051L224.543 309.537L357.083 329.099L393.234 85.1674L260.694 65.6051Z" fill="#ECF1F7"/>
<path d="M260.694 65.6002L257.98 83.9111L390.521 103.473L393.234 85.1625L260.694 65.6002Z" fill="#3361AB"/>
<path d="M288.576 343.093C288.157 343.093 287.738 343.065 287.305 342.993C285.022 342.661 283 341.45 281.628 339.605C280.255 337.745 279.677 335.482 280.01 333.189C280.342 330.912 281.555 328.893 283.404 327.524C285.254 326.154 287.55 325.577 289.819 325.923C292.101 326.255 294.123 327.466 295.496 329.311C296.868 331.157 297.446 333.434 297.114 335.727C296.493 340.008 292.794 343.093 288.576 343.093ZM288.562 327.264C287.03 327.264 285.542 327.754 284.286 328.677C282.74 329.816 281.729 331.503 281.454 333.406C281.165 335.309 281.642 337.197 282.798 338.74C283.939 340.282 285.629 341.291 287.536 341.565C291.465 342.142 295.135 339.432 295.713 335.496C295.987 333.593 295.51 331.704 294.369 330.162C293.228 328.619 291.538 327.61 289.631 327.336C289.27 327.293 288.908 327.264 288.562 327.264Z" fill="#ECF1F7"/>
<path d="M307.734 63.2682C307.604 63.2682 307.459 63.2538 307.329 63.2393C306.592 63.124 305.942 62.7492 305.509 62.1437C305.061 61.5526 304.888 60.8174 304.989 60.0821C305.09 59.3469 305.48 58.6981 306.087 58.2656C306.679 57.8187 307.416 57.6313 308.153 57.7466C308.889 57.8476 309.539 58.2368 309.973 58.8423C310.421 59.4334 310.594 60.1686 310.493 60.9039C310.276 62.2734 309.092 63.2682 307.734 63.2682ZM307.734 59.145C307.445 59.145 307.17 59.2315 306.939 59.4045C306.65 59.6208 306.462 59.9235 306.419 60.284C306.361 60.63 306.448 60.9904 306.665 61.2787C306.881 61.567 307.185 61.7544 307.546 61.7977C307.907 61.8554 308.254 61.7544 308.543 61.5526C308.832 61.3364 309.019 61.0336 309.063 60.6732C309.12 60.3128 309.019 59.9668 308.817 59.6785C308.6 59.3901 308.297 59.2027 307.936 59.1595C307.864 59.1595 307.791 59.145 307.734 59.145Z" fill="#ECF1F7"/>
<path d="M350.781 69.6113C350.637 69.6113 350.507 69.5969 350.362 69.5824L316.544 64.5943C315.807 64.479 315.157 64.1042 314.724 63.4987C314.276 62.9076 314.103 62.1723 314.204 61.4371C314.319 60.7019 314.695 60.0531 315.302 59.6206C315.894 59.1737 316.631 59.0007 317.367 59.1016L351.186 64.0897C351.922 64.2051 352.572 64.5799 353.006 65.1854C353.454 65.7765 353.627 66.5117 353.526 67.247C353.41 67.9822 353.035 68.631 352.428 69.0635C351.951 69.4239 351.373 69.6113 350.781 69.6113ZM316.963 60.5144C316.313 60.5144 315.735 60.9902 315.634 61.6533C315.576 61.9993 315.663 62.3598 315.879 62.6481C316.096 62.9364 316.4 63.1238 316.761 63.1671L350.579 68.1552C351.301 68.2705 351.995 67.766 352.096 67.0307C352.154 66.6847 352.067 66.3243 351.85 66.036C351.633 65.7476 351.33 65.5602 350.969 65.517L317.151 60.5289C317.093 60.5144 317.021 60.5144 316.963 60.5144Z" fill="#ECF1F7"/>
<path d="M357.629 254.46L265.174 240.808C263.672 240.592 262.27 241.63 262.039 243.129L258.486 267.06C258.269 268.56 259.309 269.958 260.811 270.189L339.86 281.852L348.008 293.068L349.452 283.279L353.266 283.841C354.769 284.057 356.17 283.019 356.401 281.52L359.955 257.589C360.186 256.075 359.146 254.677 357.629 254.46Z" fill="#C5D9FF"/>
<path d="M339.876 282.572C339.847 282.572 339.804 282.572 339.775 282.558L260.726 270.895C259.801 270.765 258.992 270.275 258.443 269.525C257.894 268.776 257.663 267.867 257.793 266.945L261.347 243.013C261.621 241.125 263.398 239.784 265.291 240.087L286.656 243.244C287.046 243.302 287.321 243.662 287.263 244.066C287.205 244.455 286.83 244.729 286.44 244.671L265.074 241.514C263.962 241.355 262.936 242.119 262.763 243.229L259.209 267.161C259.137 267.694 259.267 268.228 259.584 268.66C259.902 269.093 260.379 269.381 260.914 269.453L339.962 281.116C340.352 281.174 340.627 281.534 340.569 281.938C340.526 282.313 340.222 282.572 339.876 282.572Z" fill="#4685EB"/>
<path d="M372.336 155.274L279.881 141.622C278.379 141.406 276.977 142.443 276.746 143.943L273.193 167.874C272.976 169.374 274.016 170.772 275.518 171.003L354.567 182.666L362.715 193.882L364.16 184.093L367.973 184.655C369.476 184.871 370.877 183.833 371.108 182.334L374.662 158.403C374.879 156.889 373.838 155.49 372.336 155.274Z" fill="#C5D9FF"/>
<path d="M363.175 195.727L354.175 183.329L275.43 171.709C273.537 171.435 272.223 169.662 272.497 167.773C272.555 167.384 272.916 167.125 273.321 167.168C273.711 167.226 273.985 167.586 273.927 167.99C273.841 168.523 273.985 169.056 274.303 169.489C274.621 169.921 275.097 170.21 275.632 170.282L354.984 181.988L362.265 192.008L363.565 183.257L368.101 183.92C368.636 183.992 369.17 183.862 369.604 183.545C370.037 183.228 370.326 182.752 370.398 182.219L372.753 166.288C372.811 165.899 373.172 165.625 373.576 165.683C373.966 165.741 374.241 166.101 374.183 166.505L371.828 182.435C371.698 183.358 371.207 184.165 370.456 184.713C369.705 185.261 368.795 185.491 367.87 185.362L364.764 184.9L363.175 195.727Z" fill="#4685EB"/>
<path d="M255.307 186.112L347.762 199.764C349.264 199.98 350.304 201.379 350.088 202.892L346.534 226.824C346.317 228.323 344.916 229.361 343.399 229.145L264.365 217.468L253.313 225.844L254.758 216.055L250.944 215.492C249.442 215.276 248.402 213.878 248.618 212.364L252.172 188.433C252.403 186.933 253.805 185.895 255.307 186.112Z" fill="#3361AB"/>
<path d="M343.818 229.894C343.645 229.894 343.471 229.88 343.298 229.851L293.95 222.571C293.56 222.513 293.286 222.153 293.344 221.749C293.401 221.36 293.763 221.086 294.167 221.144L343.515 228.424C344.049 228.496 344.584 228.366 345.017 228.049C345.451 227.732 345.74 227.256 345.812 226.723L349.365 202.791C349.524 201.681 348.759 200.658 347.646 200.485C347.256 200.427 346.982 200.067 347.04 199.663C347.097 199.274 347.459 199 347.863 199.057C349.756 199.331 351.07 201.105 350.796 202.993L347.242 226.925C347.112 227.847 346.621 228.655 345.87 229.202C345.277 229.649 344.555 229.894 343.818 229.894Z" fill="#4685EB"/>
<path d="M227.862 287.096L224.535 309.543L357.075 329.105L360.402 306.659L227.862 287.096Z" fill="white"/>
<path d="M247.435 301.242C246.785 305.639 242.682 308.666 238.276 308.018C233.87 307.369 230.836 303.275 231.486 298.877C232.136 294.48 236.239 291.453 240.645 292.102C245.051 292.75 248.085 296.845 247.435 301.242Z" fill="#C5D9FF"/>
<path opacity="0.33" d="M345.192 323.04C344.845 323.04 344.484 323.011 344.137 322.968L258.241 310.296C256.348 310.022 254.658 309.013 253.517 307.47C252.376 305.928 251.899 304.039 252.173 302.15C252.751 298.244 256.421 295.519 260.335 296.11L346.232 308.782C350.147 309.359 352.877 313.006 352.285 316.927C351.765 320.474 348.688 323.04 345.192 323.04ZM344.339 321.541C347.474 322.002 350.392 319.84 350.869 316.711C351.1 315.197 350.71 313.684 349.8 312.458C348.89 311.233 347.546 310.426 346.03 310.209L260.133 297.523C256.998 297.061 254.08 299.224 253.618 302.352C253.387 303.866 253.777 305.38 254.687 306.605C255.597 307.831 256.941 308.638 258.457 308.854L344.339 321.541Z" fill="#3361AB"/>
<path d="M268.943 78.7512C268.813 78.7512 268.669 78.7367 268.524 78.7223C266.979 78.4917 265.91 77.0644 266.141 75.5219C266.256 74.7722 266.646 74.1234 267.253 73.6621C267.86 73.2152 268.611 73.0278 269.348 73.1431C270.894 73.3738 271.963 74.801 271.731 76.3436C271.529 77.742 270.33 78.7512 268.943 78.7512ZM268.943 74.5415C268.654 74.5415 268.366 74.628 268.12 74.8154C267.817 75.0317 267.629 75.3633 267.571 75.7237C267.513 76.0841 267.614 76.4589 267.831 76.7473C268.048 77.05 268.38 77.2374 268.741 77.2951C269.492 77.4104 270.2 76.8914 270.316 76.1273C270.373 75.7669 270.272 75.3921 270.056 75.1038C269.839 74.801 269.507 74.6136 269.146 74.5559C269.073 74.5559 269.016 74.5415 268.943 74.5415Z" fill="white"/>
<path d="M276.775 79.9047C276.631 79.9047 276.501 79.8903 276.356 79.8759C274.811 79.6452 273.742 78.218 273.973 76.6754C274.204 75.1329 275.649 74.0805 277.18 74.2967C277.931 74.412 278.581 74.8013 279.043 75.4068C279.491 76.0123 279.679 76.7619 279.563 77.4972C279.448 78.2468 279.058 78.8956 278.451 79.3569C277.96 79.7173 277.368 79.9047 276.775 79.9047ZM276.761 75.6951C276.082 75.6951 275.49 76.1853 275.389 76.8773C275.331 77.2377 275.432 77.6125 275.649 77.9008C275.865 78.2036 276.198 78.391 276.559 78.4487C276.92 78.5063 277.295 78.4054 277.584 78.1892C277.888 77.9729 278.076 77.6413 278.133 77.2809C278.191 76.9205 278.09 76.5457 277.873 76.2574C277.657 75.9546 277.324 75.7672 276.963 75.7095C276.905 75.7095 276.833 75.6951 276.761 75.6951Z" fill="white"/>
<path d="M284.432 81.029C284.302 81.029 284.157 81.0146 284.013 81.0002C282.467 80.7695 281.398 79.3279 281.629 77.7997C281.86 76.2572 283.305 75.1903 284.836 75.421C286.382 75.6517 287.451 77.0933 287.22 78.6215C287.032 80.0199 285.818 81.029 284.432 81.029ZM284.432 76.8338C284.143 76.8338 283.854 76.9347 283.608 77.1077C283.305 77.324 283.117 77.6556 283.059 78.016C283.001 78.3764 283.103 78.7512 283.319 79.0396C283.536 79.3423 283.868 79.5297 284.229 79.5874C284.981 79.6883 285.688 79.1693 285.804 78.4196C285.92 77.67 285.385 76.9636 284.634 76.8482C284.576 76.8338 284.504 76.8338 284.432 76.8338Z" fill="white"/>
<path d="M392.328 104.441C392.299 104.441 392.256 104.441 392.227 104.427L269.536 86.3197C269.146 86.262 268.872 85.9016 268.93 85.4979C268.987 85.1087 269.348 84.8348 269.753 84.8924L392.443 103C392.833 103.057 393.108 103.418 393.05 103.821C392.992 104.182 392.675 104.441 392.328 104.441Z" fill="#4685EB"/>
<path d="M341.175 259.967C341.146 259.967 341.102 259.967 341.073 259.953L275.618 250.294C275.228 250.236 274.954 249.876 275.012 249.472C275.069 249.083 275.431 248.794 275.835 248.867L341.29 258.526C341.68 258.583 341.955 258.944 341.897 259.347C341.839 259.708 341.536 259.967 341.175 259.967Z" fill="white"/>
<path d="M302.43 262.216C302.401 262.216 302.357 262.216 302.329 262.202L274.462 258.093C274.072 258.035 273.798 257.675 273.855 257.271C273.913 256.882 274.274 256.608 274.679 256.666L302.545 260.775C302.935 260.832 303.21 261.193 303.152 261.596C303.08 261.957 302.776 262.216 302.43 262.216Z" fill="white"/>
<path d="M293.041 268.286C293.012 268.286 292.969 268.286 292.94 268.271L273.38 265.388C272.99 265.33 272.716 264.97 272.773 264.566C272.831 264.177 273.207 263.903 273.597 263.961L293.157 266.844C293.547 266.902 293.821 267.262 293.763 267.666C293.706 268.026 293.388 268.286 293.041 268.286Z" fill="white"/>
<path d="M340.018 267.767C339.989 267.767 339.946 267.767 339.917 267.752L311.126 263.499C310.736 263.442 310.462 263.081 310.519 262.678C310.577 262.288 310.938 262.014 311.343 262.072L340.134 266.325C340.524 266.383 340.798 266.743 340.741 267.147C340.683 267.507 340.379 267.767 340.018 267.767Z" fill="white"/>
<path d="M333.186 205.761C333.157 205.761 333.114 205.761 333.085 205.747L267.63 196.088C267.24 196.03 266.966 195.67 267.023 195.266C267.081 194.877 267.442 194.588 267.847 194.661L333.302 204.32C333.692 204.377 333.966 204.738 333.909 205.141C333.851 205.502 333.533 205.761 333.186 205.761Z" fill="white"/>
<path d="M294.426 208.01C294.397 208.01 294.354 208.01 294.325 207.996L266.458 203.887C266.068 203.829 265.794 203.469 265.851 203.065C265.909 202.676 266.27 202.402 266.675 202.46L294.541 206.569C294.931 206.626 295.206 206.987 295.148 207.39C295.09 207.751 294.787 208.01 294.426 208.01Z" fill="white"/>
<path d="M323.377 219.731C323.334 219.731 323.305 219.731 323.261 219.717L266.763 210.966C266.373 210.908 266.098 210.533 266.156 210.144C266.214 209.755 266.589 209.481 266.98 209.538L323.478 218.289C323.868 218.347 324.143 218.722 324.085 219.111C324.042 219.471 323.738 219.731 323.377 219.731Z" fill="white"/>
<path d="M332.03 213.561C332.001 213.561 331.958 213.561 331.929 213.546L303.138 209.293C302.748 209.236 302.473 208.875 302.531 208.472C302.589 208.082 302.95 207.808 303.355 207.866L332.146 212.119C332.536 212.177 332.81 212.537 332.752 212.941C332.695 213.301 332.391 213.561 332.03 213.561Z" fill="white"/>
<path d="M267.181 96.1232L359.636 109.776C361.138 109.992 362.178 111.39 361.961 112.904L358.408 136.836C358.191 138.335 356.79 139.373 355.273 139.157L276.224 127.494L265.173 135.87L266.617 126.081L262.804 125.519C261.301 125.302 260.261 123.904 260.478 122.39L264.032 98.4587C264.277 96.945 265.678 95.907 267.181 96.1232Z" fill="#3361AB"/>
<path d="M358.409 137.556C358.38 137.556 358.337 137.556 358.308 137.542C357.918 137.484 357.644 137.124 357.701 136.72L361.255 112.789C361.342 112.255 361.197 111.722 360.879 111.289C360.562 110.857 360.085 110.568 359.55 110.496L302.142 102.019C301.752 101.962 301.477 101.601 301.535 101.198C301.593 100.808 301.968 100.534 302.358 100.592L359.767 109.069C360.692 109.199 361.501 109.689 362.05 110.439C362.599 111.188 362.83 112.097 362.7 113.019L359.146 136.951C359.074 137.297 358.77 137.556 358.409 137.556Z" fill="#4685EB"/>
<path d="M345.061 115.773C345.032 115.773 344.989 115.773 344.96 115.759L279.505 106.099C279.115 106.042 278.841 105.681 278.898 105.278C278.956 104.888 279.317 104.615 279.722 104.672L345.177 114.331C345.567 114.389 345.841 114.749 345.784 115.153C345.726 115.513 345.408 115.773 345.061 115.773Z" fill="white"/>
<path d="M306.301 118.022C306.272 118.022 306.229 118.022 306.2 118.007L278.333 113.899C277.943 113.841 277.669 113.481 277.726 113.077C277.784 112.688 278.145 112.414 278.55 112.472L306.416 116.58C306.806 116.638 307.081 116.998 307.023 117.402C306.965 117.762 306.662 118.022 306.301 118.022Z" fill="white"/>
<path d="M335.252 129.743C335.209 129.743 335.18 129.743 335.136 129.728L278.638 120.977C278.248 120.92 277.973 120.545 278.031 120.156C278.089 119.766 278.464 119.492 278.855 119.55L335.368 128.315C335.758 128.373 336.032 128.748 335.974 129.137C335.917 129.498 335.613 129.743 335.252 129.743Z" fill="white"/>
<path d="M343.905 123.572C343.876 123.572 343.833 123.572 343.804 123.558L315.013 119.305C314.623 119.247 314.348 118.887 314.406 118.483C314.464 118.094 314.825 117.82 315.23 117.878L344.021 122.131C344.411 122.188 344.685 122.549 344.627 122.952C344.57 123.313 344.252 123.572 343.905 123.572Z" fill="white"/>
<path d="M355.94 161.704C355.911 161.704 355.868 161.704 355.839 161.69L290.384 152.031C289.994 151.973 289.719 151.613 289.777 151.209C289.835 150.82 290.196 150.546 290.601 150.603L356.056 160.262C356.446 160.32 356.72 160.681 356.663 161.084C356.605 161.445 356.287 161.704 355.94 161.704Z" fill="white"/>
<path d="M317.18 163.939C317.151 163.939 317.107 163.939 317.079 163.924L289.212 159.816C288.822 159.758 288.548 159.398 288.605 158.994C288.663 158.605 289.039 158.331 289.429 158.389L317.295 162.497C317.685 162.555 317.96 162.915 317.902 163.319C317.844 163.694 317.541 163.939 317.18 163.939Z" fill="white"/>
<path d="M307.791 170.008C307.762 170.008 307.719 170.008 307.69 169.994L288.13 167.11C287.74 167.053 287.466 166.692 287.523 166.288C287.581 165.899 287.942 165.625 288.347 165.683L307.907 168.566C308.297 168.624 308.571 168.984 308.513 169.388C308.456 169.763 308.152 170.008 307.791 170.008Z" fill="white"/>
<path d="M354.784 169.489C354.755 169.489 354.712 169.489 354.683 169.474L325.892 165.222C325.502 165.164 325.227 164.803 325.285 164.4C325.343 164.011 325.704 163.737 326.108 163.794L354.899 168.047C355.29 168.105 355.564 168.465 355.506 168.869C355.448 169.244 355.145 169.489 354.784 169.489Z" fill="white"/>
<path d="M222.83 337.024L74.5269 353.689C71.6811 354.007 69.1097 351.959 68.7918 349.119L58.0873 254.316C58.0729 254.172 58.174 254.028 58.3329 254.013L216.373 236.238C216.517 236.223 216.662 236.324 216.676 236.483L227.381 331.329C227.699 334.155 225.662 336.707 222.83 337.024Z" fill="#F7A9B4"/>
<path d="M73.9503 354.453C70.9889 354.453 68.4175 352.219 68.0852 349.206L57.3807 254.402C57.3229 253.855 57.7129 253.364 58.2619 253.307L216.302 235.531C216.851 235.473 217.342 235.863 217.4 236.41L228.104 331.257C228.278 332.814 227.844 334.342 226.862 335.568C225.88 336.793 224.478 337.557 222.918 337.744L74.6148 354.41C74.3837 354.439 74.167 354.453 73.9503 354.453ZM58.8542 254.676L69.5154 349.047C69.7898 351.483 72.0001 353.257 74.4559 352.983L222.745 336.303L222.831 337.024L222.745 336.303C223.915 336.173 224.97 335.582 225.721 334.659C226.457 333.737 226.79 332.583 226.66 331.401L215.999 237.002L58.8542 254.676Z" fill="#4685EB"/>
<path opacity="0.29" d="M215.882 337.024L81.7933 353.704C78.9474 354.021 123.34 297.191 123.022 294.351L58.0873 254.316C58.0729 254.172 58.174 254.028 58.3329 254.013L216.373 236.238C216.517 236.223 216.662 236.324 216.676 236.483L162.619 289.882C162.922 292.707 218.713 336.707 215.882 337.024Z" fill="#4685EB"/>
<path d="M58.3331 254.013L123.687 189.514C127.588 185.65 133.626 184.972 138.292 187.856L215.969 235.993C216.099 236.079 216.055 236.281 215.896 236.295L58.0586 254.042" fill="#F7A9B4"/>
<path d="M58.1459 254.763L58.0304 253.696L57.8281 253.494L57.987 253.336V253.321H58.0159L123.197 188.995C127.343 184.886 133.713 184.165 138.683 187.236L216.359 235.387C216.677 235.589 216.836 235.964 216.764 236.324C216.677 236.684 216.374 236.973 215.998 237.016L58.1459 254.763ZM132.038 186.789C129.177 186.789 126.346 187.884 124.193 190.018L60.3273 253.062L214.221 235.762L137.903 188.461C136.082 187.351 134.046 186.789 132.038 186.789Z" fill="#4685EB"/>
<path opacity="0.29" d="M58.3331 254.013L123.687 189.514C127.588 185.65 133.626 184.972 138.292 187.856L215.969 235.993C216.099 236.079 216.055 236.281 215.896 236.295L58.0586 254.042" fill="#4685EB"/>
<path d="M130.912 284.389L81.7812 352.594L215.87 337.514L152.769 281.924C146.196 276.143 136.041 277.282 130.912 284.389Z" fill="#F7A9B4"/>
<path d="M80.25 353.502L130.32 283.971L130.912 284.389L130.32 283.971C132.877 280.41 136.85 278.089 141.212 277.599C145.575 277.109 149.967 278.493 153.246 281.39L217.574 338.062L80.25 353.502ZM142.946 278.954C142.426 278.954 141.891 278.983 141.371 279.041C137.413 279.487 133.816 281.592 131.49 284.822L83.3126 351.714L214.179 336.995L152.293 282.486C149.707 280.194 146.37 278.954 142.946 278.954Z" fill="#4685EB"/>
<path d="M66.3086 207.289L169.598 195.67C176.373 194.905 182.397 199.043 183.062 204.911L189.707 263.716L160.988 290.069L123.038 294.336L85.5219 270.938L79.0934 213.964L66.3086 207.289Z" fill="white"/>
<path d="M122.852 295.086L84.8444 271.371L78.4159 214.44L68.5781 206.323L169.513 194.977C172.965 194.588 176.331 195.396 179.018 197.241C181.734 199.101 183.424 201.811 183.771 204.867L190.445 264.033L161.279 290.79L122.852 295.086ZM86.2023 270.506L123.184 293.587L160.657 289.377L188.943 263.442L182.341 204.997C182.038 202.373 180.578 200.023 178.209 198.409C175.811 196.765 172.778 196.044 169.686 196.39L68.737 207.736L79.7738 213.488L86.2023 270.506Z" fill="#4685EB"/>
<path opacity="0.29" d="M130.912 278.507L81.7812 352.608L215.87 337.528L152.769 276.056C146.196 270.246 136.041 271.4 130.912 278.507Z" fill="#4685EB"/>
<path d="M130.912 284.389L81.7812 352.594L215.87 337.514L152.769 281.924C146.196 276.143 136.041 277.282 130.912 284.389Z" fill="#F7A9B4"/>
<path d="M80.25 353.502L130.32 283.971L130.912 284.389L130.32 283.971C132.877 280.41 136.85 278.089 141.212 277.599C145.575 277.109 149.967 278.493 153.246 281.39L217.574 338.062L80.25 353.502ZM142.946 278.954C142.426 278.954 141.891 278.983 141.371 279.041C137.413 279.487 133.816 281.592 131.49 284.822L83.3126 351.714L214.179 336.995L152.293 282.486C149.707 280.194 146.37 278.954 142.946 278.954Z" fill="#4685EB"/>
<path opacity="0.35" d="M135.666 299.498L99.5938 349.595L198.073 338.523L151.73 297.695C146.89 293.428 139.436 294.264 135.666 299.498Z" fill="#ECF1F7"/>
<path d="M58.7797 253.546L58.0156 254.769L122.64 294.96L123.404 293.736L58.7797 253.546Z" fill="#4685EB"/>
<path d="M216.162 235.839L162.129 289.389L163.147 290.412L217.18 236.862L216.162 235.839Z" fill="#4685EB"/>
<path d="M81.9522 240.216L63.9235 242.249L61.0198 216.588C60.4853 211.845 63.909 207.563 68.6473 207.03L69.4708 206.943C74.2235 206.41 78.514 209.826 79.0485 214.555L81.9522 240.216Z" fill="#ECF1F7"/>
<path d="M63.2884 243.042L60.3125 216.66C60.0381 214.18 60.7315 211.729 62.3061 209.769C63.8663 207.808 66.1054 206.583 68.5901 206.309L69.4136 206.222C71.9127 205.948 74.3541 206.64 76.3043 208.212C78.269 209.769 79.4969 212.003 79.7714 214.483L82.7473 240.865L63.2884 243.042ZM70.4681 207.606C70.1648 207.606 69.8614 207.62 69.558 207.664L68.7346 207.75C66.6255 207.981 64.7475 209.033 63.4184 210.677C62.1038 212.335 61.4971 214.396 61.7427 216.501L64.5597 241.456L81.1438 239.596L78.3268 214.641C78.0956 212.537 77.0411 210.662 75.3942 209.336C73.9785 208.197 72.2594 207.606 70.4681 207.606Z" fill="#4685EB"/>
<path d="M94.1875 226.852C93.8264 226.852 93.5086 226.578 93.4652 226.218C93.4219 225.829 93.7108 225.468 94.1009 225.425L168.946 217.006C169.35 216.963 169.697 217.251 169.74 217.64C169.784 218.029 169.495 218.39 169.105 218.433L94.2598 226.852C94.2453 226.852 94.2164 226.852 94.1875 226.852Z" fill="#4685EB"/>
<path d="M97.0625 252.24C96.7014 252.24 96.3836 251.966 96.3402 251.606C96.2969 251.216 96.5858 250.856 96.9759 250.813L171.807 242.393C172.197 242.35 172.558 242.639 172.601 243.028C172.644 243.417 172.355 243.777 171.965 243.821L97.1348 252.24C97.1203 252.24 97.0914 252.24 97.0625 252.24Z" fill="#4685EB"/>
<path d="M95.6055 239.409C95.2444 239.409 94.9266 239.135 94.8832 238.775C94.8399 238.386 95.1288 238.025 95.5188 237.982L127.864 234.349C128.254 234.306 128.615 234.594 128.658 234.983C128.701 235.373 128.413 235.733 128.022 235.776L95.6778 239.409C95.6633 239.409 95.6344 239.409 95.6055 239.409Z" fill="#4685EB"/>
<path d="M136.414 234.811C136.053 234.811 135.735 234.537 135.692 234.176C135.648 233.787 135.937 233.427 136.327 233.383L170.362 229.563C170.767 229.52 171.114 229.808 171.157 230.197C171.2 230.586 170.911 230.947 170.521 230.99L136.486 234.811C136.472 234.811 136.443 234.811 136.414 234.811Z" fill="#4685EB"/>
<path d="M98.6797 266.642C98.3186 266.642 98.0008 266.368 97.9574 266.008C97.9141 265.619 98.203 265.258 98.5931 265.215L130.938 261.582C131.328 261.539 131.689 261.827 131.732 262.216C131.776 262.606 131.487 262.966 131.097 263.009L98.752 266.642C98.7375 266.642 98.7086 266.642 98.6797 266.642Z" fill="#4685EB"/>
</svg>
