<svg
        class="object-cover w-full my-10"
        width="310"
        height="5"
        viewBox="0 0 310 5"
        fill="none"
        xmlns="http://www.w3.org/2000/svg">
        <path
          fill-rule="evenodd"
          clip-rule="evenodd"
          d="M310 0H308V3H310V4H305V3H307V0H300V3H302V4H297V3H299V0H292V3H294V4H289V3H291V0H284V3H286V4H281V3H283V0H276V3H278V4H273V3H275V0H268V3H270V4H265V3H267V0H256.5V3H258.5V4H253.5V3H255.5V0H248.5V3H250.5V4H245.5V3H247.5V0H240.5V3H242.5V4H237.5V3H239.5V0H232.5V3H234.5V4H229.5V3H231.5V0H224.5V3H226.5V4H221.5V3H223.5V0H216.5V3H218.5V4H213.5V3H215.5V0H208.5V3H210.5V4H205.5V3H207.5V0H200.5V3H202.5V4H197.5V3H199.5V0H192.5V3H194.5V4H189.5V3H191.5V0H184.5V3H186.5V4H181.5V3H183.5V0H176.5V3H178.5V4H173.5V3H175.5V0H168.5V3H170.5V4H165.5V3H167.5V0H160.5V3H162.5V4H157.5V3H159.5V0H152.5V3H154.5V4H149.5V3H151.5V0H144.5V3H146.5V4H141.5V3H143.5V0H136.5V3H138.5V4H133.5V3H135.5V0H128.5V3H130.5V4H125.5V3H127.5V0H120.5V3H122.5V4H117.5V3H119.5V0H112.5V3H114.5V4H109.5V3H111.5V0H104.5V3H106.5V4H101.5V3H103.5V0H96.5V3H98.5V4H93.5V3H95.5V0H88.5V3H90.5V4H85.5V3H87.5V0H80.5V3H82.5V4H77.5V3H79.5V0H72.5V3H74.5V4H69.5V3H71.5V0H64.5V3H66.5V4H61.5V3H63.5V0H56.5V3H58.5V4H53.5V3H55.5V0H48.5V3H50.5V4H45.5V3H47.5V0H40.5V3H42.5V4H37.5V3H39.5V0H32.5V3H34.5V4H29.5V3H31.5V0H24.5V3H26.5V4H21.5V3H23.5V0H16.5V3H18.5V4H13.5V3H15.5V0H8.5V3H10.5V4H5.5V3H7.5V0H0.5V3H2.5V4H0V5H3.5V2H1.5V1H6.5V2H4.5V5H11.5V2H9.5V1H14.5V2H12.5V5H19.5V2H17.5V1H22.5V2H20.5V5H27.5V2H25.5V1H30.5V2H28.5V5H35.5V2H33.5V1H38.5V2H36.5V5H43.5V2H41.5V1H46.5V2H44.5V5H51.5V2H49.5V1H54.5V2H52.5V5H59.5V2H57.5V1H62.5V2H60.5V5H67.5V2H65.5V1H70.5V2H68.5V5H75.5V2H73.5V1H78.5V2H76.5V5H83.5V2H81.5V1H86.5V2H84.5V5H91.5V2H89.5V1H94.5V2H92.5V5H99.5V2H97.5V1H102.5V2H100.5V5H107.5V2H105.5V1H110.5V2H108.5V5H115.5V2H113.5V1H118.5V2H116.5V5H123.5V2H121.5V1H126.5V2H124.5V5H131.5V2H129.5V1H134.5V2H132.5V5H139.5V2H137.5V1H142.5V2H140.5V5H147.5V2H145.5V1H150.5V2H148.5V5H155.5V2H153.5V1H158.5V2H156.5V5H163.5V2H161.5V1H166.5V2H164.5V5H171.5V2H169.5V1H174.5V2H172.5V5H179.5V2H177.5V1H182.5V2H180.5V5H187.5V2H185.5V1H190.5V2H188.5V5H195.5V2H193.5V1H198.5V2H196.5V5H203.5V2H201.5V1H206.5V2H204.5V5H211.5V2H209.5V1H214.5V2H212.5V5H219.5V2H217.5V1H222.5V2H220.5V5H227.5V2H225.5V1H230.5V2H228.5V5H235.5V2H233.5V1H238.5V2H236.5V5H243.5V2H241.5V1H246.5V2H244.5V5H251.5V2H249.5V1H254.5V2H252.5V5H263V2H261V1H266V2H264V5H271V2H269V1H274V2H272V5H279V2H277V1H282V2H280V5H287V2H285V1H290V2H288V5H295V2H293V1H298V2H296V5H303V2H301V1H306V2H304V5H310V2H309V1H310V0ZM262 3V4H259.5V2H257.5V1H260V3H262Z"
          fill="#18191F"
          fill-opacity="0.3" />
      </svg>