<svg width="260" height="6" viewBox="0 0 260 6" fill="none" xmlns="http://www.w3.org/2000/svg">
<path d="M257.5 1.5V2.5H259.5V5.5H252.5V2.5H254.5V1.5H249.5V2.5H251.5V5.5H244.5V2.5H246.5V1.5H241.5V2.5H243.5V5.5H236.5V2.5H238.5V1.5H233.5V2.5H235.5V5.5H228.5V2.5H230.5V1.5H225.5V2.5H227.5V5.5H220.5V2.5H222.5V1.5H217.5V2.5H219.5V5.5H212.5V2.5H214.5V1.5H209.5V2.5H211.5V5.5H204.5V2.5H206.5V1.5H201.5V2.5H203.5V5.5H196.5V2.5H198.5V1.5H193.5V2.5H195.5V5.5H188.5V2.5H190.5V1.5H185.5V2.5H187.5V5.5H180.5V2.5H182.5V1.5H177.5V2.5H179.5V5.5H172.5V2.5H174.5V1.5H169.5V2.5H171.5V5.5H164.5V2.5H166.5V1.5H161.5V2.5H163.5V5.5H156.5V2.5H158.5V1.5H153.5V2.5H155.5V5.5H148.5V2.5H150.5V1.5H145.5V2.5H147.5V5.5H140.5V2.5H142.5V1.5H137.5V2.5H139.5V5.5H132.5V2.5H134.5V1.5H129.5V2.5H131.5V5.5H124.5V2.5H126.5V1.5H121.5V2.5H123.5V5.5H116.5V2.5H118.5V1.5H113.5V2.5H115.5V5.5H108.5V2.5H110.5V1.5H105.5V2.5H107.5V5.5H100.5V2.5H102.5V1.5H97.5V2.5H99.5V5.5H92.5V2.5H94.5V1.5H89.5V2.5H91.5V5.5H84.5V2.5H86.5V1.5H81.5V2.5H83.5V5.5H76.5V2.5H78.5V1.5H73.5V2.5H75.5V5.5H68.5V2.5H70.5V1.5H65.5V2.5H67.5V5.5H60.5V2.5H62.5V1.5H57.5V2.5H59.5V5.5H52.5V2.5H54.5V1.5H49.5V2.5H51.5V5.5H44.5V2.5H46.5V1.5H41.5V2.5H43.5V5.5H36.5V2.5H38.5V1.5H33.5V2.5H35.5V5.5H28.5V2.5H30.5V1.5H25.5V2.5H27.5V5.5H20.5V2.5H22.5V1.5H17.5V2.5H19.5V5.5H12.5V2.5H14.5V1.5H9.5V2.5H11.5V5.5H4.5V2.5H6.5V1.5H1.5V2.5H3.5V5.5H0V4.5H2.5V3.5H0.5V0.5H7.5V3.5H5.5V4.5H10.5V3.5H8.5V0.5H15.5V3.5H13.5V4.5H18.5V3.5H16.5V0.5H23.5V3.5H21.5V4.5H26.5V3.5H24.5V0.5H31.5V3.5H29.5V4.5H34.5V3.5H32.5V0.5H39.5V3.5H37.5V4.5H42.5V3.5H40.5V0.5H47.5V3.5H45.5V4.5H50.5V3.5H48.5V0.5H55.5V3.5H53.5V4.5H58.5V3.5H56.5V0.5H63.5V3.5H61.5V4.5H66.5V3.5H64.5V0.5H71.5V3.5H69.5V4.5H74.5V3.5H72.5V0.5H79.5V3.5H77.5V4.5H82.5V3.5H80.5V0.5H87.5V3.5H85.5V4.5H90.5V3.5H88.5V0.5H95.5V3.5H93.5V4.5H98.5V3.5H96.5V0.5H103.5V3.5H101.5V4.5H106.5V3.5H104.5V0.5H111.5V3.5H109.5V4.5H114.5V3.5H112.5V0.5H119.5V3.5H117.5V4.5H122.5V3.5H120.5V0.5H127.5V3.5H125.5V4.5H130.5V3.5H128.5V0.5H135.5V3.5H133.5V4.5H138.5V3.5H136.5V0.5H143.5V3.5H141.5V4.5H146.5V3.5H144.5V0.5H151.5V3.5H149.5V4.5H154.5V3.5H152.5V0.5H159.5V3.5H157.5V4.5H162.5V3.5H160.5V0.5H167.5V3.5H165.5V4.5H170.5V3.5H168.5V0.5H175.5V3.5H173.5V4.5H178.5V3.5H176.5V0.5H183.5V3.5H181.5V4.5H186.5V3.5H184.5V0.5H191.5V3.5H189.5V4.5H194.5V3.5H192.5V0.5H199.5V3.5H197.5V4.5H202.5V3.5H200.5V0.5H207.5V3.5H205.5V4.5H210.5V3.5H208.5V0.5H215.5V3.5H213.5V4.5H218.5V3.5H216.5V0.5H223.5V3.5H221.5V4.5H226.5V3.5H224.5V0.5H231.5V3.5H229.5V4.5H234.5V3.5H232.5V0.5H239.5V3.5H237.5V4.5H242.5V3.5H240.5V0.5H247.5V3.5H245.5V4.5H250.5V3.5H248.5V0.5H255.5V3.5H253.5V4.5H258.5V3.5H256.5V0.5H260V1.5H257.5Z" fill="#18191F" fill-opacity="0.3"/>
</svg>
