<svg width="560" height="5" viewBox="0 0 560 5" fill="none" xmlns="http://www.w3.org/2000/svg">
<path fill-rule="evenodd" clip-rule="evenodd" d="M559.98 0H559.49V3H558.99V4H556.49V3H558.49V0H551.49V3H553.49V4H548.49V3H550.49V0H543.49V3H545.49V4H540.49V3H542.49V0H535.49V3H537.49V4H532.49V3H534.49V0H527.491V3H529.491V4H524.491V3H526.491V0H515.991V3H517.991V4H512.991V3H514.991V0H507.991V3H509.991V4H504.991V3H506.991V0H499.991V3H501.991V4H496.991V3H498.991V0H491.991V3H493.991V4H488.991V3H490.991V0H483.991V3H485.991V4H480.991V3H482.991V0H475.991V3H477.991V4H472.992V3H474.992V0H467.992V3H469.992V4H464.992V3H466.992V0H459.992V3H461.992V4H456.992V3H458.992V0H451.992V3H453.992V4H448.992V3H450.992V0H443.992V3H445.992V4H440.992V3H442.992V0H435.992V3H437.992V4H432.992V3H434.992V0H427.992V3H429.992V4H424.992V3H426.992V0H419.992V3H421.992V4H416.993V3H418.992V0H411.993V3H413.993V4H408.993V3H410.993V0H403.993V3H405.993V4H400.993V3H402.993V0H395.993V3H397.993V4H392.993V3H394.993V0H387.993V3H389.993V4H384.993V3H386.993V0H379.993V3H381.993V4H376.993V3H378.993V0H371.993V3H373.993V4H368.993V3H370.993V0H363.993V3H365.993V4H360.994V3H362.993V0H355.994V3H357.994V4H352.994V3H354.994V0H347.994V3H349.994V4H344.994V3H346.994V0H339.994V3H341.994V4H336.994V3H338.994V0H331.994V3H333.994V4H328.994V3H330.994V0H323.994V3H325.994V4H320.994V3H322.994V0H315.994V3H317.994V4H312.994V3H314.994V0H307.995V3H309.994V4H304.995V3H306.995V0H299.995V3H301.995V4H296.995V3H298.995V0H291.995V3H293.995V4H288.995V3H290.995V0H283.995V3H285.995V4H280.995V3H282.995V0H275.995V3H277.995V4H272.995V3H274.995V0H267.995V3H269.995V4H264.995V3H266.995V0H256.495V3H258.495V4H253.495V3H255.495V0H248.496V3H250.496V4H245.496V3H247.496V0H240.496V3H242.496V4H237.496V3H239.496V0H232.496V3H234.496V4H229.496V3H231.496V0H224.496V3H226.496V4H221.496V3H223.496V0H216.496V3H218.496V4H213.496V3H215.496V0H208.496V3H210.496V4H205.496V3H207.496V0H200.496V3H202.496V4H197.496V3H199.496V0H192.497V3H194.497V4H189.497V3H191.497V0H184.497V3H186.497V4H181.497V3H183.497V0H176.497V3H178.497V4H173.497V3H175.497V0H168.497V3H170.497V4H165.497V3H167.497V0H160.497V3H162.497V4H157.497V3H159.497V0H152.497V3H154.497V4H149.497V3H151.497V0H144.497V3H146.497V4H141.497V3H143.497V0H136.498V3H138.498V4H133.498V3H135.498V0H128.498V3H130.498V4H125.498V3H127.498V0H120.498V3H122.498V4H117.498V3H119.498V0H112.498V3H114.498V4H109.498V3H111.498V0H104.498V3H106.498V4H101.498V3H103.498V0H96.4983V3H98.4982V4H93.4983V3H95.4983V0H88.4984V3H90.4984V4H85.4985V3H87.4984V0H80.4986V3H82.4985V4H77.4986V3H79.4986V0H72.4987V3H74.4987V4H69.4988V3H71.4987V0H64.4988V3H66.4988V4H61.4989V3H63.4989V0H56.499V3H58.499V4H53.499V3H55.499V0H48.4991V3H50.4991V4H45.4992V3H47.4991V0H40.4993V3H42.4992V4H37.4993V3H39.4993V0H32.4994V3H34.4994V4H29.4995V3H31.4994V0H24.4996V3H26.4995V4H21.4996V3H23.4996V0H16.4997V3H18.4997V4H13.4998V3H15.4997V0H8.49985V3H10.4998V4H5.4999V3H7.49987V0H0.499991V3H2.49996V4H0V5H3.49994V2H1.49997V1H6.49988V2H4.49992V5H11.4998V2H9.49983V1H14.4997V2H12.4998V5H19.4997V2H17.4997V1H22.4996V2H20.4996V5H27.4995V2H25.4995V1H30.4995V2H28.4995V5H35.4994V2H33.4994V1H38.4993V2H36.4993V5H43.4992V2H41.4993V1H46.4992V2H44.4992V5H51.4991V2H49.4991V1H54.499V2H52.4991V5H59.4989V2H57.499V1H62.4989V2H60.4989V5H67.4988V2H65.4988V1H70.4987V2H68.4988V5H75.4986V2H73.4987V1H78.4986V2H76.4986V5H83.4985V2H81.4985V1H86.4985V2H84.4985V5H91.4984V2H89.4984V1H94.4983V2H92.4983V5H99.4982V2H97.4983V1H102.498V2H100.498V5H107.498V2H105.498V1H110.498V2H108.498V5H115.498V2H113.498V1H118.498V2H116.498V5H123.498V2H121.498V1H126.498V2H124.498V5H131.498V2H129.498V1H134.498V2H132.498V5H139.498V2H137.498V1H142.497V2H140.497V5H147.497V2H145.497V1H150.497V2H148.497V5H155.497V2H153.497V1H158.497V2H156.497V5H163.497V2H161.497V1H166.497V2H164.497V5H171.497V2H169.497V1H174.497V2H172.497V5H179.497V2H177.497V1H182.497V2H180.497V5H187.497V2H185.497V1H190.497V2H188.497V5H195.497V2H193.497V1H198.496V2H196.496V5H203.496V2H201.496V1H206.496V2H204.496V5H211.496V2H209.496V1H214.496V2H212.496V5H219.496V2H217.496V1H222.496V2H220.496V5H227.496V2H225.496V1H230.496V2H228.496V5H235.496V2H233.496V1H238.496V2H236.496V5H243.496V2H241.496V1H246.496V2H244.496V5H251.495V2H249.496V1H254.495V2H252.495V5H262.995V2H260.995V1H265.995V2H263.995V5H270.995V2H268.995V1H273.995V2H271.995V5H278.995V2H276.995V1H281.995V2H279.995V5H286.995V2H284.995V1H289.995V2H287.995V5H294.995V2H292.995V1H297.995V2H295.995V5H302.995V2H300.995V1H305.995V2H303.995V5H310.994V2H308.994V1H313.994V2H311.994V5H318.994V2H316.994V1H321.994V2H319.994V5H326.994V2H324.994V1H329.994V2H327.994V5H334.994V2H332.994V1H337.994V2H335.994V5H342.994V2H340.994V1H345.994V2H343.994V5H350.994V2H348.994V1H353.994V2H351.994V5H358.994V2H356.994V1H361.994V2H359.994V5H366.993V2H364.993V1H369.993V2H367.993V5H374.993V2H372.993V1H377.993V2H375.993V5H382.993V2H380.993V1H385.993V2H383.993V5H390.993V2H388.993V1H393.993V2H391.993V5H398.993V2H396.993V1H401.993V2H399.993V5H406.993V2H404.993V1H409.993V2H407.993V5H414.993V2H412.993V1H417.993V2H415.993V5H422.992V2H420.992V1H425.992V2H423.992V5H430.992V2H428.992V1H433.992V2H431.992V5H438.992V2H436.992V1H441.992V2H439.992V5H446.992V2H444.992V1H449.992V2H447.992V5H454.992V2H452.992V1H457.992V2H455.992V5H462.992V2H460.992V1H465.992V2H463.992V5H470.992V2H468.992V1H473.992V2H471.992V5H478.991V2H476.991V1H481.991V2H479.991V5H486.991V2H484.991V1H489.991V2H487.991V5H494.991V2H492.991V1H497.991V2H495.991V5H502.991V2H500.991V1H505.991V2H503.991V5H510.991V2H508.991V1H513.991V2H511.991V5H522.491V2H520.491V1H525.491V2H523.491V5H530.491V2H528.491V1H533.49V2H531.49V5H538.49V2H536.49V1H541.49V2H539.49V5H546.49V2H544.49V1H549.49V2H547.49V5H554.49V2H552.49V1H557.49V2H555.49V5H559.99V2V1H560L559.98 0ZM261.995 3V4H259.495V2H257.495V1H259.995V3H261.995ZM521.491 3V4H518.991V2H516.991V1H519.491V3H521.491Z" fill="#18191F" fill-opacity="0.3"/>
</svg>
