<svg
      width="1160"
      height="5"
      viewBox="0 0 1160 5"
      fill="none"
      xmlns="http://www.w3.org/2000/svg">
      <path
        fill-rule="evenodd"
        clip-rule="evenodd"
        d="M1159.98 0H1157.99V3H1159.99V4H1154.99V3H1156.99V0H1149.99V3H1151.99V4H1146.99V3H1148.99V0H1141.99V3H1143.99V4H1138.99V3H1140.99V0H1133.99V3H1135.99V4H1130.99V3H1132.99V0H1125.99V3H1127.99V4H1122.99V3H1124.99V0H1117.99V3H1119.99V4H1114.99V3H1116.99V0H1109.99V3H1111.99V4H1107.49V3H1109.49V0H1102.49V3H1104.49V4H1099.49V3H1101.49V0H1094.49V3H1096.49V4H1091.49V3H1093.49V0H1086.49V3H1088.49V4H1083.49V3H1085.49V0H1078.49V3H1080.49V4H1075.49V3H1077.49V0H1070.49V3H1072.49V4H1067.49V3H1069.49V0H1062.49V3H1064.49V4H1059.49V3H1061.49V0H1054.49V3H1056.49V4H1051.49V3H1053.49V0H1046.49V3H1048.49V4H1043.49V3H1045.49V0H1034.99V3H1036.99V4H1031.99V3H1033.99V0H1026.99V3H1028.99V4H1023.99V3H1025.99V0H1018.99V3H1020.99V4H1015.99V3H1017.99V0H1010.99V3H1012.99V4H1007.99V3H1009.99V0H1002.99V3H1004.99V4H999.991V3H1001.99V0H994.991V3H996.991V4H991.991V3H993.991V0H986.991V3H988.991V4H983.992V3H985.991V0H978.992V3H980.992V4H975.992V3H977.992V0H970.992V3H972.992V4H967.992V3H969.992V0H962.992V3H964.992V4H959.992V3H961.992V0H954.992V3H956.992V4H951.992V3H953.992V0H946.992V3H948.992V4H943.992V3H945.992V0H938.992V3H940.992V4H935.992V3H937.992V0H930.992V3H932.992V4H927.992V3H929.992V0H922.992V3H924.992V4H919.992V3H921.992V0H914.992V3H916.992V4H911.992V3H913.992V0H906.992V3H908.992V4H903.992V3H905.992V0H898.992V3H900.992V4H895.992V3H897.992V0H890.992V3H892.992V4H887.992V3H889.992V0H882.992V3H884.992V4H879.992V3H881.992V0H874.992V3H876.992V4H871.992V3H873.992V0H866.992V3H868.992V4H863.993V3H865.992V0H858.993V3H860.993V4H855.993V3H857.993V0H850.993V3H852.993V4H847.993V3H849.993V0H842.993V3H844.993V4H839.993V3H841.993V0H834.993V3H836.993V4H831.993V3H833.993V0H826.993V3H828.993V4H823.993V3H825.993V0H818.993V3H820.993V4H815.993V3H817.993V0H810.993V3H812.993V4H807.993V3H809.993V0H802.993V3H804.993V4H799.993V3H801.993V0H794.993V3H796.993V4H791.993V3H793.993V0H786.993V3H788.993V4H783.993V3H785.993V0H775.493V3H777.493V4H772.493V3H774.493V0H767.493V3H769.493V4H764.493V3H766.493V0H759.493V3H761.493V4H756.493V3H758.493V0H751.494V3H753.493V4H748.494V3H750.494V0H743.494V3H745.494V4H740.494V3H742.494V0H735.494V3H737.494V4H732.494V3H734.494V0H727.494V3H729.494V4H724.494V3H726.494V0H719.494V3H721.494V4H716.494V3H718.494V0H711.494V3H713.494V4H708.494V3H710.494V0H703.494V3H705.494V4H700.494V3H702.494V0H695.494V3H697.494V4H692.494V3H694.494V0H687.494V3H689.494V4H684.494V3H686.494V0H679.494V3H681.494V4H676.494V3H678.494V0H671.494V3H673.494V4H668.494V3H670.494V0H663.494V3H665.494V4H660.494V3H662.494V0H655.494V3H657.494V4H652.494V3H654.494V0H647.494V3H649.494V4H644.494V3H646.494V0H639.494V3H641.494V4H636.495V3H638.495V0H631.495V3H633.495V4H628.495V3H630.495V0H623.495V3H625.495V4H620.495V3H622.495V0H615.495V3H617.495V4H612.495V3H614.495V0H607.495V3H609.495V4H604.495V3H606.495V0H599.495V3H601.495V4H596.495V3H598.495V0H591.495V3H593.495V4H588.495V3H590.495V0H583.495V3H585.495V4H580.495V3H582.495V0H575.495V3H577.495V4H572.495V3H574.495V0H567.495V3H569.495V4H564.495V3H566.495V0H559.495V3H561.495V4H556.495V3H558.495V0H551.495V3H553.495V4H548.495V3H550.495V0H543.495V3H545.495V4H540.495V3H542.495V0H535.495V3H537.495V4H532.495V3H534.495V0H527.495V3H529.495V4H524.495V3H526.495V0H515.996V3H517.996V4H512.996V3H514.996V0H507.996V3H509.996V4H504.996V3H506.996V0H499.996V3H501.996V4H496.996V3H498.996V0H491.996V3H493.996V4H488.996V3H490.996V0H483.996V3H485.996V4H480.996V3H482.996V0H475.996V3H477.996V4H472.996V3H474.996V0H467.996V3H469.996V4H464.996V3H466.996V0H459.996V3H461.996V4H456.996V3H458.996V0H451.996V3H453.996V4H448.996V3H450.996V0H443.996V3H445.996V4H440.996V3H442.996V0H435.996V3H437.996V4H432.996V3H434.996V0H427.996V3H429.996V4H424.996V3H426.996V0H419.996V3H421.996V4H416.996V3H418.996V0H411.996V3H413.996V4H408.996V3H410.996V0H403.997V3H405.996V4H400.997V3H402.997V0H395.997V3H397.997V4H392.997V3H394.997V0H387.997V3H389.997V4H384.997V3H386.997V0H379.997V3H381.997V4H376.997V3H378.997V0H371.997V3H373.997V4H368.997V3H370.997V0H363.997V3H365.997V4H360.997V3H362.997V0H355.997V3H357.997V4H352.997V3H354.997V0H347.997V3H349.997V4H344.997V3H346.997V0H339.997V3H341.997V4H336.997V3H338.997V0H331.997V3H333.997V4H328.997V3H330.997V0H323.997V3H325.997V4H320.997V3H322.997V0H315.997V3H317.997V4H312.997V3H314.997V0H307.997V3H309.997V4H304.997V3H306.997V0H299.997V3H301.997V4H296.997V3H298.997V0H291.997V3H293.997V4H288.997V3H290.997V0H283.998V3H285.998V4H280.998V3H282.998V0H275.998V3H277.998V4H272.998V3H274.998V0H267.998V3H269.998V4H264.998V3H266.998V0H256.498V3H258.498V4H253.498V3H255.498V0H248.498V3H250.498V4H245.498V3H247.498V0H240.498V3H242.498V4H237.498V3H239.498V0H232.498V3H234.498V4H229.498V3H231.498V0H224.498V3H226.498V4H221.498V3H223.498V0H216.498V3H218.498V4H213.498V3H215.498V0H208.498V3H210.498V4H205.498V3H207.498V0H200.498V3H202.498V4H197.498V3H199.498V0H192.498V3H194.498V4H189.498V3H191.498V0H184.498V3H186.498V4H181.498V3H183.498V0H176.498V3H178.498V4H173.499V3H175.498V0H168.499V3H170.499V4H165.499V3H167.499V0H160.499V3H162.499V4H157.499V3H159.499V0H152.499V3H154.499V4H149.499V3H151.499V0H144.499V3H146.499V4H141.499V3H143.499V0H136.499V3H138.499V4H133.499V3H135.499V0H128.499V3H130.499V4H125.499V3H127.499V0H120.499V3H122.499V4H117.499V3H119.499V0H112.499V3H114.499V4H109.499V3H111.499V0H104.499V3H106.499V4H101.499V3H103.499V0H96.4992V3H98.4991V4H93.4992V3H95.4992V0H88.4992V3H90.4992V4H85.4993V3H87.4992V0H80.4993V3H82.4993V4H77.4993V3H79.4993V0H72.4994V3H74.4994V4H69.4994V3H71.4994V0H64.4994V3H66.4994V4H61.4995V3H63.4995V0H56.4995V3H58.4995V4H53.4995V3H55.4995V0H48.4996V3H50.4996V4H45.4996V3H47.4996V0H40.4996V3H42.4996V4H37.4997V3H39.4997V0H32.4997V3H34.4997V4H29.4997V3H31.4997V0H24.4998V3H26.4998V4H21.4998V3H23.4998V0H16.4999V3H18.4998V4H13.4999V3H15.4999V0H8.49993V3H10.4999V4H5.49995V3H7.49994V0H0.499996V3H2.49998V4H0V5H3.49997V2H1.49999V1H6.49994V2H4.49996V5H11.4999V2H9.49992V1H14.4999V2H12.4999V5H19.4998V2H17.4998V1H22.4998V2H20.4998V5H27.4998V2H25.4998V1H30.4997V2H28.4998V5H35.4997V2H33.4997V1H38.4997V2H36.4997V5H43.4996V2H41.4996V1H46.4996V2H44.4996V5H51.4996V2H49.4996V1H54.4995V2H52.4995V5H59.4995V2H57.4995V1H62.4995V2H60.4995V5H67.4994V2H65.4994V1H70.4994V2H68.4994V5H75.4993V2H73.4994V1H78.4993V2H76.4993V5H83.4993V2H81.4993V1H86.4993V2H84.4993V5H91.4992V2H89.4992V1H94.4992V2H92.4992V5H99.4991V2H97.4992V1H102.499V2H100.499V5H107.499V2H105.499V1H110.499V2H108.499V5H115.499V2H113.499V1H118.499V2H116.499V5H123.499V2H121.499V1H126.499V2H124.499V5H131.499V2H129.499V1H134.499V2H132.499V5H139.499V2H137.499V1H142.499V2H140.499V5H147.499V2H145.499V1H150.499V2H148.499V5H155.499V2H153.499V1H158.499V2H156.499V5H163.499V2H161.499V1H166.499V2H164.499V5H171.499V2H169.499V1H174.498V2H172.499V5H179.498V2H177.498V1H182.498V2H180.498V5H187.498V2H185.498V1H190.498V2H188.498V5H195.498V2H193.498V1H198.498V2H196.498V5H203.498V2H201.498V1H206.498V2H204.498V5H211.498V2H209.498V1H214.498V2H212.498V5H219.498V2H217.498V1H222.498V2H220.498V5H227.498V2H225.498V1H230.498V2H228.498V5H235.498V2H233.498V1H238.498V2H236.498V5H243.498V2H241.498V1H246.498V2H244.498V5H251.498V2H249.498V1H254.498V2H252.498V5H262.998V2H260.998V1H265.998V2H263.998V5H270.998V2H268.998V1H273.998V2H271.998V5H278.998V2H276.998V1H281.998V2H279.998V5H286.998V2H284.998V1H289.997V2H287.997V5H294.997V2H292.997V1H297.997V2H295.997V5H302.997V2H300.997V1H305.997V2H303.997V5H310.997V2H308.997V1H313.997V2H311.997V5H318.997V2H316.997V1H321.997V2H319.997V5H326.997V2H324.997V1H329.997V2H327.997V5H334.997V2H332.997V1H337.997V2H335.997V5H342.997V2H340.997V1H345.997V2H343.997V5H350.997V2H348.997V1H353.997V2H351.997V5H358.997V2H356.997V1H361.997V2H359.997V5H366.997V2H364.997V1H369.997V2H367.997V5H374.997V2H372.997V1H377.997V2H375.997V5H382.997V2H380.997V1H385.997V2H383.997V5H390.997V2H388.997V1H393.997V2H391.997V5H398.997V2H396.997V1H401.997V2H399.997V5H406.996V2H404.996V1H409.996V2H407.996V5H414.996V2H412.996V1H417.996V2H415.996V5H422.996V2H420.996V1H425.996V2H423.996V5H430.996V2H428.996V1H433.996V2H431.996V5H438.996V2H436.996V1H441.996V2H439.996V5H446.996V2H444.996V1H449.996V2H447.996V5H454.996V2H452.996V1H457.996V2H455.996V5H462.996V2H460.996V1H465.996V2H463.996V5H470.996V2H468.996V1H473.996V2H471.996V5H478.996V2H476.996V1H481.996V2H479.996V5H486.996V2H484.996V1H489.996V2H487.996V5H494.996V2H492.996V1H497.996V2H495.996V5H502.996V2H500.996V1H505.996V2H503.996V5H510.996V2H508.996V1H513.996V2H511.996V5H522.495V2H520.495V1H525.495V2H523.495V5H530.495V2H528.495V1H533.495V2H531.495V5H538.495V2H536.495V1H541.495V2H539.495V5H546.495V2H544.495V1H549.495V2H547.495V5H554.495V2H552.495V1H557.495V2H555.495V5H562.495V2H560.495V1H565.495V2H563.495V5H570.495V2H568.495V1H573.495V2H571.495V5H578.495V2H576.495V1H581.495V2H579.495V5H586.495V2H584.495V1H589.495V2H587.495V5H594.495V2H592.495V1H597.495V2H595.495V5H602.495V2H600.495V1H605.495V2H603.495V5H610.495V2H608.495V1H613.495V2H611.495V5H618.495V2H616.495V1H621.495V2H619.495V5H626.495V2H624.495V1H629.495V2H627.495V5H634.495V2H632.495V1H637.495V2H635.495V5H642.494V2H640.494V1H645.494V2H643.494V5H650.494V2H648.494V1H653.494V2H651.494V5H658.494V2H656.494V1H661.494V2H659.494V5H666.494V2H664.494V1H669.494V2H667.494V5H674.494V2H672.494V1H677.494V2H675.494V5H682.494V2H680.494V1H685.494V2H683.494V5H690.494V2H688.494V1H693.494V2H691.494V5H698.494V2H696.494V1H701.494V2H699.494V5H706.494V2H704.494V1H709.494V2H707.494V5H714.494V2H712.494V1H717.494V2H715.494V5H722.494V2H720.494V1H725.494V2H723.494V5H730.494V2H728.494V1H733.494V2H731.494V5H738.494V2H736.494V1H741.494V2H739.494V5H746.494V2H744.494V1H749.494V2H747.494V5H754.493V2H752.493V1H757.493V2H755.493V5H762.493V2H760.493V1H765.493V2H763.493V5H770.493V2H768.493V1H773.493V2H771.493V5H781.993V2H779.993V1H784.993V2H782.993V5H789.993V2H787.993V1H792.993V2H790.993V5H797.993V2H795.993V1H800.993V2H798.993V5H805.993V2H803.993V1H808.993V2H806.993V5H813.993V2H811.993V1H816.993V2H814.993V5H821.993V2H819.993V1H824.993V2H822.993V5H829.993V2H827.993V1H832.993V2H830.993V5H837.993V2H835.993V1H840.993V2H838.993V5H845.993V2H843.993V1H848.993V2H846.993V5H853.993V2H851.993V1H856.993V2H854.993V5H861.993V2H859.993V1H864.993V2H862.993V5H869.992V2H867.992V1H872.992V2H870.992V5H877.992V2H875.992V1H880.992V2H878.992V5H885.992V2H883.992V1H888.992V2H886.992V5H893.992V2H891.992V1H896.992V2H894.992V5H901.992V2H899.992V1H904.992V2H902.992V5H909.992V2H907.992V1H912.992V2H910.992V5H917.992V2H915.992V1H920.992V2H918.992V5H925.992V2H923.992V1H928.992V2H926.992V5H933.992V2H931.992V1H936.992V2H934.992V5H941.992V2H939.992V1H944.992V2H942.992V5H949.992V2H947.992V1H952.992V2H950.992V5H957.992V2H955.992V1H960.992V2H958.992V5H965.992V2H963.992V1H968.992V2H966.992V5H973.992V2H971.992V1H976.992V2H974.992V5H981.992V2H979.992V1H984.992V2H982.992V5H989.991V2H987.991V1H992.991V2H990.991V5H997.991V2H995.991V1H1000.99V2H998.991V5H1005.99V2H1003.99V1H1008.99V2H1006.99V5H1013.99V2H1011.99V1H1016.99V2H1014.99V5H1021.99V2H1019.99V1H1024.99V2H1022.99V5H1029.99V2H1027.99V1H1032.99V2H1030.99V5H1041.49V2H1039.49V1H1044.49V2H1042.49V5H1049.49V2H1047.49V1H1052.49V2H1050.49V5H1057.49V2H1055.49V1H1060.49V2H1058.49V5H1065.49V2H1063.49V1H1068.49V2H1066.49V5H1073.49V2H1071.49V1H1076.49V2H1074.49V5H1081.49V2H1079.49V1H1084.49V2H1082.49V5H1089.49V2H1087.49V1H1092.49V2H1090.49V5H1097.49V2H1095.49V1H1100.49V2H1098.49V5H1105.49V2H1103.49V1H1108.49V2H1106.49V5H1112.99V2H1110.99V1H1115.99V2H1113.99V5H1120.99V2H1118.99V1H1123.99V2H1121.99V5H1128.99V2H1126.99V1H1131.99V2H1129.99V5H1136.99V2H1134.99V1H1139.99V2H1137.99V5H1144.99V2H1142.99V1H1147.99V2H1145.99V5H1152.99V2H1150.99V1H1155.99V2H1153.99V5H1160V2H1158.99V1H1159.99L1159.98 0ZM261.998 3V4H259.498V2H257.498V1H259.998V3H261.998ZM521.495 3V4H518.996V2H516.996V1H519.495V3H521.495ZM780.993 3V4H778.493V2H776.493V1H778.993V3H780.993ZM1040.49 3V4H1037.99V2H1035.99V1H1038.49V3H1040.49Z"
        fill="#18191F"
        fill-opacity="0.3" />
    </svg>