<svg width="260" height="43" viewBox="0 0 260 43" fill="none" xmlns="http://www.w3.org/2000/svg">
<path d="M58.7461 29.9789L60.4936 26.3223C63.0871 27.5234 65.9129 28.1639 68.7758 28.1639C72.4196 28.1639 74.2508 27.2743 74.2508 25.7886C74.2508 23.8046 71.8619 23.5021 68.8595 23.1907C64.7788 22.7459 59.2945 22.3011 59.2945 17.2745C59.2945 13.2888 63.5518 10.8867 68.971 10.8867C72.0943 10.8867 75.3291 11.5006 78.0062 12.5593L76.2865 16.1891C73.9255 15.2639 71.3879 14.739 68.971 14.739C65.7641 14.739 63.6355 15.2994 63.6355 17.2745C63.6355 19.0004 66.4334 19.2317 68.8781 19.4809C73.2748 19.899 78.6104 20.6819 78.6104 25.7886C78.6104 29.7475 74.2137 32.203 68.7573 32.203C65.1878 32.2119 61.7764 31.4557 58.7461 29.9789Z" fill="#88888A"/>
<path d="M81.2344 22.9242V11.2607H85.4638V22.9242C85.4638 25.7978 87.9364 28.1732 90.976 28.1732C94.0063 28.1732 96.4882 25.7978 96.4882 22.9242V11.2607H100.718V22.9242C100.718 28.0576 96.3487 32.2123 90.9853 32.2123C85.6032 32.2123 81.2344 28.0576 81.2344 22.9242Z" fill="#88888A"/>
<path d="M122.634 18.8229C122.634 22.9776 119.139 26.296 114.761 26.296H109.276V31.9009H105.047V13.3248C105.047 12.2127 106.041 11.2607 107.231 11.2607H114.751C119.129 11.2607 122.634 14.6593 122.634 18.8229ZM118.404 18.8229C118.404 16.9012 116.768 15.3087 114.761 15.3087H109.276V22.257H114.761C116.806 22.2481 118.404 20.7178 118.404 18.8229Z" fill="#88888A"/>
<path d="M142.524 18.8229C142.524 22.9776 139.029 26.296 134.651 26.296H129.167V31.9009H124.938V13.3248C124.938 12.2127 125.932 11.2607 127.122 11.2607H134.642C139.02 11.2607 142.524 14.6593 142.524 18.8229ZM138.295 18.8229C138.295 16.9012 136.659 15.3087 134.651 15.3087H129.167V22.257H134.651C136.687 22.2481 138.295 20.7178 138.295 18.8229Z" fill="#88888A"/>
<path d="M160.957 27.8618V31.9098H146.735C145.536 31.9098 144.551 30.9579 144.551 29.8458V11.2607H148.78V27.8618H160.957Z" fill="#88888A"/>
<path d="M165.02 25.3174L156.273 11.2607H161.293L167.149 20.7712L172.977 11.2607H177.988L169.25 25.3174V31.9009H165.02V25.3174Z" fill="#88888A"/>
<path d="M201.254 18.3513C201.254 22.1769 198.019 25.1306 193.994 25.1306H186.79V31.9098H184.605V12.4618C184.605 11.7945 185.163 11.2607 185.888 11.2607H193.994C198.019 11.2607 201.254 14.4991 201.254 18.3513ZM199.069 18.3513C199.069 15.6201 196.764 13.3603 193.994 13.3603H186.79V23.0399H193.994C196.857 23.031 199.069 20.967 199.069 18.3513Z" fill="#88888A"/>
<path d="M219.219 29.8102V31.9009H204.56C203.826 31.9009 203.277 31.3671 203.277 30.6998V11.2607H205.462V29.8102H219.219Z" fill="#88888A"/>
<path d="M220.078 23.2267V11.2607H222.263V23.2267C222.263 26.8832 225.414 29.8636 229.253 29.8636C233.101 29.8636 236.215 26.8743 236.215 23.2267V11.2607H238.399V23.2267C238.399 28.0842 234.291 31.9543 229.243 31.9543C224.187 31.9632 220.078 28.0842 220.078 23.2267Z" fill="#88888A"/>
<path d="M241.02 30.176L241.949 28.2543C244.487 29.5088 247.164 30.0959 250.138 30.0959C254.86 30.0959 257.779 28.4501 257.779 26.1636C257.779 23.0676 254.219 22.5961 250.408 22.2046C246.151 21.7865 241.317 21.4484 241.317 16.8756C241.317 13.219 245.221 10.9326 250.761 10.9326C253.587 10.9326 256.534 11.5198 258.978 12.5251L258.132 14.4201C255.892 13.4948 253.299 12.9699 250.761 12.9699C246.392 12.9699 243.566 14.34 243.566 16.8756C243.566 19.7225 247.062 19.8915 250.529 20.2207C255.018 20.6388 260.001 21.3328 260.001 26.1636C260.001 29.7312 255.948 32.1866 250.148 32.1866C246.848 32.1866 243.873 31.5461 241.02 30.176Z" fill="#88888A"/>
<path d="M2.95312 42.2503L4.88657 29.0922H23.9422C27.4187 29.0922 30.6349 26.3877 31.1275 23.0603C31.6109 19.733 29.1848 17.0284 25.7176 17.0284H13.9868C11.886 17.0284 10.4266 15.4003 10.7241 13.3897C11.0215 11.3791 12.9643 9.75098 15.0558 9.75098H26.7773C34.446 9.75098 39.8002 15.7206 38.7219 23.0514C37.6436 30.3822 30.5326 36.3519 22.8732 36.3519H11.4212L2.95312 42.2503Z" fill="#88888A"/>
<path d="M24.0829 26.6009H12.0825C4.42309 26.6009 -0.940367 20.6313 0.137901 13.3004C1.21617 5.96963 8.32717 0 15.9866 0H33.9639C36.0647 0 37.5241 1.62808 37.2266 3.63872C36.9292 5.64935 34.9957 7.27744 32.895 7.27744H14.9176C11.4411 7.27744 8.22492 9.98201 7.73226 13.3093C7.2489 16.6367 9.675 19.3413 13.1422 19.3413H25.1426C27.2433 19.3413 28.7027 20.9693 28.4053 22.98C28.1171 24.9817 26.1744 26.6009 24.0829 26.6009Z" fill="#88888A"/>
</svg>
