<svg width="160" height="26" viewBox="0 0 160 26" fill="none" xmlns="http://www.w3.org/2000/svg">
<path d="M36.1484 18.4487L37.2238 16.1985C38.8198 16.9376 40.5587 17.3318 42.3206 17.3318C44.5629 17.3318 45.6898 16.7843 45.6898 15.87C45.6898 14.6492 44.2197 14.463 42.3721 14.2714C39.8609 13.9977 36.4859 13.7239 36.4859 10.6306C36.4859 8.17791 39.1058 6.69971 42.4407 6.69971C44.3627 6.69971 46.3534 7.07747 48.0008 7.72898L46.9425 9.96271C45.4896 9.39332 43.928 9.07031 42.4407 9.07031C40.4672 9.07031 39.1573 9.41522 39.1573 10.6306C39.1573 11.6928 40.8791 11.8351 42.3835 11.9884C45.0892 12.2457 48.3726 12.7275 48.3726 15.87C48.3726 18.3063 45.6669 19.8174 42.3091 19.8174C40.1126 19.8229 38.0132 19.3575 36.1484 18.4487Z" fill="white"/>
<path d="M49.9844 14.1072V6.92969H52.5871V14.1072C52.5871 15.8756 54.1087 17.3373 55.9792 17.3373C57.844 17.3373 59.3713 15.8756 59.3713 14.1072V6.92969H61.974V14.1072C61.974 17.2662 59.2855 19.8229 55.9849 19.8229C52.6729 19.8229 49.9844 17.2662 49.9844 14.1072Z" fill="white"/>
<path d="M75.4633 11.5833C75.4633 14.14 73.3125 16.1822 70.6183 16.1822H67.2433V19.6313H64.6406V8.19985C64.6406 7.51549 65.2527 6.92969 65.9849 6.92969H70.6126C73.3068 6.92969 75.4633 9.02107 75.4633 11.5833ZM72.8606 11.5833C72.8606 10.4007 71.8539 9.42074 70.6183 9.42074H67.2433V13.6966H70.6183C71.8767 13.6911 72.8606 12.7494 72.8606 11.5833Z" fill="white"/>
<path d="M87.7055 11.5833C87.7055 14.14 85.5547 16.1822 82.8605 16.1822H79.4855V19.6313H76.8828V8.19985C76.8828 7.51549 77.4949 6.92969 78.2271 6.92969H82.8548C85.549 6.92969 87.7055 9.02107 87.7055 11.5833ZM85.1028 11.5833C85.1028 10.4007 84.096 9.42074 82.8605 9.42074H79.4855V13.6966H82.8605C84.1132 13.6911 85.1028 12.7494 85.1028 11.5833Z" fill="white"/>
<path d="M99.0494 17.1457V19.6368H90.2974C89.5595 19.6368 88.9531 19.051 88.9531 18.3666V6.92969H91.5558V17.1457H99.0494Z" fill="white"/>
<path d="M101.547 15.5799L96.1641 6.92969H99.253L102.857 12.7823L106.443 6.92969H109.527L104.15 15.5799V19.6313H101.547V15.5799Z" fill="white"/>
<path d="M123.847 11.2931C123.847 13.6473 121.856 15.465 119.379 15.465H114.946V19.6368H113.602V7.66879C113.602 7.25818 113.945 6.92969 114.391 6.92969H119.379C121.856 6.92969 123.847 8.92253 123.847 11.2931ZM122.502 11.2931C122.502 9.61235 121.084 8.22175 119.379 8.22175H114.946V14.1784H119.379C121.141 14.1729 122.502 12.9027 122.502 11.2931Z" fill="white"/>
<path d="M134.904 18.3447V19.6313H125.883C125.431 19.6313 125.094 19.3028 125.094 18.8922V6.92969H126.438V18.3447H134.904Z" fill="white"/>
<path d="M135.43 14.2933V6.92969H136.774V14.2933C136.774 16.5435 138.713 18.3776 141.076 18.3776C143.444 18.3776 145.36 16.538 145.36 14.2933V6.92969H146.704V14.2933C146.704 17.2826 144.176 19.6641 141.07 19.6641C137.958 19.6696 135.43 17.2826 135.43 14.2933Z" fill="white"/>
<path d="M148.316 18.5701L148.888 17.3875C150.45 18.1595 152.097 18.5208 153.928 18.5208C156.834 18.5208 158.63 17.508 158.63 16.1009C158.63 14.1957 156.439 13.9055 154.094 13.6646C151.474 13.4073 148.499 13.1993 148.499 10.3852C148.499 8.13506 150.902 6.72803 154.311 6.72803C156.05 6.72803 157.863 7.08937 159.368 7.70802L158.847 8.87416C157.469 8.30478 155.873 7.98176 154.311 7.98176C151.623 7.98176 149.884 8.82489 149.884 10.3852C149.884 12.1372 152.035 12.2412 154.168 12.4438C156.931 12.7011 159.997 13.1281 159.997 16.1009C159.997 18.2963 157.503 19.8074 153.934 19.8074C151.903 19.8074 150.073 19.4132 148.316 18.5701Z" fill="white"/>
<path d="M1.82031 26.0001L3.01012 17.9028H14.7366C16.876 17.9028 18.8552 16.2384 19.1584 14.1908C19.4558 12.1432 17.9628 10.4789 15.8292 10.4789H8.61024C7.31747 10.4789 6.41939 9.47701 6.60244 8.23969C6.78549 7.00238 7.98102 6.00049 9.26807 6.00049H16.4813C21.2005 6.00049 24.4954 9.6741 23.8318 14.1854C23.1683 18.6966 18.7923 22.3702 14.0788 22.3702H7.03146L1.82031 26.0001Z" fill="white"/>
<path d="M14.8202 16.3698H7.43538C2.7219 16.3698 -0.578687 12.6961 0.0848622 8.18488C0.748411 3.67361 5.1244 0 9.83789 0H20.9008C22.1936 0 23.0917 1.00189 22.9087 2.23921C22.7256 3.47652 21.5358 4.47841 20.243 4.47841H9.18006C7.04068 4.47841 5.06148 6.14276 4.75831 8.19035C4.46085 10.2379 5.95384 11.9023 8.08749 11.9023H15.4723C16.7651 11.9023 17.6632 12.9042 17.4801 14.1415C17.3028 15.3733 16.1073 16.3698 14.8202 16.3698Z" fill="white"/>
</svg>
