<svg width="461" height="411" viewBox="0 0 461 411" fill="none" xmlns="http://www.w3.org/2000/svg">
<g clip-path="url(#clip0)">
<path d="M235.078 88.3583C235.063 84.2732 229.294 80.9522 222.215 80.9366C215.136 80.921 209.414 84.2264 209.445 88.3115C209.461 92.0535 214.294 95.1407 220.531 95.6552L220.547 97.729C219.362 97.9161 218.489 98.5241 218.489 99.2725L218.52 106.351C218.52 107.24 219.767 107.957 221.311 107.957H223.416C224.944 107.957 226.191 107.24 226.191 106.351L226.16 99.2725C226.16 98.5241 225.271 97.9161 224.086 97.729L224.071 95.6552C230.307 95.1719 235.094 92.1003 235.078 88.3583Z" fill="white"/>
<path d="M390.231 377.681L167.674 249.111C159.052 244.137 152.066 230.79 152.066 219.299V16.8551C152.066 5.36393 159.052 0.0938952 167.674 5.06768L390.231 133.622C398.854 138.596 405.839 151.942 405.839 163.434V365.893C405.839 377.384 398.854 382.654 390.231 377.681Z" fill="#D1EBFF"/>
<path d="M396.406 130.441L173.849 1.87122C170.434 -0.093348 167.285 -0.467551 164.728 0.530324C164.4 0.655059 158.304 3.8046 157.992 3.97611C157.977 3.97611 157.977 3.9917 157.977 3.9917C160.627 2.69758 164.011 2.94705 167.675 5.06754L390.232 133.622C398.854 138.596 405.839 151.942 405.839 163.434V365.893C405.839 373.065 403.111 377.805 398.979 379.162C399.322 379.177 399.743 379.053 400.351 378.694C400.554 378.585 407.009 375.077 407.212 374.952C410.174 372.878 412.014 368.606 412.014 362.712V160.253C412.014 148.762 405.029 135.415 396.406 130.441Z" fill="#4685EB"/>
<path d="M394.66 131.283L172.103 2.71302C168.688 0.748449 165.539 0.374245 162.966 1.37212C162.638 1.49686 158.288 3.80444 157.977 3.97595C157.961 3.97595 157.961 3.99154 157.961 3.99154C160.612 2.69742 163.995 2.94689 167.659 5.06738L390.232 133.622L394.66 131.283Z" fill="#4685EB"/>
<path d="M390.979 133.248L168.437 4.6936C164.898 2.65108 161.655 2.37042 159.035 3.49303C161.265 3.13442 163.837 3.68014 166.566 5.25491L389.123 133.825C397.746 138.799 404.731 152.145 404.731 163.636V366.096C404.731 372.878 402.283 377.462 398.525 379.084C403.343 378.32 406.602 373.377 406.602 365.535V163.06C406.586 151.568 399.601 138.222 390.979 133.248Z" fill="white"/>
<path d="M160.844 34.8477V219.299C160.844 228.311 165.131 237.12 172.07 241.517L392.242 368.699C392.32 368.746 392.444 368.824 392.6 368.902C394.596 370.04 397.06 368.606 397.06 366.314V171.323L160.844 34.8477Z" fill="#3361AB"/>
<path d="M396.763 367.265C396.607 367.171 396.483 367.109 396.405 367.062L176.233 239.88C169.295 235.467 165.007 226.674 165.007 217.662V37.2488L160.859 34.8477V219.299C160.859 228.311 165.147 237.12 172.085 241.517L392.257 368.699C392.335 368.746 392.46 368.824 392.616 368.902C394.3 369.853 396.311 368.98 396.904 367.296C396.841 367.296 396.81 367.28 396.763 367.265Z" fill="#18191F"/>
<path d="M384.68 149.167C384.68 151.896 386.597 155.201 388.967 156.573C391.337 157.946 393.255 156.854 393.255 154.126C393.255 151.397 391.337 148.092 388.967 146.719C386.597 145.363 384.68 146.454 384.68 149.167Z" fill="#FFCC00"/>
<path d="M373.609 142.743C373.609 145.472 375.527 148.777 377.897 150.15C380.267 151.522 382.185 150.43 382.185 147.702C382.185 144.973 380.267 141.668 377.897 140.296C375.527 138.923 373.609 140.015 373.609 142.743Z" fill="#EB4680"/>
<path d="M362.539 136.304C362.539 139.033 364.457 142.338 366.827 143.71C369.197 145.082 371.115 143.991 371.115 141.262C371.115 138.534 369.197 135.228 366.827 133.856C364.457 132.484 362.539 133.591 362.539 136.304Z" fill="#4685EB"/>
<path d="M190.659 90.0112L177.608 82.4803C176.283 81.7163 175.223 82.3244 175.223 83.8368C175.223 85.3492 176.298 87.1891 177.608 87.9531L190.659 95.4839C191.984 96.2479 193.044 95.6398 193.044 94.1274C193.044 92.615 191.984 90.7752 190.659 90.0112Z" fill="#4685EB"/>
<path d="M212.143 102.407L199.093 94.8758C197.767 94.1118 196.707 94.7199 196.707 96.2323C196.707 97.7447 197.783 99.5846 199.093 100.349L212.143 107.879C213.468 108.643 214.528 108.035 214.528 106.523C214.528 105.026 213.468 103.171 212.143 102.407Z" fill="#4685EB"/>
<path d="M233.631 114.818L220.581 107.287C219.256 106.523 218.195 107.131 218.195 108.643C218.195 110.156 219.271 111.996 220.581 112.76L233.631 120.291C234.956 121.055 236.017 120.446 236.017 118.934C236.017 117.422 234.956 115.582 233.631 114.818Z" fill="#4685EB"/>
<path d="M255.116 127.229L242.065 119.698C240.74 118.934 239.68 119.542 239.68 121.055C239.68 122.567 240.756 124.407 242.065 125.171L255.116 132.702C256.441 133.466 257.501 132.858 257.501 131.345C257.501 129.833 256.441 127.977 255.116 127.229Z" fill="#4685EB"/>
<path d="M276.678 139.811L263.628 132.28C262.302 131.516 261.242 132.124 261.242 133.637C261.242 135.149 262.318 136.989 263.628 137.753L276.678 145.284C278.003 146.048 279.064 145.44 279.064 143.927C279.064 142.415 278.003 140.575 276.678 139.811ZM298.164 152.206L285.113 144.676C283.788 143.912 282.728 144.52 282.728 146.032C282.728 147.545 283.804 149.384 285.113 150.148L298.164 157.679C299.489 158.443 300.549 157.835 300.549 156.323C300.549 154.81 299.489 152.97 298.164 152.206ZM319.649 164.618L306.599 157.087C305.273 156.323 304.213 156.931 304.213 158.443C304.213 159.956 305.289 161.795 306.599 162.559L319.649 170.09C320.974 170.854 322.035 170.246 322.035 168.734C322.035 167.221 320.959 165.382 319.649 164.618ZM341.135 177.029L328.084 169.498C326.759 168.734 325.699 169.342 325.699 170.854C325.699 172.367 326.775 174.206 328.084 174.97L341.135 182.501C342.46 183.265 343.52 182.657 343.52 181.145C343.52 179.632 342.444 177.777 341.135 177.029Z" fill="#4685EB"/>
<path d="M235.763 169.607V166.816L214.293 154.67V157.461L235.763 169.607Z" fill="#4685EB"/>
<path d="M175.5 101.159V103.95L243.075 142.446V139.655L175.5 101.159Z" fill="#4685EB"/>
<path d="M221.496 150.834L175.5 124.391V127.197L221.496 153.625V150.834Z" fill="white"/>
<path d="M248.407 149.884L175.5 108.066V113.212L248.407 155.029V149.884Z" fill="#4685EB"/>
<path d="M210.519 138.673L175.5 118.591V121.382L210.519 141.48V138.673Z" fill="white"/>
<path d="M213.266 140.264V143.07L276.179 178.822V176.016L213.266 140.264Z" fill="white"/>
<path d="M224.254 152.409V155.216L256.061 173.443V170.636L224.254 152.409Z" fill="white"/>
<path d="M251.152 156.619L299.253 183.873V178.728L251.152 151.474V156.619Z" fill="#4685EB"/>
<path d="M278.922 180.412L299.254 192.043V189.253L278.922 177.605V180.412Z" fill="white"/>
<path d="M258.82 175.033L299.25 197.859V195.053L258.82 172.227V175.033Z" fill="white"/>
<path d="M211.548 153.08L175.5 132.39V135.181L211.548 155.871V153.08Z" fill="#4685EB"/>
<path d="M238.508 171.197L260.477 183.733V180.926L238.508 168.406V171.197Z" fill="#4685EB"/>
<path d="M235.763 217.083V214.292L214.293 202.131V204.922L235.763 217.083Z" fill="#4685EB"/>
<path d="M175.5 148.636V151.427L243.075 189.923V187.132L175.5 148.636Z" fill="#4685EB"/>
<path d="M221.496 198.295L175.5 171.867V174.658L221.496 201.102V198.295Z" fill="white"/>
<path d="M217.317 179.679L175.5 155.527V160.688L217.317 184.824V179.679Z" fill="#4685EB"/>
<path d="M202.068 181.41L175.5 166.052V168.858L202.068 184.201V181.41Z" fill="white"/>
<path d="M204.812 183V185.791L276.176 226.283V223.492L204.812 183Z" fill="white"/>
<path d="M224.254 199.886V202.677L247.189 215.945V213.154L224.254 199.886Z" fill="white"/>
<path d="M278.922 227.873L299.254 239.52V236.714L278.922 225.082V227.873Z" fill="white"/>
<path d="M249.949 217.536L282.474 235.747V232.956L249.949 214.745V217.536Z" fill="white"/>
<path d="M211.548 200.541L175.5 179.866V182.657L211.548 203.347V200.541Z" fill="#4685EB"/>
<path d="M238.508 218.674L260.477 231.194V228.403L238.508 215.867V218.674Z" fill="#4685EB"/>
<path d="M265.669 207.136L220.062 181.27V186.415L265.669 212.297V207.136Z" fill="#4685EB"/>
<path d="M268.457 208.727V213.887L299.251 231.35V226.189L268.457 208.727Z" fill="#4685EB"/>
<path d="M235.763 263.376V260.57L214.293 248.424V251.215L235.763 263.376Z" fill="#4685EB"/>
<path d="M175.5 194.929V197.72L243.075 236.216V233.425L175.5 194.929Z" fill="#4685EB"/>
<path d="M221.496 244.588L175.5 218.16V220.951L221.496 247.395V244.588Z" fill="white"/>
<path d="M248.407 243.638L175.5 201.82V206.981L248.407 248.798V243.638Z" fill="#4685EB"/>
<path d="M210.519 232.443L175.5 212.345V215.151L210.519 235.233V232.443Z" fill="white"/>
<path d="M213.266 234.033V236.824L276.179 272.576V269.785L213.266 234.033Z" fill="white"/>
<path d="M224.254 246.179V248.97L256.061 267.196V264.406L224.254 246.179Z" fill="white"/>
<path d="M251.152 250.388L299.253 277.643V272.482L251.152 245.228V250.388Z" fill="#4685EB"/>
<path d="M278.922 274.166L299.254 285.813V283.006L278.922 271.375V274.166Z" fill="white"/>
<path d="M258.82 268.787L299.25 291.613V288.823L258.82 265.996V268.787Z" fill="white"/>
<path d="M211.548 246.834L175.5 226.159V228.95L211.548 249.64V246.834Z" fill="#4685EB"/>
<path d="M238.508 264.967L260.477 277.487V274.696L238.508 262.16V264.967Z" fill="#4685EB"/>
<path d="M341.445 168.111L242.468 110.78C239.178 108.878 236.496 103.779 236.496 99.3822V98.4311C236.496 94.0342 239.162 92.0229 242.468 93.9251L341.445 151.241C344.734 153.143 347.416 158.241 347.416 162.638V163.589C347.416 167.986 344.75 170.013 341.445 168.111Z" fill="#4685EB"/>
<path d="M343.627 167.471L244.651 110.14C241.361 108.238 238.679 103.14 238.679 98.7428V97.7917C238.679 95.64 239.318 94.0496 240.363 93.2233C238.102 93.0518 236.496 95.0163 236.496 98.4309V99.382C236.496 103.779 239.162 108.877 242.468 110.78L341.445 168.111C343.128 169.077 344.641 169.031 345.717 168.173C345.077 168.111 344.36 167.892 343.627 167.471Z" fill="#4685EB"/>
<path d="M184.169 74.5913C183.249 74.5913 182.298 74.3106 181.316 73.7337C178.135 71.8939 175.641 67.5905 175.641 63.9265C175.641 61.1043 177.215 59.2021 179.57 59.2021C180.49 59.2021 181.441 59.4828 182.423 60.0597C185.604 61.8995 188.099 66.2029 188.099 69.8669C188.099 71.239 187.74 72.3928 187.069 73.2348C186.368 74.1079 185.339 74.5913 184.169 74.5913ZM179.57 61.4006C178.011 61.4006 177.839 63.1781 177.839 63.9265C177.839 66.7798 179.944 70.3971 182.423 71.8315C183.67 72.5487 184.777 72.5799 185.37 71.8471C185.729 71.4105 185.916 70.7089 185.916 69.8513C185.916 66.998 183.811 63.3807 181.332 61.9463C180.692 61.6033 180.084 61.4006 179.57 61.4006Z" fill="#4685EB"/>
<path d="M198.279 83.0268C197.359 83.0268 196.408 82.7462 195.425 82.1693C192.245 80.3294 189.75 76.0261 189.75 72.362C189.75 69.5399 191.325 67.6377 193.679 67.6377C194.599 67.6377 195.55 67.9183 196.532 68.4952C199.713 70.3351 202.208 74.6384 202.208 78.3025C202.208 79.6746 201.849 80.8284 201.179 81.6703C200.477 82.5435 199.448 83.0268 198.279 83.0268ZM193.679 69.8361C192.12 69.8361 191.948 71.6136 191.948 72.362C191.948 75.2153 194.053 78.8326 196.532 80.2671C197.78 80.9843 198.887 81.0155 199.479 80.2827C199.838 79.8461 200.025 79.1444 200.025 78.2869C200.025 75.4336 197.92 71.8163 195.441 70.3819C194.802 70.0232 194.194 69.8361 193.679 69.8361Z" fill="#EB4680"/>
<path d="M212.564 91.4458C211.644 91.4458 210.693 91.1651 209.711 90.5882C206.53 88.7484 204.035 84.445 204.035 80.781C204.035 77.9588 205.61 76.0566 207.964 76.0566C208.884 76.0566 209.835 76.3373 210.818 76.9142C213.998 78.754 216.493 83.0574 216.493 86.7214C216.493 88.0935 216.134 89.2473 215.464 90.0893C214.762 90.9624 213.733 91.4458 212.564 91.4458ZM207.964 78.2551C206.405 78.2551 206.234 80.0326 206.234 80.781C206.234 83.6343 208.339 87.2516 210.818 88.686C212.065 89.4032 213.172 89.4344 213.764 88.7016C214.123 88.265 214.31 87.5634 214.31 86.7059C214.31 83.8525 212.205 80.2352 209.726 78.8008C209.087 78.4578 208.479 78.2551 207.964 78.2551Z" fill="#FFD70F"/>
<path d="M226.673 99.8813C225.753 99.8813 224.802 99.6007 223.82 99.0238C220.639 97.1839 218.145 92.8806 218.145 89.2165C218.145 86.3944 219.719 84.4922 222.074 84.4922C222.994 84.4922 223.945 84.7728 224.927 85.3497C228.108 87.1896 230.602 91.4929 230.602 95.157C230.602 96.5291 230.244 97.6829 229.573 98.5248C228.872 99.398 227.843 99.8813 226.673 99.8813ZM222.074 86.6906C220.514 86.6906 220.343 88.4681 220.343 89.2165C220.343 92.0698 222.448 95.6871 224.927 97.1216C226.174 97.8388 227.281 97.87 227.874 97.1372C228.232 96.7006 228.42 95.999 228.42 95.1414C228.42 92.2881 226.315 88.6708 223.836 87.2364C223.196 86.8777 222.588 86.6906 222.074 86.6906Z" fill="#4685EB"/>
<path opacity="0.2" d="M419.339 401.957L373.92 375.934C373.874 374.733 372.985 373.486 371.285 372.519L332.15 350.613C328.954 348.773 324.12 348.57 321.345 350.161L315.124 353.887C312.348 355.493 312.707 358.284 315.903 360.124L355.039 382.03C356.536 382.888 358.391 383.387 360.215 383.512L406.024 409.753C408.643 411.265 412.604 411.437 414.88 410.127L419.979 407.071C422.255 405.761 421.959 403.469 419.339 401.957Z" fill="#92B4D1"/>
<path d="M433.186 274.977C432.781 274.977 432.438 274.665 432.406 274.244C432.375 273.808 432.703 273.449 433.139 273.418C434.153 273.356 435.166 273.246 436.149 273.075C436.585 272.997 436.975 273.293 437.053 273.714C437.131 274.135 436.835 274.541 436.414 274.619C435.369 274.79 434.309 274.915 433.233 274.993C433.217 274.977 433.202 274.977 433.186 274.977ZM428.508 274.915C428.493 274.915 428.462 274.915 428.446 274.915C427.402 274.821 426.341 274.697 425.297 274.509C424.876 274.431 424.595 274.042 424.657 273.605C424.735 273.184 425.141 272.903 425.562 272.966C426.575 273.137 427.589 273.262 428.586 273.356C429.023 273.387 429.335 273.761 429.304 274.198C429.257 274.603 428.914 274.915 428.508 274.915ZM420.869 273.465C420.791 273.465 420.728 273.449 420.65 273.434C419.652 273.153 418.654 272.826 417.641 272.451C417.236 272.311 417.033 271.859 417.173 271.453C417.314 271.048 417.766 270.845 418.171 270.986C419.153 271.344 420.12 271.656 421.087 271.937C421.492 272.062 421.742 272.482 421.617 272.903C421.508 273.246 421.196 273.465 420.869 273.465ZM440.795 273.418C440.483 273.418 440.171 273.215 440.062 272.903C439.922 272.498 440.124 272.046 440.53 271.906C441.465 271.563 442.401 271.157 443.29 270.689C443.679 270.487 444.147 270.643 444.334 271.032C444.537 271.422 444.381 271.89 443.991 272.077C443.04 272.56 442.058 272.997 441.044 273.371C440.966 273.402 440.873 273.418 440.795 273.418ZM447.562 269.645C447.328 269.645 447.11 269.536 446.954 269.349C446.689 269.006 446.751 268.522 447.078 268.257C447.858 267.649 448.606 266.963 449.324 266.246C449.62 265.934 450.119 265.934 450.431 266.246C450.742 266.542 450.742 267.041 450.431 267.353C449.667 268.117 448.871 268.834 448.045 269.489C447.905 269.582 447.733 269.645 447.562 269.645ZM452.863 263.969C452.707 263.969 452.551 263.923 452.411 263.829C452.052 263.58 451.974 263.096 452.208 262.738C452.769 261.927 453.315 261.054 453.814 260.165C454.017 259.791 454.5 259.65 454.874 259.853C455.248 260.056 455.389 260.539 455.186 260.913C454.672 261.849 454.095 262.769 453.502 263.626C453.346 263.845 453.112 263.969 452.863 263.969ZM456.48 257.093C456.387 257.093 456.293 257.078 456.2 257.047C455.794 256.891 455.591 256.439 455.747 256.033C456.106 255.113 456.433 254.131 456.73 253.149C456.854 252.743 457.275 252.494 457.696 252.634C458.102 252.759 458.351 253.195 458.211 253.601C457.899 254.63 457.556 255.643 457.182 256.61C457.088 256.906 456.792 257.093 456.48 257.093ZM458.601 249.594C458.554 249.594 458.507 249.594 458.46 249.578C458.039 249.5 457.759 249.095 457.837 248.674C458.024 247.692 458.18 246.678 458.32 245.633C458.382 245.212 458.772 244.901 459.193 244.963C459.614 245.025 459.926 245.415 459.864 245.836C459.723 246.896 459.567 247.941 459.365 248.954C459.287 249.344 458.959 249.594 458.601 249.594ZM459.489 241.86C459.474 241.86 459.458 241.86 459.458 241.86C459.022 241.845 458.694 241.47 458.71 241.049C458.757 240.036 458.788 239.022 458.788 237.962C458.788 237.526 459.131 237.183 459.567 237.183C460.004 237.183 460.347 237.526 460.347 237.962C460.347 239.038 460.316 240.083 460.269 241.112C460.238 241.533 459.895 241.86 459.489 241.86Z" fill="#F76195"/>
<path d="M452.129 203.941C451.817 203.941 451.537 203.754 451.412 203.458C451.022 202.506 450.617 201.555 450.211 200.604C450.04 200.214 450.211 199.747 450.617 199.575C451.006 199.404 451.474 199.575 451.646 199.981C452.067 200.947 452.472 201.914 452.862 202.881C453.018 203.286 452.831 203.738 452.441 203.894C452.332 203.925 452.223 203.941 452.129 203.941ZM448.964 196.815C448.668 196.815 448.403 196.66 448.262 196.379C447.81 195.443 447.358 194.523 446.875 193.604C446.672 193.214 446.828 192.746 447.218 192.559C447.607 192.356 448.075 192.512 448.262 192.902C448.746 193.837 449.213 194.773 449.666 195.708C449.853 196.098 449.697 196.566 449.307 196.753C449.198 196.784 449.073 196.815 448.964 196.815ZM445.362 189.893C445.097 189.893 444.832 189.752 444.676 189.503C444.162 188.599 443.647 187.71 443.117 186.821C442.899 186.447 443.023 185.979 443.382 185.745C443.741 185.527 444.224 185.652 444.458 186.01C444.988 186.915 445.518 187.819 446.033 188.723C446.251 189.098 446.111 189.581 445.736 189.784C445.612 189.862 445.487 189.893 445.362 189.893ZM441.324 183.219C441.074 183.219 440.825 183.095 440.669 182.861C440.108 181.988 439.531 181.13 438.954 180.288C438.705 179.93 438.798 179.446 439.157 179.212C439.515 178.978 439.999 179.056 440.248 179.415C440.841 180.273 441.418 181.146 441.979 182.034C442.213 182.393 442.104 182.876 441.745 183.11C441.62 183.188 441.464 183.219 441.324 183.219ZM436.896 176.811C436.662 176.811 436.428 176.702 436.272 176.499C435.649 175.673 435.025 174.847 434.401 174.036C434.136 173.693 434.199 173.209 434.542 172.944C434.885 172.679 435.368 172.742 435.633 173.085C436.272 173.911 436.911 174.737 437.535 175.579C437.8 175.922 437.722 176.406 437.379 176.671C437.208 176.764 437.052 176.811 436.896 176.811ZM432.047 170.715C431.829 170.715 431.61 170.621 431.454 170.434C430.784 169.639 430.113 168.859 429.427 168.095C429.147 167.768 429.162 167.285 429.49 166.988C429.802 166.692 430.301 166.723 430.597 167.051C431.298 167.83 431.984 168.61 432.655 169.421C432.936 169.748 432.889 170.247 432.561 170.528C432.405 170.652 432.218 170.715 432.047 170.715ZM426.808 164.946C426.605 164.946 426.403 164.868 426.247 164.712C425.529 163.964 424.797 163.246 424.048 162.529C423.736 162.233 423.721 161.734 424.033 161.422C424.329 161.11 424.828 161.11 425.14 161.406C425.888 162.124 426.637 162.872 427.369 163.621C427.666 163.932 427.666 164.416 427.354 164.728C427.198 164.883 426.995 164.946 426.808 164.946ZM421.148 159.598C420.961 159.598 420.79 159.535 420.634 159.411C419.854 158.725 419.074 158.07 418.279 157.415C417.952 157.15 417.89 156.651 418.17 156.324C418.451 155.996 418.934 155.949 419.262 156.214C420.072 156.869 420.868 157.555 421.663 158.241C421.99 158.522 422.021 159.021 421.741 159.348C421.569 159.504 421.366 159.598 421.148 159.598Z" fill="#F76195"/>
<path d="M404.402 335.691C404.621 335.395 404.73 335.036 404.73 334.662V289.617L404.34 289.119C404.34 288.978 404.356 288.838 404.371 288.698L404.73 288.651V246.553C404.73 245.773 404.231 245.103 403.482 244.869L393.145 241.751C392.708 241.61 392.334 241.314 392.116 240.909C390.884 238.601 389.575 236.34 388.187 234.126C387.937 233.736 387.859 233.253 387.969 232.801L391.321 218.69C391.446 218.16 391.321 217.615 390.978 217.194L387.719 213.124C382.777 206.965 377.491 201.383 371.971 196.55L363.427 189.05C362.663 188.38 361.509 188.489 360.886 189.3L354.867 197.096C353.214 196.877 352.793 196.815 351.141 196.581L344.171 179.539C343.969 179.04 343.532 178.651 343.017 178.51L337.966 177.123C333.085 175.766 328.236 175.096 323.574 175.096C322.124 175.096 320.674 175.158 319.256 175.298L307.608 176.39C306.579 176.483 305.862 177.434 306.049 178.448L307.343 185.386C307.64 187.008 305.737 188.115 304.49 187.039L299.095 182.439C298.316 181.769 297.131 181.925 296.538 182.751L289.771 192.122C286.248 197.002 283.613 202.724 281.913 209.164L280.557 214.278C280.416 214.808 280.525 215.369 280.868 215.806L292.204 230.337C291.611 231.787 291.455 232.146 290.863 233.596L280.962 234.843C279.949 234.968 279.263 235.935 279.465 236.933L281.742 248.19C283.192 255.362 285.39 262.722 288.275 270.05L290.177 274.852C290.379 275.351 290.785 275.725 291.299 275.881L305.301 280.122C305.737 280.262 306.112 280.559 306.33 280.964C307.562 283.272 308.871 285.532 310.259 287.746C310.509 288.136 310.586 288.62 310.477 289.072L307.125 303.182C307 303.712 307.125 304.258 307.468 304.679L310.727 308.749C315.654 314.907 320.955 320.489 326.475 325.338L335.019 332.838C335.783 333.508 336.937 333.399 337.56 332.588L343.579 324.808C345.231 325.026 345.652 325.089 347.305 325.307L354.275 342.349C354.477 342.848 354.914 343.238 355.429 343.378L360.48 344.781C365.36 346.138 370.194 346.808 374.84 346.808C376.306 346.808 377.772 346.746 379.19 346.606L390.822 345.514C391.851 345.421 392.568 344.469 392.381 343.456L391.087 336.533C390.791 334.912 392.693 333.805 393.94 334.88L399.335 339.48C400.115 340.151 401.3 339.995 401.892 339.168L404.402 335.691ZM364.144 289.773C361.899 289.773 358.952 288.791 355.865 286.998C341.973 278.968 329.78 257.966 329.78 242.047C329.78 238.149 330.482 231.616 335.159 231.616C337.404 231.616 340.351 232.598 343.438 234.391C357.331 242.421 369.523 263.423 369.523 279.342C369.523 283.24 368.822 289.773 364.144 289.773Z" fill="url(#paint0_radial)"/>
<path opacity="0.5" d="M392.632 283.771C392.632 281.276 392.414 278.719 392.087 276.146L404.81 274.541C403.516 268.132 401.551 261.662 399.041 255.269L384.54 250.888C382.014 245.462 378.974 240.223 375.513 235.327L378.99 220.702C374.686 215.338 370.04 210.396 365.097 206.061L357.286 216.165C355.196 214.59 353.076 213.124 350.909 211.861C348.726 210.599 346.621 209.632 344.532 208.79L336.72 189.674C331.793 188.318 327.131 187.866 322.828 188.271L326.305 206.919C322.859 207.823 319.803 209.569 317.277 212.064L302.777 199.7C300.266 203.177 298.302 207.387 297.008 212.298L309.731 228.607C309.403 230.821 309.185 233.129 309.185 235.623C309.185 238.118 309.403 240.675 309.731 243.248L297.008 244.854C298.302 251.262 300.266 257.733 302.777 264.125L317.277 268.506C319.803 273.932 322.843 279.171 326.305 284.067L322.828 298.692C327.131 304.056 331.778 308.998 336.72 313.333L344.532 303.229C346.621 304.804 348.741 306.27 350.909 307.533C353.076 308.796 355.196 309.762 357.286 310.604L365.097 329.72C370.024 331.076 374.686 331.529 378.99 331.123L375.513 312.475C378.958 311.571 382.014 309.825 384.54 307.33L399.041 319.694C401.551 316.217 403.516 311.992 404.81 307.096L392.087 290.787C392.414 288.573 392.632 286.266 392.632 283.771ZM351.33 295.589C333.945 285.548 319.85 261.241 319.85 241.283C319.85 221.326 333.945 213.296 351.33 223.337C368.715 233.378 382.81 257.686 382.81 277.643C382.81 297.601 368.715 305.631 351.33 295.589Z" fill="#1C355E"/>
<path d="M348.91 297.164C331.525 287.123 317.43 262.815 317.43 242.858C317.43 235.451 319.395 229.729 322.716 225.94C313.174 226.626 306.719 234.625 306.719 248.096C306.719 268.054 320.814 292.362 338.199 302.403C349.128 308.702 358.717 307.844 364.346 301.405C359.793 301.732 354.539 300.407 348.91 297.164Z" fill="#4685EB"/>
<path d="M379.519 290.584C379.519 288.09 379.301 285.533 378.973 282.96L391.696 281.354C390.402 274.946 388.438 268.475 385.927 262.082L371.427 257.701C368.901 252.275 365.861 247.036 362.399 242.141L365.876 227.515C361.573 222.152 356.927 217.209 351.984 212.875L344.172 222.978C342.083 221.403 339.963 219.938 337.795 218.675C335.613 217.412 333.508 216.445 331.418 215.603L323.607 196.488C318.68 195.131 314.018 194.679 309.715 195.085L313.192 213.732C309.746 214.637 306.705 216.383 304.164 218.878L289.663 206.513C287.153 209.99 285.189 214.2 283.895 219.111L296.617 235.421C296.29 237.635 296.072 239.942 296.072 242.437C296.072 244.932 296.29 247.489 296.617 250.061L283.895 251.667C285.189 258.075 287.153 264.546 289.663 270.939L304.164 275.32C306.69 280.746 309.73 285.985 313.192 290.881L309.715 305.506C314.018 310.869 318.664 315.812 323.607 320.146L331.418 310.043C333.508 311.618 335.628 313.083 337.795 314.346C339.963 315.609 342.083 316.576 344.172 317.418L351.984 336.533C356.911 337.89 361.573 338.342 365.876 337.937L362.399 319.289C365.845 318.385 368.901 316.638 371.427 314.144L385.927 326.508C388.438 323.031 390.402 318.805 391.696 313.91L378.973 297.601C379.301 295.387 379.519 293.079 379.519 290.584ZM338.216 302.403C320.832 292.362 306.737 268.054 306.737 248.097C306.737 228.139 320.832 220.109 338.216 230.15C355.601 240.192 369.696 264.499 369.696 284.457C369.696 304.399 355.601 312.444 338.216 302.403Z" fill="#A8CFF0"/>
<path d="M343.625 208.572L335.814 189.472L323.621 196.472L331.433 215.588L343.625 208.572Z" fill="#4685EB"/>
<path d="M331.434 215.588C333.523 216.43 335.643 217.396 337.811 218.659C339.993 219.922 342.098 221.388 344.188 222.963L351.999 212.875C351.999 212.875 350.674 212.048 350.019 211.658C347.836 210.396 345.731 209.429 343.642 208.587L331.434 215.588Z" fill="#D1EBFF"/>
<path d="M335.816 189.471C330.889 188.115 326.227 187.663 321.923 188.068L309.73 195.069C314.034 194.663 318.68 195.115 323.623 196.472L335.816 189.471Z" fill="#D1EBFF"/>
<path d="M378.085 220.483C373.782 215.12 369.135 210.177 364.193 205.843L352 212.843C356.927 217.178 361.589 222.121 365.892 227.484L378.085 220.483Z" fill="#D1EBFF"/>
<path d="M365.875 227.484L362.414 242.125L374.607 235.108L378.084 220.483L365.875 227.484Z" fill="#4685EB"/>
<path d="M362.414 242.125C365.86 247.021 368.916 252.275 371.442 257.685L383.635 250.685C381.109 245.259 378.068 240.02 374.607 235.124L362.414 242.125Z" fill="#4685EB"/>
<path d="M371.426 257.685L385.926 262.067L398.135 255.066L383.634 250.685L371.426 257.685Z" fill="#D1EBFF"/>
<path d="M385.926 262.067C388.436 268.444 390.401 274.93 391.695 281.339L403.888 274.338C402.593 267.93 400.629 261.459 398.119 255.066L385.926 262.067Z" fill="#4685EB"/>
<path d="M313.204 213.717L312.19 208.291L301.869 199.497L289.676 206.498L304.176 218.862C306.718 216.367 309.758 214.621 313.204 213.717Z" fill="#4685EB"/>
<path d="M391.695 313.894C390.401 318.806 388.436 323.016 385.926 326.492L398.119 319.492C400.629 316.015 402.593 311.789 403.888 306.894L391.695 313.894Z" fill="#4685EB"/>
<path d="M391.165 290.584C391.493 288.37 391.711 286.062 391.711 283.568C391.711 282.835 391.664 282.086 391.618 281.338L378.973 282.944C379.3 285.516 379.518 288.074 379.518 290.568C379.518 293.063 379.3 295.37 378.973 297.585L391.165 290.584Z" fill="#4685EB"/>
<path d="M378.973 297.585L391.696 313.894L403.888 306.877L391.165 290.584L378.973 297.585Z" fill="#D1EBFF"/>
<path d="M371.426 314.144C368.9 316.638 365.86 318.385 362.398 319.289L365.875 337.937L378.068 330.936L375.605 317.714L371.426 314.144Z" fill="#4685EB"/>
<path d="M296.181 244.464L283.91 251.667L296.633 250.061C296.415 248.175 296.274 246.304 296.181 244.464Z" fill="#D1EBFF"/>
<path d="M331.433 310.059L323.621 320.147L335.907 313.161C334.395 312.195 332.898 311.166 331.433 310.059Z" fill="#4685EB"/>
<path d="M296.818 249.89L284.531 251.605C284.578 251.807 284.625 252.01 284.672 252.213L295.165 250.888C295.134 250.685 296.849 250.092 296.818 249.89Z" fill="white"/>
<path d="M365.202 228.28L361.725 242.92C365.171 247.816 368.227 253.071 370.753 258.481L385.254 262.862C387.686 269.037 391.553 281.463 391.553 281.463C390.259 275.055 389.058 268.397 386.548 262.02L372.047 257.639C369.521 252.213 366.481 246.974 363.02 242.078L366.497 227.453C362.193 222.09 356.986 217.21 352.043 212.875C352.043 212.859 361.149 223.212 365.202 228.28Z" fill="white"/>
<path d="M338.325 302.154C320.94 292.113 306.845 267.805 306.845 247.847C306.845 239.038 309.605 232.583 314.189 228.95C308.903 232.349 305.66 239.147 305.66 248.689C305.66 268.647 319.755 292.955 337.14 302.996C345.918 308.063 353.854 308.515 359.561 305.163C359.14 305.288 358.703 305.381 358.251 305.475C352.81 307.455 345.887 306.519 338.325 302.154Z" fill="white"/>
<path d="M364.75 318.649C366.839 317.901 368.757 316.825 370.488 315.437L369.958 314.985C368.398 316.513 366.652 317.714 364.75 318.649Z" fill="white"/>
<path d="M303.724 219.19C303.194 219.205 303.724 218.784 304.254 218.348L290.284 206.451C289.894 206.997 289.536 207.605 290.19 207.667L303.724 219.19Z" fill="white"/>
<path d="M362.055 320.13L365.376 337.967C364.987 337.952 365.751 337.936 366.483 337.874L363.038 319.413C362.367 319.678 361.65 319.928 362.055 320.13Z" fill="white"/>
<path d="M380.125 290.522C380.125 288.23 379.923 285.876 379.657 283.521L378.395 283.615C378.722 286.188 378.94 288.745 378.94 291.239C378.94 293.734 378.722 296.042 378.395 298.256L391.117 314.565C390.026 318.697 388.436 322.314 386.471 325.432L386.549 326.446C389.059 322.969 391.024 318.759 392.318 313.848L379.595 297.539C379.907 295.324 380.125 293.017 380.125 290.522Z" fill="white"/>
<path d="M323.09 196.987L330.902 216.102C332.991 216.944 335.111 217.911 337.279 219.174C339.461 220.437 341.566 221.902 343.656 223.477L343.905 222.261C342.112 220.936 340.288 219.688 338.432 218.612C336.25 217.349 334.145 216.383 332.055 215.541L324.244 196.425C319.317 195.069 314.655 194.617 310.352 195.022L310.507 195.817C314.156 195.724 319.005 195.848 323.09 196.987Z" fill="white"/>
<path d="M329.951 310.9L323.418 319.336C323.699 319.585 323.964 319.85 324.244 320.084L330.855 311.54C330.543 311.321 330.247 311.119 329.951 310.9Z" fill="white"/>
<path d="M436.024 259.073L435.245 257.717C442.791 253.413 446.954 244.23 446.954 231.865C446.954 212.812 437.022 190.048 421.664 173.88L422.787 172.804C438.41 189.253 448.498 212.438 448.498 231.865C448.513 244.807 444.085 254.474 436.024 259.073Z" fill="#F76195"/>
<path d="M420.179 171.978C420.242 170.699 421.115 170.154 422.128 170.73C423.142 171.323 423.921 172.82 423.859 174.098C423.797 175.377 422.924 175.922 421.91 175.346C420.881 174.753 420.117 173.241 420.179 171.978Z" fill="#EB4680"/>
<path d="M434.604 259.776C434.339 259.776 434.105 259.651 433.949 259.433C433.778 259.183 433.778 258.856 433.918 258.606L436.194 254.693C436.413 254.319 436.896 254.194 437.255 254.412C437.629 254.63 437.754 255.114 437.535 255.472L436.07 257.983L439.796 257.452C440.217 257.406 440.623 257.686 440.685 258.107C440.747 258.528 440.451 258.934 440.03 258.996L434.713 259.76C434.682 259.776 434.635 259.776 434.604 259.776Z" fill="#EB4680"/>
<path d="M350.765 284.504L336.171 271.594L332.32 252.634L342.954 246.507L357.548 259.417L361.446 278.423L350.765 284.504Z" fill="#123C81"/>
<path d="M350.766 284.504L336.172 271.594L357.548 259.417L361.446 278.423L350.766 284.504Z" fill="#123C81"/>
<path d="M421.458 372.254L383.991 307.611L372.437 262.082C371.627 258.902 369.896 256.017 367.448 253.819L352.714 240.581C350.999 239.038 348.473 238.773 346.462 239.911L341.971 242.406L343.795 243.902C343.577 245.586 344.154 247.348 345.557 248.596L356.425 258.216L362.1 285.813L346.586 294.654L325.397 275.897L322.481 261.693C321.749 258.107 317.71 256.282 314.529 258.091L310.039 260.586L311.817 262.597C311.801 263.034 311.817 263.47 311.91 263.907L316.011 283.085C316.697 286.297 318.318 289.243 320.688 291.535L354.569 324.356L392.036 389C398.834 400.725 409.156 407.959 417.108 407.289L416.968 408.474L421.458 405.979C429.581 401.38 429.581 386.271 421.458 372.254ZM412.836 391.151C409.499 393.054 404.104 389.935 400.768 384.182C397.431 378.429 397.431 372.239 400.768 370.336C404.104 368.434 409.499 371.553 412.836 377.306C416.173 383.059 416.173 389.249 412.836 391.151Z" fill="#3361AB"/>
<path d="M341.957 242.406C338.761 244.23 338.293 248.658 341.053 251.091L351.921 260.711L357.596 288.308L342.082 297.149L320.893 278.392L317.977 264.204C317.244 260.617 313.206 258.793 310.025 260.602C307.983 261.771 306.938 264.11 307.422 266.418L311.522 285.595C312.208 288.807 313.83 291.754 316.2 294.046L350.081 326.867L387.548 391.511C395.671 405.528 408.846 413.121 416.97 408.49C425.093 403.859 425.093 388.751 416.97 374.734L379.502 310.09L367.949 264.562C367.138 261.381 365.407 258.497 362.96 256.298L348.225 243.061C346.495 241.533 343.969 241.268 341.957 242.406ZM408.347 393.631C405.011 395.533 399.616 392.415 396.279 386.662C392.943 380.908 392.943 374.718 396.279 372.816C399.616 370.914 405.011 374.032 408.347 379.786C411.684 385.539 411.684 391.745 408.347 393.631Z" fill="#3361AB"/>
<path d="M397.122 372.66C397.153 372.644 397.169 372.644 397.2 372.629C396.888 372.722 396.576 372.832 396.295 372.988C392.959 374.89 392.959 381.08 396.295 386.833C399.601 392.54 404.949 395.642 408.286 393.834C404.949 394.8 400.178 391.76 397.122 386.506C393.785 380.752 393.785 374.562 397.122 372.66Z" fill="#084C94"/>
<path d="M317.993 264.375L320.909 278.564L342.098 297.32L342.831 296.899L321.735 278.236L318.82 264.048C318.102 260.571 314.298 258.762 311.164 260.29C314.111 259.417 317.338 261.21 317.993 264.375Z" fill="#4685EB"/>
<path d="M417.798 374.577L380.331 309.934L368.777 264.39C367.967 261.209 366.236 258.325 363.788 256.127L349.054 242.889C347.401 241.408 345.031 241.112 343.066 242.094C344.844 241.548 346.808 241.938 348.227 243.217L362.962 256.454C365.409 258.652 367.14 261.521 367.951 264.718L379.504 310.277L416.972 374.92C425.095 388.938 425.095 404.046 416.972 408.677C416.707 408.833 416.426 408.973 416.161 409.098C416.722 408.895 417.283 408.646 417.814 408.349C425.921 403.703 425.921 388.594 417.798 374.577Z" fill="#4685EB"/>
<path d="M340.132 290.6L325.539 277.69L321.625 258.683L332.321 252.587L346.899 265.513L350.813 284.503L340.132 290.6Z" fill="#123C81"/>
<path opacity="0.5" d="M386.613 251.574L382.855 253.617L397.652 255.347L386.613 251.574Z" fill="#92B4D1"/>
<path opacity="0.5" d="M361.012 221.918L368.293 225.847L369.587 238.461L373.922 244.199L377.898 237.806L374.608 235.109L375.949 228.716L370.367 223.259L361.012 221.918Z" fill="#92B4D1"/>
<path d="M411.951 229.792C411.733 229.855 411.483 229.901 411.218 229.901C409.815 229.901 407.96 229.278 406.026 228.155C397.311 223.119 389.655 209.944 389.655 199.95C389.655 197.502 390.092 193.401 393.023 193.401C394.426 193.401 396.281 194.025 398.23 195.147C403.828 198.375 408.973 204.97 411.951 211.924V167.706L409.909 165.913L407.882 168.548C405.075 168.158 404.374 168.064 401.551 167.69L398.495 160.222L394.8 159.208C391.729 158.366 388.704 157.93 385.773 157.93C384.853 157.93 383.948 157.976 383.06 158.054L374.546 158.85L376.152 167.441L369.495 161.765L364.552 168.61C362.338 171.666 360.685 175.268 359.625 179.306L358.643 183.048L367.343 194.196C367.312 194.274 367.296 194.305 367.265 194.383L357.863 195.568L359.516 203.801C360.42 208.307 361.808 212.922 363.617 217.522L365.004 221.03L374.734 223.977C375.638 225.692 376.62 227.376 377.649 229.013L375.31 238.836L377.696 241.814C380.799 245.68 384.12 249.189 387.581 252.229L393.818 257.702L399.478 250.389C399.68 250.42 399.727 250.42 399.93 250.451L405.231 263.408L408.926 264.422C409.94 264.702 410.953 264.921 411.951 265.108V229.792Z" fill="url(#paint1_radial)"/>
<path opacity="0.5" d="M411.948 240.691C408.705 241.361 404.776 240.581 400.551 238.133C389.356 231.663 380.281 216.024 380.281 203.177C380.281 190.329 389.356 185.153 400.551 191.623C404.776 194.071 408.705 197.813 411.948 202.226V182.814C411.122 182.003 410.28 181.223 409.422 180.475L404.402 186.977C403.061 185.963 401.689 185.012 400.301 184.201C398.898 183.391 397.541 182.767 396.2 182.221L391.18 169.919C387.999 169.046 385.006 168.766 382.246 169.015L384.475 181.021C382.246 181.613 380.297 182.72 378.66 184.342L369.32 176.39C367.699 178.635 366.436 181.348 365.609 184.498L373.795 194.991C373.592 196.41 373.452 197.891 373.452 199.497C373.452 201.103 373.592 202.756 373.795 204.408L365.609 205.437C366.436 209.569 367.699 213.732 369.32 217.849L378.66 220.671C380.297 224.163 382.246 227.547 384.475 230.696L382.246 240.114C385.006 243.575 388.015 246.74 391.18 249.531L396.2 243.029C397.541 244.043 398.913 244.994 400.301 245.805C401.704 246.615 403.061 247.239 404.402 247.785L409.422 260.087C410.28 260.321 411.122 260.508 411.948 260.664V240.691Z" fill="#1C355E"/>
<path d="M399.134 238.82C387.939 232.35 378.864 216.711 378.864 203.864C378.864 199.092 380.127 195.413 382.279 192.965C376.136 193.417 371.973 198.547 371.973 207.231C371.973 220.079 381.047 235.733 392.242 242.188C399.274 246.242 405.448 245.696 409.081 241.549C406.15 241.752 402.766 240.91 399.134 238.82Z" fill="#4685EB"/>
<path d="M418.842 234.579C418.842 232.973 418.701 231.321 418.499 229.668L426.684 228.639C425.858 224.523 424.595 220.344 422.973 216.243L413.634 213.421C412.012 209.929 410.048 206.545 407.818 203.396L410.048 193.978C407.288 190.533 404.279 187.352 401.114 184.561L396.093 191.063C394.752 190.049 393.38 189.098 391.993 188.287C390.589 187.477 389.233 186.853 387.892 186.307L382.871 174.005C379.691 173.132 376.697 172.851 373.937 173.101L376.167 185.107C373.937 185.699 371.988 186.806 370.351 188.412L361.012 180.46C359.39 182.705 358.127 185.418 357.301 188.568L365.486 199.061C365.284 200.48 365.143 201.961 365.143 203.567C365.143 205.173 365.284 206.826 365.486 208.479L357.301 209.508C358.127 213.624 359.39 217.803 361.012 221.919L370.351 224.741C371.988 228.234 373.937 231.601 376.167 234.767L373.937 244.184C376.697 247.645 379.706 250.81 382.871 253.601L387.892 247.1C389.233 248.113 390.605 249.064 391.993 249.875C393.396 250.686 394.752 251.309 396.093 251.855L401.114 264.157C404.295 265.03 407.288 265.311 410.048 265.061L407.818 253.056C410.048 252.463 411.997 251.356 413.634 249.75L422.973 257.702C424.595 255.457 425.858 252.744 426.684 249.579L418.499 239.085C418.701 237.667 418.842 236.185 418.842 234.579ZM392.242 242.188C381.047 235.733 371.973 220.079 371.973 207.231C371.973 194.384 381.047 189.207 392.242 195.678C403.437 202.148 412.511 217.787 412.511 230.635C412.511 243.482 403.437 248.643 392.242 242.188Z" fill="#A8CFF0"/>
<path d="M395.734 181.785L390.714 169.483L382.855 173.989L387.876 186.291L395.734 181.785Z" fill="#4685EB"/>
<path d="M387.875 186.291C389.216 186.837 390.588 187.461 391.976 188.271C393.379 189.082 394.735 190.033 396.076 191.047L401.097 184.545C401.097 184.545 400.255 184.015 399.818 183.765C398.415 182.955 397.059 182.331 395.718 181.785L387.875 186.291Z" fill="#D1EBFF"/>
<path d="M390.714 169.483C387.534 168.61 384.54 168.329 381.78 168.578L373.922 173.084C376.682 172.819 379.691 173.116 382.856 173.989L390.714 169.483Z" fill="#D1EBFF"/>
<path d="M417.921 189.441C415.162 185.995 412.152 182.814 408.987 180.023L401.129 184.529C404.31 187.32 407.303 190.501 410.063 193.947L417.921 189.441Z" fill="#D1EBFF"/>
<path d="M410.062 193.962L407.832 203.38L415.675 198.873L417.92 189.44L410.062 193.962Z" fill="#4685EB"/>
<path d="M407.832 203.38C410.062 206.53 412.011 209.913 413.648 213.406L421.506 208.9C419.884 205.407 417.92 202.024 415.69 198.874L407.832 203.38Z" fill="#4685EB"/>
<path d="M413.633 213.405L422.972 216.227L430.815 211.706L421.491 208.884L413.633 213.405Z" fill="#D1EBFF"/>
<path d="M422.973 216.228C424.594 220.328 425.857 224.507 426.683 228.623L434.542 224.117C433.715 220.001 432.452 215.822 430.831 211.722L422.973 216.228Z" fill="#4685EB"/>
<path d="M376.151 185.091L375.496 181.598L368.854 175.938L360.996 180.445L370.336 188.396C371.973 186.79 373.937 185.683 376.151 185.091Z" fill="#4685EB"/>
<path d="M426.683 249.578C425.857 252.743 424.594 255.456 422.973 257.702L430.831 253.196C432.452 250.95 433.715 248.237 434.542 245.072L426.683 249.578Z" fill="#4685EB"/>
<path d="M426.343 234.579C426.545 233.16 426.686 231.679 426.686 230.073C426.686 229.605 426.654 229.122 426.623 228.639L418.484 229.668C418.687 231.32 418.827 232.973 418.827 234.579C418.827 236.185 418.687 237.666 418.484 239.085L426.343 234.579Z" fill="#4685EB"/>
<path d="M418.5 239.085L426.686 249.578L434.544 245.072L426.343 234.579L418.5 239.085Z" fill="#D1EBFF"/>
<path d="M413.636 249.75C412.015 251.356 410.05 252.479 407.82 253.055L410.066 265.061L417.924 260.555L416.333 252.042L413.636 249.75Z" fill="#4685EB"/>
<path d="M365.19 204.893L357.285 209.523L365.471 208.494C365.331 207.278 365.237 206.078 365.19 204.893Z" fill="#D1EBFF"/>
<path d="M387.876 247.115L382.855 253.617L390.76 249.111C389.794 248.487 388.827 247.832 387.876 247.115Z" fill="#4685EB"/>
<path d="M409.627 194.477L407.397 203.894C409.627 207.044 411.576 210.427 413.213 213.92L422.552 216.742C424.111 220.718 425.343 224.756 426.169 228.748L427.089 228.592C426.263 224.475 425 220.297 423.379 216.196L414.039 213.374C412.402 209.882 410.453 206.498 408.223 203.349L410.453 193.931C407.693 190.485 404.684 187.305 401.519 184.514L401.207 185.543C404.185 188.209 407.007 191.203 409.627 194.477Z" fill="white"/>
<path d="M392.319 242.032C381.124 235.562 372.049 219.923 372.049 207.076C372.049 201.4 373.827 197.237 376.773 194.914C373.374 197.113 371.285 201.478 371.285 207.621C371.285 220.469 380.36 236.123 391.555 242.578C397.199 245.837 402.313 246.133 405.993 243.966C405.727 244.044 405.431 244.106 405.151 244.169C401.642 245.447 397.183 244.839 392.319 242.032Z" fill="white"/>
<path d="M409.328 252.65C410.669 252.167 411.916 251.481 413.023 250.577L412.68 250.28C411.682 251.263 410.56 252.042 409.328 252.65Z" fill="white"/>
<path d="M370.053 188.614C369.71 188.63 370.053 188.349 370.396 188.069L361.4 180.413C361.15 180.772 360.916 181.146 361.337 181.193L370.053 188.614Z" fill="white"/>
<path d="M407.599 253.602L409.735 265.093C409.485 265.077 409.969 265.077 410.452 265.03L408.238 253.149C407.801 253.321 407.349 253.477 407.599 253.602Z" fill="white"/>
<path d="M419.228 234.532C419.228 233.051 419.103 231.539 418.916 230.026L418.105 230.089C418.308 231.741 418.448 233.394 418.448 235C418.448 236.606 418.308 238.087 418.105 239.506L426.291 249.999C425.59 252.666 424.56 254.989 423.297 257L423.344 257.655C424.966 255.41 426.229 252.697 427.055 249.532L418.869 239.038C419.088 237.635 419.228 236.138 419.228 234.532Z" fill="white"/>
<path d="M382.51 174.317L387.53 186.619C388.871 187.165 390.243 187.788 391.631 188.599C393.034 189.41 394.391 190.361 395.732 191.374L395.888 190.595C394.734 189.737 393.564 188.942 392.364 188.24C390.961 187.43 389.604 186.806 388.263 186.26L383.243 173.958C380.062 173.085 377.068 172.805 374.309 173.054L374.402 173.569C376.757 173.506 379.875 173.584 382.51 174.317Z" fill="white"/>
<path d="M386.925 247.661L382.715 253.103C382.886 253.259 383.058 253.43 383.245 253.586L387.501 248.082C387.314 247.926 387.112 247.801 386.925 247.661Z" fill="white"/>
<path d="M357.301 209.523L365.486 208.478L365.424 207.948L357.301 209.523Z" fill="white"/>
<path opacity="0.5" d="M176.657 102.968L140.125 87V205.781L176.657 226.876C179.931 228.763 182.566 226.767 182.566 222.402V114.272C182.566 109.922 179.931 104.855 176.657 102.968Z" fill="#1C355E"/>
<path d="M166.771 222.448L45.8413 152.581C41.1638 149.884 37.3594 142.634 37.3594 136.382V41.5054C37.3594 35.2686 41.1482 32.3997 45.8413 35.0971L166.771 104.964C171.449 107.661 175.253 114.912 175.253 121.164V216.04C175.253 222.277 171.449 225.146 166.771 222.448Z" fill="#4685EB"/>
<path d="M169.171 103.685L48.2414 33.834C46.386 32.7582 44.6709 32.5711 43.2833 33.1012C43.1117 33.1635 40.7418 34.4265 40.5703 34.52H40.5547C42.0047 33.8184 43.829 33.9431 45.8247 35.0969L166.755 104.964C171.432 107.661 175.237 114.911 175.237 121.164V216.04C175.237 219.938 173.755 222.51 171.51 223.243C171.697 223.259 171.916 223.181 172.259 222.994C172.368 222.931 174.925 221.481 175.034 221.419C176.64 220.296 177.653 217.973 177.653 214.761V119.885C177.653 113.648 173.865 106.398 169.171 103.685Z" fill="#3361AB"/>
<path d="M167.177 104.761L46.247 34.8945C44.3292 33.7875 42.5673 33.6316 41.1484 34.2397C42.3646 34.0526 43.7523 34.3332 45.2335 35.1908L166.164 105.058C170.841 107.755 174.645 115.005 174.645 121.258V216.134C174.645 219.813 173.32 222.308 171.278 223.197C173.897 222.776 175.659 220.094 175.659 215.837V120.961C175.659 114.725 171.87 107.459 167.177 104.761Z" fill="#4685EB"/>
<path d="M40.3203 42.8613V136.74C40.3203 141.76 42.7059 146.672 46.5726 149.135L169.311 220.031C169.358 220.062 169.42 220.093 169.514 220.14C170.621 220.779 172.009 219.969 172.009 218.69V121.117C172.009 120.337 171.946 119.573 171.868 118.809L40.3203 42.8613Z" fill="#3361AB"/>
<path d="M170.87 219.75C170.777 219.704 170.715 219.657 170.668 219.641L47.9135 148.73C44.0468 146.266 41.6612 141.37 41.6612 136.334V43.6409L40.3203 42.8613V136.74C40.3203 141.76 42.7059 146.672 46.5726 149.135L169.311 220.031C169.358 220.062 169.42 220.093 169.514 220.14C170.169 220.514 170.917 220.374 171.432 219.937C171.245 219.906 171.042 219.86 170.87 219.75Z" fill="#A8CFF0"/>
<path d="M100.568 110.218L95.5781 107.256V167.612L100.568 170.574V110.218Z" fill="#FFD70F"/>
<path d="M109.782 118.154L104.793 115.191V172.85L109.782 175.828V118.154Z" fill="#FFD70F"/>
<path d="M119.278 112.744L114.289 109.766V178.276L119.278 181.254V112.744Z" fill="#FFD70F"/>
<path d="M76.5859 116.892V156.432L81.5753 159.41V119.854L76.5859 116.892Z" fill="#FFD70F"/>
<path d="M91.0714 117.001L86.082 114.022V161.858L91.0714 164.836V117.001Z" fill="#FFD70F"/>
<path d="M128.603 131.111L123.613 128.148V183.702L128.603 186.68V131.111Z" fill="#FFD70F"/>
<path d="M137.739 141.136L132.75 138.174V189.034L137.739 192.012V141.136Z" fill="#FFD70F"/>
<path d="M72.0675 109.314L67.0938 106.336V150.71L72.0675 153.688V109.314Z" fill="#FFD70F"/>
<path d="M48.0859 112.65V139.546L53.0753 142.509V115.628L48.0859 112.65Z" fill="#FFD70F"/>
<path d="M62.5714 101.377L57.582 98.415V144.972L62.5714 147.935V101.377Z" fill="#FFD70F"/>
<path d="M100.568 139.079L95.5781 136.101V167.612L100.568 170.574V139.079Z" fill="#1C355E"/>
<path d="M109.782 128.632L104.793 125.654V172.851L109.782 175.829V128.632Z" fill="#4685EB"/>
<path d="M119.278 136.241L114.289 133.278V178.276L119.278 181.254V136.241Z" fill="#4685EB"/>
<path d="M76.5859 138.845V156.432L81.5753 159.41V141.823L76.5859 138.845Z" fill="#1C355E"/>
<path d="M91.0714 136.943L86.082 133.98V161.859L91.0714 164.837V136.943Z" fill="#1C355E"/>
<path d="M72.0675 125.295L67.0938 122.317V150.71L72.0675 153.688V125.295Z" fill="#4685EB"/>
<path d="M48.0859 131.75V139.546L53.0753 142.508V134.728L48.0859 131.75Z" fill="#4685EB"/>
<path d="M62.5714 131.048L57.582 128.07V144.972L62.5714 147.934V131.048Z" fill="#4685EB"/>
<path d="M128.603 153.813L123.613 150.835V183.702L128.603 186.681V153.813Z" fill="#4685EB"/>
<path d="M137.739 172.008L132.75 169.046V189.128L137.739 192.106V172.008Z" fill="#4685EB"/>
<path d="M146.751 127.744L141.762 124.781V194.196L146.751 197.174V127.744Z" fill="#FFD70F"/>
<path d="M155.982 122.91L150.992 119.932V199.45L155.982 202.412V122.91Z" fill="#FFD70F"/>
<path d="M165.478 118.903L160.488 115.925V204.876L165.478 207.839V118.903Z" fill="#FFD70F"/>
<path d="M146.751 156.214L141.762 153.236V194.196L146.751 197.174V156.214Z" fill="#4685EB"/>
<path d="M155.982 145.736L150.992 142.758V199.45L155.982 202.412V145.736Z" fill="#4685EB"/>
<path d="M165.478 131.719L160.488 128.741V204.876L165.478 207.838V131.719Z" fill="#4685EB"/>
<path opacity="0.5" d="M110.887 189.269L132.949 202.007L95.3887 124.298L57.8125 158.631L79.8749 171.37L110.887 189.269Z" fill="#1C355E"/>
<path d="M9.24522 211.223L1.49609 215.604L32.3835 233.176L40.1482 228.779L9.24522 211.223Z" fill="#4685EB"/>
<path d="M1.46484 234.563L32.3678 252.12V233.16L1.46484 215.604V234.563Z" fill="#4685EB"/>
<path d="M32.3672 252.119L40.1475 247.738V228.778L32.3672 233.16V252.119Z" fill="#3361AB"/>
<path d="M32.3835 232.037L1.49609 215.604L32.3835 233.175L40.1482 228.779L32.3835 232.037Z" fill="white"/>
<path d="M43.171 204.237L35.4062 208.619L66.3092 226.191L74.0583 221.794L43.171 204.237Z" fill="#4685EB"/>
<path d="M35.3906 253.539L66.2936 271.111V226.176L35.3906 208.619V253.539Z" fill="#4685EB"/>
<path d="M66.293 271.111L74.0577 266.73V221.794L66.293 226.175V271.111Z" fill="#3361AB"/>
<path d="M66.3092 225.052L35.4062 208.618L66.3092 226.19L74.0583 221.793L66.3092 225.052Z" fill="white"/>
<path d="M122.814 208.244L130.065 204.72L92.4883 127.011L85.1602 131.065L122.814 208.244Z" fill="#3361AB"/>
<path d="M100.754 289.368L108.004 285.844V191.981L100.754 195.505V289.368Z" fill="#3361AB"/>
<path d="M69.7421 177.606V271.469L100.754 289.368V195.505L122.817 208.244L85.2559 130.534L47.6797 164.867L69.7421 177.606Z" fill="#4685EB"/>
<path d="M111.651 207.527L103.887 211.909L134.774 229.465L142.539 225.084L111.651 207.527Z" fill="#4685EB"/>
<path d="M103.871 291.193L134.774 308.749V229.465L103.871 211.893V291.193Z" fill="#4685EB"/>
<path d="M134.773 308.749L142.538 304.367V225.083L134.773 229.464V308.749Z" fill="#3361AB"/>
<path d="M134.837 228.404L103.949 211.986L134.837 229.543L142.601 225.161L134.837 228.404Z" fill="white"/>
<path d="M147.124 260.882L139.375 265.263L170.262 282.835L178.027 278.438L147.124 260.882Z" fill="#4685EB"/>
<path d="M139.344 310.183L170.247 327.755V282.819L139.344 265.263V310.183Z" fill="#4685EB"/>
<path d="M170.246 327.754L178.026 323.373V278.438L170.246 282.819V327.754Z" fill="#3361AB"/>
<path d="M170.262 281.697L139.375 265.264L170.262 282.836L178.027 278.439L170.262 281.697Z" fill="white"/>
<g opacity="0.7">
<path opacity="0.7" d="M144.423 269.645C144.423 302.622 121.129 315.906 92.3931 299.316C63.6574 282.726 40.3633 242.546 40.3633 209.57C40.3633 176.593 63.6574 163.309 92.3931 179.898C121.129 196.488 144.423 236.668 144.423 269.645Z" fill="url(#paint2_radial)"/>
</g>
<path opacity="0.2" d="M143.834 342.661L114.194 326.025C116.751 324.154 118.248 321.909 118.248 319.508C118.248 312.881 106.928 307.502 92.9735 307.502C79.0189 307.502 67.6992 312.881 67.6992 319.508C67.6992 326.134 79.0189 331.513 92.9735 331.513C95.8892 331.513 98.6645 331.264 101.268 330.843L133.185 348.773C135.243 349.958 138.845 349.818 141.23 348.446C143.865 347.09 146.999 344.532 143.834 342.661Z" fill="#92B4D1"/>
<path d="M143.722 339.388C145.499 342.693 144.267 346.794 140.962 348.571C137.656 350.349 133.556 349.117 131.778 345.811C130.001 342.506 131.232 338.405 134.538 336.628C137.843 334.85 141.944 336.082 143.722 339.388Z" fill="#3361AB"/>
<path d="M122.27 296.729L107.582 304.634L129.489 345.048C129.504 345.063 129.504 345.094 129.52 345.11C130.798 347.464 135.117 347.62 139.171 345.422C143.225 343.239 145.486 339.544 144.207 337.189C144.192 337.174 144.192 337.158 144.176 337.127L122.27 296.729Z" fill="#3361AB"/>
<path d="M122.287 296.759C123.566 299.113 121.305 302.809 117.251 304.991C113.197 307.174 108.878 307.034 107.6 304.68C106.321 302.325 108.582 298.63 112.636 296.447C116.69 294.249 121.009 294.389 122.287 296.759Z" fill="#3361AB"/>
<path d="M112.649 286.001L103.918 290.71L110.124 302.232C110.124 302.248 110.139 302.263 110.139 302.263C110.903 303.666 113.46 303.76 115.877 302.45C118.294 301.156 119.635 298.958 118.871 297.554C118.871 297.539 118.855 297.539 118.855 297.523L112.649 286.001Z" fill="#3361AB"/>
<path d="M87.9837 193.338C77.1006 187.055 67.2466 186.338 60.0276 190.251C59.8249 190.36 49.472 196.145 49.1445 196.644C56.4883 191.109 67.3558 191.187 79.5018 198.187C101.627 210.957 119.557 241.891 119.557 267.259C119.557 280.216 114.88 289.212 107.38 293.235C107.926 293.079 108.549 292.814 109.329 292.377C109.547 292.253 116.61 287.98 116.813 287.856C123.767 283.599 128.039 274.821 128.039 262.426C128.039 237.042 110.108 206.108 87.9837 193.338Z" fill="#4685EB"/>
<path d="M79.485 198.188C57.3603 185.418 39.4297 195.646 39.4297 221.014C39.4297 246.398 57.3603 277.316 79.485 290.086C101.61 302.855 119.54 292.627 119.54 267.259C119.54 241.892 101.61 210.957 79.485 198.188ZM78.8925 284.036C60.12 273.2 44.9024 246.959 44.9024 225.411C44.9024 203.863 60.12 195.194 78.8925 206.03C97.6651 216.867 112.883 243.108 112.883 264.656C112.867 286.203 97.6651 294.872 78.8925 284.036Z" fill="#D1EBFF"/>
<path d="M85.9244 280.107C67.1519 269.271 51.9343 243.03 51.9343 221.482C51.9343 212.704 54.4757 206.046 58.7479 201.992C50.3595 204.253 44.9023 212.517 44.9023 225.411C44.9023 246.943 60.1199 273.2 78.8925 284.036C90.0094 290.46 99.8635 290.024 106.069 284.145C100.425 285.658 93.4708 284.457 85.9244 280.107Z" fill="#4685EB"/>
<path d="M81.4182 197.221C70.8158 191.094 61.1801 190.267 54.0234 193.853C60.6967 191.982 70.5196 192.996 79.5005 198.172C101.625 210.942 119.556 241.876 119.556 267.244C119.556 280.466 113.148 289.93 105.367 293.828C115.143 291.099 121.474 281.37 121.474 266.277C121.458 240.925 103.527 209.991 81.4182 197.221Z" fill="white"/>
<path d="M81.2337 231.071L71.7539 220.843L74.576 219.237C74.576 219.237 75.9325 219.642 77.6476 220.094C79.3627 220.531 80.7348 220.406 81.7638 219.72C82.7929 219.034 83.6972 217.709 84.4768 215.729L91.1657 219.595V273.901L81.2181 268.148V231.071H81.2337Z" fill="#F76195"/>
<path d="M78.3648 232.708L71.7227 228.966V220.873C71.7227 220.873 73.0791 221.279 74.7942 221.731C76.5093 222.168 77.8814 222.043 78.9105 221.357C79.9395 220.671 80.8439 219.345 81.6234 217.365L88.3123 221.232V275.538L78.3648 269.785V232.708Z" fill="#EB4680"/>
<path d="M88.3125 275.539L91.197 273.902V219.596L88.3125 221.217V275.539Z" fill="#D62D69"/>
<path d="M84.4939 215.729L81.625 217.35L88.3139 221.217L91.1984 219.595L84.4939 215.729Z" fill="#F76195"/>
<path opacity="0.5" d="M88.3139 220.842L81.625 217.35L88.3139 221.216L91.1984 219.595L88.3139 220.842Z" fill="white"/>
<path d="M343.691 164.743L341.134 160.346C340.869 159.878 340.464 159.598 340.152 159.629L339.403 158.335C340.526 157.29 340.417 154.795 339.061 152.472C337.579 149.931 335.194 148.543 333.728 149.385C332.247 150.227 332.247 152.971 333.728 155.513C335.085 157.836 337.189 159.192 338.671 158.756L339.419 160.05C339.232 160.299 339.279 160.798 339.544 161.25L342.101 165.647C342.413 166.193 342.943 166.505 343.255 166.318L343.691 166.068C344.003 165.881 344.003 165.289 343.691 164.743ZM338.156 157.025C337.189 157.586 335.615 156.666 334.632 154.998C333.666 153.33 333.666 151.521 334.632 150.96C335.599 150.398 337.174 151.318 338.156 152.987C339.123 154.655 339.123 156.464 338.156 157.025Z" fill="white"/>
<path d="M22.8447 207.481C22.4081 207.481 22.0651 207.138 22.0651 206.701V203.583C22.0651 203.146 22.4081 202.803 22.8447 202.803C23.2812 202.803 23.6243 203.146 23.6243 203.583V206.701C23.6243 207.122 23.2656 207.481 22.8447 207.481ZM22.8447 199.685C22.4081 199.685 22.0651 199.342 22.0651 198.905V195.787C22.0651 195.35 22.4081 195.007 22.8447 195.007C23.2812 195.007 23.6243 195.35 23.6243 195.787V198.905C23.6243 199.326 23.2656 199.685 22.8447 199.685ZM22.8447 191.889C22.4081 191.889 22.0651 191.546 22.0651 191.109V187.991C22.0651 187.554 22.4081 187.211 22.8447 187.211C23.2812 187.211 23.6243 187.554 23.6243 187.991V191.109C23.6243 191.53 23.2656 191.889 22.8447 191.889ZM22.8447 184.093C22.4081 184.093 22.0651 183.75 22.0651 183.313V180.195C22.0651 179.759 22.4081 179.416 22.8447 179.416C23.2812 179.416 23.6243 179.759 23.6243 180.195V183.313C23.6243 183.734 23.2656 184.093 22.8447 184.093ZM22.8447 176.297C22.4081 176.297 22.0651 175.954 22.0651 175.518V172.399C22.0651 171.963 22.4081 171.62 22.8447 171.62C23.2812 171.62 23.6243 171.963 23.6243 172.399V175.518C23.6243 175.939 23.2656 176.297 22.8447 176.297ZM22.8447 168.501C22.4081 168.501 22.0651 168.158 22.0651 167.722V164.603C22.0651 164.167 22.4081 163.824 22.8447 163.824C23.2812 163.824 23.6243 164.167 23.6243 164.603V167.722C23.6243 168.143 23.2656 168.501 22.8447 168.501ZM22.8447 160.705C22.4081 160.705 22.0651 160.362 22.0651 159.926V156.807C22.0651 156.371 22.4081 156.028 22.8447 156.028C23.2812 156.028 23.6243 156.371 23.6243 156.807V159.926C23.6243 160.347 23.2656 160.705 22.8447 160.705ZM22.8447 152.909C22.4081 152.909 22.0651 152.566 22.0651 152.13V149.011C22.0651 148.575 22.4081 148.232 22.8447 148.232C23.2812 148.232 23.6243 148.575 23.6243 149.011V152.13C23.6243 152.551 23.2656 152.909 22.8447 152.909ZM22.8447 145.114C22.4081 145.114 22.0651 144.771 22.0651 144.334V141.216C22.0651 140.779 22.4081 140.436 22.8447 140.436C23.2812 140.436 23.6243 140.779 23.6243 141.216V144.334C23.6243 144.755 23.2656 145.114 22.8447 145.114ZM22.8447 137.318C22.4081 137.318 22.0651 136.975 22.0651 136.538V133.42C22.0651 132.983 22.4081 132.64 22.8447 132.64C23.2812 132.64 23.6243 132.983 23.6243 133.42V136.538C23.6243 136.959 23.2656 137.318 22.8447 137.318ZM22.8447 129.522C22.4081 129.522 22.0651 129.179 22.0651 128.742V125.624C22.0651 125.187 22.4081 124.844 22.8447 124.844C23.2812 124.844 23.6243 125.187 23.6243 125.624V128.742C23.6243 129.163 23.2656 129.522 22.8447 129.522ZM22.8447 121.726C22.4081 121.726 22.0651 121.383 22.0651 120.946V117.828C22.0651 117.391 22.4081 117.048 22.8447 117.048C23.2812 117.048 23.6243 117.391 23.6243 117.828V120.946C23.6243 121.367 23.2656 121.726 22.8447 121.726ZM20.8021 115.099C20.6618 115.099 20.5371 115.068 20.4123 114.99L17.715 113.431C17.3408 113.213 17.216 112.745 17.4343 112.371C17.6526 111.997 18.1203 111.872 18.4945 112.09L21.1919 113.649C21.5661 113.868 21.6909 114.335 21.4726 114.71C21.3323 114.959 21.0828 115.099 20.8021 115.099ZM14.0509 111.201C13.9261 111.201 13.7858 111.17 13.6611 111.092L10.9637 109.533C10.5895 109.315 10.4648 108.847 10.6831 108.473C10.9013 108.099 11.3691 107.974 11.7433 108.192L14.4407 109.751C14.8149 109.97 14.9396 110.437 14.7213 110.812C14.581 111.061 14.3315 111.201 14.0509 111.201ZM7.29963 107.303C7.15931 107.303 7.03457 107.272 6.90984 107.194L4.21246 105.635C3.83825 105.417 3.71352 104.949 3.9318 104.575C4.15009 104.201 4.61784 104.076 4.99205 104.294L7.68943 105.853C8.06363 106.072 8.18837 106.539 7.97008 106.914C7.82975 107.163 7.56469 107.303 7.29963 107.303ZM0.96936 103.359C0.766666 103.359 0.548381 103.281 0.392463 103.109C0.0962187 102.797 0.111811 102.298 0.423647 102.002L2.70005 99.8817C3.01189 99.5855 3.51082 99.6011 3.80707 99.9129C4.10331 100.225 4.08772 100.724 3.77588 101.02L1.49948 103.14C1.35915 103.281 1.17205 103.359 0.96936 103.359ZM6.67596 98.0419C6.47327 98.0419 6.25498 97.9639 6.09906 97.7924C5.80282 97.4806 5.81841 96.9816 6.13025 96.6854L8.40665 94.5649C8.71849 94.2687 9.21743 94.2843 9.51367 94.5961C9.80991 94.9079 9.79432 95.4069 9.48249 95.7031L7.20608 97.8236C7.05016 97.9639 6.86306 98.0419 6.67596 98.0419ZM12.367 92.7251C12.1643 92.7251 11.946 92.6471 11.7901 92.4756C11.4938 92.1638 11.5094 91.6648 11.8213 91.3686L14.0977 89.2481C14.4095 88.9519 14.9084 88.9675 15.2047 89.2793C15.5009 89.5911 15.4853 90.0901 15.1735 90.3863L12.8971 92.5068C12.7568 92.6471 12.5697 92.7251 12.367 92.7251ZM18.0736 87.3927C17.8709 87.3927 17.6526 87.3147 17.4967 87.1432C17.2004 86.8314 17.216 86.3324 17.5279 86.0362L19.8043 83.9157C20.1161 83.6195 20.615 83.6351 20.9113 83.9469C21.2075 84.2587 21.1919 84.7577 20.8801 85.0539L18.6037 87.1744C18.4478 87.3303 18.2607 87.3927 18.0736 87.3927ZM23.7802 82.0759C23.5775 82.0759 23.3592 81.9979 23.2033 81.8264C22.907 81.5146 22.9226 81.0156 23.2345 80.7194L25.5109 78.5989C25.8227 78.3027 26.3216 78.3183 26.6179 78.6301C26.9141 78.9419 26.8985 79.4409 26.5867 79.7371L24.3103 81.8576C24.1544 82.0135 23.9673 82.0759 23.7802 82.0759ZM29.4712 76.7591C29.2685 76.7591 29.0502 76.6811 28.8943 76.5096C28.598 76.1978 28.6136 75.6988 28.9255 75.4026L31.2175 73.2821C31.5293 72.9859 32.0282 73.0015 32.3245 73.3133C32.6207 73.6251 32.6051 74.1241 32.2933 74.4203L30.0169 76.5408C29.861 76.6967 29.6583 76.7591 29.4712 76.7591Z" fill="#EB4680"/>
<path d="M0.78186 103.53C0.579166 103.53 0.360881 103.452 0.204963 103.281C-0.0912812 102.969 -0.0756894 102.47 0.236147 102.174L31.2171 73.2821C31.5289 72.9859 32.0278 73.0015 32.3241 73.3133C32.6203 73.6251 32.6047 74.1241 32.2929 74.4203L1.31198 103.328C1.15606 103.468 0.968961 103.53 0.78186 103.53Z" fill="#EB4680"/>
<path d="M21.1441 207.481C21.2065 206.202 22.0796 205.656 23.0931 206.233C24.1066 206.826 24.8862 208.323 24.8238 209.601C24.7614 210.88 23.8883 211.425 22.8748 210.849C21.8613 210.256 21.0818 208.744 21.1441 207.481Z" fill="#EB4680"/>
<path d="M31.3283 77.8036C31.2192 77.8036 31.1256 77.788 31.0165 77.7412C30.6267 77.5697 30.4396 77.1175 30.6111 76.7122L31.7805 73.9836L28.1632 75.2621C27.7578 75.4024 27.3056 75.1842 27.1653 74.7788C27.025 74.3734 27.2276 73.9212 27.6486 73.7809L32.9343 71.9099C33.2305 71.8007 33.5579 71.8787 33.7606 72.1126C33.9789 72.3465 34.0257 72.6739 33.9009 72.9545L32.0299 77.3046C31.9208 77.6165 31.6401 77.8036 31.3283 77.8036Z" fill="#EB4680"/>
</g>
<defs>
<radialGradient id="paint0_radial" cx="0" cy="0" r="1" gradientUnits="userSpaceOnUse" gradientTransform="translate(342.1 260.929) scale(66.4756)">
<stop offset="0.3434" stop-color="white"/>
<stop offset="0.6067" stop-color="#92A3B0"/>
<stop offset="1" stop-color="white"/>
</radialGradient>
<radialGradient id="paint1_radial" cx="0" cy="0" r="1" gradientUnits="userSpaceOnUse" gradientTransform="translate(402.644 211.308) scale(42.4376)">
<stop offset="0.2626" stop-color="white"/>
<stop offset="0.7127" stop-color="#92A3B0"/>
<stop offset="1" stop-color="white"/>
</radialGradient>
<radialGradient id="paint2_radial" cx="0" cy="0" r="1" gradientUnits="userSpaceOnUse" gradientTransform="translate(92.3863 239.599) rotate(30.0007) scale(56.0657 48.254)">
<stop offset="0.2626" stop-color="white"/>
<stop offset="0.3329" stop-color="#F8F9FA"/>
<stop offset="0.4364" stop-color="#E4E8EB"/>
<stop offset="0.5604" stop-color="#C4CDD4"/>
<stop offset="0.6993" stop-color="#97A7B3"/>
<stop offset="0.7127" stop-color="#92A3B0"/>
<stop offset="1" stop-color="white"/>
</radialGradient>
<clipPath id="clip0">
<rect width="460.332" height="411" fill="white"/>
</clipPath>
</defs>
</svg>
