<svg width="205" height="140" viewBox="0 0 205 140" fill="none" xmlns="http://www.w3.org/2000/svg">
<path opacity="0.4" d="M102.02 139.68C158.364 139.68 204.04 113.309 204.04 80.7799C204.04 48.2503 158.364 21.8799 102.02 21.8799C45.6759 21.8799 0 48.2503 0 80.7799C0 113.309 45.6759 139.68 102.02 139.68Z" fill="#EEEEEE"/>
<path d="M102.02 124.87C158.364 124.87 204.04 98.4999 204.04 65.9703C204.04 33.4407 158.364 7.07031 102.02 7.07031C45.6759 7.07031 0 33.4407 0 65.9703C0 98.4999 45.6759 124.87 102.02 124.87Z" fill="#4685EB"/>
<path d="M65.4819 39.2891L46.9023 50.0091L145.608 107L164.179 96.2711L65.4819 39.2891Z" fill="#1C355E"/>
<path d="M93.4531 74.2401V74.4488L95.4006 75.579L97.3568 74.4488V74.2314L93.4531 74.2401Z" fill="#2A2A2A"/>
<path d="M95.4006 75.3622L93.4531 74.2406L95.4093 73.1104L97.3568 74.2319L95.4006 75.3622Z" fill="#383838"/>
<path d="M96.0257 73.1887C96.3561 72.9974 96.3561 72.6931 96.0257 72.5019C95.6953 72.3106 95.1563 72.3106 94.8259 72.5019C94.4955 72.6931 94.4955 72.9974 94.8259 73.1887C95.1563 73.38 95.6953 73.38 96.0257 73.1887Z" fill="#383838"/>
<path d="M94.5826 72.8408V74.1884C94.5826 74.3188 94.6609 74.4406 94.8261 74.5362C95.1565 74.7275 95.6955 74.7275 96.0259 74.5362C96.1911 74.4406 96.2693 74.3188 96.2693 74.1971V72.8495C96.2693 72.9712 96.1824 73.093 96.0259 73.1886C95.6955 73.3799 95.1565 73.3799 94.8261 73.1886C94.6609 73.093 94.5739 72.9625 94.5826 72.8408Z" fill="#2A2A2A"/>
<path d="M96.0018 67.5109C96.054 67.3979 96.0105 67.2674 95.854 67.1805C95.6193 67.0414 95.2368 67.0414 95.002 67.1805C94.889 67.2501 94.8281 67.337 94.8281 67.4239V72.7535C94.8281 72.8405 94.889 72.9361 95.002 73.0056C95.2368 73.1448 95.6193 73.1448 95.854 73.0056C95.9671 72.9361 96.0279 72.8491 96.0279 72.7622V67.4326C96.0366 67.4587 96.0192 67.4848 96.0018 67.5109Z" fill="#5E5E5E"/>
<path d="M97.7129 72.6057L92.6094 69.6583V65.6416L97.7129 68.5889V72.6057Z" fill="#2A2A2A"/>
<path d="M113.404 63.546L97.7109 72.6054V68.5887L113.404 59.5293V63.546Z" fill="#1F1F1F"/>
<path d="M97.7129 68.5888L92.6094 65.6414L108.294 56.582L113.406 59.5294L97.7129 68.5888Z" fill="#5E5E5E"/>
<path d="M93.6705 69.006L84.0547 63.4591V59.4424L93.6705 64.9893V69.006Z" fill="#2A2A2A"/>
<path d="M118.83 62.3291L118.265 62.6856C117.604 63.0681 117.195 63.868 117.195 64.9982L117.204 66.6588L117.787 66.3111L117.769 64.6418C117.76 63.5115 118.169 62.7116 118.83 62.3291Z" fill="#B9D29B"/>
<path d="M126.007 69.4057C126.007 68.3885 125.755 67.2756 125.259 66.1627C125.111 65.8237 124.937 65.4846 124.738 65.1455C124.381 64.5282 123.972 63.9544 123.529 63.4501C122.92 62.7633 122.251 62.1895 121.555 61.7895C120.295 61.0679 119.156 60.9984 118.339 61.4679L117.773 61.8243C118.591 61.3461 119.738 61.4157 120.99 62.146C121.686 62.5459 122.364 63.1198 122.964 63.8066C123.407 64.3109 123.816 64.8847 124.172 65.502C124.364 65.8411 124.538 66.1801 124.694 66.5192C125.181 67.6234 125.442 68.7449 125.442 69.7622L125.45 71.4228L126.016 71.0663L126.007 69.4057Z" fill="#3D3D3D"/>
<path d="M120.987 62.1456C122.196 62.8411 123.335 64.0409 124.178 65.5016C125.004 66.9274 125.447 68.4315 125.439 69.7618L125.447 71.4224L124.743 71.0137V69.3618C124.743 68.249 124.369 66.9883 123.682 65.7885C122.969 64.5539 122.013 63.5541 120.987 62.9629C118.909 61.763 117.205 62.676 117.196 65.006L117.205 66.6666L116.501 66.258L116.492 64.5974C116.501 61.8152 118.527 60.7197 120.987 62.1456Z" fill="#657156"/>
<path d="M116.138 61.3291L98.75 71.4318L100.193 72.2665C101.689 72.1621 103.132 72.5968 104.323 73.5184C105.062 74.0923 105.488 74.7704 105.836 75.5181L128.267 88.4725L145.647 78.3698L116.138 61.3291Z" fill="#4685EB"/>
<path d="M105.827 75.5181L123.033 85.4469L140.474 75.379L116.138 61.3291L98.75 71.4318L100.193 72.2665C101.689 72.1621 103.132 72.5968 104.323 73.5184C105.053 74.0923 105.479 74.7791 105.827 75.5181Z" fill="#4685EB"/>
<path d="M114.348 63.8671L141.744 79.6819L142.213 79.4037L114.348 63.3193L102.133 70.4225L102.602 70.7007L114.348 63.8671Z" fill="url(#paint0_linear)"/>
<path d="M99.7577 76.7177L98.7578 76.1439V71.4316L100.957 72.701C100.218 73.0662 99.7577 73.9269 99.7577 75.1702V76.7177ZM106.087 75.6657C106.826 76.8829 107.287 78.274 107.287 79.5173L107.296 81.0649L128.536 93.3237L129.014 88.8897L106.087 75.6657Z" fill="#3361AB"/>
<path d="M105.529 73.3878C105.529 73.3878 104.695 72.6401 103.634 72.0663C102.756 71.5881 101.695 71.5794 100.791 72.0054C100.756 72.0228 100.73 72.0315 100.696 72.0489C99.6957 72.5358 99.0001 73.5095 98.9306 74.6224C98.9219 74.7441 98.9219 74.8137 98.9219 74.8137L99.1566 77.0568L105.529 73.3878Z" fill="#1F1F1F"/>
<path d="M103.938 72.7101C103.355 72.5536 102.834 72.5884 102.417 72.8318L100.582 73.8925L105.303 82.0042L107.137 80.9436C107.355 80.8131 107.529 80.6219 107.685 80.3871C107.624 77.3094 106.138 74.3012 103.938 72.7101Z" fill="#1F1F1F"/>
<path d="M102.956 74.1183C101.121 73.0576 99.6259 73.9096 99.6172 76.0223C99.6085 78.135 101.095 80.7085 102.938 81.7692C104.773 82.8299 106.268 81.9778 106.277 79.8651C106.286 77.7524 104.799 75.179 102.956 74.1183Z" fill="#2A2A2A"/>
<path d="M102.958 75.1969C101.637 74.4318 100.567 75.0491 100.559 76.5619C100.559 78.0747 101.619 79.9266 102.941 80.683C104.262 81.4481 105.332 80.8308 105.34 79.318C105.34 77.8052 104.28 75.962 102.958 75.1969Z" fill="#35322E"/>
<path d="M102.998 75.2919C101.746 74.5355 100.703 75.092 100.677 76.5352C100.642 77.9785 101.633 79.7608 102.885 80.5172C104.137 81.2736 105.18 80.7171 105.206 79.2739C105.241 77.822 104.25 76.0396 102.998 75.2919Z" fill="#959082"/>
<path d="M105.1 79.5869C104.761 79.9173 104.222 79.9347 103.613 79.5695C102.614 78.9696 101.831 77.5525 101.857 76.4048C101.875 75.7267 102.162 75.3007 102.605 75.1789C102.701 75.1529 102.561 75.1355 102.561 75.1355L102.04 75.1181C101.327 75.092 100.823 75.6397 100.805 76.6048C100.779 77.9611 101.709 79.6391 102.883 80.352C103.744 80.865 104.492 80.7346 104.848 80.0912L105.048 79.7347C105.057 79.7521 105.161 79.5261 105.1 79.5869Z" fill="#B1ADA2"/>
<path d="M102.998 75.2919C101.746 74.5355 100.703 75.092 100.677 76.5352C100.642 77.9785 101.633 79.7608 102.885 80.5172C104.137 81.2736 105.18 80.7171 105.206 79.2739C105.241 77.822 104.25 76.0396 102.998 75.2919ZM102.885 80.3607C101.703 79.6477 100.772 77.9698 100.807 76.6135C100.833 75.2572 101.816 74.7268 102.998 75.4397C104.18 76.1527 105.111 77.8307 105.076 79.187C105.05 80.5433 104.067 81.0736 102.885 80.3607Z" fill="#D4D1CA"/>
<path d="M102.995 75.4399C102.83 75.3443 102.665 75.266 102.517 75.2139C102.126 75.3617 101.873 75.779 101.856 76.405C101.83 77.5526 102.621 78.9698 103.612 79.5697C104.169 79.9088 104.682 79.9175 105.021 79.6479C105.056 79.5088 105.073 79.3523 105.073 79.1784C105.108 77.8308 104.169 76.1528 102.995 75.4399Z" fill="#9B978B"/>
<path d="M104.37 77.2653C104.214 76.935 103.962 76.6307 103.683 76.4568C103.631 76.422 103.579 76.3959 103.527 76.3785C103.101 76.2133 102.77 76.4394 102.762 76.9524V77.0828L103.544 78.4738L103.657 78.5347C104.144 78.8216 104.553 78.5956 104.561 78.0304C104.561 77.787 104.492 77.5175 104.37 77.2653Z" fill="#8E8A80"/>
<path d="M103.57 76.6487C103.136 76.3878 102.771 76.5791 102.762 77.0834C102.753 77.5876 103.092 78.2049 103.536 78.4658C103.97 78.7266 104.336 78.5353 104.344 78.031C104.353 77.5355 104.005 76.9095 103.57 76.6487Z" fill="#B1ADA2"/>
<path d="M107.984 79.8129C107.984 78.7957 107.732 77.6828 107.237 76.57C107.089 76.2309 106.915 75.8918 106.715 75.5527C106.359 74.9355 105.95 74.3616 105.506 73.8574C104.898 73.1705 104.228 72.5967 103.533 72.1968C102.272 71.4751 101.133 71.4056 100.316 71.8751L99.7422 72.2315C100.559 71.7534 101.707 71.8229 102.959 72.5532C103.655 72.9532 104.333 73.527 104.933 74.2138C105.376 74.7181 105.785 75.2919 106.141 75.9092C106.332 76.2483 106.506 76.5874 106.663 76.9264C107.15 78.0306 107.411 79.1522 107.411 80.1694L107.419 81.83L107.984 81.4735V79.8129Z" fill="#323232"/>
<path d="M102.956 72.5532C104.164 73.2487 105.303 74.4485 106.147 75.9091C106.973 77.335 107.416 78.8391 107.407 80.1693L107.416 81.8299L106.712 81.4213V79.7694C106.712 78.6565 106.338 77.3959 105.651 76.196C104.938 74.9615 103.982 73.9616 102.956 73.3704C100.878 72.1706 99.1739 73.0835 99.1652 75.4136L99.1739 77.0742L98.4696 76.6655L98.4609 75.0049C98.4783 72.2315 100.495 71.1273 102.956 72.5532Z" fill="#2A2A2A"/>
<path d="M105.503 73.8833C105.946 74.3876 106.355 74.9614 106.711 75.5787C106.842 75.8048 106.946 76.0308 107.059 76.2569L109.102 75.0745C108.989 74.8397 108.876 74.605 108.746 74.3789C108.389 73.7616 107.981 73.1878 107.537 72.6835C106.929 71.9967 106.259 71.4229 105.564 71.0229C104.303 70.3013 103.164 70.2318 102.347 70.7013L100.312 71.9011C101.13 71.4229 102.277 71.4924 103.529 72.2227C104.225 72.6227 104.903 73.1965 105.503 73.8833Z" fill="#323232"/>
<path d="M120.925 64.9804C121.368 65.4846 121.777 66.0585 122.133 66.6758C122.264 66.9018 122.368 67.1279 122.481 67.3539L124.603 66.128C124.489 65.8933 123.524 63.7284 121.064 62.0678C119.864 61.2505 118.595 61.3114 117.769 61.7896L115.734 62.9894C116.552 62.5112 117.699 62.5808 118.951 63.3111C119.647 63.7284 120.316 64.2935 120.925 64.9804Z" fill="#3D3D3D"/>
<path d="M122.476 67.3539L115.434 63.285C115.434 63.285 116.381 61.833 119.155 63.1893C121.937 64.563 122.476 67.3539 122.476 67.3539Z" fill="#2A2A2A"/>
<path d="M109.779 79.7088L109.292 79.4306C109.171 79.3611 109.066 79.1959 109.066 79.0741C109.066 78.9524 109.171 78.909 109.292 78.9785L109.779 79.2567C109.901 79.3263 110.005 79.4915 110.005 79.6132C110.005 79.7349 109.901 79.7784 109.779 79.7088Z" fill="#AE6F1A"/>
<path d="M46.313 46.1229L46 45.9403V41.9584L49.0604 40.5586L46.313 46.1229Z" fill="#5E5E5E"/>
<path d="M62.2056 36.9419L46.3125 46.123V42.1411L62.2056 32.96V36.9419Z" fill="#4D4D4D"/>
<path d="M46.313 42.1411L46 41.9586L61.8931 32.7861L62.2061 32.96L46.313 42.1411Z" fill="#7F7F81"/>
<path d="M55.6146 44.7933C55.0756 44.4455 54.4757 44.2195 53.9453 43.863C53.8931 43.8283 53.8584 43.7935 53.8323 43.75C53.2845 43.7065 52.7368 43.7935 52.2325 44.0369C52.1978 44.0543 52.1717 44.063 52.1369 44.0804C51.1371 44.5673 50.4415 45.541 50.372 46.6539C50.3633 46.7756 50.3633 46.8452 50.3633 46.8452L50.598 49.0883L56.484 45.6888C56.2232 45.3758 55.9885 45.0368 55.6146 44.7933Z" fill="#1F1F1F"/>
<path d="M55.3716 44.7414C54.7891 44.5849 54.2674 44.6196 53.8501 44.8631L52.0156 45.9238L56.7366 54.0355L58.5711 52.9748C58.7884 52.8444 58.9623 52.6531 59.1188 52.4184C59.058 49.3406 57.5712 46.3324 55.3716 44.7414Z" fill="#1F1F1F"/>
<path d="M54.3894 46.1495C52.5549 45.0888 51.0595 45.9408 51.0508 48.0535C51.0421 50.1662 52.5288 52.7397 54.372 53.8004C56.2065 54.8611 57.7019 54.0091 57.7106 51.8964C57.7106 49.7837 56.2326 47.2102 54.3894 46.1495Z" fill="#2A2A2A"/>
<path d="M54.3918 47.2282C53.0703 46.4631 52.0009 47.0804 51.9922 48.5932C51.9922 50.1059 53.0529 51.9578 54.3744 52.7142C55.6959 53.4793 56.7653 52.862 56.774 51.3492C56.774 49.8364 55.7046 47.9932 54.3918 47.2282Z" fill="#35322E"/>
<path d="M54.4316 47.3232C53.1797 46.5668 52.1363 47.1232 52.1103 48.5665C52.0755 50.0097 53.0666 51.792 54.3186 52.5484C55.5706 53.3048 56.6139 52.7484 56.64 51.3051C56.6747 49.8532 55.6836 48.0709 54.4316 47.3232Z" fill="#959082"/>
<path d="M56.526 51.6182C56.1869 51.9485 55.6478 51.9659 55.0392 51.6008C54.0394 51.0009 53.2569 49.5837 53.283 48.4361C53.3004 47.7579 53.5873 47.3319 54.0307 47.2102C54.1264 47.1841 53.9872 47.1667 53.9872 47.1667L53.4656 47.1493C52.7527 47.1232 52.2484 47.671 52.231 48.636C52.2049 49.9923 53.1352 51.6703 54.3089 52.3833C55.1697 52.8962 55.9174 52.7658 56.2738 52.1224L56.4738 51.766C56.4825 51.7747 56.5955 51.5573 56.526 51.6182Z" fill="#B1ADA2"/>
<path d="M54.4316 47.3232C53.1797 46.5668 52.1363 47.1232 52.1103 48.5665C52.0755 50.0097 53.0666 51.792 54.3186 52.5484C55.5706 53.3048 56.6139 52.7484 56.64 51.3051C56.6747 49.8532 55.6836 48.0709 54.4316 47.3232ZM54.3186 52.3919C53.1362 51.679 52.2059 50.001 52.2407 48.6447C52.2668 47.2884 53.2492 46.7581 54.4316 47.471C55.614 48.1839 56.5443 49.8619 56.5096 51.2182C56.4748 52.5745 55.501 53.1049 54.3186 52.3919Z" fill="#D4D1CA"/>
<path d="M54.4247 47.4712C54.2595 47.3755 54.0943 47.2973 53.9465 47.2451C53.5553 47.3929 53.3032 47.8102 53.2858 48.4362C53.2597 49.5839 54.0509 51.001 55.042 51.6009C55.6071 51.94 56.1114 51.9487 56.4505 51.6792C56.4853 51.5401 56.5027 51.3836 56.5027 51.2097C56.5374 49.8621 55.6071 48.1841 54.4247 47.4712Z" fill="#9B978B"/>
<path d="M55.8037 49.2966C55.6472 48.9662 55.3951 48.6619 55.1169 48.488C55.0647 48.4533 55.0126 48.4272 54.9604 48.4098C54.5344 48.2446 54.204 48.4706 54.1953 48.9836V49.114L54.9778 50.5051L55.0908 50.566C55.5777 50.8529 55.9863 50.6268 55.995 50.0617C55.995 49.8182 55.9255 49.5487 55.8037 49.2966Z" fill="#8E8A80"/>
<path d="M54.9962 48.6789C54.5615 48.4181 54.1964 48.6094 54.1877 49.1137C54.179 49.6179 54.518 50.2352 54.9615 50.496C55.3962 50.7569 55.7613 50.5656 55.77 50.0613C55.7787 49.5658 55.4396 48.9398 54.9962 48.6789Z" fill="#B1ADA2"/>
<path d="M64.3959 49.8617C63.8568 49.5139 63.2569 49.2879 62.7266 48.9314C62.6744 48.8966 62.6396 48.8618 62.6135 48.8184C62.0658 48.7749 61.5181 48.8618 61.0138 49.1053C60.979 49.1227 60.9529 49.1314 60.9182 49.1487C59.9183 49.6356 59.2228 50.6094 59.1532 51.7222C59.1445 51.844 59.1445 51.9135 59.1445 51.9135L59.3793 54.1566L65.2653 50.7572C65.0045 50.4442 64.761 50.1051 64.3959 49.8617Z" fill="#1F1F1F"/>
<path d="M64.1529 49.8097C63.5703 49.6532 63.0487 49.688 62.6314 49.9314L60.7969 50.9921L65.5178 59.1039L67.3523 58.0432C67.5697 57.9128 67.7436 57.7215 67.9001 57.4867C67.8392 54.4003 66.3438 51.4008 64.1529 49.8097Z" fill="#1F1F1F"/>
<path d="M63.1707 51.2179C61.3362 50.1572 59.8408 51.0092 59.8321 53.1219C59.8234 55.2346 61.3101 57.8081 63.1533 58.8688C64.9878 59.9295 66.4832 59.0775 66.4919 56.9648C66.4919 54.8521 65.0051 52.2786 63.1707 51.2179Z" fill="#2A2A2A"/>
<path d="M63.1613 52.2965C61.8398 51.5314 60.7704 52.1487 60.7617 53.6615C60.7617 55.1743 61.8224 57.0262 63.1439 57.7826C64.4655 58.5477 65.5349 57.9304 65.5436 56.4176C65.5522 54.9048 64.4829 53.0616 63.1613 52.2965Z" fill="#35322E"/>
<path d="M63.2129 52.3925C61.9609 51.6361 60.9176 52.1925 60.8915 53.6358C60.8567 55.079 61.8479 56.8614 63.0998 57.6178C64.3518 58.3742 65.3951 57.8177 65.4212 56.3745C65.4473 54.9225 64.4648 53.1402 63.2129 52.3925Z" fill="#959082"/>
<path d="M65.3072 56.6875C64.9681 57.0179 64.4291 57.0353 63.8205 56.6701C62.8207 56.0702 62.0382 54.653 62.0643 53.5054C62.0816 52.8273 62.3686 52.4012 62.812 52.2795C62.9076 52.2534 62.7685 52.2361 62.7685 52.2361L62.2468 52.2187C61.5339 52.1926 61.0296 52.7403 61.0123 53.7054C60.9862 55.0617 61.9165 56.7397 63.0902 57.4526C63.9509 57.9656 64.6986 57.8351 65.0551 57.1918L65.255 56.8353C65.2637 56.844 65.3768 56.6266 65.3072 56.6875Z" fill="#B1ADA2"/>
<path d="M63.2129 52.3925C61.9609 51.6361 60.9176 52.1925 60.8915 53.6358C60.8567 55.079 61.8479 56.8614 63.0998 57.6178C64.3518 58.3742 65.3951 57.8177 65.4212 56.3745C65.4473 54.9225 64.4648 53.1402 63.2129 52.3925ZM63.0998 57.4613C61.9174 56.7483 60.9871 55.0703 61.0219 53.714C61.048 52.3577 62.0305 51.8274 63.2129 52.5403C64.3953 53.2532 65.3256 54.9312 65.2908 56.2875C65.256 57.6438 64.2736 58.1742 63.0998 57.4613Z" fill="#D4D1CA"/>
<path d="M63.2021 52.5405C63.0369 52.4449 62.8717 52.3666 62.7239 52.3145C62.3327 52.4623 62.0805 52.8796 62.0631 53.5056C62.037 54.6532 62.8282 56.0704 63.8194 56.6703C64.3845 57.0093 64.8888 57.018 65.2278 56.7485C65.2626 56.6094 65.28 56.4529 65.28 56.279C65.3148 54.9314 64.3845 53.2534 63.2021 52.5405Z" fill="#9B978B"/>
<path d="M64.5772 54.3659C64.4207 54.0355 64.1686 53.7312 63.8903 53.5574C63.8382 53.5226 63.786 53.4965 63.7338 53.4791C63.3078 53.3139 62.9774 53.54 62.9688 54.0529V54.1833L63.7512 55.5744L63.8643 55.6353C64.3511 55.9222 64.7598 55.6962 64.7685 55.131C64.7685 54.8876 64.6989 54.6181 64.5772 54.3659Z" fill="#8E8A80"/>
<path d="M63.7775 53.7493C63.3428 53.4884 62.9776 53.6797 62.9689 54.184C62.9602 54.6882 63.2993 55.3055 63.7427 55.5664C64.1774 55.8272 64.5426 55.6359 64.5513 55.1316C64.56 54.6361 64.2122 54.0101 63.7775 53.7493Z" fill="#B1ADA2"/>
<path d="M73.1771 54.931C72.6381 54.5832 72.0382 54.3572 71.5078 54.0007C71.4556 53.9659 71.4209 53.9312 71.3948 53.8877C70.847 53.8442 70.2993 53.9312 69.795 54.1746C69.7603 54.192 69.7342 54.2007 69.6994 54.2181C68.6996 54.705 68.004 55.6787 67.9345 56.7916C67.9258 56.9133 67.9258 56.9829 67.9258 56.9829L68.1605 59.226L74.0465 55.8265C73.777 55.5135 73.5423 55.1744 73.1771 54.931Z" fill="#1F1F1F"/>
<path d="M72.9224 54.8791C72.3399 54.7226 71.8182 54.7573 71.4009 55.0008L69.5664 56.0615L74.2874 64.1732L76.1219 63.1125C76.3392 62.9821 76.5131 62.7908 76.6696 62.5561C76.6087 59.4696 75.122 56.4701 72.9224 54.8791Z" fill="#1F1F1F"/>
<path d="M71.948 56.2872C70.1135 55.2265 68.6181 56.0785 68.6094 58.1912C68.6007 60.3039 70.0874 62.8774 71.9306 63.9381C73.7651 64.9988 75.2605 64.1468 75.2692 62.0341C75.2692 59.9214 73.7825 57.3479 71.948 56.2872Z" fill="#2A2A2A"/>
<path d="M71.9387 57.3659C70.6171 56.6008 69.5478 57.218 69.5391 58.7308C69.5391 60.2436 70.5998 62.0955 71.9213 62.8519C73.2428 63.617 74.3122 62.9997 74.3209 61.4869C74.3296 59.9741 73.2602 58.1309 71.9387 57.3659Z" fill="#35322E"/>
<path d="M71.9824 57.4531C70.7304 56.6967 69.6871 57.2531 69.661 58.6963C69.6263 60.1396 70.6174 61.9219 71.8694 62.6783C73.1214 63.4347 74.1647 62.8783 74.1907 61.435C74.2255 59.9918 73.2344 58.2095 71.9824 57.4531Z" fill="#959082"/>
<path d="M74.0846 61.7568C73.7455 62.0872 73.2064 62.1046 72.5978 61.7395C71.598 61.1396 70.8155 59.7224 70.8416 58.5748C70.859 57.8966 71.1459 57.4706 71.5893 57.3489C71.6849 57.3228 71.5458 57.3054 71.5458 57.3054L71.0242 57.288C70.3113 57.2619 69.807 57.8097 69.7896 58.7747C69.7635 60.131 70.6938 61.809 71.8675 62.5219C72.7283 63.0349 73.476 62.9045 73.8324 62.2611L74.0324 61.9046C74.0411 61.9133 74.1541 61.696 74.0846 61.7568Z" fill="#B1ADA2"/>
<path d="M71.9824 57.4531C70.7304 56.6967 69.6871 57.2531 69.661 58.6963C69.6263 60.1396 70.6174 61.9219 71.8694 62.6783C73.1214 63.4347 74.1647 62.8783 74.1907 61.435C74.2255 59.9918 73.2344 58.2095 71.9824 57.4531ZM71.8781 62.5305C70.6957 61.8176 69.7654 60.1396 69.8002 58.7833C69.8262 57.427 70.8087 56.8966 71.9911 57.6096C73.1735 58.3225 74.1038 60.0005 74.069 61.3568C74.0342 62.7131 73.0518 63.2434 71.8781 62.5305Z" fill="#D4D1CA"/>
<path d="M71.9833 57.6098C71.8181 57.5142 71.6529 57.436 71.5051 57.3838C71.1139 57.5316 70.8618 57.9489 70.8444 58.5749C70.8183 59.7225 71.6095 61.1397 72.6006 61.7396C73.1657 62.0787 73.67 62.0874 74.0091 61.8179C74.0439 61.6787 74.0612 61.5223 74.0612 61.3484C74.096 60.0008 73.1657 58.3228 71.9833 57.6098Z" fill="#9B978B"/>
<path d="M73.3545 59.4353C73.198 59.1049 72.9459 58.8006 72.6677 58.6267C72.6155 58.5919 72.5634 58.5658 72.5112 58.5485C72.0852 58.3833 71.7548 58.6093 71.7461 59.1223V59.2527L72.5286 60.6438L72.6416 60.7046C73.1285 60.9915 73.5371 60.7655 73.5458 60.2004C73.5458 59.9569 73.4762 59.6874 73.3545 59.4353Z" fill="#8E8A80"/>
<path d="M72.5548 58.8186C72.1201 58.5578 71.755 58.749 71.7463 59.2533C71.7376 59.7576 72.0766 60.3749 72.52 60.6357C72.9548 60.8965 73.3199 60.7052 73.3286 60.201C73.3373 59.7054 72.9895 59.0794 72.5548 58.8186Z" fill="#B1ADA2"/>
<path d="M78.9596 60.8341C78.9596 59.8169 78.7074 58.704 78.2119 57.5912C78.0641 57.2521 77.8902 56.913 77.6902 56.5739C77.3337 55.9566 76.9251 55.3828 76.4817 54.8786C75.8731 54.1917 57.8412 43.6021 57.1457 43.1935C57.1109 43.1761 57.0848 43.1587 57.0501 43.1413C57.0153 43.1239 56.9805 43.0979 56.9457 43.0718C55.6851 42.3501 54.5461 42.2806 53.7289 42.7501L51.1641 44.2629C52.7203 44.2107 57.7717 46.9755 61.1537 48.81C62.6752 49.6359 62.9795 49.975 64.2228 50.7662L72.178 55.4698C74.2647 56.7043 75.7079 58.7823 76.1252 61.1645C76.2296 61.7731 76.0991 62.8251 76.1687 63.4598L76.3861 64.0075L78.9509 62.5034L78.9596 60.8341Z" fill="#1F1F1F"/>
<path d="M76.4033 63.9987L76.3946 62.3381C76.3946 61.0079 75.9512 59.5038 75.1339 58.078C74.2906 56.6086 73.1603 55.4175 71.9431 54.722C69.7783 53.47 55.598 45.28 54.3895 44.5845C51.929 43.1673 49.9032 44.2628 49.8945 47.0363L49.9032 48.6969L50.6075 49.1055L50.5988 47.4449C50.6162 45.1148 52.3202 44.2019 54.3895 45.4017C55.4154 45.993 56.3717 46.9928 57.0847 48.2274C57.7715 49.4185 58.1454 50.6878 58.1454 51.8007V53.4526L58.6844 53.7656L59.3886 54.1742L59.3799 52.5136C59.3973 50.1836 61.1014 49.2707 63.1706 50.4705C64.1966 51.0617 65.1529 52.0615 65.8659 53.2961C66.5527 54.4872 66.9266 55.7566 66.9266 56.8695V58.5214L67.6308 58.93L68.1611 59.2343L68.1524 57.5737C68.1698 55.2436 69.8739 54.3307 71.9431 55.5305C72.9691 56.1218 73.9254 57.1216 74.6383 58.3562C75.3252 59.5473 75.699 60.8166 75.699 61.9295V63.5814L76.4033 63.9987Z" fill="#2A2A2A"/>
<path d="M84.1255 64.8427L83.543 64.5036V62.1475L84.1255 62.4778V64.8427Z" fill="#5E5E5E"/>
<path d="M84.3424 64.7116L84.125 64.842V62.4772L84.3424 62.3555V64.7116Z" fill="#4D4D4D"/>
<path d="M84.1255 62.4774L83.543 62.147L83.7603 62.0166L84.3428 62.3557L84.1255 62.4774Z" fill="#1F1F1F"/>
<path d="M94.438 70.789L93.8555 70.4586V68.0938L94.438 68.4328V70.789Z" fill="#5E5E5E"/>
<path d="M94.6549 70.6666L94.4375 70.7883V68.4322L94.6549 68.3018V70.6666Z" fill="#4D4D4D"/>
<path d="M94.438 68.4325L93.8555 68.0934L94.0728 67.9717L94.6553 68.3021L94.438 68.4325Z" fill="#1F1F1F"/>
<path d="M81.6294 62.5469L81.3164 62.7208L96.1575 72.2149L96.4705 72.041V71.1194L81.6294 62.5469Z" fill="#7F7F81"/>
<path d="M96.1575 72.2148L81.3164 63.651V62.7207L96.1575 71.2932V72.2148Z" fill="#5E5E5E"/>
<path d="M81.6294 60.3037L81.3164 60.4776L96.1575 69.9717L96.4705 69.7978V68.8675L81.6294 60.3037Z" fill="#7F7F81"/>
<path d="M96.1575 69.9717L81.3164 61.4078V60.4775L96.1575 69.0501V69.9717Z" fill="#5E5E5E"/>
<path d="M122.255 84.1253L46.0156 40.1151V38.2197L122.255 82.2387V84.1253Z" fill="#5E5E5E"/>
<path d="M141.833 72.8231L122.254 84.1256V82.2389L141.833 70.9277V72.8231Z" fill="#7F7F81"/>
<path d="M122.275 83.3954L46 39.359V11.3027L140.724 44.6886L122.275 83.3954Z" fill="#BEBEB4"/>
<path d="M141.857 72.0925L122.277 83.395V55.3386L141.857 44.0361V72.0925Z" fill="#D8D7CD"/>
<path d="M122.275 55.3389L46 11.3025L65.5794 0L141.854 44.0363L122.275 55.3389Z" fill="#F2F2EA"/>
<path d="M126.154 54.5656L123.215 56.261V55.9219L126.154 54.2266V54.5656ZM126.154 55.2177L123.215 56.9131V57.2522L126.154 55.5568V55.2177Z" fill="#BEBEB4"/>
<path d="M140.993 45.9924L138.055 47.6878V47.3487L140.993 45.6533V45.9924ZM140.993 46.6445L138.055 48.3398V48.6789L140.993 46.9835V46.6445Z" fill="#BEBEB4"/>
<path d="M163.893 69.4147C163.806 69.3626 163.684 69.3712 163.554 69.4495L163.085 69.719C162.824 69.8668 162.606 70.2407 162.606 70.545L162.598 73.927C162.598 74.0835 162.65 74.1879 162.737 74.24L162.98 74.3791L164.128 69.5538L163.893 69.4147Z" fill="#3361AB"/>
<path d="M163.796 69.5969C164.057 69.4491 164.274 69.5708 164.274 69.8751L164.266 73.2572C164.266 73.5615 164.048 73.9353 163.788 74.0831L163.318 74.3526C163.057 74.5004 162.84 74.3787 162.84 74.0744L162.849 70.6924C162.849 70.3881 163.066 70.0142 163.327 69.8664L163.796 69.5969Z" fill="#4685EB"/>
<path d="M161.492 71.9363C161.44 71.9363 161.388 71.9102 161.353 71.8581C161.31 71.7798 161.336 71.6842 161.405 71.6407L162.562 70.9539C162.631 70.9104 162.736 70.9365 162.779 71.006C162.823 71.0843 162.797 71.1799 162.727 71.2234L161.571 71.9102C161.545 71.9276 161.518 71.9363 161.492 71.9363Z" fill="#2A2A2A"/>
<path d="M135.379 91.2456C135.162 91.1065 133.779 90.124 133.571 90.2458C133.475 90.2979 133.388 90.3066 133.301 90.2892C132.736 90.5588 131.997 90.9065 131.623 91.15C130.954 92.1672 130.989 93.3148 130.989 93.3148L131.223 95.558L136.744 92.3672C136.344 91.9585 135.918 91.5847 135.379 91.2456Z" fill="#1F1F1F"/>
<path d="M139.55 94.7673C139.228 94.0283 138.776 93.3328 138.255 92.7329C137.811 92.2286 137.316 91.8113 136.794 91.507C135.864 90.9679 135.029 90.9245 134.42 91.2722L132.586 92.3416L137.316 100.471L139.15 99.4014C139.75 99.0536 140.124 98.3146 140.124 97.2626C140.124 96.4714 139.915 95.602 139.55 94.7673Z" fill="#1F1F1F"/>
<path d="M134.961 92.5763C133.117 91.5156 131.622 92.3676 131.613 94.4803C131.605 96.6017 133.1 99.1752 134.943 100.245C136.786 101.305 138.282 100.453 138.29 98.3405C138.299 96.2191 136.804 93.6457 134.961 92.5763Z" fill="#2A2A2A"/>
<path d="M134.962 93.6637C133.641 92.8986 132.562 93.5159 132.562 95.0287C132.562 96.5502 133.623 98.4021 134.953 99.1672C136.275 99.9323 137.353 99.315 137.353 97.8022C137.353 96.2807 136.284 94.4288 134.962 93.6637Z" fill="#35322E"/>
<path d="M134.959 93.968C133.812 93.2551 132.838 93.7594 132.794 95.0983C132.751 96.4372 133.647 98.0891 134.794 98.802C135.942 99.515 136.916 99.0107 136.959 97.6718C137.002 96.3329 136.107 94.681 134.959 93.968Z" fill="#B1ADA2"/>
<path d="M136.387 95.9154C136.056 95.2112 135.544 94.5678 134.952 94.2027C134.839 94.1331 134.726 94.0722 134.622 94.0288C133.735 93.6723 133.04 94.1505 133.005 95.2199C133.005 95.2547 132.996 95.4981 132.996 95.4981C133.031 94.507 133.648 94.0809 134.431 94.4026C134.526 94.4461 134.631 94.4896 134.726 94.5591C135.248 94.8808 135.709 95.4546 136.004 96.0806C136.222 96.5588 136.352 97.0631 136.335 97.5239C136.3 98.5933 135.526 99.0019 134.605 98.4281L134.804 98.5498C135.839 99.1932 136.717 98.7324 136.752 97.5326C136.769 97.0283 136.63 96.4545 136.387 95.9154Z" fill="#D4D1CA"/>
<path d="M136.744 95.7849C136.362 94.9589 135.762 94.2112 135.075 93.7852C134.944 93.707 134.814 93.6374 134.684 93.5853C133.649 93.1679 132.84 93.7244 132.797 94.9763C132.797 94.9937 132.797 95.0024 132.797 95.0198V95.1415C132.84 93.9069 133.605 93.3766 134.588 93.7765C134.71 93.8287 134.831 93.8896 134.962 93.9678C135.614 94.3764 136.188 95.0894 136.553 95.8718C136.831 96.4631 136.987 97.0977 136.961 97.6716C136.918 99.0105 135.944 99.5147 134.797 98.8018L134.901 98.8627C136.109 99.6104 137.127 99.08 137.17 97.6802C137.196 97.0716 137.031 96.4022 136.744 95.7849Z" fill="#D4D1CA"/>
<path d="M162.512 79.1787L145.132 89.2814V102.775C145.132 102.818 145.115 102.844 145.098 102.862L162.477 92.7591C162.504 92.7417 162.512 92.7156 162.512 92.6722V79.1787Z" fill="#3E6AA2"/>
<path d="M162.711 77.1351L158.199 74.5355L157.512 73.3444L152.496 70.4492L133.76 71.649L130.969 74.0834L131.777 81.1084L139.411 87.0291L146.366 89.9069L162.033 83.0211L163.094 77.6394L162.711 77.1351Z" fill="#2A2A2A"/>
<g opacity="0.3">
<path opacity="0.3" d="M156.245 76.6306C154.828 77.1175 153.48 78.5433 153.228 79.8127C152.976 81.082 153.932 81.7254 155.341 81.2385C156.758 80.7517 158.105 79.3258 158.357 78.0564C158.61 76.7784 157.662 76.1437 156.245 76.6306ZM156.219 77.0305C156.306 77.0044 156.384 76.987 156.471 76.9697L155.827 78.9519L154.236 78.5259C154.723 77.8565 155.462 77.2913 156.219 77.0305ZM158.036 78.2564C157.818 79.3519 156.662 80.5778 155.445 80.9951C154.228 81.4124 153.41 80.8647 153.628 79.7692C153.689 79.4388 153.845 79.1084 154.054 78.7781L156.019 79.3084L156.801 76.9088C157.679 76.8305 158.21 77.3522 158.036 78.2564Z" fill="#696969"/>
<path opacity="0.3" d="M161.245 76.8652C154.767 79.0301 147.699 83.6207 143.656 87.5244L144.256 88.672L147.551 90.9064L162.923 81.2558C162.984 80.3255 163.427 78.6041 162.818 77.8477L161.245 76.8652Z" fill="#696969"/>
<path opacity="0.3" d="M159.716 77.4213C159.229 79.3341 155.351 81.2642 152.117 81.1859C152.117 81.1859 153.587 79.6036 155.351 78.6472C158.055 77.1779 159.716 77.4213 159.716 77.4213Z" fill="#747474"/>
</g>
<path d="M161.851 69.4844L160.895 69.7626L162.086 77.1788L162.886 77.6396L161.851 69.4844Z" fill="#2A2A2A"/>
<path opacity="0.5" d="M161.739 69.5273L145.098 79.1866C144.933 79.2823 144.75 79.3344 144.559 79.3344C144.368 79.3344 144.185 79.2823 144.02 79.1866L135.143 74.057C135.056 74.0049 134.96 73.9788 134.873 73.9788C134.639 73.9788 134.474 74.1701 134.474 74.4396L134.465 79.7866C134.465 80.1082 134.682 80.4908 134.969 80.656L139.942 83.5251L140.612 84.6814C140.629 84.7075 140.646 84.7249 140.673 84.7423L145.176 87.3418C145.376 87.4549 145.602 87.5157 145.837 87.5157C146.072 87.5157 146.298 87.4549 146.498 87.3332L163.008 77.7434L161.739 69.5273Z" fill="url(#paint1_linear)"/>
<path opacity="0.5" d="M155.176 82.3166L163.018 77.7608L161.74 69.5273L155.176 73.3354V82.3166Z" fill="#2E3132"/>
<path d="M161.948 69.1533L161.461 69.7011L162.722 77.8823L163.035 77.7345L163.226 77.4476L161.948 69.1533Z" fill="#2A2A2A"/>
<path d="M144.732 78.7611L142.941 78.0742L144.28 86.8815C144.698 88.003 145.689 88.6812 146.106 87.6553L144.732 78.7611Z" fill="#2A2A2A"/>
<path d="M136.815 73.9358L135.954 73.7793L135.945 82.1953C136.154 82.7518 136.484 83.0908 136.815 83.1778V73.9358Z" fill="#2A2A2A"/>
<path d="M144.974 56.6162L127.586 66.7189L143.279 75.7783L160.668 65.6756L144.974 56.6162Z" fill="#4685EB"/>
<path d="M163.222 87.7503L162.961 87.5938C162.961 87.5938 163.118 87.4721 163.222 87.2982V77.4563C163.222 77.4389 162.726 77.7258 162.726 77.7258L146.416 87.2025C146.06 87.4112 145.616 87.4112 145.26 87.2025L140.756 84.603L140.069 83.4031L135.061 80.508C134.827 80.3776 134.644 80.0472 134.644 79.7777L134.653 74.4307C134.653 74.1612 134.844 74.0568 135.07 74.1873L143.947 79.3169C144.329 79.5342 144.799 79.5342 145.181 79.3169L161.822 69.6489L161.996 69.4837L162.005 68.7447C162.005 68.4491 161.935 68.1621 161.805 67.9013L160.666 65.6582L143.286 75.7609L127.593 66.7015L127.541 84.5334L127.828 84.6986L127.541 84.8638L127.523 92.7321L131.088 94.7926L131.079 93.245C131.088 90.8541 133.488 90.2977 135.566 91.4975C137.644 92.6973 139.33 95.6099 139.322 98.0008L139.33 99.5484L144.868 102.748C145.425 103.07 146.12 103.07 146.677 102.748L162.796 93.3841C163.065 93.2276 163.231 92.9407 163.231 92.6277L163.222 87.7503Z" fill="#3361AB"/>
<path opacity="0.7" d="M162 68.7711L161.991 69.5101L161.817 69.6753L145.177 79.3433C144.898 79.5085 144.568 79.5433 144.264 79.4737L143.281 75.7961L160.661 65.6934L161.8 67.9365C161.939 68.1886 162.009 68.4755 162 68.7711ZM163.226 87.7506L162.965 87.5942C162.965 87.5942 163.122 87.4724 163.226 87.2986V77.4567C163.226 77.4393 162.73 77.7262 162.73 77.7262L146.42 87.2029C146.107 87.3855 145.742 87.3942 145.42 87.2725V102.957C145.846 103.044 146.289 102.983 146.672 102.757L162.791 93.3932C163.061 93.2367 163.226 92.9498 163.226 92.6368V87.7506Z" fill="#4685EB"/>
<path opacity="0.9" d="M163.223 87.7511L162.962 87.5946C162.962 87.5946 162.919 87.6381 162.815 87.7076L146.148 97.3321C146.078 97.3669 146.009 97.393 145.93 97.393C145.835 97.393 145.739 97.3582 145.661 97.2974L139.888 92.046C139.158 91.3766 138.349 90.7941 137.497 90.2985L127.829 84.7168L127.551 84.882L137.34 90.5332C138.201 91.0288 139.001 91.62 139.74 92.2808L145.496 97.5147C145.626 97.6104 145.774 97.6625 145.939 97.6625C146.061 97.6625 146.191 97.6277 146.296 97.5669L162.962 87.9424C163.049 87.8815 163.145 87.8206 163.223 87.7511Z" fill="#407AD8"/>
<path d="M150.557 98.3579C150.314 98.3579 150.148 98.1753 150.148 97.9145V96.8016C150.148 96.4713 150.401 96.0713 150.722 95.8888L158.773 91.246C158.886 91.1852 158.999 91.1504 159.104 91.1504C159.347 91.1504 159.512 91.333 159.512 91.5938V92.7067C159.512 93.037 159.26 93.437 158.938 93.6196L150.887 98.2623C150.766 98.3231 150.661 98.3579 150.557 98.3579Z" fill="url(#paint2_linear)"/>
<path d="M158.85 91.3762L150.799 96.0189C150.53 96.1754 150.312 96.5232 150.312 96.7927V97.9055C150.312 98.1751 150.53 98.2707 150.799 98.1142L158.85 93.4715C159.12 93.315 159.337 92.9672 159.337 92.6977V91.5848C159.337 91.3153 159.12 91.2197 158.85 91.3762Z" fill="#323232"/>
<path d="M148.94 94.8277C148.644 94.8277 148.453 94.6103 148.453 94.2887V90.3589C148.453 89.9415 148.775 89.4373 149.183 89.2025L159.764 83.0905C159.903 83.0122 160.043 82.9688 160.164 82.9688C160.46 82.9688 160.651 83.1861 160.651 83.5078V87.4376C160.651 87.8549 160.329 88.3592 159.921 88.5939L149.34 94.706C149.201 94.7842 149.062 94.8277 148.94 94.8277Z" fill="url(#paint3_linear)"/>
<path d="M159.841 83.2388L149.261 89.3509C148.904 89.5595 148.617 90.0116 148.617 90.3681V94.2979C148.617 94.6543 148.904 94.7761 149.261 94.5674L159.841 88.4553C160.198 88.2467 160.485 87.7946 160.485 87.4381V83.5083C160.485 83.1519 160.198 83.0301 159.841 83.2388Z" fill="#323232"/>
<path d="M162.775 89.124L160.08 90.6803C159.906 90.7846 159.758 91.002 159.758 91.1846V92.1061C159.758 92.28 159.897 92.3409 160.08 92.2366L162.775 90.6803V90.2717V89.124Z" fill="#D0E5E7"/>
<path opacity="0.8" d="M162.775 89.124L162.375 89.3501V90.4542L162.775 90.6803V90.2717V89.124Z" fill="#74878B"/>
<path d="M161.105 90.8896C160.984 90.8896 160.94 90.7592 161.01 90.594C161.079 90.4288 161.236 90.2984 161.358 90.2984C161.479 90.2984 161.523 90.4288 161.453 90.594C161.384 90.7592 161.227 90.8896 161.105 90.8896ZM160.749 91.0026C160.819 90.8374 160.775 90.707 160.653 90.707C160.532 90.707 160.375 90.8374 160.306 91.0026C160.236 91.1678 160.279 91.2982 160.401 91.2982C160.523 91.2982 160.679 91.1678 160.749 91.0026ZM162.07 89.8984C161.949 89.8984 161.792 90.0289 161.723 90.194C161.653 90.3592 161.697 90.4896 161.818 90.4896C161.94 90.4896 162.097 90.3592 162.166 90.194C162.227 90.0289 162.192 89.8984 162.07 89.8984ZM159.949 91.1243C159.888 91.1243 159.819 91.1591 159.758 91.2113V91.6981C159.862 91.6634 159.984 91.559 160.045 91.4199C160.114 91.2547 160.071 91.1243 159.949 91.1243Z" fill="#E3FBFF"/>
<path opacity="0.5" d="M162.775 89.124L160.08 90.6803C159.906 90.7846 159.758 91.002 159.758 91.1846V92.1061C159.758 92.28 159.897 92.3409 160.08 92.2366L162.775 90.6803V90.2717V89.124Z" fill="#B4CACE"/>
<path d="M149.576 96.7403L146.82 98.3314V99.8963L149.576 98.3053C149.75 98.201 149.898 97.9836 149.898 97.801V96.8794C149.898 96.6969 149.75 96.636 149.576 96.7403Z" fill="#D0E5E7"/>
<path opacity="0.8" d="M149.577 96.7403L149.43 96.8273V98.1227C149.543 98.1836 149.621 98.2357 149.647 98.2444C149.786 98.1314 149.89 97.9488 149.89 97.801V96.8794C149.899 96.6969 149.751 96.636 149.577 96.7403Z" fill="#74878B"/>
<path d="M148.239 98.3231C148.117 98.3231 148.074 98.1927 148.143 98.0275C148.213 97.8623 148.37 97.7319 148.491 97.7319C148.613 97.7319 148.656 97.8623 148.587 98.0275C148.517 98.1927 148.361 98.3231 148.239 98.3231ZM147.874 98.4361C147.944 98.2709 147.9 98.1405 147.778 98.1405C147.657 98.1405 147.5 98.2709 147.431 98.4361C147.361 98.6013 147.404 98.7317 147.526 98.7317C147.648 98.7317 147.804 98.6013 147.874 98.4361ZM149.195 97.3232C149.074 97.3232 148.917 97.4537 148.848 97.6188C148.778 97.784 148.822 97.9145 148.943 97.9145C149.065 97.9145 149.222 97.784 149.291 97.6188C149.361 97.4623 149.317 97.3232 149.195 97.3232ZM147.074 98.5491C147.013 98.5491 146.944 98.5839 146.883 98.6361V99.123C146.987 99.0882 147.109 98.9838 147.17 98.8447C147.239 98.6795 147.196 98.5491 147.074 98.5491Z" fill="#E3FBFF"/>
<path opacity="0.5" d="M149.576 96.7403L146.82 98.3314V99.8963L149.576 98.3053C149.75 98.201 149.898 97.9836 149.898 97.801V96.8794C149.898 96.6969 149.75 96.636 149.576 96.7403Z" fill="#B4CACE"/>
<path d="M162.459 92.4027L159.963 93.8459C159.842 93.9155 159.746 93.872 159.746 93.7503V93.4112C159.746 93.2895 159.842 93.1417 159.963 93.0721L162.459 91.6289C162.58 91.5593 162.676 91.6028 162.676 91.7245V92.0636C162.676 92.1766 162.572 92.3331 162.459 92.4027Z" fill="#D0E5E7"/>
<path opacity="0.5" d="M162.459 92.4027L159.963 93.8459C159.842 93.9155 159.746 93.872 159.746 93.7503V93.4112C159.746 93.2895 159.842 93.1417 159.963 93.0721L162.459 91.6289C162.58 91.5593 162.676 91.6028 162.676 91.7245V92.0636C162.676 92.1766 162.572 92.3331 162.459 92.4027Z" fill="#B4CACE"/>
<path d="M149.689 99.7748L147.194 101.218C147.072 101.288 146.977 101.244 146.977 101.122V100.783C146.977 100.662 147.072 100.514 147.194 100.444L149.689 99.001C149.811 98.9314 149.907 98.9749 149.907 99.0966V99.4357C149.907 99.5487 149.811 99.7052 149.689 99.7748Z" fill="#D0E5E7"/>
<path opacity="0.5" d="M149.689 99.7748L147.194 101.218C147.072 101.288 146.977 101.244 146.977 101.122V100.783C146.977 100.662 147.072 100.514 147.194 100.444L149.689 99.001C149.811 98.9314 149.907 98.9749 149.907 99.0966V99.4357C149.907 99.5487 149.811 99.7052 149.689 99.7748Z" fill="#B4CACE"/>
<path d="M145.663 98.4532C145.611 98.4445 145.567 98.4793 145.567 98.5314C145.567 98.6792 145.567 99.5747 145.567 99.7225C145.567 99.7747 145.559 99.853 145.593 99.8964C145.776 100.105 146.541 100.088 146.898 99.8616V98.2793C146.889 98.2793 146.376 98.5488 145.663 98.4532Z" fill="#AE6F1A"/>
<path d="M163.224 90.2544V88.6895C163.12 88.872 162.972 89.0198 162.772 89.1242C162.746 89.1329 162.746 90.6978 162.746 90.6978C162.963 90.5935 163.12 90.4457 163.224 90.2544Z" fill="#AE6F1A"/>
<path d="M140.023 98.3139C140.023 97.2967 139.77 96.1838 139.275 95.0709C139.127 94.7319 138.953 94.3928 138.753 94.0537C138.397 93.4364 137.988 92.8626 137.545 92.3583C136.936 91.6715 136.267 91.0977 135.571 90.6977C134.31 89.9761 133.171 89.9066 132.354 90.3761L131.789 90.7325C132.754 90.576 133.728 90.6195 134.989 91.3498C135.684 91.7497 136.136 92.2105 136.745 92.9061C137.188 93.4103 137.771 93.9233 138.127 94.5493C138.318 94.8884 138.379 95.1492 138.527 95.4883C139.014 96.5924 139.336 97.5836 139.336 98.6008L139.475 100.331L140.04 99.9745L140.023 98.3139Z" fill="#4685EB"/>
<path d="M135.003 91.0538C136.211 91.7493 137.35 92.9491 138.194 94.4098C139.019 95.8356 139.463 97.3397 139.454 98.67L139.463 100.331L138.759 99.9219V98.27C138.759 97.1572 138.385 95.8965 137.698 94.6967C136.985 93.4621 136.029 92.4623 135.003 91.8711C132.925 90.6713 131.221 91.5842 131.212 93.9142L131.221 95.5748L130.517 95.1662L130.508 93.5056C130.517 90.7234 132.542 89.6279 135.003 91.0538Z" fill="#3361AB"/>
<path opacity="0.9" d="M133.275 79.1084L129.25 76.7871C129.032 76.6653 128.858 76.3784 128.858 76.1611V71.3532C128.858 71.3097 128.867 71.2662 128.884 71.2314C128.763 71.2314 128.676 71.301 128.676 71.4488V76.2567C128.676 76.4741 128.85 76.7523 129.067 76.8827L133.092 79.2041C133.266 79.2997 133.405 79.2736 133.458 79.1519C133.405 79.1606 133.345 79.1519 133.275 79.1084Z" fill="#407AD8"/>
<path opacity="0.9" d="M133.09 73.6137L129.065 71.2923C128.995 71.2488 128.935 71.2314 128.874 71.2314C128.856 71.2662 128.848 71.3097 128.848 71.3532C128.882 71.3966 132.908 73.718 132.908 73.718C133.125 73.8484 133.299 74.1266 133.299 74.344V79.1171C133.351 79.1432 133.403 79.1606 133.447 79.1606C133.464 79.1258 133.49 79.0997 133.49 79.0476V74.2397C133.49 74.0223 133.308 73.7441 133.09 73.6137Z" fill="#407AD8"/>
<path opacity="0.9" d="M133.275 86.1602L129.25 83.8388C129.032 83.7171 128.858 83.4302 128.858 83.2128V78.4049C128.858 78.3615 128.867 78.318 128.884 78.2832C128.763 78.2832 128.676 78.3528 128.676 78.5006V83.3085C128.676 83.5258 128.85 83.804 129.067 83.9345L133.092 86.2558C133.266 86.3515 133.405 86.3254 133.458 86.2037C133.405 86.2124 133.345 86.2037 133.275 86.1602Z" fill="#407AD8"/>
<path opacity="0.9" d="M133.09 80.6654L129.065 78.3441C128.995 78.3006 128.935 78.2832 128.874 78.2832C128.856 78.318 128.848 78.3615 128.848 78.4049C128.882 78.4484 132.908 80.7698 132.908 80.7698C133.125 80.8915 133.299 81.1784 133.299 81.3957V86.1689C133.351 86.195 133.403 86.2124 133.447 86.2124C133.464 86.1776 133.49 86.1515 133.49 86.0993V81.2914C133.49 81.0741 133.308 80.7958 133.09 80.6654Z" fill="#407AD8"/>
<path opacity="0.9" d="M136.446 75.0051V89.6897L136.324 89.6201V74.9355L136.446 75.0051ZM143.784 79.2479L143.645 79.1696L144.845 87.2031V96.5668L144.966 96.6798V87.1944L143.784 79.2479Z" fill="#407AD8"/>
<path d="M154.6 88.2378C154.244 88.4465 153.957 88.8986 153.957 89.255C153.957 89.6115 154.244 89.7332 154.6 89.5246C154.957 89.3159 155.244 88.8638 155.244 88.5073C155.235 88.1509 154.948 88.0292 154.6 88.2378ZM154.6 89.3942C154.313 89.5593 154.087 89.4637 154.087 89.1768C154.087 88.8899 154.313 88.5334 154.6 88.3682C154.887 88.203 155.113 88.2987 155.113 88.5856C155.113 88.8725 154.879 89.229 154.6 89.3942Z" fill="url(#paint4_linear)"/>
<path d="M127.815 93.4803L123.859 91.1937V86.4814L127.815 88.768V93.4803Z" fill="#B1ADA2"/>
<path d="M128.303 93.2025L127.816 93.4807V88.7684L128.303 88.4902V93.2025Z" fill="#D4D1CA"/>
<path d="M127.537 88.0553V86.4816L125.703 85.4209L123.859 86.4816L127.815 88.7682L128.293 88.49L127.537 88.0553Z" fill="#E5E2DD"/>
<path d="M127.206 92.6453L125.207 91.489C125.076 91.4194 124.98 91.2543 124.98 91.1238V90.5848C124.98 90.4544 125.085 90.4109 125.207 90.4892L127.206 91.6455C127.337 91.7151 127.432 91.8802 127.432 92.0107V92.5497C127.441 92.6714 127.337 92.7149 127.206 92.6453Z" fill="#323232"/>
<path d="M141.986 98.3055L141.499 98.0273C141.378 97.9577 141.273 97.7925 141.273 97.6708C141.273 97.5491 141.378 97.5056 141.499 97.5752L141.986 97.8534C142.108 97.923 142.212 98.0881 142.212 98.2099C142.212 98.3316 142.117 98.3751 141.986 98.3055Z" fill="#AE6F1A"/>
<path d="M145.922 71.719C145.922 71.6668 145.887 71.6146 145.818 71.5799L135.733 65.7547C135.593 65.6765 135.367 65.6765 135.228 65.7547C135.185 65.7808 135.159 65.8069 135.141 65.8417C135.141 65.7895 135.167 65.7286 135.246 65.6852C135.385 65.6069 135.611 65.6069 135.75 65.6852L145.835 71.5103C145.94 71.5625 145.966 71.6494 145.922 71.719ZM143.749 72.7188L133.663 66.8937C133.524 66.8154 133.298 66.8154 133.159 66.8937C133.089 66.9371 133.055 66.9893 133.055 67.0502C133.072 67.0154 133.098 66.9893 133.142 66.9632C133.281 66.885 133.507 66.885 133.646 66.9632L143.731 72.7884C143.801 72.8231 143.827 72.8753 143.836 72.9275C143.87 72.8492 143.844 72.771 143.749 72.7188ZM147.931 70.3018L137.845 64.4767C137.706 64.3984 137.48 64.3984 137.341 64.4767C137.271 64.5201 137.237 64.5723 137.237 64.6332C137.254 64.5984 137.28 64.5723 137.324 64.5462C137.463 64.468 137.689 64.468 137.828 64.5462L147.913 70.3714C147.983 70.4061 148.009 70.4583 148.017 70.5105C148.052 70.4409 148.026 70.354 147.931 70.3018ZM145.687 59.7122C145.827 59.634 146.053 59.634 146.192 59.7122L156.277 65.5374C156.347 65.5721 156.373 65.6243 156.381 65.6765C156.416 65.6069 156.39 65.5287 156.294 65.4678L146.209 59.6427C146.07 59.5644 145.844 59.5644 145.705 59.6427C145.635 59.6861 145.6 59.7383 145.6 59.7992C145.627 59.7644 145.653 59.7383 145.687 59.7122ZM154.208 66.6763L144.122 60.8512C143.983 60.7729 143.757 60.7729 143.618 60.8512C143.549 60.8946 143.514 60.9468 143.514 61.0077C143.531 60.9729 143.557 60.9468 143.601 60.9207C143.74 60.8425 143.966 60.8425 144.105 60.9207L154.19 66.7459C154.26 66.7806 154.286 66.8328 154.295 66.885C154.329 66.8154 154.303 66.7372 154.208 66.6763ZM150.026 69.0933L139.941 63.2682C139.801 63.1899 139.575 63.1899 139.436 63.2682C139.367 63.3116 139.332 63.3638 139.332 63.4247C139.349 63.3899 139.375 63.3638 139.419 63.3377C139.558 63.2595 139.784 63.2595 139.923 63.3377L150.008 69.1629C150.078 69.1976 150.104 69.2498 150.113 69.302C150.148 69.2324 150.121 69.1455 150.026 69.0933ZM152.121 67.8848L142.036 62.0597C141.897 61.9814 141.671 61.9814 141.532 62.0597C141.462 62.1031 141.427 62.1553 141.427 62.2162C141.445 62.1814 141.471 62.1553 141.514 62.1292C141.653 62.051 141.879 62.051 142.018 62.1292L152.104 67.9544C152.173 67.9891 152.199 68.0413 152.208 68.0935C152.243 68.0239 152.217 67.9457 152.121 67.8848Z" fill="#3361AB"/>
<path d="M142.586 82.8475C142.534 82.8475 142.482 82.8214 142.447 82.7692C142.404 82.691 142.43 82.5953 142.499 82.5518L143.656 81.865C143.725 81.8215 143.829 81.8476 143.873 81.9172C143.916 81.9954 143.89 82.0911 143.821 82.1345L142.664 82.8214C142.638 82.8388 142.612 82.8475 142.586 82.8475Z" fill="#2A2A2A"/>
<path d="M142.987 81.4909C142.9 81.4387 142.778 81.4474 142.648 81.5257L142.178 81.7952C141.917 81.943 141.7 82.3168 141.7 82.6211L141.691 86.0032C141.691 86.1597 141.744 86.264 141.831 86.3162L142.074 86.4553L143.222 81.63L142.987 81.4909Z" fill="#3361AB"/>
<path d="M142.898 81.6653C143.159 81.5174 143.376 81.6392 143.376 81.9435L143.367 85.3255C143.367 85.6298 143.15 86.0037 142.889 86.1515L142.42 86.421C142.159 86.5688 141.941 86.4471 141.941 86.1428L141.95 82.7607C141.95 82.4564 142.167 82.0826 142.428 81.9348L142.898 81.6653Z" fill="#3361AB"/>
<path d="M137.517 83.7511L138.674 84.4205C138.787 84.4901 138.882 84.4466 138.882 84.3336V84.1945C138.882 84.0814 138.787 83.9336 138.674 83.8641L137.517 83.1946C137.404 83.1251 137.309 83.1685 137.309 83.2816V83.4207C137.309 83.5337 137.404 83.6815 137.517 83.7511Z" fill="#323232"/>
<path d="M52.747 26.9955L51.9645 26.5434C51.582 26.3261 51.2951 26.2565 51.0864 26.3348C50.8778 26.413 50.7734 26.6478 50.7734 27.0303V29.3082C50.7734 29.6908 50.8778 30.0385 51.0864 30.3602C51.2951 30.6819 51.582 30.9514 51.9645 31.1688L52.747 31.6209C53.1209 31.8382 53.4165 31.8991 53.6251 31.8208C53.8338 31.7339 53.9381 31.5079 53.9381 31.134V30.7949C53.9381 30.6906 53.886 30.6037 53.7816 30.5428L53.173 30.195C53.0687 30.1342 53.0252 30.1602 53.0252 30.2646V30.5602C53.0252 30.7167 52.9905 30.8036 52.9296 30.8297C52.8687 30.8558 52.7557 30.8297 52.5992 30.7341L52.1123 30.4472C51.9645 30.3602 51.8602 30.2646 51.7907 30.1689C51.7298 30.0646 51.695 29.9429 51.695 29.7864V27.5954C51.695 27.4389 51.7298 27.352 51.7907 27.3259C51.8515 27.2998 51.9645 27.3259 52.1123 27.4129L52.5992 27.6998C52.7557 27.7867 52.8601 27.8824 52.9296 27.9867C52.9905 28.091 53.0252 28.2127 53.0252 28.3692V28.6648C53.0252 28.7692 53.0774 28.8561 53.173 28.9083L53.7816 29.256C53.886 29.3169 53.9381 29.2908 53.9381 29.1865V28.8474C53.9381 28.4736 53.8338 28.1258 53.6251 27.7954C53.4165 27.4824 53.1209 27.2129 52.747 26.9955Z" fill="#403D37"/>
<path d="M56.5567 29.195L55.6003 28.6386C55.4873 28.5777 55.4177 28.5864 55.383 28.6647L54.244 32.3336C54.2179 32.4206 54.244 32.4814 54.331 32.5336L55.0178 32.9335C55.07 32.9596 55.0961 32.9683 55.1221 32.9596C55.1395 32.9509 55.1569 32.9161 55.1656 32.8727L55.3656 32.1945L56.7654 33.0031L56.9653 33.9073C56.974 33.9681 56.9914 34.0203 57.0088 34.0464C57.0262 34.0812 57.061 34.1072 57.1131 34.142L57.8 34.542C57.8869 34.5941 57.913 34.5594 57.8869 34.4376L56.748 29.4558C56.748 29.3515 56.6784 29.2646 56.5567 29.195ZM55.5482 31.5598L56.0698 29.7775C56.0959 29.7949 56.6176 32.1771 56.6176 32.1771L55.5482 31.5598Z" fill="#403D37"/>
<path d="M60.7881 34.4816C61.2141 34.525 61.4315 34.2816 61.4315 33.7425V33.1774C61.4315 32.8036 61.3271 32.4558 61.1185 32.1254C60.9098 31.795 60.6142 31.5255 60.2404 31.3082L58.5189 30.3257C58.4146 30.2648 58.3711 30.2909 58.3711 30.3866V34.7076C58.3711 34.8119 58.4233 34.8902 58.5189 34.9424L59.1275 35.2988C59.2318 35.3597 59.2753 35.3336 59.2753 35.238V33.7599C59.2753 33.7078 59.3014 33.6991 59.3622 33.7339L59.8404 34.0121L60.562 35.9857C60.5881 36.0639 60.6142 36.1248 60.6577 36.1595C60.6925 36.203 60.762 36.2465 60.8403 36.2987L61.4228 36.6377C61.5445 36.7073 61.588 36.6725 61.5445 36.5334L60.7881 34.4816ZM60.5099 33.2557C60.5099 33.4035 60.4751 33.4817 60.4055 33.5078C60.336 33.5339 60.223 33.4991 60.0665 33.4122L59.3622 33.0035C59.3101 32.9688 59.284 32.934 59.284 32.8818V31.6472C59.284 31.5951 59.3101 31.5864 59.3622 31.6125L60.0665 32.0211C60.223 32.108 60.336 32.2124 60.4055 32.3167C60.4751 32.4297 60.5099 32.5514 60.5099 32.6992V33.2557Z" fill="#403D37"/>
<path d="M64.007 33.4898L63.2419 33.0464C62.8593 32.829 62.5724 32.7595 62.3638 32.8377C62.1551 32.916 62.0508 33.1507 62.0508 33.5333V35.8111C62.0508 36.1937 62.1551 36.5415 62.3638 36.8631C62.5724 37.1848 62.8593 37.4544 63.2419 37.6717L64.007 38.1151C64.3808 38.3325 64.6677 38.3933 64.8764 38.3151C65.0851 38.2281 65.1894 38.0021 65.1894 37.6282V36.4284C65.1894 36.3154 65.1372 36.2285 65.0242 36.1676L63.7635 35.4373C63.6592 35.3764 63.6157 35.4025 63.6157 35.4981V35.985C63.6157 36.0894 63.6679 36.1676 63.7635 36.2198L64.1983 36.4719C64.2504 36.5067 64.2765 36.5415 64.2765 36.5936V37.0457C64.2765 37.2022 64.2417 37.2892 64.1809 37.3152C64.12 37.3413 64.007 37.3152 63.8592 37.2283L63.3897 36.9675C63.2419 36.8805 63.1376 36.7849 63.068 36.6893C63.0071 36.5849 62.9724 36.4632 62.9724 36.3067V34.1158C62.9724 33.9593 63.0071 33.8723 63.068 33.8462C63.1289 33.8202 63.2419 33.8462 63.3897 33.9332L63.8592 34.2027C64.0157 34.2896 64.12 34.3853 64.1809 34.4896C64.2417 34.5939 64.2765 34.7157 64.2765 34.8722V35.046C64.2765 35.1504 64.3287 35.2373 64.4243 35.2895L65.0329 35.6459C65.1372 35.7068 65.1807 35.6807 65.1807 35.5764V35.359C65.1807 34.9852 65.0764 34.6374 64.8677 34.3157C64.6677 33.9767 64.3808 33.7071 64.007 33.4898Z" fill="#403D37"/>
<path d="M68.6669 36.4895C68.4582 36.1678 68.1713 35.8983 67.7887 35.6809L66.9802 35.2114C66.5976 34.9941 66.3107 34.9245 66.1021 35.0027C65.8934 35.081 65.7891 35.3157 65.7891 35.6983V37.9762C65.7891 38.3587 65.8934 38.7065 66.1021 39.0282C66.3107 39.3499 66.5976 39.6194 66.9802 39.8367L67.7887 40.3062C68.1713 40.5236 68.4582 40.5931 68.6669 40.5149C68.8755 40.4367 68.9799 40.2019 68.9799 39.8194V37.5415C68.9799 37.1589 68.8755 36.8112 68.6669 36.4895ZM68.067 39.2455C68.067 39.402 68.0322 39.489 67.9713 39.5151C67.9105 39.5411 67.7974 39.5151 67.6409 39.4194L67.128 39.1238C66.9715 39.0369 66.8672 38.9412 66.8063 38.8369C66.7454 38.7326 66.7107 38.6109 66.7107 38.4544V36.2634C66.7107 36.1069 66.7454 36.02 66.8063 35.9939C66.8672 35.9678 66.9802 35.9939 67.128 36.0808L67.6409 36.3764C67.7974 36.4634 67.9018 36.559 67.9713 36.6633C68.0322 36.7677 68.067 36.8894 68.067 37.0459V39.2455Z" fill="#403D37"/>
<path d="M68.9783 41.7233L50.7812 31.2207V36.5937L68.9783 41.7233Z" fill="#3361AB"/>
<defs>
<linearGradient id="paint0_linear" x1="115.981" y1="71.4995" x2="113.019" y2="71.4995" gradientUnits="userSpaceOnUse">
<stop offset="0.5566" stop-color="#973326"/>
<stop offset="0.5714" stop-color="#B1483A"/>
</linearGradient>
<linearGradient id="paint1_linear" x1="144.401" y1="79.9801" x2="145.049" y2="79.8804" gradientUnits="userSpaceOnUse">
<stop offset="0.5222" stop-color="#18191B"/>
<stop offset="0.5465" stop-color="#202223"/>
<stop offset="0.601" stop-color="#2E3132"/>
</linearGradient>
<linearGradient id="paint2_linear" x1="152.104" y1="93.1782" x2="157.542" y2="96.3179" gradientUnits="userSpaceOnUse">
<stop offset="0.5862" stop-color="#6F6F6F"/>
<stop offset="0.5882" stop-color="#7D7D7D"/>
<stop offset="0.5911" stop-color="#8C8C8C"/>
</linearGradient>
<linearGradient id="paint3_linear" x1="150.485" y1="86.551" x2="158.613" y2="91.2438" gradientUnits="userSpaceOnUse">
<stop offset="0.5862" stop-color="#6F6F6F"/>
<stop offset="0.5882" stop-color="#7D7D7D"/>
<stop offset="0.5911" stop-color="#8C8C8C"/>
</linearGradient>
<linearGradient id="paint4_linear" x1="154.04" y1="88.8807" x2="154.977" y2="89.2867" gradientUnits="userSpaceOnUse">
<stop offset="0.5862" stop-color="#6F6F6F"/>
<stop offset="0.5882" stop-color="#7D7D7D"/>
<stop offset="0.5911" stop-color="#8C8C8C"/>
</linearGradient>
</defs>
</svg>
