<svg width="205" height="134" viewBox="0 0 205 134" fill="none" xmlns="http://www.w3.org/2000/svg">
<path opacity="0.4" d="M102.02 133.642C158.364 133.642 204.04 107.271 204.04 74.7418C204.04 42.2122 158.364 15.8418 102.02 15.8418C45.6759 15.8418 0 42.2122 0 74.7418C0 107.271 45.6759 133.642 102.02 133.642Z" fill="#EEEEEE"/>
<path d="M102.02 118.832C158.364 118.832 204.04 92.4618 204.04 59.9322C204.04 27.4027 158.364 1.03223 102.02 1.03223C45.6759 1.03223 0 27.4027 0 59.9322C0 92.4618 45.6759 118.832 102.02 118.832Z" fill="#4685EB"/>
<path d="M81.0895 31.1445L50.1719 49.0215L122.781 91.0325L153.699 73.1395L81.0895 31.1445Z" fill="#1C355E"/>
<path d="M142.525 41.5035L142.269 41.3598C142.173 41.3119 142.062 41.3119 141.934 41.3918L139.428 42.8602C139.157 43.0198 138.949 43.387 138.949 43.6902V44.9672C138.949 45.1268 138.997 45.2225 139.093 45.2864L139.348 45.43C139.316 45.4141 139.3 45.3822 139.284 45.3662C139.364 45.4779 139.508 45.4939 139.683 45.3981L142.189 43.9296C142.461 43.77 142.668 43.4029 142.668 43.0996V41.8227C142.668 41.6631 142.604 41.5514 142.525 41.5035Z" fill="#D8D7CD"/>
<path d="M141.247 43.5945C141.119 43.2433 140.561 43.5785 140.752 43.8818C140.752 43.8818 141.199 44.632 140.976 45.446C140.832 45.9728 140.465 46.4037 139.842 46.7549C139.699 46.8347 139.667 47.0103 139.731 47.1539C139.89 47.4891 140.13 47.4412 140.177 47.4093C140.928 46.9783 141.343 46.276 141.518 45.6056C141.806 44.5681 141.263 43.6424 141.247 43.5945Z" fill="#4F504C"/>
<path d="M63.8989 41.6953L59.8447 43.5309C57.8176 44.9515 59.2062 48.8142 59.2062 48.8142L66.6603 44.4567L63.8989 41.6953Z" fill="#1F1F1F"/>
<path d="M113.3 73.9531C112.789 74.2564 112.374 74.7672 112.135 75.5174C111.927 76.1079 111.848 76.7624 111.848 77.4328V79.2045L139.254 63.2748V61.5031C139.254 60.8327 139.334 60.1942 139.541 59.5877C139.796 58.8375 140.195 58.3267 140.706 58.0234L113.3 73.9531Z" fill="#1F1F1F"/>
<path d="M124.666 78.9813C124.171 77.864 123.485 76.7786 122.687 75.8688C122.017 75.1026 121.25 74.4482 120.452 73.9853C119.032 73.1713 117.739 73.0915 116.813 73.6342L114.004 75.2623L121.25 87.7123L124.06 86.0842C124.97 85.5575 125.544 84.4242 125.544 82.8121C125.56 81.5831 125.225 80.2582 124.666 78.9813Z" fill="#1F1F1F"/>
<path d="M117.643 75.6297C114.818 74.0016 112.52 75.3104 112.52 78.5507C112.504 81.7909 114.786 85.7493 117.611 87.3774C120.437 89.0055 122.735 87.6967 122.735 84.4564C122.751 81.2162 120.468 77.2578 117.643 75.6297Z" fill="#2A2A2A"/>
<path d="M117.644 77.2891C115.617 76.1239 113.973 77.0657 113.973 79.3801C113.973 81.7105 115.601 84.5357 117.628 85.7169C119.655 86.8821 121.299 85.9403 121.299 83.6259C121.299 81.2955 119.671 78.4543 117.644 77.2891Z" fill="#30302F"/>
<path d="M120.849 83.2919C120.897 81.2329 119.477 78.695 117.705 77.6096C117.45 77.466 117.21 77.3542 116.971 77.2744C116.38 77.4979 115.997 78.1363 115.981 79.0781C115.949 80.8179 117.13 82.9567 118.647 83.8666C119.493 84.3773 120.259 84.3933 120.786 83.9942C120.817 83.7708 120.849 83.5473 120.849 83.2919Z" fill="#9B978B"/>
<path d="M119.778 80.3702C119.539 79.8595 119.156 79.4125 118.741 79.1572C118.661 79.1093 118.581 79.0614 118.501 79.0454C117.863 78.79 117.368 79.1412 117.352 79.9073V80.0989C117.336 80.865 117.863 81.8068 118.517 82.2058C118.565 82.2377 118.613 82.2537 118.661 82.2697C118.629 82.2537 118.581 82.2377 118.549 82.2218L118.709 82.3175C119.443 82.7485 120.065 82.4133 120.081 81.5514C120.081 81.1683 119.97 80.7533 119.778 80.3702Z" fill="#8E8A80"/>
<path d="M120.88 83.8982C120.37 84.393 119.54 84.4249 118.63 83.8822C117.129 82.9724 115.932 80.8335 115.964 79.0937C115.98 78.0722 116.427 77.4177 117.097 77.2422C117.241 77.2102 117.034 77.1783 117.034 77.1783L116.252 77.1464C115.166 77.1145 114.416 77.9445 114.384 79.397C114.336 81.456 115.757 83.9939 117.528 85.0793C118.821 85.8614 119.971 85.6539 120.513 84.6962L120.817 84.1535C120.817 84.1376 120.992 83.8024 120.88 83.8982Z" fill="#B1ADA2"/>
<path d="M117.704 77.3854C115.805 76.2362 114.24 77.0821 114.193 79.2689C114.145 81.4556 115.645 84.1531 117.544 85.3024C119.444 86.4516 121.008 85.6056 121.056 83.4189C121.104 81.2162 119.604 78.5187 117.704 77.3854ZM117.544 85.0629C115.757 83.9935 114.352 81.4396 114.4 79.3806C114.448 77.3216 115.932 76.5235 117.72 77.6089C119.508 78.6783 120.912 81.2321 120.864 83.2912C120.817 85.3502 119.332 86.1324 117.544 85.0629Z" fill="#D4D1CA"/>
<path d="M118.569 79.4451C119.224 79.8441 119.75 80.7859 119.734 81.552C119.718 82.3182 119.176 82.6055 118.505 82.2064C117.851 81.8074 117.324 80.8657 117.34 80.0995C117.372 79.3334 117.915 79.0461 118.569 79.4451Z" fill="#B1ADA2"/>
<path d="M72.3225 48.7665C71.8277 47.6492 71.1414 46.5638 70.3433 45.654C69.6729 44.8878 68.9067 44.2334 68.1086 43.7705C66.6881 42.9564 65.3952 42.8766 64.4694 43.4193L61.6602 45.0474L68.9067 57.4975L71.716 55.8694C72.6258 55.3427 73.2004 54.2094 73.2004 52.5973C73.2164 51.3682 72.8971 50.0434 72.3225 48.7665Z" fill="#1F1F1F"/>
<path d="M65.2995 45.4148C62.4743 43.7868 60.1759 45.0956 60.1759 48.3358C60.1599 51.576 62.4424 55.5345 65.2676 57.1626C68.0928 58.7907 70.3913 57.4818 70.3913 54.2416C70.4073 50.9854 68.1247 47.0429 65.2995 45.4148Z" fill="#2A2A2A"/>
<path d="M65.3001 47.0743C63.273 45.9091 61.6289 46.8508 61.6289 49.1652C61.6289 51.4956 63.257 54.3209 65.2841 55.502C67.3112 56.6672 68.9553 55.7255 68.9553 53.411C68.9712 51.0806 67.3272 48.2395 65.3001 47.0743Z" fill="#30302F"/>
<path d="M68.5056 53.0751C68.5535 51.0161 67.1329 48.4782 65.3612 47.3928C65.1058 47.2492 64.8664 47.1374 64.627 47.0576C64.0364 47.2811 63.6533 47.9195 63.6374 48.8613C63.6054 50.6011 64.7866 52.74 66.3029 53.6498C67.1489 54.1605 67.9151 54.1765 68.4418 53.7775C68.4737 53.554 68.5056 53.3305 68.5056 53.0751Z" fill="#9B978B"/>
<path d="M67.4539 50.1544C67.2144 49.6436 66.8314 49.1967 66.4164 48.9413C66.3365 48.8934 66.2567 48.8456 66.1769 48.8296C65.5385 48.5742 65.0437 48.9254 65.0277 49.6915V49.8831C65.0117 50.6492 65.5385 51.591 66.1929 51.99C66.2408 52.0219 66.2887 52.0379 66.3365 52.0538C66.3046 52.0379 66.2567 52.0219 66.2248 52.006L66.3844 52.1017C67.1187 52.5327 67.7412 52.1975 67.7571 51.3356C67.7412 50.9525 67.6294 50.5375 67.4539 50.1544Z" fill="#8E8A80"/>
<path d="M68.5561 53.6823C68.0454 54.1771 67.2154 54.2091 66.3056 53.6664C64.8052 52.7566 63.608 50.6177 63.64 48.8779C63.6559 47.8564 64.1029 47.2019 64.7732 47.0263C64.9169 46.9944 64.7094 46.9625 64.7094 46.9625L63.9273 46.9306C62.8419 46.8987 62.0917 47.7287 62.0598 49.1812C62.0119 51.2402 63.4325 53.7781 65.2042 54.8635C66.4971 55.6456 67.6463 55.4381 68.189 54.4804L68.4923 53.9377C68.4923 53.9218 68.6519 53.5706 68.5561 53.6823Z" fill="#B1ADA2"/>
<path d="M65.3603 47.1696C63.4609 46.0203 61.8967 46.8663 61.8488 49.053C61.8009 51.2398 63.3013 53.9373 65.2007 55.0865C67.1001 56.2358 68.6644 55.3898 68.7123 53.2031C68.7601 51.0004 67.2598 48.3029 65.3603 47.1696ZM65.2007 54.8471C63.413 53.7777 62.0084 51.2238 62.0563 49.1648C62.1042 47.1057 63.5886 46.3077 65.3763 47.393C67.164 48.4625 68.5686 51.0163 68.5207 53.0754C68.4728 55.1344 66.9884 55.9165 65.2007 54.8471Z" fill="#D4D1CA"/>
<path d="M66.2216 49.2293C66.876 49.6283 67.4027 50.57 67.3868 51.3362C67.3708 52.1024 66.8281 52.3897 66.1577 51.9906C65.5033 51.5916 64.9766 50.6499 64.9925 49.8837C65.0245 49.1175 65.5672 48.8302 66.2216 49.2293Z" fill="#B1ADA2"/>
<path d="M83.0711 0.226906C82.6082 -0.0444409 82.1932 -0.0604024 81.8899 0.115175L56.1758 15.0393C56.4631 14.8637 56.8941 14.8956 57.3569 15.151L105.29 42.8284L131.004 27.9043L83.0711 0.226906Z" fill="#EBEBE8"/>
<path d="M141.266 47.5211L132.104 29.2291C132.088 29.1972 132.088 29.1812 132.072 29.1493C131.945 28.862 131.785 28.6066 131.577 28.3831C131.402 28.1916 131.21 28.032 131.019 27.9043L105.305 42.8284C105.496 42.9401 113.876 63.4508 113.876 63.4508C124.411 58.774 133.732 53.5386 141.266 47.5211ZM127.459 40.2905C129.566 38.9817 131.593 37.6409 133.541 36.3001L138.856 46.8667L127.459 40.2905Z" fill="#F0F0EC"/>
<path d="M124.872 72.1499L113.858 63.4508L106.372 44.1532C106.133 43.5786 105.734 43.0838 105.287 42.8284L57.3543 15.151C56.4285 14.6242 55.6943 15.0552 55.6943 16.0927C54.9121 23.0839 54.1939 35.9011 55.2473 46.4996L59.2218 48.798L59.2377 46.8507C59.2537 46.2442 59.3335 45.6696 59.525 45.1269C60.2752 42.8923 62.3822 42.7486 64.8083 44.1532C68.5753 46.324 71.0014 49.9154 70.9855 53.7621C70.9855 53.826 70.9695 55.5019 70.9695 55.5817L111.847 79.1889V77.4172C111.847 76.7468 111.927 76.1084 112.134 75.5018C112.853 73.347 114.848 73.1076 117.178 74.4484C117.258 74.4962 117.338 74.5441 117.434 74.592C121.36 77.0661 123.595 80.3063 123.595 84.153C123.595 84.2009 123.595 85.8928 123.595 85.9726L126.436 87.6167L126.468 75.2943C126.468 74.2089 125.798 72.8841 124.872 72.1499Z" fill="#BEBEB4"/>
<path opacity="0.4" d="M131.558 28.3828L105.844 43.3069C106.035 43.5304 106.211 43.7858 106.339 44.0731L132.053 29.149C131.925 28.8617 131.765 28.6063 131.558 28.3828Z" fill="#EBEBE8"/>
<path d="M59.2219 48.8134L59.2378 46.8661C59.2538 46.2596 59.3336 45.685 59.5251 45.1423C60.2753 42.9076 62.3823 42.764 64.8084 44.1686C68.5754 46.3394 71.0015 49.9307 70.9856 53.7775C70.9856 53.8413 70.9696 55.5173 70.9696 55.5971L111.847 79.2043V77.4326C111.847 76.7622 111.927 76.1237 112.135 75.5172C112.486 74.4637 113.14 73.8891 113.986 73.6976C113.986 73.6976 113.667 73.5699 113.092 73.3145C99.8921 67.696 87.8091 59.7471 77.3862 49.8988C70.1556 43.0992 62.9729 36.2197 54.7367 31.543C54.6409 36.4911 54.7686 41.7265 55.2474 46.515L59.2219 48.8134Z" fill="#3361AB"/>
<path d="M139.829 47.585L133.62 36.2363C133.588 36.2523 133.556 36.2842 133.524 36.3002L138.839 46.8668L127.459 40.2906C122.143 43.6106 116.349 46.7869 110.156 49.8675L114.769 62.142C124.266 58.1835 133.668 52.7566 139.829 47.585Z" fill="#595757"/>
<path d="M126.469 75.2939L153.876 59.3643L153.844 71.6866L126.438 87.6163L126.469 75.2939Z" fill="#D8D7CD"/>
<path d="M113.859 63.4512C124.202 58.5031 133.556 53.2517 141.265 47.5215L152.279 56.2206L124.873 72.1502L113.859 63.4512Z" fill="#EBEBE8"/>
<path d="M153.542 57.8957C153.351 57.4647 153.095 57.0497 152.792 56.6986C152.632 56.523 152.473 56.3634 152.281 56.2197L124.875 72.1494C125.051 72.2931 125.226 72.4527 125.386 72.6283C125.689 72.9794 125.96 73.3944 126.136 73.8254C126.359 74.3202 126.471 74.831 126.471 75.2938L153.877 59.3642C153.877 58.9013 153.75 58.3905 153.542 57.8957Z" fill="url(#paint0_linear)"/>
<path opacity="0.4" d="M152.773 56.7148L125.367 72.6286C125.67 72.9797 125.942 73.3947 126.117 73.8257L153.523 57.896C153.348 57.465 153.077 57.066 152.773 56.7148Z" fill="#EBEBE8"/>
<path d="M129.595 45.813C127.6 46.4994 125.685 48.5265 125.318 50.3302C124.966 52.1338 126.307 53.0277 128.318 52.3413C130.314 51.655 132.229 49.6279 132.596 47.8242C132.931 46.0365 131.59 45.1267 129.595 45.813ZM129.547 46.3877C129.675 46.3398 129.787 46.3238 129.899 46.2919L128.989 49.1011L126.738 48.4946C127.44 47.5529 128.478 46.7548 129.547 46.3877ZM132.117 48.1115C131.814 49.6598 130.17 51.3996 128.446 51.9902C126.722 52.5808 125.573 51.7986 125.876 50.2504C125.972 49.7875 126.18 49.3086 126.483 48.8458L129.26 49.5959L130.361 46.1961C131.622 46.1004 132.373 46.8346 132.117 48.1115Z" fill="#696969"/>
<path d="M136.666 46.1484C127.488 49.2131 117.496 55.7094 111.75 61.2481L112.596 62.8762L117.257 66.0366L139.028 52.3735C139.124 51.0487 139.731 48.6225 138.869 47.5371L136.666 46.1484Z" fill="#696969"/>
<path d="M134.496 46.946C133.81 49.6595 128.319 52.3889 123.738 52.2772C123.738 52.2772 125.829 50.0426 128.319 48.6858C132.15 46.5949 134.496 46.946 134.496 46.946Z" fill="#747474"/>
<path opacity="0.6" d="M133.62 36.2363C126.741 41.0408 118.84 45.5739 110.141 49.8675L114.754 62.142C124.251 58.1676 133.668 52.7406 139.813 47.585L133.62 36.2363Z" fill="#444141"/>
<path d="M107.507 51.4159C107.22 50.6498 106.677 50.0113 105.975 49.5963L97.9143 44.9994C97.6429 44.8397 97.3077 45.0153 97.2918 45.3345C97.1641 47.3936 97.0523 50.554 97.1162 53.89C97.1162 54.0496 97.2119 54.1773 97.3396 54.2571C98.9039 55.1669 108.768 60.8492 111.035 62.174C111.194 62.2698 111.386 62.1102 111.322 61.9346L107.507 51.4159Z" fill="#302E2E"/>
<path d="M155.548 68.3189C155.548 68.0635 155.437 67.84 155.229 67.6804L153.856 66.627V68.3508L126.482 84.1368L123.402 82.3332L122.875 82.6364V85.9405L125.796 87.6644C126.227 87.9197 126.754 87.9197 127.185 87.6644L154.878 71.4793C155.293 71.2399 155.564 70.777 155.564 70.2822L155.548 68.3189Z" fill="#2A2A2A"/>
<path d="M147.869 69.9951V63.4668L132.578 72.2936V78.5984C132.578 78.9974 133.009 79.2369 133.344 79.0453L147.311 70.9847C147.646 70.7772 147.869 70.4101 147.869 69.9951Z" fill="#2A2A2A"/>
<path opacity="0.3" d="M147.903 68.1432L132.676 76.938V76.5869L147.903 67.792V68.1432ZM147.903 69.7074L132.676 78.5023V78.8534L147.903 70.0586V69.7074ZM147.903 68.7497L132.676 77.5446V77.8957L147.903 69.1009V68.7497ZM147.903 66.8503L132.676 75.6451V75.9963L147.903 67.2014V66.8503ZM147.903 63.9932L132.676 72.788V73.1392L147.903 64.3443V63.9932ZM147.903 65.8926L132.676 74.6874V75.0386L147.903 66.2438V65.8926ZM147.903 64.9509L132.676 73.7457V74.0969L147.903 65.302V64.9509Z" fill="#B8B8B8"/>
<path d="M153.551 64.3288L147.965 67.553V63.3551L153.551 60.1309V64.3288Z" fill="#3D3D3D"/>
<path d="M152.531 63.8981L153.297 63.4512V64.1056L152.531 64.5525V63.8981Z" fill="#934C21"/>
<path d="M152.531 61.0885L153.297 60.6416V63.1156L152.531 63.5626V61.0885Z" fill="#C18426"/>
<path d="M148.395 63.4831L152.529 61.0889V62.5414L148.395 64.9356V63.4831ZM148.395 66.9468L152.529 64.5525V62.9883L148.395 65.3825V66.9468Z" fill="#D3DBDF"/>
<path d="M153.874 64.4563L153.539 64.2807V60.418L153.858 60.5935L153.874 64.4563Z" fill="#A2A2A2"/>
<path d="M148.464 67.5843L148.145 67.3928L153.54 64.2803L153.875 64.4559L148.464 67.5843Z" fill="#D2D2D2"/>
<path d="M148.144 68.144L147.825 67.9684L147.809 63.3555L148.128 63.547L148.144 68.144Z" fill="#A2A2A2"/>
<path d="M148.128 63.5465L147.809 63.355L153.874 59.8594L154.193 60.035L148.128 63.5465Z" fill="#D2D2D2"/>
<path d="M148.125 63.5464L154.19 60.0508V64.6637L148.125 68.1593V63.5464ZM153.871 64.4562V60.5935L148.46 63.7219V67.5847L153.871 64.4562Z" fill="#B8B8B8"/>
<path d="M147.854 70.5372L147.551 70.3616L147.535 63.8652L147.822 64.0408L147.854 70.5372Z" fill="#A2A2A2"/>
<path d="M147.552 70.3623C147.552 70.5219 147.504 70.7454 147.296 70.8731L133.266 78.9816C133.202 79.0135 133.122 79.0135 133.059 78.9656L133.362 79.1412C133.426 79.1891 133.506 79.1891 133.569 79.1571L147.6 71.0486C147.807 70.9369 147.855 70.6975 147.855 70.5379L147.552 70.3623Z" fill="#D2D2D2"/>
<path d="M133.121 79.4917L132.818 79.3161C132.674 79.2203 132.562 79.0448 132.562 78.8213L132.866 78.9969C132.866 79.2363 132.978 79.4119 133.121 79.4917Z" fill="#A2A2A2"/>
<path d="M132.866 78.9976L132.563 78.838L132.547 72.166L132.85 72.3416L132.866 78.9976Z" fill="#A2A2A2"/>
<path d="M132.85 72.3412L132.547 72.1656L147.838 63.3389L148.125 63.5144L132.85 72.3412Z" fill="#D2D2D2"/>
<path d="M132.848 72.3414L148.139 63.5146L148.155 70.3622C148.155 70.7931 147.931 71.1922 147.596 71.3837L133.566 79.4922C133.247 79.6838 132.864 79.4124 132.864 78.9974L132.848 72.3414ZM147.852 70.5378L147.836 64.0254L133.151 72.501L133.167 78.8218C133.167 79.0613 133.406 79.2368 133.566 79.1411L147.596 71.0326C147.804 70.9208 147.852 70.6974 147.852 70.5378Z" fill="#B8B8B8"/>
<path d="M132.247 76.6188L126.66 79.843V75.6451L132.247 72.4209V76.6188Z" fill="#3D3D3D"/>
<path d="M127.027 78.6139L127.794 78.167V78.8214L127.027 79.2683V78.6139Z" fill="#934C21"/>
<path d="M127.027 75.8053L127.794 75.3584V77.8324L127.027 78.2794V75.8053Z" fill="#C18426"/>
<path d="M127.793 75.3581L131.927 72.9639V74.4164L127.793 76.8106V75.3581ZM127.793 78.8218L131.927 76.4275V74.8633L127.793 77.2575V78.8218Z" fill="#D3DBDF"/>
<path d="M132.55 76.7623L132.23 76.5707V72.708L132.55 72.8995V76.7623Z" fill="#A2A2A2"/>
<path d="M127.136 79.8903L126.816 79.6988L132.227 76.5703L132.547 76.7619L127.136 79.8903Z" fill="#D2D2D2"/>
<path d="M126.819 80.449L126.5 80.2574V75.6445L126.819 75.8361V80.449Z" fill="#A2A2A2"/>
<path d="M126.819 75.8365L126.5 75.645L132.549 72.1494L132.869 72.341L126.819 75.8365Z" fill="#D2D2D2"/>
<path d="M126.816 75.8364L132.882 72.3408V76.9537L126.816 80.4493V75.8364ZM132.547 76.7622V72.8995L127.136 76.028V79.8907L132.547 76.7622Z" fill="#B8B8B8"/>
<path d="M57.3057 42.3174L54.8317 40.8968L54.7519 38.1035L52.7407 39.3166C52.3257 39.556 52.0703 40.0029 52.0703 40.4818V44.4243C52.0703 44.8234 52.2778 45.1905 52.629 45.398L56.9705 47.9039L57.3057 47.7284V42.3174Z" fill="#2A2A2A"/>
<path d="M122.554 77.13L121.597 76.5873C121.309 76.4277 121.086 76.0606 121.086 75.7892C121.086 75.5179 121.309 75.4061 121.597 75.5657L122.554 76.1084C122.842 76.2681 123.065 76.6352 123.065 76.9065C123.065 77.1779 122.842 77.2896 122.554 77.13Z" fill="#A66A26"/>
<path d="M58.1364 39.9238L57.1787 39.3811C56.8914 39.2215 56.668 38.8544 56.668 38.5831C56.668 38.3117 56.8914 38.2 57.1787 38.3756L58.1364 38.9183C58.4237 39.0779 58.6472 39.445 58.6472 39.7163C58.6312 40.0036 58.4078 40.0994 58.1364 39.9238Z" fill="#A66A26"/>
<path d="M110.298 60.1304L110.043 59.9868C109.947 59.9389 109.835 59.9389 109.707 60.0187L107.202 61.4872C106.93 61.6468 106.723 62.0139 106.723 62.3172V63.5941C106.723 63.7537 106.771 63.8495 106.866 63.9133L107.122 64.057C107.09 64.041 107.074 64.0091 107.058 63.9931C107.138 64.1049 107.281 64.1208 107.457 64.0251L109.963 62.5566C110.234 62.397 110.442 62.0299 110.442 61.7266V60.4497C110.442 60.29 110.378 60.1783 110.298 60.1304Z" fill="#D8D7CD"/>
<path d="M113.347 63.1148C113.347 63.3542 113.028 63.3702 112.613 63.1307C112.214 62.8913 111.879 62.5082 111.879 62.2688C111.879 62.0294 112.198 62.0134 112.613 62.2528C113.012 62.4923 113.347 62.8753 113.347 63.1148Z" fill="#42443F"/>
<path d="M112.262 62.5402C110.842 63.7532 109.23 62.1252 109.166 62.0453C108.958 61.8059 108.495 62.205 108.767 62.4603C109.261 62.9392 110.203 63.5617 111.209 63.5617C111.72 63.5617 112.31 63.4819 112.789 63.0509C113.06 62.7955 112.581 62.2688 112.262 62.5402Z" fill="#4F504C"/>
<path opacity="0.5" d="M112.789 63.4027C112.789 63.3708 108.367 51.0324 108.367 51.0324C108.064 50.2024 107.49 49.5001 106.723 49.0532L96.8911 43.3709C96.7953 43.323 96.6836 43.323 96.5878 43.3709C96.492 43.4188 96.4282 43.5145 96.4282 43.6263C95.4705 57.0659 96.6357 69.8352 96.6516 69.9629C96.6516 69.9948 96.6676 70.0108 96.6995 70.0268L110.107 77.7681C110.219 77.7522 110.235 77.7203 110.235 77.6883C110.235 77.6404 109.9 73.3468 112.741 72.0539C112.773 72.0379 112.789 72.006 112.789 71.9741V63.4027ZM110.059 77.5287L96.8272 69.8991C96.7474 69.0691 95.678 56.6669 96.6038 43.6422C96.6038 43.5943 96.6357 43.5465 96.6836 43.5305C96.7314 43.5145 96.7793 43.5145 96.8113 43.5305L106.644 49.2128C107.378 49.6278 107.936 50.2982 108.224 51.0963L112.629 63.4346V71.9262C110.043 73.1233 110.027 76.7306 110.059 77.5287Z" fill="#C5C5BC"/>
<path d="M95.4219 38.1515C95.4219 38.1196 95.4059 38.0877 95.374 38.0717L80.3541 29.4045C80.3222 29.3886 80.2903 29.3886 80.2743 29.4045C80.2424 29.4205 80.2264 29.4524 80.2264 29.4684C79.4443 40.5777 79.3964 51.5593 80.0828 60.386C80.0828 60.418 80.0987 60.4339 80.1306 60.4499L95.1984 69.149C95.3101 69.133 95.3261 69.1011 95.3261 69.0691C94.6557 59.4603 94.6876 48.2073 95.4219 38.1515Z" fill="url(#paint1_linear)"/>
<path d="M99.0453 60.4665L96.1562 58.8065V56.7314L99.0453 58.3915C99.4443 58.6149 99.7636 59.1257 99.7636 59.5247V60.1632C99.7636 60.5622 99.4443 60.6899 99.0453 60.4665Z" fill="#3E3C3C"/>
<path d="M68.4159 41.3063L79.9083 47.9463V46.7332L68.4159 40.0932C68.1765 39.9655 68.0009 40.0453 68.0009 40.2687V40.6518C67.985 40.8753 68.1765 41.1786 68.4159 41.3063Z" fill="#3E3C3C"/>
<g opacity="0.4">
<path opacity="0.4" d="M78.0231 43.2271L60.5931 33.1713C60.1142 32.8999 59.8269 32.4051 59.8429 31.8464C59.8748 29.3884 59.9865 26.2599 60.0983 23.722C60.1142 23.5464 60.21 23.4027 60.3377 23.291C60.1302 23.3708 59.9546 23.5464 59.9546 23.8018C59.8429 26.3397 59.7311 29.4682 59.6992 31.9262C59.6992 32.4689 59.9865 32.9637 60.4494 33.2511L77.8795 43.3069C78.103 43.4346 78.3583 43.3867 78.5339 43.243C78.3583 43.3228 78.1828 43.3228 78.0231 43.2271Z" fill="#D8D7D0"/>
<path opacity="0.6" d="M78.2469 33.3949L60.8168 23.3391C60.6572 23.2433 60.4657 23.2433 60.322 23.3072C60.2901 23.3232 60.2741 23.3551 60.2422 23.387C60.3699 23.3551 60.5135 23.3551 60.6412 23.4349L78.0713 33.4907C78.5502 33.762 78.8375 34.2888 78.8215 34.8474C78.7098 37.3055 78.598 40.418 78.5661 42.924C78.5661 43.0677 78.5023 43.1794 78.4065 43.2752C78.614 43.1634 78.7417 43.0198 78.7417 42.8123C78.7736 40.3063 78.8853 37.2098 78.9971 34.7357C79.013 34.193 78.7257 33.6663 78.2469 33.3949Z" fill="#C5C5BC"/>
</g>
<path opacity="0.2" d="M107.665 36.1084C107.633 36.1243 107.602 36.1403 107.57 36.1403C107.825 35.9487 107.809 35.6774 107.506 35.5018L69.1819 13.379C68.8787 13.2035 68.4158 13.2035 68.0806 13.3471C68.0966 13.3311 68.1125 13.2992 68.1444 13.2833C68.4796 13.0917 69.0223 13.0917 69.3416 13.2833L107.665 35.406C108.001 35.5976 108.001 35.9168 107.665 36.1084ZM104.601 37.1778L66.2769 15.055C65.9417 14.8635 65.399 14.8635 65.0798 15.055C65.0479 15.071 65.0319 15.0869 65 15.1188C65.3352 14.9752 65.814 14.9752 66.1173 15.1508L104.441 37.2736C104.744 37.4491 104.76 37.7205 104.505 37.912C104.537 37.8961 104.569 37.8961 104.601 37.8801C104.936 37.6886 104.936 37.3693 104.601 37.1778ZM110.73 33.6343L72.4062 11.5115C72.071 11.32 71.5283 11.32 71.2091 11.5115C71.1771 11.5275 71.1612 11.5434 71.1452 11.5754C71.4804 11.4317 71.9433 11.4317 72.2466 11.6073L110.57 33.7301C110.874 33.9057 110.89 34.177 110.634 34.3685C110.666 34.3526 110.698 34.3526 110.73 34.3366C111.065 34.1451 111.065 33.8258 110.73 33.6343ZM119.924 28.3351L81.616 6.21227C81.2808 6.02073 80.7381 6.02073 80.4189 6.21227C80.387 6.22823 80.371 6.24419 80.3551 6.27611C80.6903 6.13246 81.1531 6.13246 81.4564 6.30804L119.764 28.4308C120.068 28.6064 120.084 28.8778 119.828 29.0693C119.86 29.0533 119.892 29.0533 119.924 29.0374C120.259 28.8299 120.259 28.5266 119.924 28.3351ZM122.989 26.5633L84.6807 4.44053C84.3455 4.24899 83.8028 4.24899 83.4835 4.44053C83.4516 4.45649 83.4357 4.47245 83.4197 4.50438C83.7549 4.36072 84.2178 4.36072 84.521 4.5363L122.829 26.6591C123.132 26.8347 123.148 27.106 122.893 27.2976C122.925 27.2816 122.957 27.2816 122.989 27.2656C123.324 27.0581 123.324 26.7549 122.989 26.5633ZM113.795 31.8785L75.4708 9.73978C75.1356 9.54824 74.5929 9.54824 74.2737 9.73978C74.2418 9.75574 74.2258 9.77171 74.2098 9.80363C74.545 9.65998 75.0079 9.65998 75.3112 9.83555L113.635 31.9583C113.938 32.1339 113.954 32.4053 113.699 32.5968C113.731 32.5808 113.763 32.5808 113.795 32.5649C114.13 32.3733 114.13 32.0701 113.795 31.8785ZM116.859 30.1068L78.5354 7.96804C78.2003 7.77651 77.6576 7.77651 77.3383 7.96804C77.3064 7.99997 77.2904 8.01593 77.2745 8.03189C77.6097 7.88824 78.0726 7.88824 78.3758 8.06381L116.7 30.1866C117.003 30.3622 117.019 30.6335 116.763 30.8251C116.795 30.8091 116.827 30.8091 116.859 30.7931C117.194 30.6016 117.194 30.2983 116.859 30.1068Z" fill="#C5C5BC"/>
<path opacity="0.3" d="M95.4219 38.1515C95.4219 38.1196 95.4059 38.0877 95.374 38.0717L80.3541 29.4045C80.3222 29.3886 80.2903 29.3886 80.2743 29.4045C80.2424 29.4205 80.2264 29.4524 80.2264 29.4684C79.4443 40.5777 79.3964 51.5593 80.0828 60.386C80.0828 60.418 80.0987 60.4339 80.1306 60.4499L95.1984 69.149C95.3101 69.133 95.3261 69.1011 95.3261 69.0691C94.6557 59.4603 94.6876 48.2073 95.4219 38.1515Z" fill="url(#paint2_linear)"/>
<path d="M64.5648 27.042L64.0061 26.7228C63.7348 26.5632 63.5273 26.5153 63.3836 26.5791C63.24 26.643 63.1602 26.8026 63.1602 27.0739V28.702C63.1602 28.9734 63.24 29.2287 63.3836 29.4522C63.5273 29.6757 63.7348 29.8672 64.0061 30.0268L64.5648 30.3461C64.8361 30.5057 65.0436 30.5536 65.1873 30.4897C65.3309 30.4259 65.4107 30.2663 65.4107 29.9949V29.7555C65.4107 29.6757 65.3788 29.6278 65.299 29.5799L64.868 29.3245C64.7882 29.2766 64.7563 29.2926 64.7563 29.3724V29.5799C64.7563 29.6916 64.7404 29.7555 64.6925 29.7714C64.6446 29.7874 64.5648 29.7714 64.453 29.7076L64.1019 29.5001C63.9902 29.4362 63.9263 29.3724 63.8784 29.2926C63.8305 29.2128 63.8146 29.133 63.8146 29.0212V27.457C63.8146 27.3453 63.8305 27.2814 63.8784 27.2655C63.9263 27.2495 64.0061 27.2655 64.1019 27.3293L64.453 27.5368C64.5648 27.6007 64.6446 27.6645 64.6925 27.7443C64.7404 27.8241 64.7563 27.9039 64.7563 28.0157V28.2232C64.7563 28.303 64.7882 28.3509 64.868 28.3987L65.299 28.6541C65.3788 28.702 65.4107 28.6861 65.4107 28.6062V28.3668C65.4107 28.0955 65.3309 27.856 65.1873 27.6166C65.0436 27.3932 64.8361 27.1857 64.5648 27.042Z" fill="#403D37"/>
<path d="M67.2986 28.6067L66.6122 28.2076C66.5324 28.1597 66.4845 28.1757 66.4526 28.2236L65.6386 30.8573C65.6226 30.9211 65.6386 30.969 65.7024 31.0009L66.1972 31.2882C66.309 31.2403 66.4526 30.7615 66.4526 30.7615L67.4582 31.3361L67.6018 31.9905C67.6018 32.0384 67.6178 32.0703 67.6338 32.0863C67.6497 32.1023 67.6657 32.1342 67.7136 32.1501L68.2084 32.4374C68.2722 32.4694 68.2882 32.4534 68.2722 32.3576L67.4582 28.7822C67.4422 28.7344 67.3784 28.6545 67.2986 28.6067ZM66.5803 30.3146L66.9474 29.0376C66.9634 29.0536 67.3465 30.7615 67.3465 30.7615L66.5803 30.3146Z" fill="#403D37"/>
<path d="M70.3293 32.405C70.6326 32.4369 70.7922 32.2613 70.7922 31.8782V31.4792C70.7922 31.2079 70.7124 30.9525 70.5687 30.729C70.4251 30.4896 70.2016 30.298 69.9462 30.1384L68.7172 29.4361C68.6374 29.3882 68.6055 29.4042 68.6055 29.484V32.5806C68.6055 32.6604 68.6374 32.7082 68.7172 32.7561L69.1482 33.0115C69.228 33.0594 69.2599 33.0434 69.2599 32.9636V31.9102C69.2599 31.8782 69.2759 31.8623 69.3237 31.8942L69.6749 32.0857L70.1857 33.4904C70.2016 33.5382 70.2176 33.5861 70.2495 33.6181C70.2814 33.65 70.3293 33.6819 70.3772 33.7138L70.7922 33.9533C70.888 34.0011 70.9039 33.9852 70.872 33.8734L70.3293 32.405ZM70.1378 31.5271C70.1378 31.6229 70.1059 31.6867 70.058 31.7027C70.0101 31.7186 69.9303 31.7027 69.8186 31.6388L69.3078 31.3515C69.2759 31.3355 69.2439 31.3036 69.2439 31.2557V30.3619C69.2439 30.33 69.2599 30.314 69.3078 30.3459L69.8186 30.6332C69.9303 30.6971 70.0101 30.7609 70.058 30.8407C70.1059 30.9205 70.1378 31.0163 70.1378 31.1121V31.5271Z" fill="#403D37"/>
<path d="M72.6269 31.6875L72.0842 31.3683C71.8129 31.2087 71.6054 31.1608 71.4617 31.2246C71.3181 31.2885 71.2383 31.4481 71.2383 31.7194V33.3475C71.2383 33.6189 71.3181 33.8743 71.4617 34.0977C71.6054 34.3212 71.8129 34.5127 72.0842 34.6723L72.6269 34.9916C72.8983 35.1512 73.1058 35.1991 73.2494 35.1352C73.3931 35.0714 73.4729 34.9118 73.4729 34.6404V33.7785C73.4729 33.6987 73.441 33.6348 73.3612 33.5869L72.4673 33.0602C72.3875 33.0123 72.3556 33.0283 72.3556 33.1081V33.4593C72.3556 33.5391 72.3875 33.5869 72.4673 33.6348L72.7706 33.8104C72.8025 33.8264 72.8344 33.8583 72.8344 33.9062V34.2254C72.8344 34.3371 72.8185 34.401 72.7706 34.4169C72.7227 34.4329 72.6429 34.417 72.5312 34.3531L72.196 34.1616C72.0842 34.0977 72.0204 34.0339 71.9725 33.9541C71.9246 33.8743 71.9087 33.7944 71.9087 33.6827V32.1185C71.9087 32.0067 71.9246 31.9429 71.9725 31.9269C72.0204 31.911 72.1002 31.9269 72.196 31.9908L72.5152 32.1983C72.6269 32.2621 72.7067 32.326 72.7546 32.4058C72.8025 32.4856 72.8185 32.5654 72.8185 32.6771V32.8048C72.8185 32.8846 72.8504 32.9325 72.9302 32.9804L73.3612 33.2358C73.441 33.2837 73.4729 33.2677 73.4729 33.1879V33.0283C73.4729 32.7569 73.3931 32.5175 73.2494 32.2781C73.1058 32.0387 72.8983 31.8471 72.6269 31.6875Z" fill="#403D37"/>
<path d="M75.965 33.8416C75.8213 33.6181 75.6138 33.4266 75.3425 33.267L74.7678 32.9318C74.4965 32.7721 74.289 32.7243 74.1453 32.7881C74.0017 32.852 73.9219 33.0116 73.9219 33.2829V34.911C73.9219 35.1823 74.0017 35.4377 74.1453 35.6612C74.289 35.8847 74.4965 36.0762 74.7678 36.2358L75.3425 36.571C75.6138 36.7306 75.8213 36.7785 75.965 36.7147C76.1086 36.6508 76.1884 36.4912 76.1884 36.2199V34.5918C76.1884 34.3204 76.1246 34.065 75.965 33.8416ZM75.534 35.8048C75.534 35.9166 75.518 35.9804 75.4702 35.9964C75.4223 36.0123 75.3425 35.9964 75.2307 35.9325L74.8636 35.725C74.7519 35.6612 74.6721 35.5973 74.6242 35.5175C74.5763 35.4537 74.5603 35.3579 74.5603 35.2462V33.682C74.5603 33.5702 74.5763 33.5064 74.6242 33.4904C74.6721 33.4745 74.7519 33.4904 74.8636 33.5543L75.2307 33.7618C75.3425 33.8256 75.4223 33.8895 75.4702 33.9693C75.518 34.0491 75.534 34.1289 75.534 34.2406V35.8048Z" fill="#403D37"/>
<path d="M76.1848 37.5925L63.1602 30.0586V33.9053L76.1848 37.5925Z" fill="#3361AB"/>
<path d="M95.374 38.0717L80.3541 29.4045C80.3222 29.3886 80.2903 29.3886 80.2743 29.4045C80.2424 29.4205 80.2264 29.4524 80.2264 29.4684C79.4443 40.5777 79.3964 51.5593 80.0828 60.386C80.0828 60.418 80.0987 60.4339 80.1306 60.4499L95.1984 69.149C95.3101 69.133 95.3261 69.1011 95.3261 69.0691C94.6557 59.4762 94.7036 48.2073 95.4378 38.1515C95.4219 38.1196 95.4059 38.0877 95.374 38.0717Z" fill="#CACAC1"/>
<path d="M80.0826 60.3694C80.0826 60.4014 80.0986 60.4173 80.1305 60.4333L95.1983 69.1324C95.31 69.1164 95.326 69.0845 95.326 69.0526C95.2142 67.3287 95.1185 65.541 95.0387 63.7214C89.6277 60.2258 84.488 56.2992 79.6836 51.9736C79.7474 54.9265 79.8751 57.7517 80.0826 60.3694Z" fill="#3361AB"/>
<path d="M91.9569 56.3631L94.8619 58.0391L94.83 55.9481L91.9409 54.2881C91.5419 54.0646 91.2227 54.1923 91.2227 54.5914V55.2298C91.2386 55.6289 91.5579 56.1396 91.9569 56.3631Z" fill="#3E3C3C"/>
<g opacity="0.4">
<path opacity="0.4" d="M93.2223 52.006L81.5384 45.2543C81.0595 44.9829 80.7722 44.4881 80.7882 43.9294C80.8201 41.4714 80.9318 38.3429 81.0436 35.805C81.0595 35.6294 81.1553 35.4858 81.283 35.374C81.0755 35.4538 80.8999 35.6294 80.8999 35.8848C80.7882 38.4227 80.6765 41.5512 80.6445 44.0093C80.6445 44.5519 80.9318 45.0468 81.3947 45.3341L93.0786 52.0858C93.3021 52.2135 93.5575 52.1656 93.7331 52.022C93.5734 52.0858 93.3979 52.1018 93.2223 52.006Z" fill="#D8D7D0"/>
<path opacity="0.6" d="M93.4577 42.1739L81.7738 35.4221C81.6142 35.3264 81.4227 35.3264 81.279 35.3902C81.2471 35.4062 81.2311 35.4381 81.1992 35.47C81.3269 35.4381 81.4706 35.4381 81.5983 35.5179L93.2822 42.2697C93.761 42.541 94.0483 43.0677 94.0324 43.6264C93.9206 46.0845 93.8089 49.197 93.777 51.703C93.777 51.8466 93.7131 51.9584 93.6173 52.0541C93.8249 51.9424 93.9525 51.7987 93.9525 51.5912C93.9845 49.0853 94.0962 45.9887 94.2079 43.5147C94.2239 42.972 93.9366 42.4452 93.4577 42.1739Z" fill="#C5C5BC"/>
</g>
<defs>
<linearGradient id="paint0_linear" x1="138.591" y1="64.1258" x2="140.397" y2="67.2535" gradientUnits="userSpaceOnUse">
<stop stop-color="#EBEBE8"/>
<stop offset="0.4132" stop-color="#E9E9E5"/>
<stop offset="0.7424" stop-color="#E2E1DB"/>
<stop offset="1" stop-color="#D8D7CD"/>
</linearGradient>
<linearGradient id="paint1_linear" x1="84.2843" y1="55.2962" x2="80.7948" y2="61.3401" gradientUnits="userSpaceOnUse">
<stop stop-color="#7B7B7D"/>
<stop offset="1" stop-color="#858587"/>
</linearGradient>
<linearGradient id="paint2_linear" x1="94.5189" y1="37.5692" x2="81.0141" y2="60.9603" gradientUnits="userSpaceOnUse">
<stop stop-color="#5C5C5E"/>
<stop offset="1" stop-color="#6B6B6C"/>
</linearGradient>
</defs>
</svg>
