<svg width="205" height="152" viewBox="0 0 205 152" fill="none" xmlns="http://www.w3.org/2000/svg">
<path opacity="0.4" d="M102.02 151.709C158.364 151.709 204.04 125.339 204.04 92.8092C204.04 60.2796 158.364 33.9092 102.02 33.9092C45.6759 33.9092 0 60.2796 0 92.8092C0 125.339 45.6759 151.709 102.02 151.709Z" fill="#EEEEEE"/>
<path d="M102.02 136.9C158.364 136.9 204.04 110.529 204.04 77.9996C204.04 45.47 158.364 19.0996 102.02 19.0996C45.6759 19.0996 0 45.47 0 77.9996C0 110.529 45.6759 136.9 102.02 136.9Z" fill="#4685EB"/>
<path opacity="0.6" d="M172.917 29.6298L167.683 26.6127C167.263 26.37 166.583 26.3862 166.195 26.6369L106.88 64.6216L88.6725 54.1063C84.5391 51.7201 79.9609 49.7707 75.9732 48.5816L89.4895 36.5618C89.6836 36.3758 89.6512 36.1331 89.3924 35.9875L86.9092 34.5558C86.5856 34.3698 86.0518 34.3859 85.7525 34.5881L67.0351 46.5109L66.7682 46.3572C66.0726 45.9528 64.9402 45.9528 64.2445 46.3572C63.5489 46.7617 63.5489 47.4088 64.2445 47.8132L64.4468 47.9265L43.9176 58.8058C43.5697 58.9838 43.5616 59.2911 43.8852 59.4772L46.3603 60.9089C46.6273 61.0626 47.0398 61.0868 47.3472 60.9655L67.8521 53.168C70.0522 55.7078 73.6679 58.5874 77.2836 60.6743L95.4266 71.1492L31.1697 105.057C30.7248 105.284 30.7006 105.68 31.1212 105.923L36.3546 108.94C36.6943 109.134 37.2282 109.166 37.6326 109.013L112.704 81.1226L133.589 93.1829C136.736 95.0029 145.35 97.9148 149.265 95.6581C153.277 93.3447 148.133 88.4267 144.986 86.6068L124.328 74.6921L173.054 30.3658C173.321 30.1313 173.256 29.8239 172.917 29.6298Z" fill="#1C355E"/>
<path d="M131.567 59.7031C130.2 60.5201 128.906 61.8386 127.895 63.432C127.555 63.9578 127.248 64.5321 126.973 65.1307L135.765 70.2427C136.04 69.6361 136.348 69.0699 136.687 68.5441C137.698 66.9506 139.001 65.6322 140.335 64.8314C140.368 64.8152 131.567 59.7031 131.567 59.7031Z" fill="#EBEAE2"/>
<path d="M140.368 64.8154L140.376 65.0743C139.065 65.8508 137.82 67.1207 136.841 68.6576C136.517 69.1591 136.218 69.7172 135.959 70.2915L135.781 70.2511C136.056 69.6444 136.364 69.0782 136.703 68.5524C137.714 66.9589 139.017 65.6405 140.351 64.8397L140.368 64.8154Z" fill="#CECDC6"/>
<path d="M96.5592 39.4902C95.1922 40.3072 93.8981 41.6257 92.887 43.2191C92.5472 43.7449 92.2399 44.3192 91.9648 44.9178L100.757 50.0298C101.032 49.4232 101.34 48.857 101.679 48.3312C102.691 46.7377 103.993 45.4193 105.327 44.6185C105.352 44.6023 96.5592 39.4902 96.5592 39.4902Z" fill="#EBEAE2"/>
<path d="M105.352 44.6025L105.36 44.8614C104.05 45.6379 102.804 46.9078 101.825 48.4447C101.502 48.9462 101.202 49.5043 100.944 50.0786L100.766 50.0382C101.041 49.4315 101.348 48.8653 101.688 48.3395C102.699 46.7461 104.001 45.4276 105.336 44.6268L105.352 44.6025Z" fill="#CECDC6"/>
<path d="M140.461 89.0252C140.089 88.8068 139.781 88.9848 139.781 89.4135C139.781 89.8422 140.081 90.3679 140.461 90.5863C140.833 90.8047 141.14 90.6268 141.14 90.1981C141.14 89.7613 140.833 89.2436 140.461 89.0252Z" fill="#7F7F81"/>
<path d="M140.464 89.2037C140.342 89.1309 140.237 89.1228 140.148 89.1471C140.083 89.2118 140.043 89.3088 140.043 89.4463C140.043 89.778 140.278 90.1824 140.569 90.3523C140.69 90.4251 140.795 90.4332 140.884 90.4089C140.949 90.3442 140.989 90.2471 140.989 90.1096C140.989 89.778 140.755 89.3655 140.464 89.2037Z" fill="#5E5E5E"/>
<path d="M140.561 90.3439C140.269 90.174 140.035 89.7696 140.035 89.438C140.035 89.3004 140.075 89.2034 140.14 89.1387C140.011 89.1791 139.93 89.3004 139.93 89.4946C139.93 89.8262 140.164 90.2307 140.455 90.4005C140.625 90.4976 140.779 90.4895 140.876 90.4005C140.787 90.4329 140.682 90.4167 140.561 90.3439Z" fill="#747474"/>
<path d="M140.463 88.6855C141.005 88.9929 141.434 89.7532 141.434 90.368C141.434 90.9827 140.997 91.2335 140.455 90.9261C139.913 90.6187 139.484 89.8584 139.484 89.2437C139.492 88.6208 139.929 88.3782 140.463 88.6855ZM140.463 90.5621C140.827 90.7724 141.118 90.6026 141.118 90.19C141.118 89.7775 140.827 89.2679 140.463 89.0576C140.099 88.8473 139.808 89.0172 139.808 89.4297C139.808 89.8422 140.099 90.3518 140.463 90.5621Z" fill="#2A2A2A"/>
<path d="M141.78 89.3409C141.683 89.1225 141.553 88.9203 141.4 88.7504C141.27 88.6048 141.125 88.4835 140.971 88.3945C140.704 88.2408 140.453 88.2246 140.275 88.3298L139.766 88.6291C139.944 88.5239 140.186 88.5401 140.461 88.6938C140.615 88.7828 140.761 88.9041 140.89 89.0497C141.044 89.2195 141.173 89.4299 141.27 89.6402C141.375 89.8828 141.44 90.1336 141.44 90.3681C141.44 90.6755 141.327 90.8939 141.157 90.991L141.666 90.6917C141.844 90.5865 141.95 90.3762 141.95 90.0689C141.95 89.8424 141.885 89.5835 141.78 89.3409Z" fill="#363636"/>
<path d="M140.706 89.7048C140.682 89.6563 140.65 89.5997 140.617 89.5592C140.585 89.5269 140.553 89.4945 140.512 89.4702C140.447 89.4298 140.383 89.4298 140.342 89.4541L140.27 89.4945C140.31 89.4702 140.375 89.4702 140.439 89.5107C140.48 89.535 140.512 89.5592 140.545 89.5997C140.585 89.6401 140.609 89.6886 140.634 89.7453C140.658 89.8019 140.674 89.8666 140.674 89.9232C140.674 89.996 140.65 90.0526 140.601 90.0769L140.674 90.0364C140.714 90.0122 140.747 89.9556 140.747 89.8828C140.747 89.8261 140.731 89.7614 140.706 89.7048Z" fill="#747474"/>
<path d="M140.438 89.5188C140.308 89.446 140.203 89.5026 140.203 89.6563C140.203 89.81 140.308 89.9879 140.438 90.0688C140.567 90.1416 140.672 90.085 140.672 89.9313C140.672 89.7776 140.567 89.5916 140.438 89.5188Z" fill="#7F7F81"/>
<path d="M140.584 87.7549L140.439 90.2139C140.43 90.3514 140.374 90.4485 140.293 90.497L140.835 90.1815C140.916 90.133 140.972 90.0359 140.981 89.8984L141.126 87.4395L140.584 87.7549Z" fill="#7F7F81"/>
<path d="M139.823 86.6875L139.281 87.003L140.584 87.7552L141.125 87.4398L139.823 86.6875Z" fill="#A8ABAB"/>
<path d="M139.281 87.0029L139.443 90.1818L139.936 90.4649C140.203 90.6186 140.422 90.5054 140.438 90.2142L140.584 87.7552L139.281 87.0029Z" fill="#5E5E5E"/>
<path d="M139.685 91.3693C139.947 91.2166 139.945 90.7234 139.681 90.2677C139.416 89.8119 138.988 89.5662 138.726 89.7188C138.463 89.8714 138.465 90.3646 138.73 90.8204C138.994 91.2761 139.422 91.5219 139.685 91.3693Z" fill="#7F7F81"/>
<path d="M139.21 89.9234C139.088 89.8506 138.983 89.8425 138.894 89.8668C138.829 89.9315 138.789 90.0286 138.789 90.1661C138.789 90.4977 139.024 90.9021 139.315 91.072C139.436 91.1448 139.541 91.1529 139.63 91.1286C139.695 91.0639 139.735 90.9669 139.735 90.8293C139.735 90.4977 139.501 90.0933 139.21 89.9234Z" fill="#5E5E5E"/>
<path d="M139.307 91.0714C139.016 90.9016 138.781 90.4971 138.781 90.1655C138.781 90.028 138.821 89.9309 138.886 89.8662C138.757 89.9067 138.676 90.028 138.676 90.2221C138.676 90.5538 138.91 90.9582 139.202 91.1281C139.371 91.2251 139.525 91.217 139.622 91.1281C139.533 91.1523 139.428 91.1361 139.307 91.0714Z" fill="#747474"/>
<path d="M139.209 89.4057C139.751 89.7131 140.18 90.4735 140.18 91.0882C140.18 91.7029 139.743 91.9537 139.201 91.6463C138.659 91.339 138.23 90.5786 138.23 89.9639C138.239 89.3491 138.675 89.0984 139.209 89.4057ZM139.209 91.2823C139.573 91.4926 139.864 91.3228 139.864 90.9103C139.864 90.4977 139.573 89.9881 139.209 89.7778C138.845 89.5675 138.554 89.7374 138.554 90.1499C138.554 90.5705 138.845 91.072 139.209 91.2823Z" fill="#2A2A2A"/>
<path d="M140.526 90.0606C140.429 89.8422 140.299 89.64 140.146 89.4701C140.016 89.3245 139.871 89.2032 139.717 89.1142C139.45 88.9605 139.199 88.9444 139.021 89.0495L138.512 89.3488C138.69 89.2436 138.932 89.2598 139.207 89.4135C139.361 89.5025 139.507 89.6238 139.636 89.7694C139.79 89.9393 139.919 90.1496 140.016 90.3599C140.121 90.6025 140.186 90.8533 140.186 91.0879C140.186 91.3952 140.073 91.6136 139.903 91.7107L140.413 91.4114C140.591 91.3063 140.696 91.096 140.696 90.7886C140.696 90.5621 140.631 90.3033 140.526 90.0606Z" fill="#363636"/>
<path d="M139.448 90.4245C139.424 90.376 139.392 90.3194 139.36 90.2789C139.327 90.2466 139.295 90.2142 139.254 90.19C139.19 90.1495 139.125 90.1495 139.085 90.1738L139.012 90.2142C139.052 90.19 139.117 90.19 139.182 90.2304C139.222 90.2547 139.254 90.2789 139.287 90.3194C139.327 90.3598 139.351 90.4084 139.376 90.465C139.4 90.5216 139.416 90.5863 139.416 90.6429C139.416 90.7157 139.392 90.7724 139.343 90.7966L139.416 90.7562C139.457 90.7319 139.489 90.6753 139.489 90.6025C139.489 90.5459 139.481 90.4892 139.448 90.4245Z" fill="#747474"/>
<path d="M139.184 90.2395C139.054 90.1667 138.949 90.2233 138.949 90.377C138.949 90.5307 139.054 90.7086 139.184 90.7895C139.313 90.8623 139.418 90.8057 139.418 90.652C139.418 90.4983 139.313 90.3123 139.184 90.2395Z" fill="#7F7F81"/>
<path d="M101.454 69.086C101.065 68.8595 100.75 69.0455 100.75 69.4904C100.75 69.9353 101.065 70.4772 101.454 70.7037C101.842 70.9302 102.157 70.7442 102.157 70.2993C102.157 69.8544 101.842 69.3125 101.454 69.086Z" fill="#7F7F81"/>
<path d="M101.453 69.2727C101.331 69.1999 101.218 69.1837 101.121 69.2161C101.056 69.2808 101.008 69.3859 101.008 69.5235C101.008 69.8713 101.25 70.2919 101.55 70.4618C101.671 70.5345 101.784 70.5507 101.881 70.5184C101.946 70.4537 101.995 70.3485 101.995 70.211C101.995 69.8632 101.752 69.4426 101.453 69.2727Z" fill="#5E5E5E"/>
<path d="M101.557 70.4615C101.258 70.2916 101.015 69.871 101.015 69.5232C101.015 69.3857 101.056 69.2805 101.129 69.2158C100.999 69.2563 100.91 69.3857 100.91 69.5879C100.91 69.9357 101.153 70.3563 101.452 70.5262C101.63 70.6314 101.784 70.6233 101.889 70.5262C101.792 70.5505 101.679 70.5343 101.557 70.4615Z" fill="#747474"/>
<path d="M101.452 68.7389C102.011 69.0625 102.464 69.8471 102.464 70.4861C102.464 71.1251 102.011 71.3839 101.452 71.0685C100.894 70.7449 100.441 69.9603 100.441 69.3213C100.441 68.6742 100.894 68.4154 101.452 68.7389ZM101.452 70.6802C101.825 70.8986 102.132 70.7206 102.132 70.2919C102.132 69.8632 101.833 69.3375 101.452 69.1191C101.08 68.9007 100.773 69.0786 100.773 69.5073C100.773 69.936 101.072 70.4618 101.452 70.6802Z" fill="#2A2A2A"/>
<path d="M102.817 69.4181C102.72 69.1916 102.583 68.9813 102.429 68.8034C102.3 68.6497 102.146 68.5203 101.984 68.4313C101.701 68.2695 101.45 68.2533 101.264 68.3585L100.73 68.6659C100.917 68.5607 101.167 68.5769 101.45 68.7387C101.612 68.8276 101.758 68.9571 101.895 69.1107C102.057 69.2887 102.186 69.5071 102.284 69.7255C102.397 69.9762 102.461 70.2432 102.461 70.4858C102.461 70.8013 102.348 71.0278 102.17 71.1329L102.704 70.8255C102.882 70.7204 102.995 70.4939 102.995 70.1785C102.995 69.9358 102.931 69.6689 102.817 69.4181Z" fill="#363636"/>
<path d="M101.707 69.7979C101.683 69.7412 101.65 69.6927 101.61 69.6442C101.577 69.6037 101.537 69.5795 101.505 69.5552C101.44 69.5148 101.375 69.5148 101.327 69.539L101.254 69.5876C101.302 69.5633 101.359 69.5633 101.432 69.6037C101.472 69.628 101.505 69.6604 101.537 69.6927C101.577 69.7332 101.61 69.7898 101.634 69.8464C101.658 69.9111 101.675 69.9677 101.675 70.0324C101.675 70.1133 101.65 70.1619 101.602 70.1861L101.675 70.1376C101.715 70.1133 101.747 70.0567 101.747 69.9839C101.755 69.9192 101.739 69.8545 101.707 69.7979Z" fill="#747474"/>
<path d="M101.43 69.5966C101.293 69.5157 101.188 69.5804 101.188 69.7341C101.188 69.8877 101.301 70.0819 101.43 70.1547C101.568 70.2356 101.673 70.1708 101.673 70.0172C101.673 69.8716 101.568 69.6774 101.43 69.5966Z" fill="#7F7F81"/>
<path d="M102.038 66.3441L101.431 70.3156C101.423 70.4612 101.366 70.5664 101.277 70.6149L101.835 70.2914C101.924 70.2428 101.981 70.1377 101.989 69.9921L102.596 66.0205L102.038 66.3441Z" fill="#7F7F81"/>
<path d="M101.242 65.2441L100.684 65.5677L102.034 66.3442L102.601 66.0207L101.242 65.2441Z" fill="#A8ABAB"/>
<path d="M100.686 65.5674L100.395 70.2831L100.904 70.5743C101.179 70.7361 101.406 70.6228 101.43 70.3155L102.037 66.3439L100.686 65.5674Z" fill="#5E5E5E"/>
<path d="M100.149 69.8379C99.7608 69.6114 99.4453 69.7975 99.4453 70.2424C99.4453 70.6872 99.7608 71.2292 100.149 71.4557C100.537 71.6822 100.853 71.4961 100.853 71.0512C100.853 70.6063 100.545 70.0644 100.149 69.8379Z" fill="#7F7F81"/>
<path d="M100.152 70.0247C100.031 69.9519 99.9173 69.9357 99.8203 69.968C99.7556 70.0327 99.707 70.1379 99.707 70.2754C99.707 70.6232 99.9497 71.0438 100.249 71.2137C100.37 71.2865 100.484 71.3027 100.581 71.2703C100.645 71.2056 100.694 71.1005 100.694 70.963C100.702 70.6151 100.459 70.1945 100.152 70.0247Z" fill="#5E5E5E"/>
<path d="M100.256 71.2134C99.9572 71.0436 99.7145 70.623 99.7145 70.2751C99.7145 70.1376 99.755 70.0325 99.8278 69.9678C99.6983 70.0082 99.6094 70.1376 99.6094 70.3399C99.6094 70.6877 99.852 71.1083 100.151 71.2781C100.329 71.3833 100.483 71.3752 100.588 71.2781C100.491 71.2943 100.378 71.2781 100.256 71.2134Z" fill="#747474"/>
<path d="M100.16 69.4829C100.718 69.8065 101.171 70.5911 101.171 71.2301C101.171 71.8691 100.718 72.1279 100.16 71.8125C99.6014 71.4889 99.1484 70.7043 99.1484 70.0653C99.1484 69.4263 99.6014 69.1675 100.16 69.4829ZM100.151 71.4323C100.524 71.6507 100.831 71.4728 100.831 71.044C100.831 70.6153 100.532 70.0896 100.151 69.8712C99.7794 69.6528 99.472 69.8307 99.472 70.2594C99.472 70.6881 99.7794 71.2139 100.151 71.4323Z" fill="#2A2A2A"/>
<path d="M101.524 70.1701C101.427 69.9436 101.29 69.7333 101.136 69.5553C101.007 69.4016 100.853 69.2722 100.691 69.1832C100.408 69.0215 100.157 69.0053 99.9714 69.1104L99.4375 69.4178C99.6235 69.3127 99.8743 69.3288 100.157 69.4906C100.319 69.5796 100.465 69.709 100.602 69.8627C100.764 70.0406 100.893 70.259 100.991 70.4774C101.104 70.7282 101.168 70.9951 101.168 71.2378C101.168 71.5532 101.055 71.7797 100.877 71.8849L101.411 71.5775C101.589 71.4723 101.702 71.2459 101.702 70.9304C101.694 70.6797 101.63 70.4208 101.524 70.1701Z" fill="#363636"/>
<path d="M100.414 70.542C100.39 70.4854 100.357 70.4368 100.317 70.3883C100.284 70.3479 100.244 70.3236 100.212 70.2993C100.147 70.2589 100.082 70.2589 100.034 70.2832L99.9609 70.3317C100.009 70.3074 100.066 70.3074 100.139 70.3479C100.179 70.3721 100.212 70.4045 100.244 70.4368C100.284 70.4773 100.317 70.5339 100.341 70.5905C100.365 70.6552 100.382 70.7119 100.382 70.7766C100.382 70.8575 100.357 70.906 100.309 70.9303L100.382 70.8817C100.422 70.8575 100.454 70.8008 100.454 70.728C100.454 70.6714 100.438 70.6067 100.414 70.542Z" fill="#747474"/>
<path d="M100.129 70.3485C99.9919 70.2676 99.8867 70.3323 99.8867 70.486C99.8867 70.6397 100 70.8338 100.129 70.9066C100.267 70.9875 100.372 70.9228 100.372 70.7691C100.372 70.6154 100.267 70.4294 100.129 70.3485Z" fill="#7F7F81"/>
<path d="M103.735 70.4043C103.347 70.1778 103.031 70.3639 103.031 70.8088C103.031 71.2536 103.347 71.7956 103.735 72.0221C104.123 72.2486 104.439 72.0625 104.439 71.6176C104.439 71.1728 104.123 70.6308 103.735 70.4043Z" fill="#7F7F81"/>
<path d="M103.734 70.5911C103.613 70.5183 103.499 70.5021 103.402 70.5344C103.338 70.5992 103.289 70.7043 103.289 70.8418C103.289 71.1896 103.532 71.6102 103.831 71.7801C103.952 71.8529 104.066 71.8691 104.163 71.8367C104.227 71.772 104.276 71.6669 104.276 71.5294C104.276 71.1815 104.033 70.7609 103.734 70.5911Z" fill="#5E5E5E"/>
<path d="M103.838 71.7798C103.539 71.61 103.297 71.1894 103.297 70.8416C103.297 70.704 103.337 70.5989 103.41 70.5342C103.28 70.5746 103.191 70.704 103.191 70.9063C103.191 71.2541 103.434 71.6747 103.733 71.8446C103.911 71.9497 104.065 71.9416 104.17 71.8446C104.073 71.8607 103.96 71.8446 103.838 71.7798Z" fill="#747474"/>
<path d="M103.734 70.0573C104.292 70.3808 104.745 71.1654 104.745 71.8044C104.745 72.4434 104.292 72.7023 103.734 72.3868C103.176 72.0633 102.723 71.2787 102.723 70.6397C102.723 69.9926 103.176 69.7337 103.734 70.0573ZM103.734 71.9986C104.106 72.217 104.413 72.039 104.413 71.6103C104.413 71.1816 104.114 70.6558 103.734 70.4374C103.362 70.219 103.054 70.397 103.054 70.8257C103.054 71.2544 103.354 71.7802 103.734 71.9986Z" fill="#2A2A2A"/>
<path d="M105.099 70.7365C105.002 70.51 104.864 70.2997 104.71 70.1217C104.581 69.968 104.427 69.8386 104.265 69.7496C103.982 69.5879 103.732 69.5717 103.546 69.6768L103.012 69.9842C103.198 69.8791 103.449 69.8952 103.732 70.057C103.893 70.146 104.039 70.2754 104.176 70.4291C104.338 70.607 104.468 70.8254 104.565 71.0438C104.678 71.2946 104.743 71.5615 104.743 71.8042C104.743 72.1196 104.629 72.3461 104.452 72.4513L104.985 72.1439C105.163 72.0388 105.277 71.8123 105.277 71.4968C105.277 71.2461 105.212 70.9872 105.099 70.7365Z" fill="#363636"/>
<path d="M103.988 71.1084C103.964 71.0518 103.931 71.0033 103.891 70.9547C103.859 70.9143 103.818 70.89 103.786 70.8657C103.721 70.8253 103.656 70.8253 103.608 70.8496L103.535 70.8981C103.584 70.8738 103.64 70.8738 103.713 70.9143C103.754 70.9385 103.786 70.9709 103.818 71.0033C103.859 71.0437 103.891 71.1003 103.915 71.1569C103.94 71.2217 103.956 71.2783 103.956 71.343C103.956 71.4239 103.931 71.4724 103.883 71.5048L103.956 71.4562C103.996 71.432 104.029 71.3753 104.029 71.3025C104.037 71.2378 104.02 71.1731 103.988 71.1084Z" fill="#747474"/>
<path d="M103.711 70.9149C103.574 70.834 103.469 70.8987 103.469 71.0524C103.469 71.2061 103.582 71.4002 103.711 71.473C103.849 71.5539 103.954 71.4892 103.962 71.3355C103.954 71.1818 103.849 70.9958 103.711 70.9149Z" fill="#7F7F81"/>
<path d="M104.319 67.6624L103.712 71.634C103.704 71.7796 103.648 71.8847 103.559 71.9333L104.117 71.6097C104.206 71.5612 104.262 71.456 104.27 71.3104L104.877 67.3389L104.319 67.6624Z" fill="#7F7F81"/>
<path d="M103.523 66.5625L102.965 66.8861L104.316 67.6626L104.882 67.339L103.523 66.5625Z" fill="#A8ABAB"/>
<path d="M102.967 66.8857L102.676 71.6015L103.185 71.8927C103.46 72.0544 103.687 71.9412 103.711 71.6338L104.318 67.6623L102.967 66.8857Z" fill="#5E5E5E"/>
<path d="M102.43 71.1573C102.042 70.9308 101.727 71.1168 101.727 71.5617C101.727 72.0066 102.042 72.5485 102.43 72.775C102.819 73.0015 103.134 72.8154 103.134 72.3706C103.134 71.9257 102.819 71.3757 102.43 71.1573Z" fill="#7F7F81"/>
<path d="M102.433 71.3352C102.312 71.2624 102.199 71.2462 102.102 71.2786C102.037 71.3433 101.988 71.4484 101.988 71.586C101.988 71.9338 102.231 72.3544 102.53 72.5243C102.652 72.597 102.765 72.6132 102.862 72.5809C102.927 72.5162 102.975 72.411 102.975 72.2735C102.983 71.9338 102.741 71.5132 102.433 71.3352Z" fill="#5E5E5E"/>
<path d="M102.538 72.524C102.238 72.3541 101.996 71.9335 101.996 71.5857C101.996 71.4482 102.036 71.343 102.109 71.2783C101.98 71.3188 101.891 71.4482 101.891 71.6504C101.891 71.9982 102.133 72.4188 102.433 72.5887C102.611 72.6938 102.764 72.6858 102.869 72.5887C102.772 72.613 102.659 72.5968 102.538 72.524Z" fill="#747474"/>
<path d="M102.441 70.8014C102.999 71.125 103.452 71.9096 103.452 72.5486C103.452 73.1876 102.999 73.4464 102.441 73.131C101.883 72.8074 101.43 72.0228 101.43 71.3838C101.43 70.7367 101.883 70.4779 102.441 70.8014ZM102.433 72.7508C102.805 72.9692 103.112 72.7912 103.112 72.3625C103.112 71.9338 102.813 71.4081 102.433 71.1897C102.053 70.9713 101.753 71.1492 101.753 71.5779C101.753 72.0066 102.061 72.5324 102.433 72.7508Z" fill="#2A2A2A"/>
<path d="M103.806 71.4806C103.709 71.2541 103.571 71.0438 103.417 70.8659C103.288 70.7122 103.134 70.5828 102.973 70.4938C102.689 70.332 102.439 70.3158 102.253 70.421L101.719 70.7284C101.905 70.6232 102.156 70.6394 102.439 70.8012C102.6 70.8901 102.746 71.0196 102.884 71.1732C103.045 71.3512 103.175 71.5696 103.272 71.788C103.385 72.0387 103.45 72.3057 103.45 72.5483C103.45 72.8638 103.336 73.0903 103.159 73.1954L103.692 72.888C103.87 72.7829 103.984 72.5564 103.984 72.2409C103.976 71.9983 103.911 71.7314 103.806 71.4806Z" fill="#363636"/>
<path d="M102.695 71.8604C102.671 71.8037 102.639 71.7552 102.598 71.7067C102.566 71.6662 102.525 71.642 102.493 71.6177C102.428 71.5773 102.364 71.5773 102.315 71.6015L102.242 71.6501C102.291 71.6258 102.347 71.6258 102.42 71.6662C102.461 71.6905 102.493 71.7229 102.525 71.7552C102.566 71.7957 102.598 71.8523 102.622 71.9089C102.647 71.9736 102.663 72.0302 102.663 72.0949C102.663 72.1758 102.639 72.2244 102.59 72.2486L102.663 72.2001C102.703 72.1758 102.736 72.1192 102.736 72.0464C102.736 71.9898 102.719 71.9251 102.695 71.8604Z" fill="#747474"/>
<path d="M102.411 71.6669C102.273 71.586 102.168 71.6507 102.168 71.8044C102.168 71.9581 102.281 72.1522 102.411 72.225C102.548 72.3059 102.653 72.2412 102.653 72.0875C102.661 71.9338 102.548 71.7478 102.411 71.6669Z" fill="#7F7F81"/>
<path d="M106.016 71.7237C105.628 71.4972 105.312 71.6832 105.312 72.1281C105.312 72.573 105.628 73.1149 106.016 73.3414C106.404 73.5679 106.72 73.3819 106.72 72.937C106.72 72.4921 106.404 71.9421 106.016 71.7237Z" fill="#7F7F81"/>
<path d="M106.015 71.9016C105.894 71.8288 105.781 71.8126 105.684 71.845C105.619 71.9097 105.57 72.0149 105.57 72.1524C105.57 72.5002 105.813 72.9208 106.112 73.0907C106.234 73.1635 106.347 73.1796 106.444 73.1473C106.509 73.0826 106.557 72.9774 106.557 72.8399C106.557 72.5002 106.314 72.0796 106.015 71.9016Z" fill="#5E5E5E"/>
<path d="M106.12 73.0904C105.82 72.9205 105.578 72.4999 105.578 72.1521C105.578 72.0146 105.618 71.9094 105.691 71.8447C105.562 71.8852 105.473 72.0146 105.473 72.2168C105.473 72.5646 105.715 72.9852 106.015 73.1551C106.193 73.2603 106.346 73.2522 106.451 73.1551C106.354 73.1794 106.241 73.1632 106.12 73.0904Z" fill="#747474"/>
<path d="M106.015 71.3678C106.573 71.6914 107.026 72.476 107.026 73.115C107.026 73.754 106.573 74.0128 106.015 73.6974C105.457 73.3738 105.004 72.5892 105.004 71.9502C105.004 71.3031 105.457 71.0443 106.015 71.3678ZM106.015 73.3172C106.387 73.5356 106.694 73.3576 106.694 72.9289C106.694 72.5002 106.395 71.9745 106.015 71.7561C105.643 71.5377 105.336 71.7156 105.336 72.1443C105.336 72.573 105.635 73.0988 106.015 73.3172Z" fill="#2A2A2A"/>
<path d="M107.38 72.047C107.283 71.8205 107.145 71.6102 106.992 71.4323C106.862 71.2786 106.708 71.1492 106.547 71.0602C106.264 70.8984 106.013 70.8822 105.827 70.9874L105.293 71.2948C105.479 71.1896 105.73 71.2058 106.013 71.3676C106.175 71.4565 106.32 71.586 106.458 71.7396C106.62 71.9176 106.749 72.136 106.846 72.3544C106.959 72.6051 107.024 72.8721 107.024 73.1147C107.024 73.4302 106.911 73.6567 106.733 73.7618L107.267 73.4545C107.445 73.3493 107.558 73.1228 107.558 72.8074C107.558 72.5647 107.493 72.2978 107.38 72.047Z" fill="#363636"/>
<path d="M106.269 72.4268C106.245 72.3701 106.213 72.3216 106.172 72.2731C106.14 72.2326 106.1 72.2084 106.067 72.1841C106.002 72.1437 105.938 72.1437 105.889 72.1679L105.816 72.2165C105.865 72.1922 105.922 72.1922 105.994 72.2326C106.035 72.2569 106.067 72.2893 106.1 72.3216C106.14 72.3621 106.172 72.4187 106.197 72.4753C106.221 72.54 106.237 72.5966 106.237 72.6613C106.237 72.7422 106.213 72.7908 106.164 72.815L106.237 72.7665C106.277 72.7422 106.31 72.6856 106.31 72.6128C106.318 72.5562 106.302 72.4915 106.269 72.4268Z" fill="#747474"/>
<path d="M105.993 72.2333C105.855 72.1524 105.75 72.2171 105.75 72.3708C105.75 72.5245 105.863 72.7186 105.993 72.7914C106.13 72.8723 106.235 72.8076 106.243 72.6539C106.235 72.5002 106.13 72.3142 105.993 72.2333Z" fill="#7F7F81"/>
<path d="M106.6 68.9808L105.994 72.9523C105.985 73.0979 105.929 73.2031 105.84 73.2516L106.398 72.9281C106.487 72.8795 106.544 72.7744 106.552 72.6288L107.158 68.6572L106.6 68.9808Z" fill="#7F7F81"/>
<path d="M105.804 67.873L105.246 68.1966L106.597 68.9812L107.155 68.6576L105.804 67.873Z" fill="#A8ABAB"/>
<path d="M105.248 68.1963L104.957 72.912L105.467 73.2032C105.742 73.365 105.968 73.2517 105.992 72.9444L106.599 68.9728L105.248 68.1963Z" fill="#5E5E5E"/>
<path d="M104.712 72.4668C104.323 72.2403 104.008 72.4264 104.008 72.8713C104.008 73.3161 104.323 73.8581 104.712 74.0846C105.1 74.3111 105.415 74.125 105.415 73.6801C105.415 73.2353 105.1 72.6933 104.712 72.4668Z" fill="#7F7F81"/>
<path d="M104.714 72.6536C104.593 72.5808 104.48 72.5646 104.383 72.5969C104.318 72.6617 104.27 72.7668 104.27 72.9043C104.27 73.2521 104.512 73.6727 104.811 73.8426C104.933 73.9154 105.046 73.9316 105.143 73.8992C105.208 73.8345 105.256 73.7294 105.256 73.5919C105.256 73.2521 105.014 72.8315 104.714 72.6536Z" fill="#5E5E5E"/>
<path d="M104.819 73.8423C104.52 73.6725 104.277 73.2519 104.277 72.904C104.277 72.7665 104.317 72.6614 104.39 72.5967C104.261 72.6371 104.172 72.7665 104.172 72.9688C104.172 73.3166 104.415 73.7372 104.714 73.9071C104.892 74.0122 105.045 74.0041 105.151 73.9071C105.054 73.9313 104.94 73.9151 104.819 73.8423Z" fill="#747474"/>
<path d="M104.722 72.1193C105.28 72.4428 105.733 73.2274 105.733 73.8664C105.733 74.5055 105.28 74.7643 104.722 74.4488C104.164 74.1253 103.711 73.3407 103.711 72.7017C103.711 72.0627 104.164 71.7957 104.722 72.1193ZM104.714 74.0606C105.086 74.279 105.393 74.101 105.393 73.6723C105.393 73.2436 105.094 72.7178 104.714 72.4994C104.342 72.2811 104.035 72.459 104.035 72.8877C104.035 73.3245 104.342 73.8422 104.714 74.0606Z" fill="#2A2A2A"/>
<path d="M106.079 72.799C105.982 72.5725 105.845 72.3622 105.691 72.1842C105.561 72.0305 105.408 71.9011 105.246 71.8121C104.963 71.6504 104.712 71.6342 104.526 71.7393L103.992 72.0467C104.178 71.9416 104.429 71.9577 104.712 72.1195C104.874 72.2085 105.019 72.3379 105.157 72.4916C105.319 72.6696 105.448 72.8879 105.545 73.1063C105.658 73.3571 105.723 73.624 105.723 73.8667C105.723 74.1821 105.61 74.4086 105.432 74.5138L105.966 74.2064C106.144 74.1013 106.257 73.8748 106.257 73.5593C106.257 73.3166 106.192 73.0497 106.079 72.799Z" fill="#363636"/>
<path d="M104.976 73.1797C104.952 73.1231 104.92 73.0745 104.879 73.026C104.847 72.9856 104.807 72.9613 104.774 72.937C104.71 72.8966 104.645 72.8966 104.596 72.9209L104.523 72.9694C104.572 72.9451 104.629 72.9451 104.701 72.9856C104.742 73.0098 104.774 73.0422 104.807 73.0745C104.847 73.115 104.879 73.1716 104.904 73.2282C104.928 73.2929 104.944 73.3496 104.944 73.4143C104.944 73.4952 104.92 73.5437 104.871 73.568L104.944 73.5194C104.985 73.4952 105.017 73.4385 105.017 73.3657C105.017 73.301 105.001 73.2363 104.976 73.1797Z" fill="#747474"/>
<path d="M104.692 72.9862C104.554 72.9053 104.449 72.97 104.449 73.1237C104.449 73.2774 104.562 73.4715 104.692 73.5443C104.829 73.6252 104.935 73.5605 104.935 73.4068C104.935 73.2531 104.829 73.059 104.692 72.9862Z" fill="#7F7F81"/>
<path d="M114.709 74.4086L109.006 74.2468L90.8307 63.7558L87.0938 57.8105L109.977 62.5344L114.709 74.4086Z" fill="#3361AB"/>
<path d="M69.1477 33.7868C74.0576 35.2994 80.6014 38.1143 86.7326 41.2527C87.7923 41.7947 114.477 56.0227 129.837 64.3056C135.629 67.4278 141.008 70.3964 141.607 70.7847C142.877 71.5935 144.033 72.5318 145.069 73.5348C146.832 75.2416 148.061 77.4174 148.814 79.747C150.755 81.2596 152.114 84.0906 152.316 86.3069C152.437 87.6254 151.661 88.863 150.439 89.3726C146.549 91.0065 139.973 89.4454 134.408 86.2341C115.69 75.4276 85.9804 57.9559 78.9432 53.8954C67.619 47.3597 62.8385 36.8039 63.2511 34.5148C63.6393 32.4441 66.5998 33.0022 69.1477 33.7868Z" fill="url(#paint0_linear)"/>
<path d="M152.066 84.9318C152.066 86.6547 149.607 87.8599 144.616 86.8812C138.728 85.7245 109.592 69.4095 89.0709 57.1066C85.892 55.0844 82.8749 53.0945 80.1005 49.7943C79.1137 48.6134 78.418 47.1574 78.4666 45.6206C78.5798 42.2556 81.4675 39.3194 85.0912 40.4276C79.4534 37.6289 73.6214 35.1618 69.1484 33.7867C66.6004 33.0021 63.6399 32.4521 63.2678 34.5066C62.9686 36.1406 64.9746 40.4842 67.8137 44.1808C70.5962 47.8045 72.853 49.9966 77.0672 52.7629C81.2815 55.5293 87.4855 58.8618 97.8472 64.9203C101.107 66.8292 105.24 70.2588 113.766 74.3436C115.545 75.379 130.032 83.8074 134.319 86.2826C139.884 89.4938 146.614 91.0954 150.513 89.4615C151.718 88.96 152.454 87.6334 152.333 86.3311C152.284 85.8943 152.195 85.4171 152.066 84.9318Z" fill="#3361AB"/>
<path opacity="0.5" d="M140.586 70.7766C138.928 69.6846 128.777 63.9821 121.561 60.0752C120.72 60.4392 119.903 60.8679 119.078 61.2562C126.131 65.1873 136.873 71.181 138.426 72.1759C142.657 74.8857 143.789 76.2688 145.383 76.2041C146.604 76.1475 145.334 73.8907 140.586 70.7766Z" fill="#F0F0E8"/>
<path opacity="0.2" d="M116.594 64.0713C116.958 64.4919 118.649 65.7699 118.649 65.7699C116.57 65.7942 113.415 66.9023 112.922 67.1612C123.858 73.5108 134.721 79.7553 136.145 79.2619C140.715 77.6684 127.943 70.1864 116.594 64.0713Z" fill="#F0F0E8"/>
<path opacity="0.3" d="M137.382 68.8277C137.754 68.8277 138.093 68.8925 138.409 68.9895C138.255 68.9005 138.085 68.8116 137.924 68.7226C137.746 68.6983 137.576 68.6579 137.382 68.6579C134.591 68.6579 131.105 71.3353 129.091 74.8619C128.832 75.3068 128.605 75.7679 128.395 76.2451C127.805 77.6121 127.53 78.8982 127.53 80.0225C115.971 73.3493 101.484 64.8643 91.7773 59.1617C87.9756 56.9292 84.6673 54.9879 82.0547 53.4672C82.079 52.5047 82.3297 51.4127 82.8312 50.256C84.4489 46.5271 88.0323 43.4938 90.8148 43.4938C90.8714 43.4938 90.9199 43.51 90.9766 43.51C90.8714 43.4534 90.7582 43.3968 90.6611 43.3402C87.8381 43.4534 84.2872 46.4705 82.6775 50.1913C82.1841 51.3237 81.9253 52.4076 81.8848 53.3702C80.3156 52.4481 79.0052 51.6877 78.0022 51.1134C73.1894 48.339 69.4444 45.3462 66.7266 42.6445C66.8964 42.8953 67.0905 43.1541 67.2766 43.413C69.9378 45.9609 73.4806 48.703 77.9133 51.2671C78.9324 51.8576 80.2752 52.6422 81.8848 53.5805C81.8767 54.5673 82.1275 55.4005 82.5885 56.0233C82.7503 56.1204 82.9202 56.2174 83.09 56.3145C82.4187 55.7321 82.0628 54.8181 82.0628 53.6776C84.6593 55.1982 87.9352 57.1153 91.6884 59.3235C101.427 65.0341 115.963 73.5516 127.538 80.2329C127.57 81.2439 127.853 82.0933 128.346 82.7323C128.5 82.8212 128.654 82.9102 128.808 82.9992C127.424 81.7859 127.295 79.2137 128.557 76.3179C130.344 72.1765 134.3 68.8277 137.382 68.8277Z" fill="#BEBEB4"/>
<path d="M86.9641 2.14431L71.0859 16.2591V16.9143L86.9641 2.79949C87.045 2.71861 87.0855 2.62963 87.0935 2.54874V1.89355C87.0935 1.97444 87.0531 2.06342 86.9641 2.14431Z" fill="#D8D7CD"/>
<path d="M71.0947 16.2509L71.0866 16.906L64.2031 12.9345L64.2112 12.2793L71.0947 16.2509Z" fill="#717475"/>
<path d="M86.8678 1.56169C87.1266 1.70729 87.167 1.95804 86.9648 2.13599L71.0866 16.2508L64.2031 12.2793L83.2278 0.162343C83.5271 -0.0398754 84.061 -0.0560529 84.3845 0.129988L86.8678 1.56169Z" fill="#F2F2EA"/>
<path d="M74.0078 33.6259L75.2292 32.9141L79.3787 39.6924L78.1492 40.4042L74.0078 33.6259Z" fill="#F2F2EA"/>
<path d="M69.3711 17.7714L70.5925 17.0596L75.2273 32.9135L74.0059 33.6253L69.3711 17.7714Z" fill="#D8D7CD"/>
<path d="M62.6758 13.9052L63.8972 13.1934L70.5947 17.0598L69.3732 17.7716L62.6758 13.9052Z" fill="#B1B8B9"/>
<path d="M74.0081 33.6256L69.3732 17.7717L62.6758 13.9053L63.9134 33.4719C68.0952 34.847 72.9727 37.3707 78.1576 40.404L74.0081 33.6256Z" fill="#BEBEB4"/>
<path opacity="0.4" d="M70.7969 22.6492L69.3732 17.7717L62.6758 13.9053L63.4766 26.6288C65.8304 25.1324 68.257 23.7169 70.7969 22.6492Z" fill="#BEBEB4"/>
<path d="M61.3892 11.1553C61.3083 11.1391 61.2193 11.1634 61.1142 11.22C60.8473 11.3818 60.6288 11.762 60.6369 12.0693C60.6369 12.1826 60.6693 12.2635 60.7178 12.3282L62.4326 14.3504C62.3194 14.2129 62.2466 14.0106 62.2466 13.7518C62.2385 13.0319 62.74 12.1421 63.3629 11.762C63.5974 11.6245 63.8158 11.5759 64.0019 11.6083L61.3892 11.1553Z" fill="#BEBEB4"/>
<path d="M64.18 11.6811C63.9696 11.5598 63.6785 11.5841 63.3549 11.7701C62.724 12.1422 62.2225 13.032 62.2387 13.7599C62.2468 14.1159 62.3762 14.3666 62.5784 14.4798L69.7531 18.597C69.5509 18.4838 69.4214 18.233 69.4134 17.8771C69.4053 17.1572 69.9068 16.2675 70.5296 15.8873C70.8532 15.7012 71.1443 15.677 71.3547 15.7983L64.18 11.6811Z" fill="url(#paint1_linear)"/>
<path d="M71.4651 15.8875C71.2548 15.6772 70.915 15.661 70.5268 15.8875C69.8959 16.2596 69.3944 17.1493 69.4105 17.8773C69.4186 18.306 69.6047 18.581 69.8797 18.6538L71.5864 19.1068C71.3842 19.0502 71.2548 18.8561 71.2467 18.5487C71.2386 18.031 71.5945 17.392 72.0475 17.1251C72.3225 16.9633 72.5651 16.9714 72.7188 17.1251L71.4651 15.8875Z" fill="url(#paint2_linear)"/>
<path d="M72.0587 17.1246C71.6058 17.3915 71.2499 18.0305 71.2579 18.5482C71.266 19.0658 71.6381 19.2681 72.0911 19.0011C72.5441 18.7342 72.9 18.0952 72.8919 17.5775C72.8757 17.0598 72.5036 16.8576 72.0587 17.1246Z" fill="#D8D7CD"/>
<path d="M72.0595 17.3675C71.7279 17.5697 71.4609 18.0389 71.4609 18.4271C71.469 18.8154 71.7441 18.961 72.0757 18.7669C72.4073 18.5646 72.6742 18.0955 72.6742 17.7072C72.6742 17.319 72.3912 17.1653 72.0595 17.3675Z" fill="#424347"/>
<path d="M44.8137 26.5482C44.5063 26.6695 44.0938 26.6452 43.8269 26.4915L41.3517 25.0598C41.1981 24.9708 41.1172 24.8495 41.1172 24.7282V25.3834C41.1172 25.5047 41.1981 25.6179 41.3517 25.715L43.8269 27.1467C44.0938 27.3004 44.5063 27.3247 44.8137 27.2033L69.1284 17.9579V17.3027L44.8137 26.5482Z" fill="#D8D7CD"/>
<path d="M69.1297 17.3026L44.815 26.548C44.5076 26.6694 44.0951 26.6451 43.8281 26.4914L41.353 25.0597C41.0294 24.8737 41.0375 24.5663 41.3854 24.3883L62.2543 13.3311L69.1297 17.3026Z" fill="#F2F2EA"/>
<path d="M148.837 79.7637C148.586 78.9872 148.271 78.2511 147.915 77.5312C148.125 79.6101 144.299 80.9123 140.853 80.2248L140.57 82.3602C146.621 83.0801 148.691 80.9528 148.837 79.7637Z" fill="#302E2E"/>
<path d="M82.8127 55.1094L92.139 60.4965C91.8559 59.0487 92.1471 56.7191 93.8296 53.9689L84.2687 48.4443C83.112 50.329 82.2222 52.8931 82.8127 55.1094Z" fill="url(#paint3_linear)"/>
<path d="M93.6954 54.2518L84.903 49.1398C84.7169 48.9618 84.5228 48.8 84.3125 48.6787L93.1049 53.7908C93.3153 53.9202 93.5094 54.0739 93.6954 54.2518Z" fill="#A6A59F"/>
<path d="M89.2534 54.147L80.4609 49.043V48.7842L89.2534 53.8963V54.147Z" fill="#BEBEB4"/>
<path d="M84.456 48.4119C84.3589 48.3553 84.2538 48.2987 84.1486 48.2582C83.1214 47.8457 81.8191 48.0236 80.4844 48.7678C80.4602 48.784 89.2526 53.8961 89.2526 53.8961C90.6196 53.1357 91.9138 52.9578 92.9411 53.3703C93.0462 53.4107 93.1514 53.4674 93.2484 53.524L84.456 48.4119Z" fill="#ECEBE4"/>
<path d="M89.286 53.8801C90.6206 53.1359 91.9229 52.958 92.9502 53.3705C93.2818 53.508 93.5973 53.7264 93.8804 54.0014L93.7024 54.2522C93.4274 53.9853 93.1362 53.775 92.8046 53.6455C91.8258 53.2411 90.5721 53.419 89.286 54.1389C89.2617 54.1551 89.2617 53.8963 89.2617 53.8963L89.286 53.8801Z" fill="#CECDC6"/>
<path d="M150.045 36.1006C146.623 34.7417 143.105 37.9206 143.784 40.2663C144.496 41.0428 151.913 45.5159 153.555 45.8556L157.058 40.2178C157.058 40.2178 157.414 39.5302 150.045 36.1006Z" fill="url(#paint4_linear)"/>
<path d="M152.73 37.4678C152.779 37.5244 153.62 39.3039 153.232 39.2392C150.999 38.9076 148.168 40.8327 148.047 41.8519C149.843 42.8063 152.342 44.1086 152.738 44.2623L156.847 40.4525C156.977 40.3312 156.977 40.129 156.856 39.9995C156.047 39.1988 154.566 38.5031 152.73 37.4678Z" fill="url(#paint5_linear)"/>
<path d="M155.004 39.9991C153.67 40.7675 152.586 42.6441 152.586 44.181C152.586 45.7178 153.67 46.3487 155.004 45.5722C156.339 44.8038 157.423 42.9272 157.423 41.3903C157.415 39.8535 156.331 39.2307 155.004 39.9991Z" fill="#D8D7CD"/>
<path d="M155.003 40.307C153.814 40.9946 152.852 42.6609 152.852 44.0359C152.852 45.411 153.814 45.9611 155.003 45.2816C156.192 44.5941 157.155 42.9278 157.155 41.5527C157.147 40.1776 156.184 39.6195 155.003 40.307Z" fill="url(#paint6_linear)"/>
<path d="M151.52 36.424L152.021 36.1328L153.744 38.9477L153.234 39.2389L151.52 36.424Z" fill="#F6F6EE"/>
<path d="M150.508 32.9619L151.519 36.4239L152.028 36.1327L151.195 33.2693C150.961 33.1641 150.734 33.0671 150.508 32.9619Z" fill="#D8D7CD"/>
<path d="M150.506 32.9623C149.357 32.4527 148.192 31.9916 147.028 31.5225L146.68 36.2705C146.68 36.2705 150.692 38.2037 153.24 39.2391L151.517 36.4242L150.506 32.9623Z" fill="#BEBEB4"/>
<path d="M138.998 46.1143C135.576 44.7554 132.058 47.9342 132.737 50.28C133.449 51.0565 140.866 55.5295 142.508 55.8693L146.011 50.2314C146.019 50.2314 146.367 49.5439 138.998 46.1143Z" fill="url(#paint7_linear)"/>
<path d="M141.683 47.4814C141.732 47.5381 142.573 49.3176 142.185 49.2529C139.952 48.9212 137.121 50.8464 137 51.8655C138.796 52.82 141.295 54.1223 141.691 54.276L145.801 50.4662C145.93 50.3449 145.93 50.1426 145.809 50.0132C145 49.2124 143.52 48.5168 141.683 47.4814Z" fill="url(#paint8_linear)"/>
<path d="M143.954 50.0128C142.619 50.7812 141.535 52.6578 141.535 54.1946C141.535 55.7315 142.619 56.3624 143.954 55.5859C145.288 54.8175 146.372 52.9409 146.372 51.404C146.372 49.8672 145.288 49.2443 143.954 50.0128Z" fill="#D8D7CD"/>
<path d="M143.956 50.3197C142.767 51.0073 141.805 52.6735 141.805 54.0486C141.805 55.4237 142.767 55.9738 143.956 55.2943C145.145 54.6068 146.108 52.9405 146.108 51.5654C146.108 50.1903 145.145 49.6322 143.956 50.3197Z" fill="url(#paint9_linear)"/>
<path d="M140.469 46.4458L140.978 46.1465L142.693 48.9614L142.192 49.2526L140.469 46.4458Z" fill="#F6F6EE"/>
<path d="M139.461 42.9756L140.472 46.4376L140.982 46.1464L140.148 43.283C139.914 43.1778 139.687 43.0807 139.461 42.9756Z" fill="#D8D7CD"/>
<path d="M139.459 42.9759C138.31 42.4663 137.145 42.0053 135.981 41.5361L135.633 46.2842C135.633 46.2842 139.645 48.2174 142.193 49.2528L140.47 46.4379L139.459 42.9759Z" fill="#BEBEB4"/>
<path d="M173.05 13.8731L122.504 59.8575V60.7068L173.05 14.7224C173.164 14.6253 173.212 14.5202 173.212 14.4069V13.5576C173.212 13.6709 173.164 13.776 173.05 13.8731Z" fill="#D8D7CD"/>
<path d="M122.504 59.8568V60.7061L104.652 50.4011L104.66 49.5518L122.504 59.8568Z" fill="#717475"/>
<path d="M172.913 13.1366C173.253 13.3307 173.309 13.6462 173.051 13.8727L122.504 59.8571L104.652 49.552L166.191 10.1438C166.58 9.88491 167.267 9.87682 167.68 10.1195L172.913 13.1366Z" fill="#F2F2EA"/>
<path d="M172.918 13.1365L172.384 12.8291L117.566 57.0017L122.509 59.857L173.055 13.8725C173.322 13.6461 173.257 13.3306 172.918 13.1365Z" fill="#F6F6EE"/>
<path d="M122.541 58.9428C121.093 57.2927 119.548 55.9823 117.987 55.0764L113.166 52.2939C109.356 50.0937 104.495 49.0018 100.912 49.2363C100.03 49.204 97.2313 50.9997 95.7188 52.5204C99.3021 52.577 103.088 53.7337 106.905 55.9338L111.726 58.7163C113.287 59.6142 114.824 60.9246 116.28 62.5827C117.122 63.5372 117.93 64.613 118.699 65.7859C120.697 63.6424 122.937 61.9114 124.482 61.8629C123.698 60.69 123.374 59.8973 122.541 58.9428Z" fill="url(#paint10_linear)"/>
<path d="M111.719 58.7243L106.898 55.9418C103.088 53.7416 99.2942 52.5849 95.7109 52.5283L118.683 65.7938C116.596 62.5907 114.186 60.1479 111.719 58.7243Z" fill="#BEBEB4"/>
<path d="M91.6425 73.4541C88.2209 72.0952 84.7023 75.2741 85.3818 77.6198C86.0936 78.3963 93.5109 82.8694 95.153 83.2091L98.6554 77.5713C98.6554 77.5713 99.0113 76.8837 91.6425 73.4541Z" fill="url(#paint11_linear)"/>
<path d="M94.3279 74.8213C94.3764 74.8779 95.2177 76.6574 94.8294 76.5927C92.5969 76.2611 89.7659 78.1862 89.6445 79.2054C91.4402 80.1598 93.9396 81.4621 94.336 81.6158L98.4451 77.806C98.5745 77.6847 98.5745 77.4825 98.4531 77.3531C97.6443 76.5523 96.1641 75.8566 94.3279 74.8213Z" fill="url(#paint12_linear)"/>
<path d="M96.6021 77.3526C95.2675 78.121 94.1836 79.9976 94.1836 81.5345C94.1836 83.0713 95.2675 83.7022 96.6021 82.9257C97.9368 82.1573 99.0207 80.2807 99.0207 78.7439C99.0126 77.207 97.9368 76.5842 96.6021 77.3526Z" fill="#D8D7CD"/>
<path d="M96.6008 77.6521C95.4118 78.3397 94.4492 80.0059 94.4492 81.381C94.4492 82.7561 95.4118 83.3061 96.6008 82.6267C97.7899 81.9391 98.7524 80.2729 98.7524 78.8978C98.7524 77.5227 97.7899 76.9727 96.6008 77.6521Z" fill="url(#paint13_linear)"/>
<path d="M93.1133 73.7775L93.6229 73.4863L95.3377 76.3012L94.8281 76.5924L93.1133 73.7775Z" fill="#F6F6EE"/>
<path d="M92.1055 70.3154L93.1166 73.7774L93.6262 73.4862L92.793 70.6228C92.5584 70.5176 92.332 70.4206 92.1055 70.3154Z" fill="#D8D7CD"/>
<path d="M92.1033 70.3158C90.9547 69.8062 89.7899 69.3451 88.6252 68.876L88.2773 73.6241C88.2773 73.6241 92.2894 75.5573 94.8373 76.5926L93.1144 73.7777L92.1033 70.3158Z" fill="#BEBEB4"/>
<path d="M74.0721 79.6992C70.6506 78.3403 67.132 81.5192 67.8115 83.8649C68.5233 84.6414 75.9406 89.1145 77.5826 89.4542L81.0851 83.8164C81.0851 83.8164 81.441 83.1288 74.0721 79.6992Z" fill="url(#paint14_linear)"/>
<path d="M76.7576 81.0664C76.8061 81.123 77.6474 82.9025 77.2591 82.8378C75.0266 82.5062 72.1955 84.4313 72.0742 85.4505C73.8699 86.405 76.3693 87.7073 76.7576 87.8609L80.8667 84.0511C80.9961 83.9298 80.9961 83.7276 80.8748 83.5982C80.074 82.7974 78.5937 82.1018 76.7576 81.0664Z" fill="url(#paint15_linear)"/>
<path d="M79.0201 83.5977C77.6854 84.3661 76.6016 86.2427 76.6016 87.7796C76.6016 89.3164 77.6854 89.9474 79.0201 89.1708C80.3547 88.4024 81.4386 86.5258 81.4386 84.989C81.4386 83.4521 80.3547 82.8293 79.0201 83.5977Z" fill="#D8D7CD"/>
<path d="M79.0227 83.9057C77.8337 84.5932 76.8711 86.2595 76.8711 87.6346C76.8711 89.0096 77.8337 89.5597 79.0227 88.8802C80.2117 88.1927 81.1743 86.5264 81.1743 85.1513C81.1743 83.7762 80.2117 83.2181 79.0227 83.9057Z" fill="url(#paint16_linear)"/>
<path d="M75.543 80.0307L76.0445 79.7314L77.7674 82.5463L77.2578 82.8456L75.543 80.0307Z" fill="#F6F6EE"/>
<path d="M74.5273 76.5684L75.5384 80.0303L76.048 79.7391L75.2149 76.8757C74.9884 76.7625 74.7619 76.6654 74.5273 76.5684Z" fill="#D8D7CD"/>
<path d="M74.5252 76.5687C73.3766 76.0591 72.2118 75.5981 71.0471 75.1289L70.6992 79.877C70.6992 79.877 74.7112 81.8102 77.2592 82.8456L75.5363 80.0307L74.5252 76.5687Z" fill="#BEBEB4"/>
<path d="M37.631 92.5358C37.2266 92.6895 36.6927 92.6571 36.353 92.463L31.1196 89.4459C30.9174 89.3326 30.8203 89.1789 30.8203 89.0253V89.8746C30.8203 90.0283 30.9174 90.1819 31.1196 90.2952L36.353 93.3123C36.6927 93.5064 37.2266 93.5388 37.631 93.3851L116.731 63.9987V63.1494L37.631 92.5358Z" fill="#D8D7CD"/>
<path d="M98.8805 52.8447C104.729 53.7911 112.866 57.9487 116.732 63.1498L37.6326 92.5361C37.2282 92.6898 36.6943 92.6574 36.3546 92.4633L31.1212 89.4462C30.7006 89.2036 30.7248 88.8072 31.1697 88.5807L98.8805 52.8447Z" fill="#F2F2EA"/>
<path d="M35.6992 92.0824L36.3544 92.4626C36.6941 92.6567 37.228 92.6891 37.6324 92.5354L116.732 63.149C115.786 61.8791 114.581 60.6739 113.222 59.5576L35.6992 92.0824Z" fill="#F6F6EE"/>
<path opacity="0.4" d="M129.877 36.4966L127.054 35.2105L127.2 35.1134L129.902 36.3429L142.504 27.6799L140.336 26.7173L140.482 26.6203L142.682 27.599C142.706 27.6071 142.722 27.6314 142.722 27.6637C142.722 27.688 142.714 27.7122 142.69 27.7284L129.95 36.4966C129.894 36.4966 129.886 36.4966 129.877 36.4966ZM144.769 26.2805C144.809 26.2644 158.398 16.9219 158.398 16.9219C158.423 16.9057 158.431 16.8814 158.431 16.8572C158.431 16.8329 158.414 16.8086 158.39 16.7925L156.878 16.1211L156.732 16.2182L158.22 16.8814L144.777 26.1349L142.706 25.2128L142.561 25.3099L144.761 26.2886C144.745 26.2805 144.753 26.2805 144.769 26.2805ZM43.4008 83.9774C43.4332 83.9694 60.4762 75.4762 60.4762 75.4762C60.5004 75.46 60.5166 75.4357 60.5166 75.4115C60.5166 75.3791 60.5004 75.3549 60.4762 75.3468L58.179 74.3276L58.0091 74.4166L60.2739 75.4196L43.4008 83.8238L41.6618 83.0391L41.5 83.1281L43.3685 83.9774C43.3847 83.9774 43.3927 83.9774 43.4008 83.9774ZM62.9837 74.2224C63.016 74.2143 76.8963 67.2985 76.8963 67.2985C76.9205 67.2823 76.9367 67.258 76.9367 67.2338C76.9367 67.2014 76.9205 67.1772 76.8963 67.1691L74.1057 65.9234L73.9358 66.0124L76.694 67.2419L62.9837 74.0687L60.646 73.0253L60.4762 73.1143L62.9513 74.2143C62.9675 74.2224 62.9756 74.2224 62.9837 74.2224Z" fill="#BEBEB4"/>
<path d="M117.655 75.2175L127.159 80.7016C126.876 79.2537 127.167 76.9242 128.85 74.174L119.289 68.6494C118.132 70.5422 117.283 73.0739 117.655 75.2175Z" fill="url(#paint17_linear)"/>
<path d="M128.707 74.4647L119.915 69.3527C119.729 69.1747 119.535 69.0129 119.324 68.8916L128.117 74.0037C128.327 74.125 128.529 74.2868 128.707 74.4647Z" fill="#A6A59F"/>
<path d="M124.273 74.3599L115.473 69.2559V68.9971L124.273 74.1011V74.3599Z" fill="#BEBEB4"/>
<path d="M119.476 68.6248C119.378 68.5682 119.273 68.5115 119.168 68.4711C118.141 68.0586 116.839 68.2365 115.504 68.9807C115.48 68.9969 124.272 74.1089 124.272 74.1089C125.639 73.3486 126.933 73.1707 127.961 73.5832C128.066 73.6236 128.171 73.6802 128.268 73.7369L119.476 68.6248Z" fill="#F6F6EE"/>
<path d="M124.298 74.093C125.632 73.3488 126.935 73.1709 127.962 73.5834C128.294 73.7209 128.609 73.9393 128.892 74.2143L128.714 74.4651C128.439 74.1981 128.148 73.9878 127.816 73.8584C126.838 73.454 125.584 73.6319 124.298 74.3518C124.273 74.368 124.273 74.1092 124.273 74.1092L124.298 74.093Z" fill="#CECDC6"/>
<path opacity="0.4" d="M143.344 51.647C142.956 51.8735 142.648 52.4073 142.648 52.8522C142.648 53.2971 142.964 53.4751 143.344 53.2567C143.732 53.0302 144.04 52.4963 144.04 52.0514C144.048 51.5985 143.732 51.4205 143.344 51.647Z" fill="#D8D7CD"/>
<path opacity="0.4" d="M154.461 41.544C154.073 41.7705 153.766 42.3043 153.766 42.7492C153.766 43.1941 154.081 43.372 154.461 43.1536C154.85 42.9271 155.157 42.3933 155.157 41.9484C155.157 41.5035 154.85 41.3175 154.461 41.544Z" fill="#D8D7CD"/>
<path opacity="0.4" d="M78.5628 85.0531C78.1745 85.2796 77.8672 85.8135 77.8672 86.2583C77.8672 86.7032 78.1826 86.8812 78.5628 86.6628C78.9511 86.4363 79.2584 85.9024 79.2584 85.4576C79.2584 85.0127 78.9511 84.8347 78.5628 85.0531Z" fill="#D8D7CD"/>
<path opacity="0.4" d="M96.1566 78.6869C95.7683 78.9134 95.4609 79.4473 95.4609 79.8921C95.4609 80.337 95.7764 80.515 96.1566 80.2966C96.5448 80.0701 96.8522 79.5362 96.8522 79.0913C96.8522 78.6465 96.5448 78.4685 96.1566 78.6869Z" fill="#D8D7CD"/>
<path d="M65.9121 28.6189L65.5724 28.4248C65.4106 28.3277 65.2812 28.3034 65.1922 28.3358C65.1032 28.3681 65.0547 28.4733 65.0547 28.6351V29.6219C65.0547 29.7837 65.1032 29.9373 65.1922 30.0749C65.2812 30.2124 65.4106 30.3337 65.5724 30.4227L65.9121 30.6168C66.0739 30.7139 66.2033 30.7381 66.2923 30.7058C66.3812 30.6734 66.4298 30.5683 66.4298 30.4065V30.2609C66.4298 30.2124 66.4055 30.18 66.3651 30.1557L66.1062 30.0021C66.0658 29.9778 66.0415 29.9859 66.0415 30.0344V30.1638C66.0415 30.2285 66.0253 30.269 66.0011 30.2771C65.9768 30.2852 65.9283 30.2771 65.8636 30.2366L65.6532 30.1153C65.5885 30.0749 65.54 30.0344 65.5158 29.994C65.4915 29.9535 65.4753 29.8969 65.4753 29.8322V28.8777C65.4753 28.813 65.4915 28.7726 65.5158 28.7645C65.54 28.7564 65.5885 28.7645 65.6532 28.8049L65.8636 28.9263C65.9283 28.9667 65.9768 29.0071 66.0011 29.0476C66.0253 29.088 66.0415 29.1447 66.0415 29.2094V29.3388C66.0415 29.3873 66.0658 29.4197 66.1062 29.4439L66.3651 29.5976C66.4136 29.6219 66.4298 29.6138 66.4298 29.5653V29.4197C66.4298 29.2579 66.3812 29.1042 66.2923 28.9667C66.1952 28.8292 66.0739 28.7079 65.9121 28.6189Z" fill="#403D37"/>
<path d="M67.5522 29.5656L67.1396 29.323C67.0911 29.2987 67.0587 29.2987 67.0426 29.331L66.5492 30.9164C66.533 30.9488 66.5492 30.9812 66.5896 31.0054L66.8889 31.1753C66.9131 31.1834 66.9212 31.1915 66.9374 31.1834C66.9455 31.1834 66.9536 31.1672 66.9617 31.1429L67.0507 30.8517L67.6573 31.1995L67.7463 31.5959C67.7544 31.6202 67.7544 31.6444 67.7625 31.6606C67.7706 31.6768 67.7867 31.6849 67.811 31.701L68.1103 31.8709C68.1507 31.8952 68.1588 31.879 68.1507 31.8305L67.6573 29.6789C67.6331 29.6384 67.6007 29.598 67.5522 29.5656ZM67.1154 30.5929L67.3418 29.8245C67.358 29.8326 67.5764 30.8598 67.5764 30.8598L67.1154 30.5929Z" fill="#403D37"/>
<path d="M69.3833 31.8543C69.5693 31.8704 69.6583 31.7734 69.6583 31.5388V31.2961C69.6583 31.1344 69.6098 30.9807 69.5208 30.8432C69.4318 30.6976 69.3024 30.5843 69.1406 30.4873L68.4045 30.0586C68.3641 30.0343 68.3398 30.0424 68.3398 30.0828V31.9513C68.3398 31.9918 68.3641 32.0322 68.4045 32.0565L68.6715 32.2102C68.7119 32.2344 68.7362 32.2264 68.7362 32.1859V31.5469C68.7362 31.5226 68.7524 31.5226 68.7766 31.5307L68.9869 31.6521L69.2943 32.5014C69.3024 32.5337 69.3186 32.558 69.3347 32.5742C69.3509 32.5903 69.3752 32.6146 69.4156 32.6308L69.6664 32.7764C69.723 32.8087 69.7392 32.7926 69.723 32.7359L69.3833 31.8543ZM69.2619 31.3204C69.2619 31.3851 69.2458 31.4175 69.2134 31.4256C69.1811 31.4337 69.1325 31.4256 69.0678 31.3851L68.7604 31.2072C68.7362 31.191 68.7281 31.1748 68.7281 31.1505V30.6167C68.7281 30.5924 68.7362 30.5924 68.7604 30.6005L69.0678 30.7785C69.1325 30.8189 69.1811 30.8594 69.2134 30.9079C69.2458 30.9564 69.2619 31.013 69.2619 31.0778V31.3204Z" fill="#403D37"/>
<path d="M70.7751 31.4255L70.4435 31.2314C70.2817 31.1343 70.1523 31.1101 70.0633 31.1424C69.9743 31.1748 69.9258 31.2799 69.9258 31.4417V32.4285C69.9258 32.5903 69.9743 32.744 70.0633 32.8815C70.1523 33.019 70.2817 33.1403 70.4435 33.2293L70.7751 33.4234C70.9369 33.5205 71.0582 33.5448 71.1553 33.5124C71.2442 33.472 71.2928 33.3749 71.2928 33.2131V32.6955C71.2928 32.6469 71.2685 32.6065 71.22 32.5822L70.678 32.2667C70.6376 32.2425 70.6133 32.2506 70.6133 32.291V32.5013C70.6133 32.5418 70.6376 32.5822 70.678 32.6065L70.8641 32.7116C70.8883 32.7278 70.8964 32.744 70.8964 32.7682V32.9624C70.8964 33.0271 70.8802 33.0675 70.856 33.0837C70.8317 33.0999 70.7832 33.0837 70.7185 33.0433L70.5163 32.93C70.4516 32.8896 70.403 32.8491 70.3787 32.8087C70.3545 32.7683 70.3383 32.7116 70.3383 32.6469V31.7005C70.3383 31.6358 70.3545 31.5954 70.3787 31.5873C70.403 31.5792 70.4516 31.5873 70.5163 31.6277L70.7185 31.741C70.7832 31.7814 70.8317 31.8219 70.856 31.8623C70.8802 31.9028 70.8964 31.9594 70.8964 32.0241V32.0969C70.8964 32.1454 70.9207 32.1778 70.9611 32.202L71.2281 32.3557C71.2685 32.38 71.2928 32.3719 71.2928 32.3234V32.2263C71.2928 32.0645 71.2442 31.9108 71.1553 31.7733C71.0582 31.6358 70.9369 31.5145 70.7751 31.4255Z" fill="#403D37"/>
<path d="M72.7886 32.7199C72.6997 32.5824 72.5702 32.4611 72.4085 32.3721L72.0607 32.1699C71.8989 32.0728 71.7695 32.0485 71.6805 32.0809C71.5915 32.1132 71.543 32.2184 71.543 32.3802V33.367C71.543 33.5288 71.5915 33.6825 71.6805 33.82C71.7695 33.9575 71.8989 34.0788 72.0607 34.1678L72.4085 34.37C72.5702 34.4671 72.6997 34.4913 72.7886 34.459C72.8776 34.4266 72.9261 34.3215 72.9261 34.1597V33.1729C72.918 33.0111 72.8776 32.8574 72.7886 32.7199ZM72.5298 33.9089C72.5298 33.9737 72.5136 34.0141 72.4894 34.0222C72.4651 34.0303 72.4166 34.0222 72.3518 33.9817L72.1335 33.8523C72.0687 33.8119 72.0202 33.7714 71.9959 33.731C71.9717 33.6906 71.9555 33.6339 71.9555 33.5692V32.6228C71.9555 32.5581 71.9717 32.5177 71.9959 32.5015C72.0202 32.4853 72.0687 32.5015 72.1335 32.542L72.3518 32.6714C72.4166 32.7118 72.4651 32.7523 72.4894 32.7927C72.5136 32.8331 72.5298 32.8898 72.5298 32.9545V33.9089Z" fill="#403D37"/>
<path d="M72.9169 34.9843L65.0547 30.4385V32.768L72.9169 34.9843Z" fill="#3361AB"/>
<defs>
<linearGradient id="paint0_linear" x1="111.254" y1="54.8548" x2="103.432" y2="68.4018" gradientUnits="userSpaceOnUse">
<stop stop-color="#F2F2EA"/>
<stop offset="0.2066" stop-color="#EEEEE6"/>
<stop offset="0.4151" stop-color="#E2E2DA"/>
<stop offset="0.6238" stop-color="#CFCFC6"/>
<stop offset="0.7621" stop-color="#BEBEB4"/>
<stop offset="0.9486" stop-color="#C1C1B7"/>
<stop offset="1" stop-color="#C4C4BA"/>
</linearGradient>
<linearGradient id="paint1_linear" x1="67.3756" y1="13.4985" x2="65.7532" y2="16.3086" gradientUnits="userSpaceOnUse">
<stop stop-color="#F2F2EA"/>
<stop offset="0.5089" stop-color="#D4D4CB"/>
<stop offset="0.9543" stop-color="#BEBEB4"/>
</linearGradient>
<linearGradient id="paint2_linear" x1="71.7545" y1="16.0285" x2="70.1418" y2="18.8217" gradientUnits="userSpaceOnUse">
<stop stop-color="#F2F2EA"/>
<stop offset="0.271" stop-color="#EEEEE6"/>
<stop offset="0.5446" stop-color="#E2E2DA"/>
<stop offset="0.8185" stop-color="#CFCFC6"/>
<stop offset="1" stop-color="#BEBEB4"/>
</linearGradient>
<linearGradient id="paint3_linear" x1="89.8294" y1="51.6577" x2="86.5808" y2="57.2845" gradientUnits="userSpaceOnUse">
<stop stop-color="#191918"/>
<stop offset="0.7745" stop-color="#222221"/>
<stop offset="1" stop-color="#262624"/>
</linearGradient>
<linearGradient id="paint4_linear" x1="151.495" y1="37.6364" x2="148.471" y2="42.8758" gradientUnits="userSpaceOnUse">
<stop stop-color="#F2F2EA"/>
<stop offset="0.2066" stop-color="#EEEEE6"/>
<stop offset="0.4151" stop-color="#E2E2DA"/>
<stop offset="0.6238" stop-color="#CFCFC6"/>
<stop offset="0.7621" stop-color="#BEBEB4"/>
<stop offset="0.9486" stop-color="#C1C1B7"/>
<stop offset="1" stop-color="#C4C4BA"/>
</linearGradient>
<linearGradient id="paint5_linear" x1="151.878" y1="44.9233" x2="153.038" y2="37.6384" gradientUnits="userSpaceOnUse">
<stop/>
<stop offset="0.127" stop-color="#181817"/>
<stop offset="0.3957" stop-color="#565653"/>
<stop offset="0.7806" stop-color="#B7B7B1"/>
<stop offset="1" stop-color="#F2F2EA"/>
</linearGradient>
<linearGradient id="paint6_linear" x1="153.924" y1="40.9252" x2="156.075" y2="44.6508" gradientUnits="userSpaceOnUse">
<stop stop-color="#807F77"/>
<stop offset="0.0532" stop-color="#828179"/>
<stop offset="0.542" stop-color="#8E8E83"/>
<stop offset="1" stop-color="#929287"/>
</linearGradient>
<linearGradient id="paint7_linear" x1="140.451" y1="47.6514" x2="137.426" y2="52.8908" gradientUnits="userSpaceOnUse">
<stop stop-color="#F2F2EA"/>
<stop offset="0.2066" stop-color="#EEEEE6"/>
<stop offset="0.4151" stop-color="#E2E2DA"/>
<stop offset="0.6238" stop-color="#CFCFC6"/>
<stop offset="0.7621" stop-color="#BEBEB4"/>
<stop offset="0.9486" stop-color="#C1C1B7"/>
<stop offset="1" stop-color="#C4C4BA"/>
</linearGradient>
<linearGradient id="paint8_linear" x1="140.833" y1="54.9382" x2="141.993" y2="47.6533" gradientUnits="userSpaceOnUse">
<stop/>
<stop offset="0.127" stop-color="#181817"/>
<stop offset="0.3957" stop-color="#565653"/>
<stop offset="0.7806" stop-color="#B7B7B1"/>
<stop offset="1" stop-color="#F2F2EA"/>
</linearGradient>
<linearGradient id="paint9_linear" x1="142.879" y1="50.9391" x2="145.03" y2="54.6647" gradientUnits="userSpaceOnUse">
<stop stop-color="#807F77"/>
<stop offset="0.0532" stop-color="#828179"/>
<stop offset="0.542" stop-color="#8E8E83"/>
<stop offset="1" stop-color="#929287"/>
</linearGradient>
<linearGradient id="paint10_linear" x1="104.211" y1="47.0104" x2="115.962" y2="67.3639" gradientUnits="userSpaceOnUse">
<stop stop-color="#E0DFD6"/>
<stop offset="0.0929" stop-color="#E6E6DD"/>
<stop offset="0.3102" stop-color="#EFEFE7"/>
<stop offset="0.5825" stop-color="#F2F2EA"/>
<stop offset="0.7599" stop-color="#EFEFE7"/>
<stop offset="0.8837" stop-color="#E7E7DE"/>
<stop offset="0.9911" stop-color="#D9D9CF"/>
<stop offset="1" stop-color="#D8D7CD"/>
</linearGradient>
<linearGradient id="paint11_linear" x1="93.0945" y1="74.9884" x2="90.0698" y2="80.2277" gradientUnits="userSpaceOnUse">
<stop stop-color="#F2F2EA"/>
<stop offset="0.2066" stop-color="#EEEEE6"/>
<stop offset="0.4151" stop-color="#E2E2DA"/>
<stop offset="0.6238" stop-color="#CFCFC6"/>
<stop offset="0.7621" stop-color="#BEBEB4"/>
<stop offset="0.9486" stop-color="#C1C1B7"/>
<stop offset="1" stop-color="#C4C4BA"/>
</linearGradient>
<linearGradient id="paint12_linear" x1="93.4767" y1="82.2752" x2="94.6368" y2="74.9904" gradientUnits="userSpaceOnUse">
<stop/>
<stop offset="0.127" stop-color="#181817"/>
<stop offset="0.3957" stop-color="#565653"/>
<stop offset="0.7806" stop-color="#B7B7B1"/>
<stop offset="1" stop-color="#F2F2EA"/>
</linearGradient>
<linearGradient id="paint13_linear" x1="95.5228" y1="78.2767" x2="97.6738" y2="82.0023" gradientUnits="userSpaceOnUse">
<stop stop-color="#807F77"/>
<stop offset="0.0532" stop-color="#828179"/>
<stop offset="0.542" stop-color="#8E8E83"/>
<stop offset="1" stop-color="#929287"/>
</linearGradient>
<linearGradient id="paint14_linear" x1="75.522" y1="81.2375" x2="72.4974" y2="86.4769" gradientUnits="userSpaceOnUse">
<stop stop-color="#F2F2EA"/>
<stop offset="0.2066" stop-color="#EEEEE6"/>
<stop offset="0.4151" stop-color="#E2E2DA"/>
<stop offset="0.6238" stop-color="#CFCFC6"/>
<stop offset="0.7621" stop-color="#BEBEB4"/>
<stop offset="0.9486" stop-color="#C1C1B7"/>
<stop offset="1" stop-color="#C4C4BA"/>
</linearGradient>
<linearGradient id="paint15_linear" x1="75.9043" y1="88.5243" x2="77.0644" y2="81.2395" gradientUnits="userSpaceOnUse">
<stop/>
<stop offset="0.127" stop-color="#181817"/>
<stop offset="0.3957" stop-color="#565653"/>
<stop offset="0.7806" stop-color="#B7B7B1"/>
<stop offset="1" stop-color="#F2F2EA"/>
</linearGradient>
<linearGradient id="paint16_linear" x1="77.9507" y1="84.5262" x2="80.1016" y2="88.2518" gradientUnits="userSpaceOnUse">
<stop stop-color="#807F77"/>
<stop offset="0.0532" stop-color="#828179"/>
<stop offset="0.542" stop-color="#8E8E83"/>
<stop offset="1" stop-color="#929287"/>
</linearGradient>
<linearGradient id="paint17_linear" x1="124.843" y1="71.8701" x2="121.595" y2="77.4969" gradientUnits="userSpaceOnUse">
<stop stop-color="#191918"/>
<stop offset="0.7745" stop-color="#222221"/>
<stop offset="1" stop-color="#262624"/>
</linearGradient>
</defs>
</svg>
