<svg width="30" height="24" viewBox="0 0 30 24" fill="none" xmlns="http://www.w3.org/2000/svg">
<path d="M22.7344 18H24.75C25.125 18 25.5 17.6719 25.5 17.25V15.2812C25.5 14.8594 25.3125 14.4844 25.0312 14.2031L14.2031 3.375L10.8281 6.75L21.6562 17.5781C21.9375 17.8594 22.3125 18 22.7344 18ZM9.75 5.67188L13.125 2.29688L11.1562 0.328125C10.9688 0.140625 10.6875 0.046875 10.3594 0.046875C10.0781 0.046875 9.79688 0.140625 9.5625 0.328125L7.82812 2.10938C7.59375 2.34375 7.5 2.625 7.5 2.90625C7.5 3.23438 7.59375 3.51562 7.82812 3.70312L9.75 5.67188ZM6.375 19.875H7.125C7.3125 19.875 7.5 19.7344 7.5 19.5V18.75C8.57812 18.75 9.46875 17.8125 9.46875 16.6406C9.46875 15.7031 8.85938 14.8594 8.01562 14.625L5.90625 13.9688C5.625 13.9219 5.48438 13.6875 5.48438 13.4062C5.48438 13.0312 5.71875 12.75 6.04688 12.75H7.35938C7.54688 12.7969 7.78125 12.8438 7.96875 12.9375C8.01562 12.9844 8.10938 13.0312 8.15625 13.0312C8.25 13.0312 8.34375 12.9844 8.4375 12.8906L8.95312 12.375C9.04688 12.3281 9.09375 12.2344 9.09375 12.0938C9.09375 12 9.04688 11.9062 8.95312 11.8125C8.53125 11.5312 8.01562 11.2969 7.5 11.2969V10.5C7.5 10.3125 7.3125 10.125 7.125 10.125H6.375C6.14062 10.125 6 10.3125 6 10.5V11.2969C4.875 11.2969 3.98438 12.2344 3.98438 13.4062C3.98438 14.3438 4.59375 15.1406 5.4375 15.4219L7.54688 16.0781C7.82812 16.125 7.96875 16.3594 7.96875 16.6406C7.96875 17.0156 7.73438 17.25 7.40625 17.25H6.09375C5.90625 17.25 5.67188 17.2031 5.53125 17.1094C5.4375 17.0625 5.34375 17.0156 5.29688 17.0156C5.20312 17.0156 5.10938 17.0625 5.01562 17.1562L4.5 17.6719C4.40625 17.7188 4.35938 17.8125 4.35938 17.9531C4.35938 18.0469 4.40625 18.1406 4.5 18.2344C4.92188 18.5156 5.4375 18.75 6 18.75V19.5C6 19.7344 6.14062 19.875 6.375 19.875ZM12 14.25H16.2656L14.0156 12H12C11.5781 12 11.25 12.375 11.25 12.75V13.5C11.25 13.9219 11.5781 14.25 12 14.25ZM11.25 17.25C11.25 17.6719 11.5781 18 12 18H20.0156L17.7656 15.75H12C11.5781 15.75 11.25 16.125 11.25 16.5V17.25ZM28.5 6H18.9844L21.2344 8.25H27.75V21.75H2.25V8.25H10.2656L9.75 7.78125L8.71875 6.75L8.01562 6H1.5C0.65625 6 0 6.70312 0 7.5V22.5C0 23.3438 0.65625 24 1.5 24H28.5C29.2969 24 30 23.3438 30 22.5V7.5C30 6.70312 29.2969 6 28.5 6Z" fill="#1A86EB"/>
<path d="M22.7344 18H24.75C25.125 18 25.5 17.6719 25.5 17.25V15.2812C25.5 14.8594 25.3125 14.4844 25.0312 14.2031L14.2031 3.375L10.8281 6.75L21.6562 17.5781C21.9375 17.8594 22.3125 18 22.7344 18ZM9.75 5.67188L13.125 2.29688L11.1562 0.328125C10.9688 0.140625 10.6875 0.046875 10.3594 0.046875C10.0781 0.046875 9.79688 0.140625 9.5625 0.328125L7.82812 2.10938C7.59375 2.34375 7.5 2.625 7.5 2.90625C7.5 3.23438 7.59375 3.51562 7.82812 3.70312L9.75 5.67188ZM6.375 19.875H7.125C7.3125 19.875 7.5 19.7344 7.5 19.5V18.75C8.57812 18.75 9.46875 17.8125 9.46875 16.6406C9.46875 15.7031 8.85938 14.8594 8.01562 14.625L5.90625 13.9688C5.625 13.9219 5.48438 13.6875 5.48438 13.4062C5.48438 13.0312 5.71875 12.75 6.04688 12.75H7.35938C7.54688 12.7969 7.78125 12.8438 7.96875 12.9375C8.01562 12.9844 8.10938 13.0312 8.15625 13.0312C8.25 13.0312 8.34375 12.9844 8.4375 12.8906L8.95312 12.375C9.04688 12.3281 9.09375 12.2344 9.09375 12.0938C9.09375 12 9.04688 11.9062 8.95312 11.8125C8.53125 11.5312 8.01562 11.2969 7.5 11.2969V10.5C7.5 10.3125 7.3125 10.125 7.125 10.125H6.375C6.14062 10.125 6 10.3125 6 10.5V11.2969C4.875 11.2969 3.98438 12.2344 3.98438 13.4062C3.98438 14.3438 4.59375 15.1406 5.4375 15.4219L7.54688 16.0781C7.82812 16.125 7.96875 16.3594 7.96875 16.6406C7.96875 17.0156 7.73438 17.25 7.40625 17.25H6.09375C5.90625 17.25 5.67188 17.2031 5.53125 17.1094C5.4375 17.0625 5.34375 17.0156 5.29688 17.0156C5.20312 17.0156 5.10938 17.0625 5.01562 17.1562L4.5 17.6719C4.40625 17.7188 4.35938 17.8125 4.35938 17.9531C4.35938 18.0469 4.40625 18.1406 4.5 18.2344C4.92188 18.5156 5.4375 18.75 6 18.75V19.5C6 19.7344 6.14062 19.875 6.375 19.875ZM12 14.25H16.2656L14.0156 12H12C11.5781 12 11.25 12.375 11.25 12.75V13.5C11.25 13.9219 11.5781 14.25 12 14.25ZM11.25 17.25C11.25 17.6719 11.5781 18 12 18H20.0156L17.7656 15.75H12C11.5781 15.75 11.25 16.125 11.25 16.5V17.25ZM28.5 6H18.9844L21.2344 8.25H27.75V21.75H2.25V8.25H10.2656L9.75 7.78125L8.71875 6.75L8.01562 6H1.5C0.65625 6 0 6.70312 0 7.5V22.5C0 23.3438 0.65625 24 1.5 24H28.5C29.2969 24 30 23.3438 30 22.5V7.5C30 6.70312 29.2969 6 28.5 6Z" fill="url(#paint0_linear)"/>
<defs>
<linearGradient id="paint0_linear" x1="-2.34375" y1="-1.5" x2="19.6075" y2="25.939" gradientUnits="userSpaceOnUse">
<stop stop-color="#1C355E"/>
<stop offset="1" stop-color="#4685EB"/>
</linearGradient>
</defs>
</svg>
