<svg width="27" height="24" viewBox="0 0 27 24" fill="none" xmlns="http://www.w3.org/2000/svg">
<path d="M26.625 7.875L25.125 6.375C24.6562 5.90625 23.9062 5.90625 23.4375 6.375L22.1719 7.64062L25.3594 10.8281L26.625 9.5625C27.0938 9.09375 27.0938 8.34375 26.625 7.875ZM15.4219 14.3438C15.0469 14.7188 14.7656 15.1406 14.625 15.6562L13.9219 18H12.75C12.5625 18 12.375 17.9062 12.2812 17.7188C11.7188 16.5938 10.125 16.3125 9.1875 17.0625L8.53125 15.0938C8.39062 14.625 7.96875 14.3438 7.45312 14.3438C6.98438 14.3438 6.5625 14.625 6.42188 15.0938L5.57812 17.6719C5.48438 17.8594 5.29688 18 5.0625 18H4.5C4.07812 18 3.75 18.375 3.75 18.75C3.75 19.1719 4.07812 19.5 4.5 19.5H5.0625C5.95312 19.5 6.70312 18.9844 6.98438 18.1406L7.5 16.6406L8.25 19.0312C8.34375 19.3125 8.625 19.5 8.90625 19.5C8.95312 19.5 8.95312 19.5 8.95312 19.5C9.28125 19.5 9.51562 19.3594 9.65625 19.125L9.98438 18.375C10.125 18.1406 10.3594 18.0938 10.4531 18.0938C10.5938 18.0938 10.8281 18.1406 10.9688 18.4219C11.2969 19.0781 12 19.5 12.75 19.5H15.75V21.75H2.20312V2.29688H9.70312V7.17188C9.70312 7.78125 10.2188 8.29688 10.8281 8.29688H15.75V11.9531L18 9.70312V6.1875C18 5.625 17.7188 5.01562 17.2969 4.59375L13.3594 0.703125C12.9375 0.28125 12.375 0 11.8125 0H2.20312C0.984375 0.046875 0 1.03125 0 2.29688V21.7969C0 23.0156 0.984375 24 2.20312 24H15.7031C16.9688 24 18 23.0156 18 21.7969V18.2344L24.2812 11.9062L21.0938 8.71875L15.4219 14.3438ZM11.9531 2.4375L15.5625 6.04688H11.9531V2.4375Z" fill="#1A86EB"/>
<path d="M26.625 7.875L25.125 6.375C24.6562 5.90625 23.9062 5.90625 23.4375 6.375L22.1719 7.64062L25.3594 10.8281L26.625 9.5625C27.0938 9.09375 27.0938 8.34375 26.625 7.875ZM15.4219 14.3438C15.0469 14.7188 14.7656 15.1406 14.625 15.6562L13.9219 18H12.75C12.5625 18 12.375 17.9062 12.2812 17.7188C11.7188 16.5938 10.125 16.3125 9.1875 17.0625L8.53125 15.0938C8.39062 14.625 7.96875 14.3438 7.45312 14.3438C6.98438 14.3438 6.5625 14.625 6.42188 15.0938L5.57812 17.6719C5.48438 17.8594 5.29688 18 5.0625 18H4.5C4.07812 18 3.75 18.375 3.75 18.75C3.75 19.1719 4.07812 19.5 4.5 19.5H5.0625C5.95312 19.5 6.70312 18.9844 6.98438 18.1406L7.5 16.6406L8.25 19.0312C8.34375 19.3125 8.625 19.5 8.90625 19.5C8.95312 19.5 8.95312 19.5 8.95312 19.5C9.28125 19.5 9.51562 19.3594 9.65625 19.125L9.98438 18.375C10.125 18.1406 10.3594 18.0938 10.4531 18.0938C10.5938 18.0938 10.8281 18.1406 10.9688 18.4219C11.2969 19.0781 12 19.5 12.75 19.5H15.75V21.75H2.20312V2.29688H9.70312V7.17188C9.70312 7.78125 10.2188 8.29688 10.8281 8.29688H15.75V11.9531L18 9.70312V6.1875C18 5.625 17.7188 5.01562 17.2969 4.59375L13.3594 0.703125C12.9375 0.28125 12.375 0 11.8125 0H2.20312C0.984375 0.046875 0 1.03125 0 2.29688V21.7969C0 23.0156 0.984375 24 2.20312 24H15.7031C16.9688 24 18 23.0156 18 21.7969V18.2344L24.2812 11.9062L21.0938 8.71875L15.4219 14.3438ZM11.9531 2.4375L15.5625 6.04688H11.9531V2.4375Z" fill="url(#paint0_linear)"/>
<defs>
<linearGradient id="paint0_linear" x1="-2.10937" y1="-1.5" x2="20.2355" y2="23.6379" gradientUnits="userSpaceOnUse">
<stop stop-color="#1C355E"/>
<stop offset="1" stop-color="#4685EB"/>
</linearGradient>
</defs>
</svg>
