<svg width="24" height="22" viewBox="0 0 24 22" fill="none" xmlns="http://www.w3.org/2000/svg">
<path d="M21 4.25V3.5C21 1.85938 19.6406 0.5 18 0.5H4.5C1.96875 0.5 0 2.51562 0 5V17C0 19.5312 1.96875 21.5 4.5 21.5H21C22.6406 21.5 24 20.1875 24 18.5V7.25C24 5.60938 22.6406 4.25 21 4.25ZM21.75 18.5C21.75 18.9219 21.375 19.25 21 19.25H4.5C3.23438 19.25 2.25 18.2656 2.25 17V5C2.25 3.78125 3.23438 2.75 4.5 2.75H18C18.375 2.75 18.75 3.125 18.75 3.5V5H5.25C4.82812 5 4.5 5.375 4.5 5.75C4.5 6.17188 4.82812 6.5 5.25 6.5H21C21.375 6.5 21.75 6.875 21.75 7.25V18.5ZM18 11C17.1562 11 16.5 11.7031 16.5 12.5C16.5 13.3438 17.1562 14 18 14C18.7969 14 19.5 13.3438 19.5 12.5C19.5 11.7031 18.7969 11 18 11Z" fill="#1A86EB"/>
<path d="M21 4.25V3.5C21 1.85938 19.6406 0.5 18 0.5H4.5C1.96875 0.5 0 2.51562 0 5V17C0 19.5312 1.96875 21.5 4.5 21.5H21C22.6406 21.5 24 20.1875 24 18.5V7.25C24 5.60938 22.6406 4.25 21 4.25ZM21.75 18.5C21.75 18.9219 21.375 19.25 21 19.25H4.5C3.23438 19.25 2.25 18.2656 2.25 17V5C2.25 3.78125 3.23438 2.75 4.5 2.75H18C18.375 2.75 18.75 3.125 18.75 3.5V5H5.25C4.82812 5 4.5 5.375 4.5 5.75C4.5 6.17188 4.82812 6.5 5.25 6.5H21C21.375 6.5 21.75 6.875 21.75 7.25V18.5ZM18 11C17.1562 11 16.5 11.7031 16.5 12.5C16.5 13.3438 17.1562 14 18 14C18.7969 14 19.5 13.3438 19.5 12.5C19.5 11.7031 18.7969 11 18 11Z" fill="url(#paint0_linear)"/>
<defs>
<linearGradient id="paint0_linear" x1="-1.875" y1="-2.5" x2="20.625" y2="20" gradientUnits="userSpaceOnUse">
<stop stop-color="#1C355E"/>
<stop offset="1" stop-color="#4685EB"/>
</linearGradient>
</defs>
</svg>
