<svg width="30" height="24" viewBox="0 0 30 24" fill="none" xmlns="http://www.w3.org/2000/svg">
<path d="M25.5 15H4.5C2.01562 15 0 17.0156 0 19.5C0 21.9844 2.01562 24 4.5 24H25.5C27.9844 24 30 21.9844 30 19.5C30 17.0156 27.9844 15 25.5 15ZM25.5 21.75H4.5C3.23438 21.75 2.25 20.7656 2.25 19.5C2.25 18.2812 3.23438 17.25 4.5 17.25H25.5C26.7188 17.25 27.75 18.2812 27.75 19.5C27.75 20.7656 26.7188 21.75 25.5 21.75ZM6 18C5.15625 18 4.5 18.7031 4.5 19.5C4.5 20.3438 5.15625 21 6 21C6.79688 21 7.5 20.3438 7.5 19.5C7.5 18.7031 6.79688 18 6 18ZM24 18C23.1562 18 22.5 18.7031 22.5 19.5C22.5 20.3438 23.1562 21 24 21C24.7969 21 25.5 20.3438 25.5 19.5C25.5 18.7031 24.7969 18 24 18ZM15 18C14.1562 18 13.5 18.7031 13.5 19.5C13.5 20.3438 14.1562 21 15 21C15.7969 21 16.5 20.3438 16.5 19.5C16.5 18.7031 15.7969 18 15 18ZM6.75 13.5H23.25C23.625 13.5 24 13.1719 24 12.75V0.75C24 0.375 23.625 0 23.25 0H6.75C6.32812 0 6 0.375 6 0.75V12.75C6 13.1719 6.32812 13.5 6.75 13.5ZM8.25 2.25H12V7.5L15 6L18 7.5V2.25H21.75V11.25H8.25V2.25Z" fill="#1A86EB"/>
<path d="M25.5 15H4.5C2.01562 15 0 17.0156 0 19.5C0 21.9844 2.01562 24 4.5 24H25.5C27.9844 24 30 21.9844 30 19.5C30 17.0156 27.9844 15 25.5 15ZM25.5 21.75H4.5C3.23438 21.75 2.25 20.7656 2.25 19.5C2.25 18.2812 3.23438 17.25 4.5 17.25H25.5C26.7188 17.25 27.75 18.2812 27.75 19.5C27.75 20.7656 26.7188 21.75 25.5 21.75ZM6 18C5.15625 18 4.5 18.7031 4.5 19.5C4.5 20.3438 5.15625 21 6 21C6.79688 21 7.5 20.3438 7.5 19.5C7.5 18.7031 6.79688 18 6 18ZM24 18C23.1562 18 22.5 18.7031 22.5 19.5C22.5 20.3438 23.1562 21 24 21C24.7969 21 25.5 20.3438 25.5 19.5C25.5 18.7031 24.7969 18 24 18ZM15 18C14.1562 18 13.5 18.7031 13.5 19.5C13.5 20.3438 14.1562 21 15 21C15.7969 21 16.5 20.3438 16.5 19.5C16.5 18.7031 15.7969 18 15 18ZM6.75 13.5H23.25C23.625 13.5 24 13.1719 24 12.75V0.75C24 0.375 23.625 0 23.25 0H6.75C6.32812 0 6 0.375 6 0.75V12.75C6 13.1719 6.32812 13.5 6.75 13.5ZM8.25 2.25H12V7.5L15 6L18 7.5V2.25H21.75V11.25H8.25V2.25Z" fill="url(#paint0_linear)"/>
<defs>
<linearGradient id="paint0_linear" x1="-2.34375" y1="-1.5" x2="19.6075" y2="25.939" gradientUnits="userSpaceOnUse">
<stop stop-color="#1C355E"/>
<stop offset="1" stop-color="#4685EB"/>
</linearGradient>
</defs>
</svg>
