<svg width="134" height="40" viewBox="0 0 134 40" fill="none" xmlns="http://www.w3.org/2000/svg">
<g clip-path="url(#clip0)">
<path fill-rule="evenodd" clip-rule="evenodd" d="M50.9773 28.0722C49.1644 28.0722 49.0349 28.1148 48.9054 29.6909V29.8187C48.7328 31.3949 48.8191 31.4375 50.632 31.4375H50.8046C50.9773 31.4375 51.0205 31.5227 51.0205 31.6505L50.9773 32.0765H50.4593C48.258 32.0765 47.9558 31.7783 48.1717 29.7761V29.6483C48.3875 27.6462 48.7759 27.3906 50.9773 27.3906H51.4953L51.4521 27.8166C51.4521 27.987 51.3658 28.0296 51.1931 28.0296H50.9773V28.0722Z" fill="#808183"/>
<path fill-rule="evenodd" clip-rule="evenodd" d="M55.0349 27.4338L54.9918 27.8598C54.9918 28.0302 54.9055 28.0728 54.7328 28.0728H52.7904L52.6609 29.3082H54.6896L54.6465 29.7342C54.6465 29.9045 54.5601 29.9471 54.3875 29.9471H52.5746L52.402 31.3955H54.5601L54.517 31.8215C54.517 31.9919 54.4306 32.0345 54.258 32.0345H51.625L52.0998 27.5616C52.0998 27.3912 52.1861 27.3486 52.3588 27.3486H55.0349V27.4338Z" fill="#808183"/>
<path fill-rule="evenodd" clip-rule="evenodd" d="M58.7029 27.6462C58.7029 27.4758 58.7892 27.4332 58.9619 27.4332H59.4799L58.9619 32.1191H58.1849C57.9691 32.1191 57.8828 32.0765 57.8396 31.9487L56.4584 28.3704L56.0699 31.8635C56.0699 32.0339 55.9836 32.0765 55.8109 32.0765H55.293L55.8109 27.3906H56.5879C56.8037 27.3906 56.8469 27.4332 56.89 27.561L58.2713 31.0967L58.7029 27.6462Z" fill="#808183"/>
<path fill-rule="evenodd" clip-rule="evenodd" d="M61.3809 28.0726H60.0859L60.1291 27.6466C60.1291 27.4762 60.2154 27.4336 60.3881 27.4336H63.5391L63.4959 27.8596C63.4959 28.03 63.4096 28.0726 63.2369 28.0726H62.1146L61.7262 31.8638C61.7262 32.0342 61.6398 32.0768 61.4672 32.0768H60.9492L61.3809 28.0726Z" fill="#808183"/>
<path fill-rule="evenodd" clip-rule="evenodd" d="M65.8695 27.4332C67.1213 27.4332 67.3371 27.9018 67.2508 28.9242C67.1644 29.7761 66.9055 30.2021 66.1717 30.3725L66.6896 31.3949C66.7328 31.5227 66.8191 31.6505 66.776 31.8209L66.7328 32.0765H66.3875C66.2148 32.0765 66.1285 31.9913 66.0422 31.9061L65.3516 30.4151H64.5746L64.402 31.8635C64.402 32.0339 64.3156 32.0765 64.143 32.0765H63.625L64.0998 27.6036C64.0998 27.4332 64.1861 27.3906 64.3588 27.3906H65.8695V27.4332ZM64.8336 28.0722L64.6609 29.7335H65.6105C66.3443 29.7335 66.4307 29.5632 66.4738 28.8816C66.5602 28.2 66.517 28.0296 65.7832 28.0296H64.8336V28.0722Z" fill="#808183"/>
<path fill-rule="evenodd" clip-rule="evenodd" d="M67.4221 31.7357C67.4221 31.6079 67.4652 31.4801 67.5084 31.3523L69.0623 27.7314C69.1918 27.4332 69.2781 27.3906 69.7961 27.3906C70.3572 27.3906 70.4004 27.4332 70.4867 27.7314L71.2637 31.3523C71.3068 31.4801 71.3068 31.6079 71.2637 31.7357L71.2205 32.0765H70.9615C70.6162 32.0765 70.573 31.9913 70.5299 31.7357L70.3572 30.8837H68.458L68.1127 31.7357C68.0264 31.9913 67.9832 32.0765 67.6379 32.0765H67.3789L67.4221 31.7357ZM70.2709 30.2873L69.7961 28.0296H69.7098L68.7601 30.2873H70.2709Z" fill="#808183"/>
<path fill-rule="evenodd" clip-rule="evenodd" d="M72.2549 32.0765C72.0822 32.0765 72.0391 31.9913 72.0391 31.8635L72.5139 27.3906H73.0318C73.1613 27.3906 73.2477 27.4758 73.2045 27.6036L72.816 31.3949H74.6289C74.8016 31.3949 74.8447 31.4801 74.8447 31.6079L74.8016 32.0339H72.2549V32.0765Z" fill="#808183"/>
<path fill-rule="evenodd" clip-rule="evenodd" d="M77.09 31.7357C77.09 31.6079 77.1332 31.4801 77.1764 31.3523L78.7303 27.7314C78.8597 27.4332 78.9461 27.3906 79.464 27.3906C80.0252 27.3906 80.0683 27.4332 80.1547 27.7314L80.9316 31.3523C80.9748 31.4801 80.9748 31.6079 80.9316 31.7357L80.8884 32.0765H80.6295C80.2841 32.0765 80.241 31.9913 80.1978 31.7357L80.0252 30.8837H78.126L77.7807 31.7357C77.6943 31.9913 77.6512 32.0765 77.3059 32.0765H77.0469L77.09 31.7357ZM79.9388 30.2873L79.464 28.0296H79.3777L78.4281 30.2873H79.9388Z" fill="#808183"/>
<path fill-rule="evenodd" clip-rule="evenodd" d="M82.9594 31.4373C83.9521 31.4373 84.0385 31.3095 84.1248 30.6705L84.168 30.2445L82.6572 29.9463C82.0961 29.8185 81.8371 29.6907 81.9234 28.9239C82.0529 27.7312 82.4846 27.4756 83.7795 27.4756H85.0312L84.9881 27.9016C84.9881 28.072 84.9017 28.1146 84.7291 28.1146H83.6932C82.7867 28.1146 82.7435 28.2424 82.6572 28.8813L82.6141 29.2221L84.2543 29.5629C84.7723 29.6481 84.9017 29.8611 84.8154 30.6705C84.6859 31.8632 84.1248 32.1188 82.873 32.1188H81.5781L81.6213 31.6928C81.6213 31.5224 81.7076 31.4798 81.8803 31.4798H82.9594V31.4373Z" fill="#808183"/>
<path fill-rule="evenodd" clip-rule="evenodd" d="M85.8967 27.6466C85.8967 27.4762 85.983 27.4336 86.1557 27.4336H86.6736L86.1988 31.9064C86.1988 32.0768 86.1125 32.1194 85.9398 32.1194H85.4219L85.8967 27.6466Z" fill="#808183"/>
<path fill-rule="evenodd" clip-rule="evenodd" d="M86.9336 31.7357C86.9336 31.6079 86.9768 31.4801 87.0199 31.3523L88.5738 27.7314C88.7033 27.4332 88.7896 27.3906 89.3076 27.3906C89.8687 27.3906 89.9119 27.4332 89.9982 27.7314L90.7752 31.3523C90.8183 31.4801 90.8183 31.6079 90.7752 31.7357L90.732 32.0765H90.473C90.1277 32.0765 90.0846 31.9913 90.0414 31.7357L89.8687 30.8837H88.0559L87.7105 31.7357C87.6242 31.9913 87.5811 32.0765 87.2357 32.0765H86.9768L86.9336 31.7357ZM89.8256 30.2873L89.3508 28.0296H89.2644L88.3148 30.2873H89.8256Z" fill="#808183"/>
<path fill-rule="evenodd" clip-rule="evenodd" d="M50.2443 35.2715C51.4961 35.2715 51.7119 35.6975 51.5824 36.8476C51.4529 37.9978 51.1508 38.4238 49.899 38.4238H48.9494L48.8199 39.7443C48.8199 39.9147 48.7336 39.9573 48.5609 39.9573H48.043L48.5178 35.4845C48.5178 35.3141 48.6041 35.2715 48.7768 35.2715H50.2443ZM49.1652 35.9531L48.9926 37.7422H49.9422C50.676 37.7422 50.7191 37.657 50.8055 36.8476C50.8918 36.0809 50.8486 35.9531 50.1148 35.9531H49.1652Z" fill="#808183"/>
<path fill-rule="evenodd" clip-rule="evenodd" d="M55.6823 37.3168L55.6391 37.8706C55.4665 39.6171 54.9485 39.9579 53.6536 39.9579C52.3587 39.9579 51.927 39.6171 52.1428 37.8706L52.186 37.3168C52.3587 35.5703 52.8766 35.2295 54.1715 35.2295C55.4233 35.2295 55.8549 35.5703 55.6823 37.3168ZM54.9485 37.3168C55.078 35.9963 54.9917 35.8685 54.0852 35.8685C53.1788 35.8685 53.0493 35.9537 52.9198 37.3168L52.8766 37.8706C52.7471 39.1912 52.8335 39.319 53.7399 39.319C54.6463 39.319 54.7758 39.2338 54.9053 37.8706L54.9485 37.3168Z" fill="#808183"/>
<path fill-rule="evenodd" clip-rule="evenodd" d="M57.4086 39.2761C58.4014 39.2761 58.4877 39.1483 58.574 38.5093L58.6172 38.0834L57.1064 37.7852C56.5453 37.6574 56.2863 37.5296 56.3727 36.7628C56.5021 35.57 56.9338 35.3145 58.2287 35.3145H59.4805L59.4373 35.7404C59.4373 35.9108 59.351 35.9534 59.1783 35.9534H58.1424C57.2359 35.9534 57.1928 36.0812 57.1064 36.7202L57.0633 37.061L58.7035 37.4018C59.2215 37.487 59.351 37.7 59.2646 38.5093C59.1351 39.7021 58.574 39.9577 57.3223 39.9577H56.0273L56.0705 39.5317C56.0705 39.3613 56.1568 39.3187 56.3295 39.3187H57.4086V39.2761Z" fill="#808183"/>
<path fill-rule="evenodd" clip-rule="evenodd" d="M61.248 35.9534H59.9531L59.9963 35.5274C59.9963 35.3571 60.0826 35.3145 60.2553 35.3145H63.4062L63.3631 35.7404C63.3631 35.9108 63.2768 35.9534 63.1041 35.9534H61.9818L61.5934 39.7447C61.5934 39.9151 61.507 39.9577 61.3344 39.9577H60.8164L61.248 35.9534Z" fill="#808183"/>
<path fill-rule="evenodd" clip-rule="evenodd" d="M62.8906 39.6165C62.8906 39.4887 62.9338 39.3609 62.977 39.2331L64.5309 35.6123C64.6603 35.3141 64.7467 35.2715 65.2646 35.2715C65.8258 35.2715 65.8689 35.3141 65.9553 35.6123L66.7322 39.2331C66.7754 39.3609 66.7754 39.4887 66.7322 39.6165L66.689 39.9573H66.4732C66.1279 39.9573 66.0848 39.8721 66.0416 39.6165L65.8689 38.7646H63.9697L63.6244 39.6165C63.5381 39.8721 63.4949 39.9573 63.1496 39.9573H62.8906V39.6165ZM65.7394 38.1682L65.2646 35.9105H65.1783L64.2287 38.1682H65.7394Z" fill="#808183"/>
<path fill-rule="evenodd" clip-rule="evenodd" d="M67.7236 39.9573C67.551 39.9573 67.5078 39.8721 67.5078 39.7443L67.9826 35.2715H68.5006C68.6301 35.2715 68.7164 35.3567 68.6732 35.4845L68.2848 39.2757H70.0976C70.2703 39.2757 70.3135 39.3609 70.3135 39.4887L70.2703 39.9147H67.7236V39.9573Z" fill="#808183"/>
<path fill-rule="evenodd" clip-rule="evenodd" d="M73.8539 39.2761C74.8467 39.2761 74.933 39.1483 75.0193 38.5093L75.0625 38.0834L73.5518 37.7852C72.9906 37.6574 72.7316 37.5296 72.818 36.7628C72.9475 35.57 73.3791 35.3145 74.674 35.3145H75.9258L75.8826 35.7404C75.8826 35.9108 75.7963 35.9534 75.6236 35.9534H74.5877C73.6813 35.9534 73.6381 36.0812 73.5518 36.7202L73.5086 37.061L75.1488 37.4018C75.6668 37.487 75.7963 37.7 75.71 38.5093C75.5805 39.7021 75.0193 39.9577 73.7676 39.9577H72.4727L72.5158 39.5317C72.5158 39.3613 72.6022 39.3187 72.7748 39.3187H73.8539V39.2761Z" fill="#808183"/>
<path fill-rule="evenodd" clip-rule="evenodd" d="M79.7225 35.2717L79.6793 35.6977C79.6793 35.8681 79.593 35.9107 79.4203 35.9107H77.4779L77.3484 37.1461H79.3771L79.334 37.572C79.334 37.7424 79.2476 37.785 79.075 37.785H77.2621L77.0895 39.2334H79.2477L79.2045 39.6594C79.2045 39.8298 79.1182 39.8724 78.9455 39.8724H76.3125L76.7873 35.3995C76.7873 35.2291 76.8736 35.1865 77.0463 35.1865H79.7225V35.2717Z" fill="#808183"/>
<path fill-rule="evenodd" clip-rule="evenodd" d="M82.2289 35.2721C83.4806 35.2721 83.6965 35.7407 83.6101 36.763C83.5238 37.615 83.2648 38.041 82.531 38.2114L83.049 39.2338C83.0922 39.3615 83.1785 39.4893 83.1353 39.6597L83.0922 39.9153H82.7469C82.5742 39.9153 82.4879 39.8301 82.4015 39.7449L81.7109 38.254H80.934L80.7613 39.7023C80.7613 39.8727 80.675 39.9153 80.5023 39.9153H79.9844L80.4592 35.4425C80.4592 35.2721 80.5455 35.2295 80.7182 35.2295H82.2289V35.2721ZM81.193 35.9537L81.0203 37.615H81.9699C82.7037 37.615 82.79 37.4446 82.8332 36.763C82.9195 36.0815 82.8764 35.9111 82.1426 35.9111H81.193V35.9537Z" fill="#808183"/>
<path fill-rule="evenodd" clip-rule="evenodd" d="M85.0781 39.6165L84.258 35.9957C84.2148 35.8679 84.2148 35.7401 84.2148 35.6123L84.258 35.2715H84.5601C84.8623 35.2715 84.9055 35.3567 84.9918 35.6123L85.7687 39.3609H85.8551L87.409 35.6123C87.4953 35.3567 87.5816 35.2715 87.9269 35.2715H88.1859L88.1428 35.6123C88.1428 35.7827 88.0996 35.8679 88.0564 35.9957L86.4594 39.6165C86.3299 39.9147 86.2867 39.9573 85.7687 39.9573C85.1644 39.9573 85.1213 39.9147 85.0781 39.6165Z" fill="#808183"/>
<path fill-rule="evenodd" clip-rule="evenodd" d="M88.8732 35.4845C88.8732 35.3141 88.9596 35.2715 89.1322 35.2715H89.6502L89.1754 39.7443C89.1754 39.9147 89.089 39.9573 88.9164 39.9573H88.3984L88.8732 35.4845Z" fill="#808183"/>
<path fill-rule="evenodd" clip-rule="evenodd" d="M97.1209 35.2717L97.0777 35.6977C97.0777 35.8681 96.9914 35.9107 96.8187 35.9107H94.8764L94.7469 37.1461H96.7756L96.7324 37.572C96.7324 37.7424 96.6461 37.785 96.4734 37.785H94.6605L94.4879 39.2334H96.6461L96.6029 39.6594C96.6029 39.8298 96.5166 39.8724 96.3439 39.8724H93.7109L94.1857 35.3995C94.1857 35.2291 94.2721 35.1865 94.4447 35.1865H97.1209V35.2717Z" fill="#808183"/>
<path fill-rule="evenodd" clip-rule="evenodd" d="M99.2789 23.557H85.1211L85.3369 20.8307H99.4947C102.343 20.8307 104.89 18.5304 105.106 15.7189L105.753 7.88073C106.099 3.53568 109.984 0 114.386 0H128.63L128.414 2.72631H114.17C111.322 2.72631 108.775 5.02662 108.559 7.83813L107.912 15.6763C107.523 20.0213 103.638 23.557 99.2789 23.557Z" fill="#2B7DD4"/>
<path fill-rule="evenodd" clip-rule="evenodd" d="M17.6089 17.0818C17.3067 20.6174 20.0261 23.5141 23.6087 23.5141H38.2844L39.5793 20.7878H23.8676C21.7958 20.7878 20.2419 19.1265 20.4145 17.0818V16.8262H17.652L17.6089 17.0818Z" fill="#2B7DD4"/>
<path fill-rule="evenodd" clip-rule="evenodd" d="M35.8711 34.7175L38.3746 35.7399L47.6117 16.8262H44.5902L35.8711 34.7175Z" fill="#2B7DD4"/>
<path fill-rule="evenodd" clip-rule="evenodd" d="M93.0167 0H77.3914L76.3554 12.4814H67.032L64.3559 4.08946C63.5789 1.61874 61.3344 0 58.6151 0H57.277C54.6008 0 52.0973 1.57614 50.8887 4.04686L46.745 12.4814H20.7603L21.2351 6.47497C21.4078 4.43024 23.2206 2.7689 25.2925 2.7689H43.9393L44.1551 0.0425985H25.5515C21.9689 0.0425985 18.7748 2.9393 18.4726 6.47497L17.9978 12.4814H4.87598L4.66016 15.2077H76.1396L75.6648 20.7881H71.9959C70.5715 20.7881 69.406 19.9361 68.9744 18.6581L68.4133 16.8264H65.435L66.3414 19.6379C67.0752 21.9808 69.2334 23.5144 71.7801 23.5144H78.2115L78.9021 15.1651H93.4915C96.9015 15.1651 99.9229 12.3962 100.225 9.03088L100.311 7.79553C100.7 3.53568 97.3763 0 93.0167 0ZM49.7233 12.4814L53.3491 5.06922C54.0397 3.66347 55.4641 2.7263 57.018 2.7263H58.3561C59.91 2.7263 61.2049 3.66347 61.6365 5.06922L63.9674 12.4388H49.7233V12.4814ZM97.5489 7.88072L97.4626 9.11608C97.2899 10.9904 95.6497 12.524 93.7505 12.524H79.1611L79.938 2.8115H92.8009C95.6497 2.7263 97.7647 5.02662 97.5489 7.88072Z" fill="#2B7DD4"/>
<path fill-rule="evenodd" clip-rule="evenodd" d="M36.3023 39.9148H33.3672L35.2664 35.9531L37.7267 36.9755L36.3023 39.9148Z" fill="#F9DD39"/>
<path fill-rule="evenodd" clip-rule="evenodd" d="M3.19413 15.2078H0L0.21582 12.4814H3.40995L3.19413 15.2078Z" fill="#F9DD39"/>
<path fill-rule="evenodd" clip-rule="evenodd" d="M133.073 2.7263H129.879L130.138 0H133.332L133.073 2.7263Z" fill="#F9DD39"/>
<path fill-rule="evenodd" clip-rule="evenodd" d="M93.0164 35.8251C91.2035 35.8251 91.074 35.8677 90.9445 37.4439V37.5717C90.7718 39.1478 90.8582 39.1904 92.6711 39.1904H92.8437C93.0164 39.1904 93.0595 39.2756 93.0595 39.4034L93.0164 39.8294H92.4984C90.297 39.8294 89.9949 39.5312 90.2107 37.5291V37.4013C90.4265 35.3991 90.815 35.1436 93.0164 35.1436H93.5343L93.4912 35.5695C93.4912 35.7399 93.4049 35.7825 93.2322 35.7825H93.0164V35.8251Z" fill="#808183"/>
<path fill-rule="evenodd" clip-rule="evenodd" d="M94.9607 27.6042C94.9607 27.4338 95.047 27.3912 95.2197 27.3912H95.7377L95.2197 32.0771H94.4428C94.2269 32.0771 94.1406 32.0345 94.0974 31.9067L92.7162 28.3284L92.3277 31.8215C92.3277 31.9919 92.2414 32.0345 92.0687 32.0345H91.5508L92.0687 27.3486H92.8457C93.0615 27.3486 93.1047 27.3912 93.1478 27.519L94.5291 31.0547L94.9607 27.6042Z" fill="#808183"/>
</g>
<defs>
<clipPath id="clip0">
<rect width="133.333" height="40" fill="white"/>
</clipPath>
</defs>
</svg>
