<svg width="199" height="50" viewBox="0 0 199 50" fill="none" xmlns="http://www.w3.org/2000/svg">
<path d="M59.9035 16.1459V15.9736H62.1392V16.1459H61.901C61.6521 16.1459 61.4606 16.2502 61.3287 16.4586C61.2628 16.5544 61.2309 16.7777 61.2309 17.1287V19.6899C61.2309 20.3238 61.1671 20.8152 61.0416 21.164C60.9161 21.5129 60.6693 21.8128 60.3013 22.0617C59.9333 22.3127 59.4334 22.4361 58.7995 22.4361C58.1103 22.4361 57.587 22.317 57.2296 22.0766C56.8722 21.8383 56.6191 21.5171 56.4702 21.113C56.3702 20.8364 56.3213 20.3174 56.3213 19.558V17.0904C56.3213 16.7033 56.2681 16.448 56.1596 16.3267C56.0533 16.2055 55.8788 16.1459 55.6406 16.1459H55.4023V15.9736H58.1315V16.1459H57.889C57.6274 16.1459 57.4423 16.2289 57.3296 16.3927C57.253 16.5054 57.2126 16.7373 57.2126 17.0904V19.843C57.2126 20.0877 57.236 20.3684 57.2807 20.6854C57.3253 21.0024 57.4083 21.2491 57.5253 21.4257C57.6423 21.6022 57.8125 21.749 58.0358 21.8639C58.2571 21.9787 58.5293 22.0362 58.8527 22.0362C59.2654 22.0362 59.6355 21.9468 59.9609 21.766C60.2864 21.5852 60.5098 21.3555 60.6289 21.0747C60.748 20.7939 60.8076 20.3174 60.8076 19.6473V17.0904C60.8076 16.6969 60.7629 16.4501 60.6778 16.3501C60.5566 16.214 60.3779 16.1459 60.1375 16.1459H59.9035Z" fill="#231F20"/>
<path d="M62.5898 15.9728H64.3044L68.1653 20.7101V17.0662C68.1653 16.6791 68.1206 16.4366 68.0355 16.3387C67.9206 16.2089 67.7398 16.143 67.4909 16.143H67.2718V15.9707H69.4692V16.143H69.2459C68.9778 16.143 68.7885 16.2238 68.6779 16.3855C68.6098 16.4855 68.5758 16.711 68.5758 17.0662V22.3885H68.4078L64.2448 17.3023V21.1909C64.2448 21.578 64.2874 21.8205 64.3703 21.9184C64.4873 22.0481 64.6703 22.1141 64.9149 22.1141H65.1382V22.2864H62.9408V22.1141H63.1599C63.4301 22.1141 63.6215 22.0332 63.7322 21.8716C63.8002 21.7716 63.8343 21.5461 63.8343 21.1909V16.8024C63.6513 16.5876 63.5131 16.4472 63.4173 16.3791C63.3216 16.3111 63.1833 16.2472 63.0004 16.1877C62.9111 16.16 62.7728 16.1451 62.5898 16.1451V15.9728Z" fill="#231F20"/>
<path d="M72.7683 22.117V22.2893H70.0625V22.117H70.2859C70.5475 22.117 70.7368 22.0404 70.8538 21.8894C70.9283 21.7894 70.9666 21.5512 70.9666 21.1725V17.0904C70.9666 16.7713 70.9453 16.5586 70.907 16.4565C70.8751 16.3799 70.8113 16.3119 70.7156 16.2566C70.5794 16.1821 70.4369 16.1459 70.288 16.1459H70.0646V15.9736H72.7704V16.1459H72.5428C72.2854 16.1459 72.0982 16.2225 71.9791 16.3735C71.9025 16.4735 71.8621 16.7118 71.8621 17.0904V21.1704C71.8621 21.4895 71.8834 21.7001 71.9238 21.8043C71.9536 21.883 72.0195 21.949 72.1195 22.0043C72.2535 22.0787 72.3939 22.1149 72.5428 22.1149H72.7683V22.117Z" fill="#231F20"/>
<path d="M80.0104 15.9728V16.1451C79.787 16.1856 79.6168 16.2557 79.502 16.36C79.3382 16.5131 79.1914 16.745 79.0638 17.0577L76.86 22.431H76.6877L74.3222 16.9875C74.201 16.7088 74.1159 16.5365 74.067 16.4749C73.9904 16.3791 73.8947 16.3025 73.7798 16.2494C73.667 16.1941 73.5139 16.16 73.3203 16.1451V15.9728H75.9006V16.1451C75.6092 16.1728 75.4199 16.2217 75.3326 16.294C75.2454 16.3664 75.2029 16.4578 75.2029 16.5684C75.2029 16.7237 75.2752 16.9662 75.4177 17.296L77.0238 20.9973L78.5149 17.3406C78.6617 16.9811 78.7341 16.7301 78.7341 16.5897C78.7341 16.5004 78.6894 16.4132 78.5979 16.3323C78.5086 16.2494 78.3554 16.1919 78.1406 16.1579C78.1257 16.1558 78.098 16.1494 78.0619 16.143V15.9707H80.0104V15.9728Z" fill="#231F20"/>
<path d="M82.3777 16.3182V18.8156H83.7647C84.1242 18.8156 84.3646 18.7603 84.4858 18.6518C84.6475 18.5093 84.7368 18.2583 84.756 17.8966H84.9283V20.094H84.756C84.7113 19.7877 84.6687 19.5899 84.6262 19.5027C84.5709 19.3942 84.4794 19.3091 84.3518 19.2474C84.2242 19.1857 84.0285 19.1538 83.7647 19.1538H82.3777V21.2363C82.3777 21.515 82.3905 21.6852 82.4139 21.7469C82.4394 21.8064 82.482 21.8554 82.5437 21.8915C82.6054 21.9277 82.7245 21.9447 82.8968 21.9447H83.9689C84.3263 21.9447 84.5858 21.9192 84.7475 21.8703C84.9091 21.8213 85.0644 21.7235 85.2133 21.5767C85.4069 21.3852 85.6026 21.0938 85.8047 20.7067H85.9919L85.4473 22.2893H80.5802V22.117H80.8036C80.9525 22.117 81.0929 22.0808 81.2269 22.0106C81.3269 21.9617 81.3928 21.8873 81.429 21.7873C81.4652 21.6873 81.4822 21.4852 81.4822 21.1768V17.0734C81.4822 16.6735 81.4418 16.4267 81.3609 16.3331C81.2482 16.2098 81.0631 16.1459 80.8015 16.1459H80.5781V15.9736H85.4452L85.5154 17.3563H85.3346C85.2686 17.0245 85.1963 16.7969 85.1176 16.6714C85.0389 16.548 84.9219 16.4523 84.7666 16.3884C84.6432 16.3416 84.4241 16.3182 84.1093 16.3182H82.3777Z" fill="#231F20"/>
<path d="M92.6527 22.2893H90.968L88.8301 19.3367C88.6727 19.3431 88.543 19.3453 88.443 19.3453C88.4026 19.3453 88.3579 19.3453 88.3132 19.3431C88.2664 19.341 88.2175 19.3389 88.1686 19.3367V21.1725C88.1686 21.5703 88.2111 21.8171 88.2983 21.9128C88.4153 22.0489 88.594 22.117 88.8301 22.117H89.0769V22.2893H86.3711V22.117H86.6093C86.8774 22.117 87.0667 22.0298 87.1816 21.8554C87.2475 21.7596 87.2794 21.5299 87.2794 21.1704V17.0904C87.2794 16.6926 87.2369 16.4459 87.1497 16.3501C87.0284 16.214 86.8476 16.1459 86.6093 16.1459H86.3711V15.9736H88.6727C89.3428 15.9736 89.8384 16.0226 90.1554 16.1204C90.4745 16.2183 90.7446 16.3991 90.9659 16.6607C91.1871 16.9224 91.2998 17.2351 91.2998 17.5988C91.2998 17.986 91.1743 18.3242 90.9212 18.6092C90.6681 18.8943 90.2766 19.0964 89.7448 19.2155L91.0488 21.0279C91.3466 21.4448 91.6019 21.7192 91.8167 21.8575C92.0316 21.9936 92.3103 22.0808 92.6549 22.1191V22.2893H92.6527ZM88.1686 19.0432C88.2281 19.0432 88.2792 19.0432 88.3217 19.0453C88.3664 19.0474 88.4005 19.0474 88.4281 19.0474C89.0301 19.0474 89.4853 18.9177 89.7895 18.656C90.0958 18.3944 90.249 18.0626 90.249 17.6584C90.249 17.2648 90.1256 16.9436 89.8789 16.6969C89.6321 16.4501 89.3045 16.3267 88.8982 16.3267C88.7174 16.3267 88.4749 16.3565 88.1665 16.4161V19.0432H88.1686Z" fill="#231F20"/>
<path d="M96.9416 15.8281V18.0128H96.7693C96.714 17.5937 96.614 17.2597 96.4694 17.0109C96.3247 16.762 96.1184 16.5663 95.8525 16.4195C95.5845 16.2727 95.3101 16.2004 95.0229 16.2004C94.6996 16.2004 94.4337 16.2982 94.2231 16.4961C94.0125 16.6939 93.9061 16.9173 93.9061 17.1683C93.9061 17.3597 93.9721 17.5363 94.1061 17.6937C94.2975 17.9277 94.757 18.2361 95.4802 18.6254C96.0695 18.9424 96.4737 19.1849 96.6885 19.355C96.9033 19.5252 97.0714 19.723 97.1863 19.9528C97.3033 20.1825 97.3607 20.4229 97.3607 20.6739C97.3607 21.1525 97.1756 21.5652 96.8034 21.9098C96.4332 22.2565 95.9546 22.4288 95.3718 22.4288C95.1888 22.4288 95.0165 22.414 94.8548 22.3863C94.7591 22.3714 94.5592 22.314 94.2571 22.2161C93.955 22.1183 93.7636 22.0693 93.6828 22.0693C93.6062 22.0693 93.5445 22.0927 93.4998 22.1395C93.4551 22.1863 93.4211 22.2821 93.3998 22.4288H93.2275V20.2655H93.3998C93.4807 20.7186 93.5892 21.0589 93.7253 21.2823C93.8614 21.5078 94.0699 21.695 94.3507 21.8439C94.6315 21.9928 94.9399 22.0672 95.276 22.0672C95.6632 22.0672 95.9716 21.9651 96.195 21.7609C96.4205 21.5567 96.5332 21.3142 96.5332 21.0334C96.5332 20.8781 96.4907 20.7207 96.4056 20.5633C96.3205 20.4059 96.1865 20.257 96.0078 20.1208C95.8865 20.0272 95.5568 19.8294 95.0165 19.5273C94.4762 19.2253 94.0912 18.9828 93.8636 18.8041C93.636 18.6233 93.4615 18.4254 93.3445 18.2085C93.2275 17.9915 93.168 17.7511 93.168 17.4916C93.168 17.0385 93.3424 16.6471 93.6891 16.3195C94.038 15.9919 94.4783 15.8281 95.0165 15.8281C95.3526 15.8281 95.7079 15.9111 96.0822 16.0749C96.2567 16.1515 96.3779 16.1919 96.4503 16.1919C96.5311 16.1919 96.597 16.1685 96.6481 16.1196C96.6991 16.0706 96.7395 15.9749 96.7715 15.8281H96.9416Z" fill="#231F20"/>
<path d="M100.817 22.117V22.2893H98.1115V22.117H98.3349C98.5965 22.117 98.7858 22.0404 98.9028 21.8894C98.9773 21.7894 99.0134 21.5512 99.0134 21.1725V17.0904C99.0134 16.7713 98.9943 16.5586 98.9539 16.4565C98.922 16.3799 98.8582 16.3119 98.7624 16.2566C98.6263 16.1821 98.4838 16.1459 98.3327 16.1459H98.1094V15.9736H100.815V16.1459H100.588C100.33 16.1459 100.141 16.2225 100.024 16.3735C99.9473 16.4735 99.9069 16.7118 99.9069 17.0904V21.1704C99.9069 21.4895 99.9281 21.7001 99.9686 21.8043C100 21.883 100.064 21.949 100.164 22.0043C100.298 22.0787 100.439 22.1149 100.588 22.1149H100.817V22.117Z" fill="#231F20"/>
<path d="M106.571 15.9736L106.641 17.4542H106.464C106.43 17.1925 106.383 17.0075 106.324 16.8947C106.228 16.7139 106.098 16.582 105.939 16.4969C105.779 16.4118 105.569 16.3693 105.307 16.3693H104.418V21.1938C104.418 21.581 104.46 21.8235 104.543 21.9213C104.66 22.0511 104.843 22.117 105.088 22.117H105.307V22.2893H102.629V22.117H102.852C103.12 22.117 103.31 22.0362 103.42 21.8745C103.488 21.7745 103.522 21.549 103.522 21.1938V16.3693H102.763C102.467 16.3693 102.259 16.3906 102.135 16.4352C101.974 16.4948 101.835 16.6075 101.721 16.7756C101.606 16.9436 101.538 17.1691 101.516 17.4563H101.34L101.414 15.9758H106.571V15.9736Z" fill="#231F20"/>
<path d="M111.423 15.9728H113.625V16.1451H113.504C113.423 16.1451 113.306 16.1813 113.151 16.2515C112.995 16.3238 112.855 16.4259 112.727 16.5599C112.6 16.694 112.445 16.9109 112.257 17.213L110.734 19.6125V21.1951C110.734 21.5823 110.777 21.8248 110.864 21.9226C110.981 22.0524 111.168 22.1183 111.423 22.1183H111.628V22.2906H108.945V22.1183H109.169C109.437 22.1183 109.626 22.0375 109.737 21.8758C109.805 21.7758 109.839 21.5504 109.839 21.1951V19.6976L108.107 17.0513C107.903 16.7408 107.763 16.5472 107.69 16.4685C107.618 16.3919 107.465 16.2983 107.235 16.1898C107.173 16.1579 107.084 16.143 106.965 16.143V15.9707H109.666V16.143H109.526C109.379 16.143 109.245 16.177 109.124 16.2451C109.001 16.3132 108.941 16.4153 108.941 16.5536C108.941 16.6642 109.035 16.8663 109.224 17.1598L110.543 19.1955L111.781 17.2492C111.968 16.9577 112.06 16.7408 112.06 16.5961C112.06 16.5089 112.038 16.4323 111.991 16.3621C111.947 16.294 111.883 16.2409 111.798 16.2026C111.715 16.1643 111.589 16.1451 111.421 16.1451V15.9728H111.423Z" fill="#231F20"/>
<path d="M119.287 15.8281C120.106 15.8281 120.817 16.1387 121.419 16.762C122.018 17.3852 122.321 18.1617 122.321 19.0934C122.321 20.0528 122.018 20.8483 121.412 21.4822C120.806 22.1161 120.074 22.4331 119.215 22.4331C118.345 22.4331 117.615 22.1247 117.024 21.5056C116.432 20.8887 116.137 20.0889 116.137 19.1061C116.137 18.1042 116.477 17.2853 117.162 16.6514C117.751 16.1025 118.46 15.8281 119.287 15.8281ZM119.198 16.1685C118.632 16.1685 118.179 16.3791 117.838 16.7981C117.413 17.3193 117.2 18.083 117.2 19.0891C117.2 20.1208 117.422 20.9121 117.862 21.4695C118.2 21.8928 118.647 22.1034 119.202 22.1034C119.796 22.1034 120.285 21.8715 120.672 21.4099C121.059 20.9483 121.253 20.2187 121.253 19.221C121.253 18.1404 121.04 17.3342 120.614 16.8045C120.272 16.3791 119.8 16.1685 119.198 16.1685Z" fill="#231F20"/>
<path d="M124.636 16.3174V18.7999H125.786C126.05 18.7999 126.244 18.7425 126.367 18.6255C126.49 18.5085 126.571 18.2787 126.612 17.9341H126.782V20.072H126.61C126.607 19.8273 126.576 19.6465 126.514 19.5316C126.454 19.4168 126.369 19.3317 126.263 19.2743C126.157 19.2168 125.997 19.187 125.786 19.187H124.636V21.1717C124.636 21.4908 124.657 21.7035 124.695 21.8056C124.727 21.8822 124.791 21.9503 124.891 22.0056C125.027 22.08 125.169 22.1162 125.318 22.1162H125.546V22.2885H122.836V22.1162H123.059C123.321 22.1162 123.51 22.0396 123.627 21.8886C123.702 21.7886 123.74 21.5504 123.74 21.1717V17.0896C123.74 16.7705 123.719 16.5599 123.68 16.4557C123.649 16.377 123.585 16.3111 123.489 16.2557C123.355 16.1813 123.212 16.143 123.061 16.143H122.838V15.9707H127.537L127.599 17.3576H127.435C127.354 17.062 127.261 16.8471 127.154 16.7088C127.048 16.5706 126.916 16.4706 126.759 16.4089C126.601 16.3472 126.359 16.3153 126.029 16.3153H124.636V16.3174Z" fill="#231F20"/>
<path d="M136.118 15.8283L136.262 17.9747H136.118C135.926 17.3322 135.65 16.8685 135.292 16.5877C134.935 16.3048 134.507 16.1644 134.007 16.1644C133.588 16.1644 133.21 16.2708 132.871 16.4835C132.533 16.6962 132.267 17.0344 132.072 17.5003C131.878 17.9661 131.78 18.5447 131.78 19.2382C131.78 19.8104 131.872 20.3039 132.055 20.723C132.238 21.1421 132.514 21.4633 132.882 21.6866C133.25 21.91 133.669 22.0227 134.141 22.0227C134.552 22.0227 134.914 21.9355 135.226 21.759C135.539 21.5845 135.884 21.2357 136.26 20.7124L136.405 20.806C136.088 21.3675 135.718 21.7802 135.297 22.0397C134.875 22.2993 134.373 22.4311 133.793 22.4311C132.746 22.4311 131.936 22.044 131.361 21.2676C130.934 20.6911 130.719 20.0104 130.719 19.2276C130.719 18.5979 130.859 18.0193 131.142 17.4896C131.425 16.96 131.814 16.5537 132.308 16.2622C132.803 15.9729 133.344 15.8262 133.931 15.8262C134.388 15.8262 134.837 15.9389 135.282 16.1623C135.411 16.2303 135.505 16.2644 135.562 16.2644C135.645 16.2644 135.72 16.2346 135.781 16.175C135.862 16.0921 135.92 15.9751 135.954 15.8262H136.118V15.8283Z" fill="#231F20"/>
<path d="M138.727 16.3182V18.8156H140.114C140.474 18.8156 140.716 18.7603 140.835 18.6518C140.997 18.5093 141.086 18.2583 141.105 17.8966H141.278V20.094H141.105C141.061 19.7877 141.018 19.5899 140.976 19.5027C140.92 19.3942 140.829 19.3091 140.701 19.2474C140.574 19.1857 140.378 19.1538 140.114 19.1538H138.727V21.2363C138.727 21.515 138.74 21.6852 138.765 21.7469C138.791 21.8064 138.834 21.8554 138.895 21.8915C138.957 21.9277 139.076 21.9447 139.248 21.9447H140.32C140.678 21.9447 140.937 21.9192 141.099 21.8703C141.261 21.8213 141.416 21.7235 141.565 21.5767C141.758 21.3852 141.954 21.0938 142.156 20.7067H142.343L141.799 22.2893H136.932V22.117H137.155C137.304 22.117 137.444 22.0808 137.578 22.0106C137.678 21.9617 137.744 21.8873 137.781 21.7873C137.817 21.6873 137.834 21.4852 137.834 21.1768V17.0734C137.834 16.6735 137.793 16.4267 137.712 16.3331C137.6 16.2098 137.415 16.1459 137.153 16.1459H136.93V15.9736H141.797L141.867 17.3563H141.686C141.62 17.0245 141.548 16.7969 141.469 16.6714C141.39 16.548 141.273 16.4523 141.118 16.3884C140.995 16.3416 140.776 16.3182 140.461 16.3182H138.727Z" fill="#231F20"/>
<path d="M142.438 15.9728H144.152L148.013 20.7101V17.0662C148.013 16.6791 147.97 16.4366 147.883 16.3387C147.768 16.2089 147.587 16.143 147.339 16.143H147.119V15.9707H149.317V16.143H149.094C148.825 16.143 148.636 16.2238 148.526 16.3855C148.457 16.4855 148.423 16.711 148.423 17.0662V22.3885H148.255L144.092 17.3023V21.1909C144.092 21.578 144.135 21.8205 144.218 21.9184C144.335 22.0481 144.518 22.1141 144.763 22.1141H144.986V22.2864H142.788V22.1141H143.008C143.278 22.1141 143.469 22.0332 143.58 21.8716C143.648 21.7716 143.682 21.5461 143.682 21.1909V16.8024C143.499 16.5876 143.361 16.4472 143.265 16.3791C143.169 16.3111 143.031 16.2472 142.848 16.1877C142.759 16.16 142.62 16.1451 142.438 16.1451V15.9728Z" fill="#231F20"/>
<path d="M154.967 15.9736L155.038 17.4542H154.861C154.827 17.1925 154.78 17.0075 154.721 16.8947C154.625 16.7139 154.497 16.582 154.336 16.4969C154.176 16.4118 153.965 16.3693 153.704 16.3693H152.815V21.1938C152.815 21.581 152.857 21.8235 152.94 21.9213C153.057 22.0511 153.24 22.117 153.485 22.117H153.704V22.2893H151.026V22.117H151.249C151.517 22.117 151.706 22.0362 151.817 21.8745C151.885 21.7745 151.919 21.549 151.919 21.1938V16.3693H151.16C150.864 16.3693 150.655 16.3906 150.53 16.4352C150.368 16.4948 150.23 16.6075 150.115 16.7756C150 16.9436 149.932 17.1691 149.911 17.4563H149.734L149.809 15.9758H154.967V15.9736Z" fill="#231F20"/>
<path d="M161.719 22.2893H160.032L157.897 19.3367C157.739 19.3431 157.609 19.3453 157.509 19.3453C157.469 19.3453 157.426 19.3453 157.38 19.3431C157.333 19.341 157.284 19.3389 157.235 19.3367V21.1725C157.235 21.5703 157.278 21.8171 157.365 21.9128C157.482 22.0489 157.66 22.117 157.897 22.117H158.143V22.2893H155.438V22.117H155.676C155.944 22.117 156.133 22.0298 156.248 21.8554C156.314 21.7596 156.346 21.5299 156.346 21.1704V17.0904C156.346 16.6926 156.303 16.4459 156.216 16.3501C156.095 16.214 155.914 16.1459 155.676 16.1459H155.438V15.9736H157.739C158.409 15.9736 158.905 16.0226 159.222 16.1204C159.541 16.2183 159.811 16.3991 160.032 16.6607C160.253 16.9224 160.366 17.2351 160.366 17.5988C160.366 17.986 160.241 18.3242 159.988 18.6092C159.734 18.8943 159.343 19.0964 158.811 19.2155L160.115 21.0279C160.413 21.4448 160.67 21.7192 160.883 21.8575C161.098 21.9936 161.377 22.0808 161.721 22.1191V22.2893H161.719ZM157.235 19.0432C157.295 19.0432 157.346 19.0432 157.388 19.0453C157.431 19.0474 157.467 19.0474 157.495 19.0474C158.097 19.0474 158.55 18.9177 158.856 18.656C159.162 18.3944 159.315 18.0626 159.315 17.6584C159.315 17.2648 159.192 16.9436 158.945 16.6969C158.699 16.4501 158.371 16.3267 157.965 16.3267C157.784 16.3267 157.541 16.3565 157.233 16.4161V19.0432H157.235Z" fill="#231F20"/>
<path d="M166.476 20.174H164.032L163.602 21.1695C163.496 21.4142 163.445 21.5971 163.445 21.7184C163.445 21.8141 163.489 21.8992 163.583 21.9715C163.674 22.0438 163.872 22.0927 164.176 22.114V22.2863H162.188V22.114C162.451 22.0672 162.621 22.0077 162.7 21.9332C162.858 21.7843 163.034 21.4822 163.226 21.0249L165.446 15.8281H165.61L167.808 21.0823C167.984 21.5056 168.146 21.7779 168.29 21.9034C168.435 22.0289 168.635 22.0991 168.892 22.1161V22.2885H166.401V22.1161C166.653 22.1034 166.823 22.0608 166.912 21.9906C167.001 21.9204 167.044 21.8332 167.044 21.729C167.044 21.5929 166.982 21.3759 166.857 21.0823L166.476 20.174ZM166.346 19.8294L165.274 17.2768L164.174 19.8294H166.346Z" fill="#231F20"/>
<path d="M174.469 20.5429L174.622 20.5748L174.082 22.2893H169.191V22.117H169.43C169.696 22.117 169.887 22.0298 170.002 21.8554C170.068 21.7554 170.1 21.5256 170.1 21.1661V17.0904C170.1 16.6969 170.055 16.4501 169.97 16.3501C169.849 16.214 169.668 16.1459 169.43 16.1459H169.191V15.9736H172.05V16.1459C171.714 16.1438 171.48 16.1736 171.344 16.2395C171.21 16.3055 171.117 16.3863 171.068 16.4863C171.019 16.5863 170.993 16.8224 170.993 17.1989V21.1661C170.993 21.4235 171.019 21.6001 171.068 21.6979C171.104 21.7639 171.163 21.8107 171.24 21.8426C171.316 21.8745 171.559 21.8894 171.967 21.8894H172.429C172.914 21.8894 173.254 21.8532 173.448 21.783C173.644 21.7107 173.822 21.5852 173.984 21.4023C174.146 21.2193 174.307 20.9343 174.469 20.5429Z" fill="#231F20"/>
<path d="M180.699 20.174H178.254L177.825 21.1695C177.718 21.4142 177.667 21.5971 177.667 21.7184C177.667 21.8141 177.712 21.8992 177.806 21.9715C177.897 22.0438 178.095 22.0927 178.399 22.114V22.2863H176.41V22.114C176.674 22.0672 176.844 22.0077 176.923 21.9332C177.08 21.7843 177.257 21.4822 177.448 21.0249L179.669 15.8281H179.833L182.03 21.0823C182.207 21.5056 182.368 21.7779 182.513 21.9034C182.658 22.0289 182.858 22.0991 183.115 22.1161V22.2885H180.624V22.1161C180.875 22.1034 181.045 22.0608 181.135 21.9906C181.224 21.9204 181.267 21.8332 181.267 21.729C181.267 21.5929 181.205 21.3759 181.079 21.0823L180.699 20.174ZM180.567 19.8294L179.495 17.2768L178.395 19.8294H180.567Z" fill="#231F20"/>
<path d="M187.592 15.8281V18.0128H187.42C187.365 17.5937 187.265 17.2597 187.12 17.0109C186.975 16.762 186.771 16.5663 186.503 16.4195C186.235 16.2727 185.961 16.2004 185.673 16.2004C185.35 16.2004 185.084 16.2982 184.872 16.4961C184.661 16.6939 184.555 16.9173 184.555 17.1683C184.555 17.3597 184.62 17.5363 184.754 17.6937C184.946 17.9277 185.405 18.2361 186.129 18.6254C186.718 18.9424 187.122 19.1849 187.337 19.355C187.552 19.5252 187.72 19.723 187.835 19.9528C187.952 20.1825 188.009 20.4229 188.009 20.6739C188.009 21.1525 187.824 21.5652 187.452 21.9098C187.082 22.2565 186.603 22.4288 186.02 22.4288C185.837 22.4288 185.665 22.414 185.503 22.3863C185.408 22.3714 185.208 22.314 184.906 22.2161C184.603 22.1183 184.412 22.0693 184.331 22.0693C184.255 22.0693 184.193 22.0927 184.148 22.1395C184.104 22.1863 184.07 22.2821 184.048 22.4288H183.876V20.2655H184.048C184.129 20.7186 184.238 21.0589 184.374 21.2823C184.51 21.5078 184.718 21.695 184.999 21.8439C185.28 21.9928 185.588 22.0672 185.924 22.0672C186.312 22.0672 186.62 21.9651 186.843 21.7609C187.069 21.5567 187.182 21.3142 187.182 21.0334C187.182 20.8781 187.139 20.7207 187.054 20.5633C186.969 20.4059 186.835 20.257 186.656 20.1208C186.535 20.0272 186.205 19.8294 185.665 19.5273C185.125 19.2253 184.74 18.9828 184.512 18.8041C184.284 18.6233 184.11 18.4254 183.993 18.2085C183.874 17.9915 183.816 17.7511 183.816 17.4916C183.816 17.0385 183.991 16.6471 184.338 16.3195C184.684 15.9919 185.127 15.8281 185.665 15.8281C186.001 15.8281 186.356 15.9111 186.731 16.0749C186.905 16.1515 187.026 16.1919 187.099 16.1919C187.18 16.1919 187.245 16.1685 187.297 16.1196C187.348 16.0706 187.388 15.9749 187.42 15.8281H187.592Z" fill="#231F20"/>
<path d="M191.466 22.117V22.2893H188.76V22.117H188.983C189.245 22.117 189.434 22.0404 189.551 21.8894C189.626 21.7894 189.664 21.5512 189.664 21.1725V17.0904C189.664 16.7713 189.643 16.5586 189.602 16.4565C189.573 16.3799 189.509 16.3119 189.411 16.2566C189.275 16.1821 189.132 16.1459 188.981 16.1459H188.758V15.9736H191.464V16.1459H191.236C190.979 16.1459 190.791 16.2225 190.672 16.3735C190.596 16.4735 190.555 16.7118 190.555 17.0904V21.1704C190.555 21.4895 190.574 21.7001 190.615 21.8043C190.647 21.883 190.711 21.949 190.811 22.0043C190.945 22.0787 191.085 22.1149 191.234 22.1149H191.466V22.117Z" fill="#231F20"/>
<path d="M196.16 20.174H193.715L193.286 21.1695C193.179 21.4142 193.128 21.5971 193.128 21.7184C193.128 21.8141 193.173 21.8992 193.267 21.9715C193.358 22.0438 193.556 22.0927 193.86 22.114V22.2863H191.871V22.114C192.135 22.0672 192.305 22.0077 192.384 21.9332C192.541 21.7843 192.718 21.4822 192.909 21.0249L195.13 15.8281H195.294L197.491 21.0823C197.668 21.5056 197.829 21.7779 197.974 21.9034C198.119 22.0289 198.319 22.0991 198.576 22.1161V22.2885H196.085V22.1161C196.336 22.1034 196.506 22.0608 196.596 21.9906C196.685 21.9204 196.728 21.8332 196.728 21.729C196.728 21.5929 196.666 21.3759 196.54 21.0823L196.16 20.174ZM196.03 19.8294L194.958 17.2768L193.858 19.8294H196.03Z" fill="#231F20"/>
<path d="M55.3555 25.5205H198.574" stroke="#231F20" stroke-miterlimit="10"/>
<path d="M49.5455 24.6035V25.0013H49.3711V25.5735L49.9433 25.0013L49.5455 24.6035Z" fill="#4197CB"/>
<path d="M45.6692 25.0009V20.6785L44.8758 19.9297V25.0009H44.6992V30.2913L45.8437 29.1001V25.0009H45.6692Z" fill="#4197CB"/>
<path d="M47.2101 25.0007V22.2673L46.4166 21.4717V25.0007H46.2422V28.7042L47.4313 27.5576V25.0007H47.2101Z" fill="#4197CB"/>
<path d="M48.7977 25.0015V23.8103L48.0064 23.0615V25.0015H47.7852V27.1607L48.9743 25.9715V25.0015H48.7977Z" fill="#4197CB"/>
<path d="M44.0842 25.0011V19.1364L43.3355 18.3429V25.0011H43.1164V31.2614H42.7186V25.0011H42.5441V17.592L41.7507 16.7986V25.0011H41.5741V31.2614H41.1785V25.0011H40.9572V16.0051L40.2085 15.2117V25.0011H39.9894V31.2614H39.5937V25.0011H39.4171V14.4629L38.6237 13.6694V25.0011H38.4471V31.2614H38.0515V25.0011H37.8749V12.8739L37.4793 12.4782L37.258 12.3016V12.6994L37.0815 12.8739V24.6309L36.8624 24.4267V31.2614H36.5093V24.0311L36.2901 23.8098V13.6694L36.1136 13.846V11.1104L35.7158 10.7594V14.2416L35.4967 14.4629V23.0164L35.3201 22.8398V31.2614H34.9245V22.442L34.7479 22.274V15.2117L34.5288 15.4329V9.56818L34.131 9.17039V15.8285L33.9545 16.0051V21.5082L33.7354 21.2976V31.2614H33.3823V20.8998L33.1632 20.6786V16.7986L32.9866 16.9751V8.02382L32.5909 7.62816V17.3729L32.3697 17.592V19.8851L32.1931 19.7086V31.2614H31.7975V19.3555L31.6209 19.1725V18.3429L31.4018 18.562V6.43693L31.004 6.04127V18.5322L30.6531 18.1663V30.6871L30.2553 30.2893V17.7686L29.8596 17.3729V4.8947L29.4639 4.49692V16.9751L29.0662 16.5795V29.0959L28.6705 28.6981V16.2263L28.2748 15.8137V3.30781L27.9217 2.91002V15.4478L27.5261 15.0351V27.5495L27.1283 27.1517V14.6394L26.7326 14.2565V1.76345L26.3369 1.36779V13.8736L25.9392 13.4929V25.9583L25.5435 25.5605V13.0951L25.1861 12.7101L25.1904 12.6994V0.176558L24.9713 0L24.7947 0.176558V12.6675L24.3991 13.0951V24.4118L24.0034 24.014V13.4929L23.6056 13.8736V1.36779L23.21 1.76345V14.2565L22.8122 14.6394V22.8207L22.4612 22.4676V15.0351L22.0634 15.4329V2.91002L21.6677 3.30781V15.8285L21.2721 16.2263V21.2742L20.8764 20.8743V16.5795L20.4786 16.99V4.49692L20.083 4.8947V17.4027L19.7298 17.7686V19.7256L19.3342 19.3278V18.1663L18.9385 18.5344V6.04127L18.5407 6.43693V18.5322L17.3516 17.3389V7.62816L17.0006 8.02382V16.9857L15.8115 15.7924V9.17039L15.4137 9.56818V15.3946L14.2693 14.2459V10.7594L13.8736 11.1104V13.8481L12.6845 12.6548V12.3016L12.508 12.4782L0 25.0011L24.9713 50L44.3055 30.6445V25.0011H44.0842Z" fill="#4197CB"/>
<path d="M9.18783 24.9863V25.2203L8.7241 25.265L8.58583 25.3118L8.49223 25.3586L8.40076 25.4522L8.35396 25.6373L8.30717 26.0542V29.1174L8.35396 29.7215L8.40076 29.9534L8.49223 30.1852L8.63263 30.5107L8.7709 30.6022L8.90917 30.6958L9.23463 30.8361L9.60476 30.8829L10.1153 30.8361L10.3004 30.7894L10.4854 30.6958L10.6726 30.5575L10.8109 30.4639L10.9492 30.2788L11.0428 30.0938L11.1342 29.8619L11.181 29.5832L11.2278 29.2578V28.8855V26.101L11.181 25.6841L11.1342 25.5437L11.0428 25.4522L10.9492 25.3586L10.8109 25.265L10.3472 25.2203V24.9863H12.3404V25.2203L12.017 25.3118L11.7852 25.4054L11.7384 25.4969L11.6916 25.6373L11.6448 25.9606V28.8855L11.598 29.4428L11.5065 29.9066L11.3214 30.3256L11.0896 30.6958L10.9492 30.8361L10.7641 30.9744L10.3472 31.1616L9.88343 31.2999L9.32823 31.3467L8.95596 31.2999L8.58583 31.2531L8.26037 31.2063L7.98383 31.068L7.74984 30.9744L7.5201 30.7894L7.33291 30.6022L7.14784 30.3724L7.00957 30.1384L6.91597 29.8151L6.86917 29.4896V29.1174V26.0542L6.8245 25.6373L6.7777 25.4969L6.73091 25.4054L6.63944 25.3118L6.49904 25.265L6.12891 25.2203V24.9863H9.18783Z" fill="white"/>
<path d="M17.3587 25.0796L18.0075 25.3115L18.1926 25.2647L18.2862 25.1732L18.3777 25.0328L18.4245 24.8945H18.7031V27.0281H18.4713L18.099 26.3793L17.7757 25.9156L17.4502 25.5901L17.0801 25.3583L16.7099 25.2179L16.3377 25.1732L15.9207 25.2179L15.7357 25.2647L15.5506 25.3583L15.4102 25.4987L15.2719 25.6369L15.0401 25.9624L14.855 26.3793L14.7614 26.8899L14.6699 27.4472V28.0981V28.5618L14.7146 28.9788L14.7614 29.3489L14.9018 29.7212L14.9933 29.9998L15.1337 30.2317L15.3187 30.4168L15.5038 30.604L15.6889 30.6954L15.9207 30.789L16.1526 30.8826H16.4313H16.8014L17.1269 30.789L17.4502 30.6486L17.7289 30.5104L18.1458 30.1849L18.5627 29.768L18.8414 29.9998L18.3309 30.5104L17.9139 30.8358L17.5438 31.0677L17.1269 31.206L16.7099 31.2996L16.2909 31.3464L15.6421 31.2528L15.0401 31.1145L14.7614 31.0209L14.5295 30.8826L14.2509 30.6954L14.0211 30.5104L13.7893 30.2785L13.6021 30.0466L13.417 29.768L13.2787 29.4893L13.1851 29.1638L13.0937 28.8384L13.0469 28.515V28.1428V27.7726L13.0937 27.4472L13.1851 27.1217L13.2787 26.7963L13.417 26.5176L13.5574 26.2389L13.7893 25.9624L13.9743 25.7284L14.2509 25.5433L14.4827 25.3583L14.7146 25.2179L14.9933 25.0796L15.2719 24.986L15.5974 24.9413L15.8739 24.8945H16.1994L16.8014 24.9413L17.3587 25.0796Z" fill="white"/>
<path d="M22.7242 29.0257L21.8435 26.8899H21.7499L20.916 29.0257H22.7242ZM19.293 30.9274L19.4312 30.8806L19.5695 30.8338L19.7078 30.7402L19.7992 30.6019L19.9843 30.3233L20.1694 29.8595L22.2094 24.8457H22.4412L24.4812 29.6723L24.8067 30.3233L24.9918 30.6934L25.0832 30.787L25.2215 30.8806L25.3151 30.9274H25.5002V31.1593H22.5327V30.9274L22.9028 30.8806L23.1347 30.8338L23.1815 30.787L23.2283 30.7402L23.2751 30.5551L23.1815 30.2297L23.0432 29.9042L22.8114 29.3469H20.8182L20.5395 30.0893L20.4459 30.3679L20.3991 30.5998L20.4459 30.6913L20.4927 30.7381L20.5863 30.8317L20.6799 30.8785H20.865L21.1436 30.9253V31.1571H19.293V30.9274Z" fill="white"/>
<path d="M58.6697 29.0257V30.6828H58.5399C58.4974 30.3659 58.4208 30.1127 58.3123 29.9234C58.2038 29.7341 58.0464 29.5852 57.8443 29.4746C57.6422 29.364 57.4317 29.3087 57.2168 29.3087C56.9722 29.3087 56.7701 29.3831 56.6105 29.532C56.451 29.6809 56.3702 29.8511 56.3702 30.0425C56.3702 30.1893 56.4212 30.3212 56.5212 30.4425C56.668 30.619 57.0147 30.8551 57.5635 31.1487C58.0103 31.3891 58.3166 31.5741 58.4804 31.7018C58.6442 31.8294 58.7697 31.9804 58.859 32.1549C58.9462 32.3293 58.9909 32.5122 58.9909 32.7016C58.9909 33.0632 58.8505 33.3759 58.5697 33.6397C58.2889 33.9013 57.9273 34.0332 57.4848 34.0332C57.3466 34.0332 57.2147 34.0225 57.0934 34.0013C57.0211 33.9885 56.8701 33.946 56.6403 33.8715C56.4106 33.7971 56.2659 33.7609 56.2043 33.7609C56.1447 33.7609 56.0979 33.7779 56.0639 33.8141C56.0298 33.8502 56.0043 33.9226 55.9873 34.0332H55.8575V32.391H55.9873C56.049 32.7356 56.1298 32.993 56.234 33.1632C56.3383 33.3333 56.4957 33.4759 56.7084 33.5886C56.9211 33.7013 57.1551 33.7588 57.4083 33.7588C57.7018 33.7588 57.9358 33.6801 58.106 33.5248C58.2762 33.3695 58.3612 33.1866 58.3612 32.9738C58.3612 32.8568 58.3293 32.7377 58.2634 32.6165C58.1974 32.4952 58.0975 32.3846 57.9613 32.2804C57.8699 32.2102 57.6188 32.0591 57.2104 31.8294C56.802 31.5997 56.5106 31.4167 56.3361 31.2806C56.1638 31.1444 56.032 30.9934 55.9426 30.8275C55.8533 30.6637 55.8086 30.4808 55.8086 30.2829C55.8086 29.9383 55.9405 29.6426 56.2043 29.3937C56.468 29.1449 56.8041 29.0215 57.2104 29.0215C57.4636 29.0215 57.7337 29.0832 58.0188 29.2087C58.1506 29.2682 58.2442 29.298 58.2974 29.298C58.3591 29.298 58.408 29.2789 58.4485 29.2427C58.4867 29.2066 58.5187 29.1321 58.5421 29.0215H58.6697V29.0257Z" fill="#231F20"/>
<path d="M62.3482 32.6954C62.261 33.1209 62.0908 33.4485 61.8355 33.6782C61.5824 33.9079 61.2995 34.0228 60.991 34.0228C60.623 34.0228 60.3039 33.8696 60.0316 33.5612C59.7594 33.2528 59.6211 32.8358 59.6211 32.3104C59.6211 31.802 59.7721 31.3893 60.0742 31.0702C60.3763 30.7533 60.74 30.5938 61.1633 30.5938C61.4803 30.5938 61.7419 30.6788 61.9461 30.8469C62.1503 31.0149 62.2524 31.1894 62.2524 31.3723C62.2524 31.4616 62.2227 31.534 62.1652 31.5893C62.1078 31.6446 62.027 31.6722 61.9227 31.6722C61.7845 31.6722 61.6781 31.6276 61.6079 31.5382C61.5675 31.4893 61.542 31.3957 61.5292 31.2553C61.5164 31.117 61.4675 31.0107 61.3867 30.9384C61.3037 30.8682 61.191 30.832 61.0442 30.832C60.8081 30.832 60.6188 30.9192 60.4762 31.0936C60.2848 31.3234 60.1912 31.6297 60.1912 32.0083C60.1912 32.3955 60.2869 32.7358 60.4762 33.0315C60.6655 33.3272 60.9208 33.474 61.2442 33.474C61.4739 33.474 61.6824 33.3953 61.8653 33.2379C61.9951 33.1294 62.1206 32.9337 62.2439 32.6486L62.3482 32.6954Z" fill="#231F20"/>
<path d="M63.7606 28.9023V31.2678C64.0222 30.9806 64.2286 30.7956 64.3817 30.7147C64.5349 30.6339 64.688 30.5935 64.8412 30.5935C65.0241 30.5935 65.1816 30.6445 65.3134 30.7445C65.4453 30.8466 65.5432 31.004 65.607 31.221C65.6517 31.372 65.6729 31.6464 65.6729 32.0464V33.1908C65.6729 33.395 65.69 33.5354 65.7219 33.612C65.7453 33.6694 65.7857 33.7141 65.841 33.746C65.8984 33.78 66.0005 33.7949 66.1516 33.7949V33.9226H64.5625V33.7949H64.637C64.788 33.7949 64.8923 33.7715 64.9518 33.7269C65.0114 33.6822 65.0518 33.6141 65.0752 33.5248C65.0816 33.4865 65.0858 33.3759 65.0858 33.1929V32.0485C65.0858 31.6954 65.0667 31.4635 65.0305 31.3529C64.9944 31.2423 64.9348 31.1593 64.8561 31.104C64.7753 31.0487 64.6795 31.021 64.5668 31.021C64.4519 31.021 64.3307 31.0508 64.2073 31.1125C64.0839 31.1742 63.9329 31.2976 63.7585 31.4826V33.1929C63.7585 33.4141 63.7712 33.5524 63.7946 33.6056C63.818 33.6588 63.8648 33.7056 63.9329 33.7417C64.001 33.7779 64.1158 33.797 64.2796 33.797V33.9247H62.6778V33.797C62.8204 33.797 62.9352 33.7736 63.0161 33.729C63.0629 33.7056 63.1011 33.6609 63.1288 33.595C63.1565 33.529 63.1713 33.395 63.1713 33.1929V30.2659C63.1713 29.8958 63.1628 29.6681 63.1458 29.5852C63.1288 29.5022 63.1011 29.4427 63.065 29.4129C63.0288 29.3831 62.9799 29.3661 62.9182 29.3661C62.8693 29.3661 62.7884 29.3852 62.6778 29.4235L62.6289 29.3001L63.5968 28.9045H63.7606V28.9023Z" fill="#231F20"/>
<path d="M68.007 30.5938C68.4963 30.5938 68.8898 30.7788 69.1855 31.1511C69.4365 31.468 69.5641 31.8339 69.5641 32.2466C69.5641 32.5359 69.494 32.8294 69.3557 33.1251C69.2174 33.4208 69.026 33.6463 68.7813 33.7952C68.5367 33.9441 68.2666 34.0207 67.9666 34.0207C67.4795 34.0207 67.0923 33.8271 66.8052 33.4378C66.5627 33.1102 66.4414 32.7444 66.4414 32.3359C66.4414 32.0402 66.5159 31.7446 66.6626 31.451C66.8094 31.1575 67.003 30.9405 67.2434 30.8022C67.4837 30.6639 67.739 30.5938 68.007 30.5938ZM67.8964 30.8235C67.7709 30.8235 67.6454 30.8596 67.5199 30.9341C67.3944 31.0086 67.2923 31.1383 67.2136 31.3234C67.1349 31.5084 67.0966 31.7488 67.0966 32.0402C67.0966 32.5104 67.1902 32.9167 67.3774 33.2591C67.5646 33.5995 67.8113 33.7718 68.1176 33.7718C68.3453 33.7718 68.5346 33.6782 68.6835 33.4889C68.8324 33.2996 68.9068 32.9762 68.9068 32.5167C68.9068 31.9424 68.7835 31.4893 68.5367 31.1596C68.3687 30.9362 68.1559 30.8235 67.8964 30.8235Z" fill="#231F20"/>
<path d="M71.6203 30.5938C72.1096 30.5938 72.5031 30.7788 72.7988 31.1511C73.0498 31.468 73.1774 31.8339 73.1774 32.2466C73.1774 32.5359 73.1072 32.8294 72.969 33.1251C72.8307 33.4208 72.6392 33.6463 72.3946 33.7952C72.15 33.9441 71.8798 34.0207 71.5799 34.0207C71.0928 34.0207 70.7056 33.8271 70.4184 33.4378C70.1759 33.1102 70.0547 32.7444 70.0547 32.3359C70.0547 32.0402 70.1291 31.7446 70.2759 31.451C70.4227 31.1575 70.6163 30.9405 70.8566 30.8022C71.097 30.6639 71.3523 30.5938 71.6203 30.5938ZM71.5118 30.8235C71.3863 30.8235 71.2608 30.8596 71.1353 30.9341C71.0098 31.0086 70.9077 31.1383 70.829 31.3234C70.7503 31.5084 70.712 31.7488 70.712 32.0402C70.712 32.5104 70.8056 32.9167 70.9928 33.2591C71.18 33.5995 71.4267 33.7718 71.7331 33.7718C71.9607 33.7718 72.15 33.6782 72.2989 33.4889C72.4478 33.2996 72.5222 32.9762 72.5222 32.5167C72.5222 31.9424 72.3989 31.4893 72.1521 31.1596C71.9819 30.9362 71.7692 30.8235 71.5118 30.8235Z" fill="#231F20"/>
<path d="M74.7695 28.9023V33.1929C74.7695 33.395 74.7844 33.529 74.8141 33.595C74.8439 33.6609 74.8886 33.7098 74.9503 33.746C75.012 33.78 75.1247 33.797 75.2928 33.797V33.9247H73.708V33.797C73.8569 33.797 73.9569 33.7822 74.0122 33.7503C74.0654 33.7205 74.1079 33.6694 74.1398 33.5992C74.1696 33.529 74.1866 33.3929 74.1866 33.1929V30.2552C74.1866 29.8894 74.1781 29.666 74.1611 29.5831C74.1441 29.5001 74.1186 29.4427 74.0824 29.4129C74.0462 29.3831 73.9994 29.3661 73.942 29.3661C73.8803 29.3661 73.8037 29.3852 73.708 29.4235L73.6484 29.3001L74.6121 28.9045H74.7695V28.9023Z" fill="#231F20"/>
<path d="M79.0539 30.5938C79.5432 30.5938 79.9367 30.7788 80.2324 31.1511C80.4834 31.468 80.611 31.8339 80.611 32.2466C80.611 32.5359 80.5408 32.8294 80.4026 33.1251C80.2643 33.4208 80.0728 33.6463 79.8282 33.7952C79.5836 33.9441 79.3134 34.0207 79.0135 34.0207C78.5264 34.0207 78.1392 33.8271 77.852 33.4378C77.6095 33.1102 77.4883 32.7444 77.4883 32.3359C77.4883 32.0402 77.5627 31.7446 77.7095 31.451C77.8563 31.1575 78.0499 30.9405 78.2902 30.8022C78.5327 30.6639 78.7859 30.5938 79.0539 30.5938ZM78.9454 30.8235C78.8199 30.8235 78.6944 30.8596 78.5689 30.9341C78.4434 31.0086 78.3413 31.1383 78.2626 31.3234C78.1839 31.5084 78.1456 31.7488 78.1456 32.0402C78.1456 32.5104 78.2392 32.9167 78.4264 33.2591C78.6136 33.5995 78.8603 33.7718 79.1666 33.7718C79.3943 33.7718 79.5836 33.6782 79.7325 33.4889C79.8814 33.2996 79.9558 32.9762 79.9558 32.5167C79.9558 31.9424 79.8325 31.4893 79.5857 31.1596C79.4177 30.9362 79.2049 30.8235 78.9454 30.8235Z" fill="#231F20"/>
<path d="M82.351 30.9449V33.07C82.351 33.3721 82.3829 33.5614 82.4489 33.6422C82.5361 33.7464 82.6531 33.7975 82.7977 33.7975H83.0913V33.9251H81.1598V33.7975H81.3044C81.398 33.7975 81.4852 33.7741 81.5618 33.7273C81.6405 33.6805 81.6937 33.6167 81.7235 33.5359C81.7533 33.455 81.7682 33.2997 81.7682 33.07V30.9449H81.1406V30.6897H81.7682V30.4769C81.7682 30.1536 81.8192 29.8813 81.9234 29.658C82.0277 29.4346 82.1851 29.2538 82.3978 29.1155C82.6105 28.9773 82.8509 28.9092 83.1168 28.9092C83.3636 28.9092 83.5912 28.99 83.7975 29.1496C83.9337 29.2559 84.0017 29.375 84.0017 29.5069C84.0017 29.5771 83.9719 29.6431 83.9103 29.7069C83.8486 29.7686 83.7826 29.8005 83.7124 29.8005C83.6592 29.8005 83.6018 29.7813 83.5422 29.743C83.4827 29.7048 83.4082 29.6197 83.321 29.492C83.2338 29.3644 83.153 29.2772 83.0806 29.2325C83.0083 29.1878 82.9254 29.1644 82.836 29.1644C82.7275 29.1644 82.636 29.1942 82.5616 29.2517C82.4871 29.3091 82.4318 29.3984 82.3999 29.5197C82.368 29.6409 82.351 29.9536 82.351 30.4578V30.6918H83.1849V30.947H82.351V30.9449Z" fill="#231F20"/>
<path d="M86.5589 31.6828V33.0783C86.5589 33.3803 86.5908 33.5675 86.6567 33.6398C86.746 33.7441 86.8822 33.7951 87.063 33.7951H87.2459V33.9249H85.1953V33.7951H85.3761C85.5782 33.7951 85.7229 33.7292 85.8101 33.5973C85.8569 33.525 85.8803 33.3505 85.8803 33.0783V29.9853C85.8803 29.6832 85.8484 29.496 85.7846 29.4237C85.6931 29.3195 85.5569 29.2684 85.3761 29.2684H85.1953V29.1387H86.9503C87.3778 29.1387 87.7161 29.1833 87.9628 29.2706C88.2096 29.3578 88.418 29.5067 88.5882 29.7173C88.7584 29.9279 88.8413 30.1746 88.8413 30.4618C88.8413 30.8532 88.7116 31.1702 88.4542 31.4148C88.1968 31.6594 87.8331 31.7828 87.3608 31.7828C87.2459 31.7828 87.1204 31.7743 86.9864 31.7573C86.8567 31.7402 86.712 31.7147 86.5589 31.6828ZM86.5589 31.4807C86.6844 31.5041 86.795 31.5211 86.8907 31.5339C86.9864 31.5467 87.0694 31.5509 87.1375 31.5509C87.3821 31.5509 87.5927 31.4552 87.7714 31.2659C87.9479 31.0766 88.0373 30.8319 88.0373 30.5299C88.0373 30.3235 87.9947 30.13 87.9096 29.9534C87.8245 29.7747 87.7054 29.6428 87.5501 29.5535C87.3948 29.4663 87.2183 29.4216 87.0205 29.4216C86.9013 29.4216 86.746 29.445 86.5589 29.4897V31.4807Z" fill="#231F20"/>
<path d="M90.2698 30.5938V31.3213C90.54 30.8363 90.8186 30.5938 91.1037 30.5938C91.2334 30.5938 91.3398 30.6342 91.4249 30.7129C91.51 30.7916 91.5525 30.883 91.5525 30.9873C91.5525 31.0788 91.5228 31.1575 91.4611 31.2213C91.3994 31.2851 91.327 31.317 91.242 31.317C91.159 31.317 91.0675 31.2766 90.9654 31.1957C90.8633 31.1149 90.7867 31.0745 90.7378 31.0745C90.6953 31.0745 90.6485 31.0979 90.5995 31.1447C90.4932 31.2404 90.3847 31.4 90.2719 31.6212V33.1719C90.2719 33.3506 90.2932 33.4868 90.3379 33.5782C90.3677 33.642 90.423 33.6952 90.4996 33.7378C90.5761 33.7803 90.6889 33.8016 90.8357 33.8016V33.9292H89.1807V33.8016C89.3445 33.8016 89.4679 33.776 89.5487 33.7229C89.6083 33.6846 89.6487 33.625 89.6721 33.5421C89.6848 33.5016 89.6891 33.3889 89.6891 33.1996V31.9467C89.6891 31.5701 89.6806 31.3447 89.6657 31.2745C89.6508 31.2021 89.621 31.1511 89.5806 31.117C89.5402 31.083 89.4891 31.0681 89.4275 31.0681C89.3551 31.0681 89.2722 31.0851 89.1807 31.1213L89.1445 30.9937L90.123 30.598H90.2698V30.5938Z" fill="#231F20"/>
<path d="M93.3117 30.5938C93.801 30.5938 94.1945 30.7788 94.4902 31.1511C94.7412 31.468 94.8688 31.8339 94.8688 32.2466C94.8688 32.5359 94.7986 32.8294 94.6604 33.1251C94.5221 33.4208 94.3307 33.6463 94.086 33.7952C93.8414 33.9441 93.5712 34.0207 93.2713 34.0207C92.7842 34.0207 92.397 33.8271 92.1098 33.4378C91.8673 33.1102 91.7461 32.7444 91.7461 32.3359C91.7461 32.0402 91.8205 31.7446 91.9673 31.451C92.1141 31.1575 92.3077 30.9405 92.548 30.8022C92.7884 30.6639 93.0437 30.5938 93.3117 30.5938ZM93.2032 30.8235C93.0777 30.8235 92.9522 30.8596 92.8267 30.9341C92.7012 31.0086 92.5991 31.1383 92.5204 31.3234C92.4417 31.5084 92.4034 31.7488 92.4034 32.0402C92.4034 32.5104 92.497 32.9167 92.6842 33.2591C92.8714 33.5995 93.1181 33.7718 93.4245 33.7718C93.6521 33.7718 93.8414 33.6782 93.9903 33.4889C94.1392 33.2996 94.2137 32.9762 94.2137 32.5167C94.2137 31.9424 94.0903 31.4893 93.8435 31.1596C93.6733 30.9362 93.4606 30.8235 93.2032 30.8235Z" fill="#231F20"/>
<path d="M96.6088 30.9449V33.07C96.6088 33.3721 96.6407 33.5614 96.7067 33.6422C96.7939 33.7464 96.9109 33.7975 97.0555 33.7975H97.3491V33.9251H95.4176V33.7975H95.5622C95.6558 33.7975 95.743 33.7741 95.8196 33.7273C95.8983 33.6805 95.9515 33.6167 95.9813 33.5359C96.0111 33.455 96.026 33.2997 96.026 33.07V30.9449H95.3984V30.6897H96.026V30.4769C96.026 30.1536 96.077 29.8813 96.1813 29.658C96.2855 29.4346 96.4429 29.2538 96.6556 29.1155C96.8683 28.9773 97.1087 28.9092 97.3746 28.9092C97.6214 28.9092 97.849 28.99 98.0553 29.1496C98.1915 29.2559 98.2595 29.375 98.2595 29.5069C98.2595 29.5771 98.2298 29.6431 98.1681 29.7069C98.1064 29.7686 98.0404 29.8005 97.9702 29.8005C97.917 29.8005 97.8596 29.7813 97.8001 29.743C97.7405 29.7048 97.666 29.6197 97.5788 29.492C97.4916 29.3644 97.4108 29.2772 97.3384 29.2325C97.2661 29.1878 97.1832 29.1644 97.0938 29.1644C96.9853 29.1644 96.8939 29.1942 96.8194 29.2517C96.745 29.3091 96.6897 29.3984 96.6577 29.5197C96.6258 29.6409 96.6088 29.9536 96.6088 30.4578V30.6918H97.4427V30.947H96.6088V30.9449Z" fill="#231F20"/>
<path d="M98.295 31.9084C98.2929 32.3891 98.4099 32.7656 98.6439 33.0379C98.88 33.3102 99.1565 33.4485 99.4735 33.4485C99.6862 33.4485 99.8691 33.391 100.027 33.274C100.182 33.157 100.314 32.9571 100.42 32.6763L100.529 32.7465C100.48 33.0698 100.335 33.3634 100.099 33.6271C99.8606 33.8909 99.5628 34.0249 99.2054 34.0249C98.8162 34.0249 98.4843 33.8739 98.2078 33.5718C97.9312 33.2698 97.793 32.8635 97.793 32.3508C97.793 31.7977 97.9355 31.3659 98.2184 31.0575C98.5013 30.7469 98.8587 30.5938 99.2863 30.5938C99.6479 30.5938 99.9457 30.7129 100.18 30.9532C100.414 31.1915 100.529 31.5127 100.529 31.9126H98.295V31.9084ZM98.295 31.7041H99.7925C99.7798 31.4978 99.7564 31.351 99.7181 31.2659C99.6585 31.1341 99.5713 31.0298 99.4543 30.9554C99.3373 30.8809 99.2161 30.8426 99.0884 30.8426C98.8927 30.8426 98.7183 30.9192 98.5651 31.0702C98.412 31.2213 98.3205 31.4319 98.295 31.7041Z" fill="#231F20"/>
<path d="M103.053 30.5933V31.6952H102.936C102.847 31.3485 102.732 31.1145 102.592 30.989C102.451 30.8635 102.273 30.8018 102.058 30.8018C101.894 30.8018 101.76 30.8464 101.658 30.9315C101.556 31.0166 101.507 31.1145 101.507 31.2208C101.507 31.3527 101.545 31.4655 101.62 31.559C101.692 31.6548 101.841 31.759 102.064 31.8654L102.579 32.1164C103.058 32.3504 103.296 32.6567 103.296 33.0375C103.296 33.331 103.185 33.5693 102.962 33.7501C102.741 33.9309 102.492 34.0202 102.215 34.0202C102.017 34.0202 101.792 33.9841 101.537 33.9139C101.46 33.8905 101.396 33.8777 101.345 33.8777C101.292 33.8777 101.249 33.9075 101.217 33.9692H101.1V32.8141H101.217C101.283 33.1438 101.409 33.3927 101.596 33.5586C101.783 33.7245 101.99 33.8096 102.222 33.8096C102.383 33.8096 102.517 33.7628 102.619 33.6671C102.721 33.5714 102.772 33.4565 102.772 33.3225C102.772 33.1608 102.715 33.0226 102.602 32.912C102.487 32.8013 102.26 32.6609 101.919 32.4908C101.579 32.3206 101.354 32.1674 101.249 32.0313C101.143 31.8973 101.09 31.7271 101.09 31.5229C101.09 31.257 101.181 31.0336 101.364 30.8549C101.547 30.6763 101.783 30.5869 102.073 30.5869C102.2 30.5869 102.353 30.6146 102.534 30.6677C102.653 30.7039 102.734 30.7209 102.775 30.7209C102.813 30.7209 102.843 30.7124 102.864 30.6954C102.885 30.6784 102.911 30.6422 102.938 30.5869H103.053V30.5933Z" fill="#231F20"/>
<path d="M105.864 30.5933V31.6952H105.747C105.657 31.3485 105.542 31.1145 105.402 30.989C105.262 30.8635 105.083 30.8018 104.868 30.8018C104.704 30.8018 104.57 30.8464 104.47 30.9315C104.37 31.0166 104.319 31.1145 104.319 31.2208C104.319 31.3527 104.358 31.4655 104.432 31.559C104.504 31.6548 104.653 31.759 104.877 31.8654L105.391 32.1164C105.87 32.3504 106.108 32.6567 106.108 33.0375C106.108 33.331 105.998 33.5693 105.774 33.7501C105.553 33.9309 105.304 34.0202 105.028 34.0202C104.83 34.0202 104.604 33.9841 104.349 33.9139C104.272 33.8905 104.209 33.8777 104.158 33.8777C104.104 33.8777 104.062 33.9075 104.03 33.9692H103.913V32.8141H104.03C104.096 33.1438 104.221 33.3927 104.409 33.5586C104.596 33.7245 104.802 33.8096 105.034 33.8096C105.196 33.8096 105.33 33.7628 105.432 33.6671C105.534 33.5714 105.585 33.4565 105.585 33.3225C105.585 33.1608 105.528 33.0226 105.415 32.912C105.3 32.8013 105.072 32.6609 104.732 32.4908C104.392 32.3206 104.168 32.1674 104.062 32.0313C103.956 31.8973 103.902 31.7271 103.902 31.5229C103.902 31.257 103.994 31.0336 104.177 30.8549C104.36 30.6763 104.596 30.5869 104.885 30.5869C105.013 30.5869 105.166 30.6146 105.347 30.6677C105.466 30.7039 105.547 30.7209 105.587 30.7209C105.625 30.7209 105.655 30.7124 105.676 30.6954C105.698 30.6784 105.723 30.6422 105.751 30.5869H105.864V30.5933Z" fill="#231F20"/>
<path d="M107.704 30.5935V33.1929C107.704 33.395 107.719 33.529 107.748 33.5971C107.778 33.663 107.821 33.7141 107.878 33.7481C107.936 33.7822 108.042 33.797 108.195 33.797V33.9247H106.625V33.797C106.783 33.797 106.889 33.7822 106.942 33.7503C106.995 33.7205 107.04 33.6694 107.072 33.5992C107.104 33.529 107.119 33.3929 107.119 33.1929V31.9464C107.119 31.5954 107.108 31.3678 107.087 31.2657C107.07 31.1912 107.044 31.138 107.008 31.1083C106.972 31.0785 106.925 31.0636 106.864 31.0636C106.798 31.0636 106.717 31.0806 106.623 31.1168L106.574 30.9891L107.548 30.5935H107.704ZM107.41 28.9023C107.508 28.9023 107.593 28.9364 107.663 29.0066C107.734 29.0768 107.768 29.1597 107.768 29.2597C107.768 29.3597 107.734 29.4427 107.663 29.515C107.593 29.5873 107.51 29.6213 107.41 29.6213C107.31 29.6213 107.227 29.5852 107.155 29.515C107.085 29.4448 107.049 29.3597 107.049 29.2597C107.049 29.1597 107.083 29.0768 107.153 29.0066C107.223 28.9364 107.308 28.9023 107.41 28.9023Z" fill="#231F20"/>
<path d="M110.179 30.5938C110.668 30.5938 111.062 30.7788 111.357 31.1511C111.608 31.468 111.736 31.8339 111.736 32.2466C111.736 32.5359 111.666 32.8294 111.528 33.1251C111.389 33.4208 111.198 33.6463 110.953 33.7952C110.709 33.9462 110.438 34.0207 110.138 34.0207C109.651 34.0207 109.264 33.8271 108.977 33.4378C108.735 33.1102 108.613 32.7444 108.613 32.3359C108.613 32.0402 108.686 31.7446 108.835 31.451C108.981 31.1575 109.175 30.9405 109.415 30.8022C109.658 30.6639 109.911 30.5938 110.179 30.5938ZM110.07 30.8235C109.945 30.8235 109.819 30.8596 109.694 30.9341C109.568 31.0086 109.466 31.1383 109.388 31.3234C109.309 31.5084 109.271 31.7488 109.271 32.0402C109.271 32.5104 109.364 32.9167 109.551 33.2591C109.739 33.5995 109.985 33.7718 110.292 33.7718C110.519 33.7718 110.709 33.6782 110.857 33.4889C111.006 33.2996 111.081 32.9762 111.081 32.5167C111.081 31.9424 110.957 31.4893 110.711 31.1596C110.541 30.9362 110.328 30.8235 110.07 30.8235Z" fill="#231F20"/>
<path d="M113.153 31.2787C113.531 30.8214 113.893 30.5938 114.235 30.5938C114.412 30.5938 114.563 30.6384 114.691 30.7256C114.818 30.815 114.918 30.9596 114.995 31.1617C115.046 31.3021 115.074 31.5191 115.074 31.8105V33.1911C115.074 33.3953 115.091 33.5357 115.122 33.608C115.148 33.6676 115.191 33.7122 115.248 33.7463C115.305 33.7803 115.412 33.7952 115.567 33.7952V33.9228H113.967V33.7952H114.035C114.186 33.7952 114.291 33.7718 114.352 33.7271C114.412 33.6825 114.454 33.6144 114.478 33.525C114.486 33.4889 114.493 33.3783 114.493 33.1932V31.8679C114.493 31.5744 114.454 31.3595 114.378 31.2277C114.301 31.0936 114.172 31.0277 113.991 31.0277C113.71 31.0277 113.431 31.1809 113.155 31.4872V33.1932C113.155 33.4123 113.168 33.5484 113.193 33.5995C113.225 33.6676 113.272 33.7186 113.329 33.7505C113.387 33.7824 113.504 33.7973 113.68 33.7973V33.925H112.081V33.7973H112.151C112.315 33.7973 112.427 33.7548 112.485 33.6718C112.542 33.5889 112.572 33.4293 112.572 33.1932V31.9934C112.572 31.6042 112.563 31.3681 112.544 31.283C112.525 31.1979 112.5 31.1404 112.463 31.1107C112.427 31.0809 112.378 31.0639 112.317 31.0639C112.251 31.0639 112.172 31.0809 112.081 31.117L112.027 30.9894L113.002 30.5938H113.153V31.2787Z" fill="#231F20"/>
<path d="M117.661 33.4593C117.329 33.7167 117.121 33.8634 117.036 33.9039C116.908 33.9634 116.774 33.9932 116.629 33.9932C116.406 33.9932 116.221 33.9166 116.076 33.7635C115.932 33.6103 115.859 33.4082 115.859 33.1593C115.859 33.0019 115.896 32.8658 115.966 32.7488C116.061 32.5892 116.23 32.4382 116.47 32.2957C116.71 32.1532 117.106 31.983 117.661 31.7809V31.6533C117.661 31.3299 117.61 31.1087 117.508 30.9896C117.406 30.8705 117.257 30.8088 117.061 30.8088C116.912 30.8088 116.795 30.8492 116.708 30.9279C116.619 31.0087 116.574 31.1002 116.574 31.2023L116.581 31.4065C116.581 31.515 116.553 31.598 116.498 31.6575C116.442 31.7171 116.37 31.7469 116.281 31.7469C116.193 31.7469 116.123 31.7171 116.068 31.6554C116.013 31.5937 115.985 31.5108 115.985 31.4044C115.985 31.2023 116.089 31.0151 116.295 30.8471C116.502 30.6769 116.793 30.5918 117.168 30.5918C117.455 30.5918 117.691 30.6407 117.874 30.7364C118.012 30.8088 118.114 30.9236 118.18 31.0789C118.223 31.181 118.244 31.3874 118.244 31.7001V32.7977C118.244 33.1062 118.25 33.2955 118.261 33.3635C118.274 33.4337 118.293 33.4805 118.318 33.5039C118.344 33.5273 118.376 33.5401 118.412 33.5401C118.45 33.5401 118.482 33.5316 118.51 33.5146C118.559 33.4848 118.655 33.3976 118.795 33.2572V33.455C118.531 33.8081 118.28 33.9847 118.04 33.9847C117.925 33.9847 117.833 33.9443 117.765 33.8656C117.697 33.789 117.663 33.6507 117.661 33.4593ZM117.661 33.2295V31.9979C117.306 32.1383 117.076 32.2383 116.972 32.2978C116.787 32.4021 116.653 32.5105 116.572 32.6233C116.491 32.736 116.453 32.8594 116.453 32.9934C116.453 33.1636 116.504 33.304 116.604 33.4146C116.706 33.5273 116.821 33.5826 116.953 33.5826C117.134 33.5826 117.368 33.4635 117.661 33.2295Z" fill="#231F20"/>
<path d="M120.144 28.9023V33.1929C120.144 33.395 120.159 33.529 120.189 33.595C120.219 33.6609 120.264 33.7098 120.325 33.746C120.387 33.78 120.5 33.797 120.668 33.797V33.9247H119.083V33.797C119.232 33.797 119.332 33.7822 119.387 33.7503C119.44 33.7205 119.483 33.6694 119.515 33.5992C119.545 33.529 119.562 33.3929 119.562 33.1929V30.2552C119.562 29.8894 119.553 29.666 119.536 29.5831C119.519 29.5001 119.494 29.4427 119.457 29.4129C119.421 29.3831 119.374 29.3661 119.317 29.3661C119.255 29.3661 119.179 29.3852 119.083 29.4235L119.023 29.3001L119.987 28.9045H120.144V28.9023Z" fill="#231F20"/>
<path d="M124.685 33.4593C124.353 33.7167 124.144 33.8634 124.059 33.9039C123.932 33.9634 123.798 33.9932 123.653 33.9932C123.43 33.9932 123.244 33.9166 123.1 33.7635C122.955 33.6103 122.883 33.4082 122.883 33.1593C122.883 33.0019 122.919 32.8658 122.989 32.7488C123.085 32.5892 123.253 32.4382 123.493 32.2957C123.734 32.1532 124.129 31.983 124.685 31.7809V31.6533C124.685 31.3299 124.634 31.1087 124.531 30.9896C124.429 30.8705 124.28 30.8088 124.085 30.8088C123.936 30.8088 123.819 30.8492 123.732 30.9279C123.642 31.0087 123.598 31.1002 123.598 31.2023L123.604 31.4065C123.604 31.515 123.576 31.598 123.521 31.6575C123.466 31.7171 123.393 31.7469 123.304 31.7469C123.217 31.7469 123.147 31.7171 123.091 31.6554C123.036 31.5937 123.008 31.5108 123.008 31.4044C123.008 31.2023 123.113 31.0151 123.319 30.8471C123.525 30.6769 123.817 30.5918 124.191 30.5918C124.478 30.5918 124.714 30.6407 124.897 30.7364C125.036 30.8088 125.138 30.9236 125.204 31.0789C125.246 31.181 125.267 31.3874 125.267 31.7001V32.7977C125.267 33.1062 125.274 33.2955 125.284 33.3635C125.297 33.4337 125.316 33.4805 125.342 33.5039C125.367 33.5273 125.399 33.5401 125.435 33.5401C125.474 33.5401 125.506 33.5316 125.533 33.5146C125.582 33.4848 125.678 33.3976 125.818 33.2572V33.455C125.555 33.8081 125.304 33.9847 125.063 33.9847C124.948 33.9847 124.857 33.9443 124.789 33.8656C124.723 33.789 124.687 33.6507 124.685 33.4593ZM124.685 33.2295V31.9979C124.329 32.1383 124.1 32.2383 123.995 32.2978C123.81 32.4021 123.676 32.5105 123.595 32.6233C123.515 32.736 123.476 32.8594 123.476 32.9934C123.476 33.1636 123.527 33.304 123.627 33.4146C123.729 33.5273 123.844 33.5826 123.976 33.5826C124.157 33.5826 124.393 33.4635 124.685 33.2295Z" fill="#231F20"/>
<path d="M127 31.2787C127.379 30.8214 127.741 30.5938 128.083 30.5938C128.26 30.5938 128.411 30.6384 128.538 30.7256C128.666 30.815 128.766 30.9596 128.842 31.1617C128.894 31.3021 128.921 31.5191 128.921 31.8105V33.1911C128.921 33.3953 128.938 33.5357 128.97 33.608C128.996 33.6676 129.038 33.7122 129.096 33.7463C129.153 33.7803 129.259 33.7952 129.415 33.7952V33.9228H127.815V33.7952H127.883C128.034 33.7952 128.138 33.7718 128.2 33.7271C128.26 33.6825 128.302 33.6144 128.326 33.525C128.334 33.4889 128.34 33.3783 128.34 33.1932V31.8679C128.34 31.5744 128.302 31.3595 128.226 31.2277C128.149 31.0936 128.019 31.0277 127.838 31.0277C127.558 31.0277 127.279 31.1809 127.002 31.4872V33.1932C127.002 33.4123 127.015 33.5484 127.041 33.5995C127.073 33.6676 127.119 33.7186 127.177 33.7505C127.234 33.7824 127.351 33.7973 127.528 33.7973V33.925H125.928V33.7973H125.998C126.162 33.7973 126.275 33.7548 126.332 33.6718C126.39 33.5889 126.42 33.4293 126.42 33.1932V31.9934C126.42 31.6042 126.411 31.3681 126.392 31.283C126.373 31.1979 126.347 31.1404 126.311 31.1107C126.275 31.0809 126.226 31.0639 126.164 31.0639C126.098 31.0639 126.02 31.0809 125.928 31.117L125.875 30.9894L126.849 30.5938H127V31.2787Z" fill="#231F20"/>
<path d="M131.957 33.5614C131.8 33.7252 131.645 33.8443 131.496 33.9166C131.345 33.989 131.183 34.0251 131.009 34.0251C130.655 34.0251 130.347 33.8783 130.083 33.5827C129.819 33.287 129.688 32.9083 129.688 32.4446C129.688 31.9809 129.834 31.5554 130.126 31.1725C130.417 30.7875 130.794 30.5961 131.251 30.5961C131.536 30.5961 131.77 30.6875 131.957 30.8683V30.2706C131.957 29.9005 131.949 29.6728 131.932 29.5899C131.915 29.5069 131.887 29.4474 131.849 29.4176C131.81 29.3878 131.764 29.3708 131.708 29.3708C131.647 29.3708 131.566 29.3899 131.464 29.4282L131.417 29.3048L132.381 28.9092H132.54V32.6488C132.54 33.0275 132.549 33.2593 132.568 33.3423C132.585 33.4252 132.612 33.4848 132.653 33.5167C132.693 33.5486 132.738 33.5656 132.789 33.5656C132.853 33.5656 132.938 33.5465 133.042 33.5061L133.08 33.6295L132.121 34.0294H131.959V33.5614H131.957ZM131.957 33.3146V31.6469C131.942 31.4874 131.9 31.3406 131.83 31.2087C131.759 31.0768 131.666 30.9768 131.549 30.9109C131.432 30.8449 131.319 30.8109 131.208 30.8109C131.002 30.8109 130.817 30.9045 130.653 31.0896C130.438 31.3342 130.332 31.6916 130.332 32.1638C130.332 32.6403 130.436 33.0041 130.643 33.2572C130.849 33.5103 131.081 33.638 131.334 33.638C131.551 33.6358 131.757 33.5273 131.957 33.3146Z" fill="#231F20"/>
<path d="M139.222 29.0254L139.33 30.6527H139.222C139.075 30.1656 138.866 29.8146 138.596 29.5997C138.326 29.3849 138.001 29.2785 137.622 29.2785C137.305 29.2785 137.018 29.3594 136.76 29.521C136.503 29.6827 136.303 29.9401 136.154 30.2932C136.005 30.6463 135.933 31.0845 135.933 31.6099C135.933 32.0439 136.003 32.4183 136.141 32.7374C136.28 33.0543 136.488 33.2989 136.769 33.4691C137.048 33.6393 137.367 33.7244 137.724 33.7244C138.035 33.7244 138.309 33.6584 138.547 33.5244C138.786 33.3904 139.047 33.1266 139.33 32.731L139.439 32.8012C139.198 33.2266 138.917 33.5393 138.598 33.7372C138.279 33.935 137.899 34.0328 137.458 34.0328C136.665 34.0328 136.05 33.7393 135.616 33.15C135.291 32.7118 135.129 32.1971 135.129 31.6036C135.129 31.1249 135.235 30.6867 135.45 30.2868C135.665 29.8869 135.959 29.5763 136.335 29.3551C136.709 29.136 137.12 29.0254 137.565 29.0254C137.911 29.0254 138.252 29.1105 138.588 29.2807C138.686 29.3317 138.758 29.3594 138.8 29.3594C138.864 29.3594 138.92 29.336 138.966 29.2913C139.028 29.2275 139.071 29.1403 139.096 29.0254H139.222Z" fill="#231F20"/>
<path d="M141.499 30.5938C141.988 30.5938 142.382 30.7788 142.678 31.1511C142.929 31.468 143.056 31.8339 143.056 32.2466C143.056 32.5359 142.986 32.8294 142.848 33.1251C142.71 33.4208 142.518 33.6463 142.274 33.7952C142.029 33.9462 141.759 34.0207 141.459 34.0207C140.972 34.0207 140.585 33.8271 140.297 33.4378C140.055 33.1102 139.934 32.7444 139.934 32.3359C139.934 32.0402 140.006 31.7446 140.155 31.451C140.302 31.1575 140.495 30.9405 140.736 30.8022C140.976 30.6639 141.231 30.5938 141.499 30.5938ZM141.389 30.8235C141.263 30.8235 141.138 30.8596 141.012 30.9341C140.887 31.0086 140.784 31.1383 140.706 31.3234C140.627 31.5084 140.589 31.7488 140.589 32.0402C140.589 32.5104 140.682 32.9167 140.87 33.2591C141.057 33.5995 141.304 33.7718 141.61 33.7718C141.837 33.7718 142.027 33.6782 142.176 33.4889C142.325 33.2996 142.399 32.9762 142.399 32.5167C142.399 31.9424 142.276 31.4893 142.029 31.1596C141.861 30.9362 141.648 30.8235 141.389 30.8235Z" fill="#231F20"/>
<path d="M144.477 31.2787C144.855 30.8214 145.217 30.5938 145.56 30.5938C145.736 30.5938 145.887 30.6384 146.015 30.7256C146.142 30.815 146.242 30.9596 146.319 31.1617C146.37 31.3021 146.398 31.5191 146.398 31.8105V33.1911C146.398 33.3953 146.415 33.5357 146.447 33.608C146.472 33.6676 146.515 33.7122 146.572 33.7463C146.63 33.7803 146.736 33.7952 146.891 33.7952V33.9228H145.292V33.7952H145.36C145.511 33.7952 145.615 33.7718 145.677 33.7271C145.736 33.6825 145.779 33.6144 145.802 33.525C145.811 33.4889 145.817 33.3783 145.817 33.1932V31.8679C145.817 31.5744 145.779 31.3595 145.702 31.2277C145.626 31.0936 145.496 31.0277 145.315 31.0277C145.034 31.0277 144.756 31.1809 144.479 31.4872V33.1932C144.479 33.4123 144.492 33.5484 144.517 33.5995C144.549 33.6676 144.596 33.7186 144.653 33.7505C144.711 33.7824 144.828 33.7973 145.004 33.7973V33.925H143.405V33.7973H143.475C143.639 33.7973 143.751 33.7548 143.809 33.6718C143.866 33.5889 143.896 33.4293 143.896 33.1932V31.9934C143.896 31.6042 143.888 31.3681 143.868 31.283C143.849 31.1979 143.824 31.1404 143.788 31.1107C143.751 31.0809 143.703 31.0639 143.641 31.0639C143.575 31.0639 143.496 31.0809 143.405 31.117L143.352 30.9894L144.326 30.5938H144.477V31.2787Z" fill="#231F20"/>
<path d="M148.089 29.6252V30.6888H148.845V30.9355H148.089V33.033C148.089 33.2436 148.119 33.3839 148.179 33.4563C148.238 33.5286 148.315 33.5648 148.411 33.5648C148.489 33.5648 148.564 33.5414 148.636 33.4924C148.708 33.4435 148.766 33.3733 148.806 33.2797H148.945C148.862 33.5095 148.747 33.6839 148.596 33.8009C148.445 33.9179 148.289 33.9753 148.13 33.9753C148.021 33.9753 147.915 33.9455 147.813 33.886C147.709 33.8264 147.632 33.7392 147.583 33.6286C147.534 33.5158 147.509 33.3435 147.509 33.1117V30.9355H146.996V30.8185C147.126 30.7675 147.258 30.6781 147.394 30.5548C147.53 30.4314 147.649 30.2846 147.756 30.1144C147.809 30.0251 147.885 29.8613 147.981 29.623H148.089V29.6252Z" fill="#231F20"/>
<path d="M150.274 30.5935V33.1929C150.274 33.395 150.289 33.529 150.319 33.5971C150.349 33.663 150.391 33.7141 150.449 33.7481C150.506 33.7822 150.612 33.797 150.765 33.797V33.9247H149.196V33.797C149.353 33.797 149.459 33.7822 149.513 33.7503C149.566 33.7205 149.61 33.6694 149.642 33.5992C149.674 33.529 149.689 33.3929 149.689 33.1929V31.9464C149.689 31.5954 149.678 31.3678 149.657 31.2657C149.64 31.1912 149.615 31.138 149.578 31.1083C149.542 31.0785 149.496 31.0636 149.434 31.0636C149.368 31.0636 149.287 31.0806 149.193 31.1168L149.145 30.9891L150.119 30.5935H150.274ZM149.981 28.9023C150.078 28.9023 150.163 28.9364 150.234 29.0066C150.304 29.0768 150.338 29.1597 150.338 29.2597C150.338 29.3597 150.304 29.4427 150.234 29.515C150.163 29.5873 150.081 29.6213 149.981 29.6213C149.881 29.6213 149.798 29.5852 149.725 29.515C149.655 29.4448 149.619 29.3597 149.619 29.2597C149.619 29.1597 149.653 29.0768 149.723 29.0066C149.793 28.9364 149.878 28.9023 149.981 28.9023Z" fill="#231F20"/>
<path d="M152.11 31.2787C152.488 30.8214 152.85 30.5938 153.192 30.5938C153.369 30.5938 153.52 30.6384 153.648 30.7256C153.775 30.815 153.875 30.9596 153.952 31.1617C154.003 31.3021 154.031 31.5191 154.031 31.8105V33.1911C154.031 33.3953 154.048 33.5357 154.079 33.608C154.105 33.6676 154.148 33.7122 154.205 33.7463C154.262 33.7803 154.369 33.7952 154.524 33.7952V33.9228H152.924V33.7952H152.992C153.143 33.7952 153.248 33.7718 153.309 33.7271C153.369 33.6825 153.412 33.6144 153.435 33.525C153.443 33.4889 153.45 33.3783 153.45 33.1932V31.8679C153.45 31.5744 153.412 31.3595 153.335 31.2277C153.258 31.0936 153.129 31.0277 152.948 31.0277C152.667 31.0277 152.388 31.1809 152.112 31.4872V33.1932C152.112 33.4123 152.125 33.5484 152.15 33.5995C152.182 33.6676 152.229 33.7186 152.286 33.7505C152.344 33.7824 152.461 33.7973 152.637 33.7973V33.925H151.038V33.7973H151.108C151.272 33.7973 151.384 33.7548 151.442 33.6718C151.499 33.5889 151.529 33.4293 151.529 33.1932V31.9934C151.529 31.6042 151.52 31.3681 151.501 31.283C151.482 31.1979 151.457 31.1404 151.42 31.1107C151.384 31.0809 151.335 31.0639 151.274 31.0639C151.208 31.0639 151.129 31.0809 151.038 31.117L150.984 30.9894L151.959 30.5938H152.11V31.2787Z" fill="#231F20"/>
<path d="M157.615 30.6895V32.6486C157.615 33.023 157.624 33.2527 157.643 33.3357C157.66 33.4187 157.689 33.4782 157.728 33.5101C157.766 33.5442 157.813 33.5591 157.864 33.5591C157.936 33.5591 158.019 33.5399 158.111 33.4995L158.16 33.6229L157.192 34.0228H157.032V33.3378C156.754 33.6399 156.543 33.8292 156.396 33.9058C156.249 33.9845 156.096 34.0228 155.935 34.0228C155.754 34.0228 155.596 33.9696 155.464 33.8654C155.33 33.7611 155.239 33.625 155.188 33.4612C155.137 33.2974 155.109 33.0634 155.109 32.7614V31.317C155.109 31.1638 155.092 31.0575 155.06 31C155.028 30.9426 154.979 30.8958 154.913 30.8639C154.85 30.832 154.733 30.8171 154.562 30.8192V30.6895H155.696V32.8549C155.696 33.157 155.749 33.3548 155.854 33.4484C155.958 33.542 156.086 33.5888 156.232 33.5888C156.334 33.5888 156.447 33.5569 156.577 33.4931C156.705 33.4293 156.858 33.308 157.034 33.1294V31.2957C157.034 31.1128 157 30.9873 156.934 30.9234C156.866 30.8596 156.728 30.8235 156.515 30.8192V30.6895H157.615Z" fill="#231F20"/>
<path d="M159.512 30.5935V33.1929C159.512 33.395 159.527 33.529 159.557 33.5971C159.587 33.663 159.629 33.7141 159.687 33.7481C159.744 33.7822 159.851 33.797 160.004 33.797V33.9247H158.434V33.797C158.591 33.797 158.698 33.7822 158.751 33.7503C158.804 33.7205 158.849 33.6694 158.881 33.5992C158.912 33.529 158.927 33.3929 158.927 33.1929V31.9464C158.927 31.5954 158.917 31.3678 158.895 31.2657C158.878 31.1912 158.853 31.138 158.817 31.1083C158.781 31.0785 158.734 31.0636 158.672 31.0636C158.606 31.0636 158.525 31.0806 158.432 31.1168L158.383 30.9891L159.357 30.5935H159.512ZM159.219 28.9023C159.317 28.9023 159.402 28.9364 159.472 29.0066C159.542 29.0768 159.576 29.1597 159.576 29.2597C159.576 29.3597 159.542 29.4427 159.472 29.515C159.402 29.5873 159.319 29.6213 159.219 29.6213C159.119 29.6213 159.036 29.5852 158.964 29.515C158.893 29.4448 158.857 29.3597 158.857 29.2597C158.857 29.1597 158.891 29.0768 158.961 29.0066C159.032 28.9364 159.117 28.9023 159.219 28.9023Z" fill="#231F20"/>
<path d="M161.348 31.2787C161.727 30.8214 162.088 30.5938 162.431 30.5938C162.607 30.5938 162.758 30.6384 162.886 30.7256C163.014 30.815 163.114 30.9596 163.19 31.1617C163.241 31.3021 163.269 31.5191 163.269 31.8105V33.1911C163.269 33.3953 163.286 33.5357 163.318 33.608C163.343 33.6676 163.386 33.7122 163.443 33.7463C163.501 33.7803 163.607 33.7952 163.762 33.7952V33.9228H162.163V33.7952H162.231C162.382 33.7952 162.486 33.7718 162.548 33.7271C162.607 33.6825 162.65 33.6144 162.673 33.525C162.682 33.4889 162.688 33.3783 162.688 33.1932V31.8679C162.688 31.5744 162.65 31.3595 162.573 31.2277C162.497 31.0936 162.367 31.0277 162.186 31.0277C161.905 31.0277 161.627 31.1809 161.35 31.4872V33.1932C161.35 33.4123 161.363 33.5484 161.388 33.5995C161.42 33.6676 161.467 33.7186 161.525 33.7505C161.582 33.7824 161.699 33.7973 161.875 33.7973V33.925H160.276V33.7973H160.346C160.51 33.7973 160.623 33.7548 160.68 33.6718C160.737 33.5889 160.767 33.4293 160.767 33.1932V31.9934C160.767 31.6042 160.759 31.3681 160.74 31.283C160.72 31.1979 160.695 31.1404 160.659 31.1107C160.623 31.0809 160.574 31.0639 160.512 31.0639C160.446 31.0639 160.367 31.0809 160.276 31.117L160.223 30.9894L161.197 30.5938H161.348V31.2787Z" fill="#231F20"/>
<path d="M164.882 32.7444C164.684 32.6486 164.533 32.5125 164.427 32.3402C164.321 32.1679 164.267 31.9764 164.267 31.7658C164.267 31.4468 164.389 31.1702 164.629 30.9405C164.869 30.7107 165.18 30.5938 165.556 30.5938C165.865 30.5938 166.133 30.6682 166.358 30.8192H167.043C167.145 30.8192 167.203 30.8214 167.22 30.8277C167.237 30.8341 167.248 30.8426 167.256 30.8575C167.271 30.8788 167.277 30.9171 167.277 30.9703C167.277 31.032 167.271 31.0745 167.26 31.0979C167.254 31.1107 167.241 31.1192 167.224 31.1256C167.207 31.1319 167.148 31.1362 167.045 31.1362H166.626C166.758 31.3064 166.824 31.5233 166.824 31.785C166.824 32.087 166.709 32.3444 166.477 32.5593C166.246 32.7741 165.937 32.8805 165.55 32.8805C165.39 32.8805 165.227 32.8571 165.059 32.8103C164.954 32.8996 164.884 32.9783 164.848 33.0443C164.812 33.1102 164.793 33.1677 164.793 33.2145C164.793 33.2549 164.812 33.2932 164.85 33.3315C164.888 33.3698 164.965 33.3953 165.078 33.4123C165.144 33.4208 165.308 33.4293 165.571 33.4378C166.056 33.4506 166.371 33.4655 166.514 33.4867C166.733 33.5165 166.907 33.5995 167.037 33.7314C167.167 33.8633 167.233 34.0249 167.233 34.2185C167.233 34.4844 167.107 34.7333 166.858 34.9673C166.49 35.3119 166.012 35.4821 165.422 35.4821C164.967 35.4821 164.584 35.38 164.272 35.1758C164.095 35.0588 164.008 34.9354 164.008 34.8077C164.008 34.7503 164.021 34.695 164.046 34.6376C164.087 34.5504 164.167 34.4291 164.293 34.2738C164.31 34.2525 164.429 34.1249 164.652 33.893C164.529 33.8207 164.444 33.7548 164.393 33.6973C164.342 33.6399 164.316 33.574 164.316 33.5016C164.316 33.4187 164.35 33.323 164.416 33.2123C164.482 33.1017 164.64 32.9486 164.882 32.7444ZM164.848 33.925C164.737 34.0441 164.654 34.1568 164.597 34.2611C164.542 34.3653 164.512 34.461 164.512 34.5461C164.512 34.6588 164.58 34.7588 164.716 34.8418C164.952 34.9886 165.293 35.0609 165.737 35.0609C166.161 35.0609 166.473 34.9864 166.675 34.8375C166.877 34.6886 166.977 34.5291 166.977 34.3589C166.977 34.2355 166.918 34.1483 166.797 34.0973C166.673 34.0462 166.433 34.0143 166.069 34.0058C165.539 33.9909 165.133 33.9654 164.848 33.925ZM165.497 30.7639C165.322 30.7639 165.178 30.8341 165.059 30.9724C164.942 31.1107 164.882 31.3234 164.882 31.6106C164.882 31.9828 164.963 32.27 165.122 32.4763C165.246 32.6316 165.401 32.7103 165.588 32.7103C165.767 32.7103 165.914 32.6423 166.029 32.5082C166.144 32.3742 166.201 32.1636 166.201 31.8765C166.201 31.5021 166.12 31.2085 165.958 30.9979C165.839 30.8405 165.686 30.7639 165.497 30.7639Z" fill="#231F20"/>
<path d="M170.727 29.3962V31.2895H171.78C172.052 31.2895 172.235 31.249 172.326 31.1661C172.45 31.0576 172.518 30.8661 172.531 30.5939H172.66V32.2616H172.531C172.497 32.0276 172.465 31.8787 172.433 31.8127C172.39 31.7298 172.32 31.666 172.224 31.6192C172.129 31.5724 171.98 31.549 171.78 31.549H170.727V33.1274C170.727 33.3401 170.735 33.4677 170.754 33.5145C170.774 33.5592 170.806 33.5975 170.852 33.623C170.899 33.6507 170.988 33.6634 171.12 33.6634H171.933C172.203 33.6634 172.401 33.6443 172.522 33.606C172.643 33.5677 172.763 33.4932 172.875 33.3826C173.022 33.2358 173.171 33.0167 173.324 32.7232H173.465L173.052 33.9229H169.363V33.7932H169.533C169.646 33.7932 169.755 33.7655 169.855 33.7123C169.929 33.6741 169.98 33.6187 170.008 33.5422C170.035 33.4656 170.048 33.3124 170.048 33.0806V29.9685C170.048 29.6643 170.018 29.4771 169.957 29.4069C169.872 29.3133 169.731 29.2665 169.533 29.2665H169.363V29.1367H173.052L173.105 30.1854H172.967C172.918 29.9344 172.863 29.76 172.803 29.6664C172.743 29.5728 172.654 29.5005 172.537 29.4515C172.443 29.4154 172.278 29.3984 172.039 29.3984H170.727V29.3962Z" fill="#231F20"/>
<path d="M176.141 33.5614C175.983 33.7252 175.828 33.8443 175.679 33.9166C175.528 33.989 175.367 34.0251 175.192 34.0251C174.839 34.0251 174.531 33.8783 174.267 33.5827C174.003 33.287 173.871 32.9083 173.871 32.4446C173.871 31.9809 174.018 31.5554 174.309 31.1725C174.601 30.7875 174.977 30.5961 175.435 30.5961C175.72 30.5961 175.954 30.6875 176.141 30.8683V30.2706C176.141 29.9005 176.132 29.6728 176.115 29.5899C176.098 29.5069 176.071 29.4474 176.032 29.4176C175.994 29.3878 175.947 29.3708 175.892 29.3708C175.83 29.3708 175.749 29.3899 175.647 29.4282L175.601 29.3048L176.564 28.9092H176.724V32.6488C176.724 33.0275 176.732 33.2593 176.751 33.3423C176.768 33.4252 176.796 33.4848 176.836 33.5167C176.877 33.5486 176.922 33.5656 176.973 33.5656C177.036 33.5656 177.121 33.5465 177.226 33.5061L177.264 33.6295L176.305 34.0294H176.143V33.5614H176.141ZM176.141 33.3146V31.6469C176.126 31.4874 176.083 31.3406 176.013 31.2087C175.943 31.0768 175.849 30.9768 175.732 30.9109C175.615 30.8449 175.503 30.8109 175.392 30.8109C175.186 30.8109 175.001 30.9045 174.837 31.0896C174.622 31.3342 174.516 31.6916 174.516 32.1638C174.516 32.6403 174.62 33.0041 174.826 33.2572C175.033 33.5103 175.264 33.638 175.518 33.638C175.735 33.6358 175.941 33.5273 176.141 33.3146Z" fill="#231F20"/>
<path d="M180.306 30.6895V32.6486C180.306 33.023 180.315 33.2527 180.334 33.3357C180.351 33.4187 180.381 33.4782 180.419 33.5101C180.457 33.5442 180.504 33.5591 180.555 33.5591C180.628 33.5591 180.711 33.5399 180.802 33.4995L180.851 33.6229L179.883 34.0228H179.724V33.3378C179.445 33.6399 179.234 33.8292 179.088 33.9058C178.941 33.9845 178.788 34.0228 178.626 34.0228C178.445 34.0228 178.288 33.9696 178.156 33.8654C178.022 33.7611 177.93 33.625 177.879 33.4612C177.828 33.2974 177.801 33.0634 177.801 32.7614V31.317C177.801 31.1638 177.784 31.0575 177.752 31C177.72 30.9426 177.671 30.8958 177.605 30.8639C177.541 30.832 177.424 30.8171 177.254 30.8192V30.6895H178.388V32.8549C178.388 33.157 178.441 33.3548 178.545 33.4484C178.649 33.542 178.777 33.5888 178.924 33.5888C179.026 33.5888 179.139 33.5569 179.268 33.4931C179.396 33.4293 179.549 33.308 179.726 33.1294V31.2957C179.726 31.1128 179.692 30.9873 179.626 30.9234C179.558 30.8596 179.419 30.8235 179.207 30.8192V30.6895H180.306Z" fill="#231F20"/>
<path d="M183.834 32.6954C183.747 33.1209 183.577 33.4485 183.322 33.6782C183.069 33.9079 182.786 34.0228 182.477 34.0228C182.109 34.0228 181.79 33.8696 181.518 33.5612C181.246 33.2528 181.109 32.8358 181.109 32.3104C181.109 31.802 181.26 31.3893 181.562 31.0702C181.865 30.7512 182.228 30.5938 182.652 30.5938C182.969 30.5938 183.23 30.6788 183.434 30.8469C183.639 31.0149 183.741 31.1894 183.741 31.3723C183.741 31.4616 183.711 31.534 183.654 31.5893C183.596 31.6446 183.515 31.6722 183.411 31.6722C183.273 31.6722 183.169 31.6276 183.096 31.5382C183.056 31.4893 183.03 31.3957 183.017 31.2553C183.005 31.117 182.958 31.0107 182.875 30.9384C182.792 30.8682 182.679 30.832 182.532 30.832C182.296 30.832 182.107 30.9192 181.965 31.0936C181.773 31.3234 181.679 31.6297 181.679 32.0083C181.679 32.3955 181.775 32.7358 181.965 33.0315C182.154 33.3272 182.409 33.474 182.732 33.474C182.962 33.474 183.171 33.3953 183.354 33.2379C183.483 33.1294 183.609 32.9337 183.732 32.6486L183.834 32.6954Z" fill="#231F20"/>
<path d="M186.126 33.4593C185.794 33.7167 185.586 33.8634 185.501 33.9039C185.373 33.9634 185.239 33.9932 185.094 33.9932C184.871 33.9932 184.686 33.9166 184.541 33.7635C184.397 33.6103 184.324 33.4082 184.324 33.1593C184.324 33.0019 184.36 32.8658 184.431 32.7488C184.526 32.5892 184.694 32.4382 184.935 32.2957C185.175 32.1532 185.571 31.983 186.126 31.7809V31.6533C186.126 31.3299 186.075 31.1087 185.973 30.9896C185.871 30.8705 185.722 30.8088 185.526 30.8088C185.377 30.8088 185.26 30.8492 185.173 30.9279C185.084 31.0087 185.039 31.1002 185.039 31.2023L185.045 31.4065C185.045 31.515 185.018 31.598 184.962 31.6575C184.907 31.7171 184.835 31.7469 184.745 31.7469C184.658 31.7469 184.588 31.7171 184.533 31.6554C184.477 31.5937 184.45 31.5108 184.45 31.4044C184.45 31.2023 184.554 31.0151 184.76 30.8471C184.967 30.6769 185.258 30.5918 185.632 30.5918C185.92 30.5918 186.156 30.6407 186.339 30.7364C186.477 30.8088 186.579 30.9236 186.645 31.0789C186.688 31.181 186.709 31.3874 186.709 31.7001V32.7977C186.709 33.1062 186.715 33.2955 186.726 33.3635C186.739 33.4337 186.758 33.4805 186.783 33.5039C186.809 33.5273 186.841 33.5401 186.877 33.5401C186.915 33.5401 186.947 33.5316 186.975 33.5146C187.024 33.4848 187.119 33.3976 187.26 33.2572V33.455C186.996 33.8081 186.745 33.9847 186.505 33.9847C186.39 33.9847 186.298 33.9443 186.23 33.8656C186.164 33.789 186.128 33.6507 186.126 33.4593ZM186.126 33.2295V31.9979C185.771 32.1383 185.541 32.2383 185.437 32.2978C185.252 32.4021 185.118 32.5105 185.037 32.6233C184.956 32.736 184.918 32.8594 184.918 32.9934C184.918 33.1636 184.969 33.304 185.069 33.4146C185.171 33.5273 185.286 33.5826 185.418 33.5826C185.598 33.5826 185.835 33.4635 186.126 33.2295Z" fill="#231F20"/>
<path d="M188.445 29.6252V30.6888H189.2V30.9355H188.445V33.033C188.445 33.2436 188.475 33.3839 188.534 33.4563C188.594 33.5286 188.67 33.5648 188.766 33.5648C188.845 33.5648 188.919 33.5414 188.992 33.4924C189.064 33.4435 189.121 33.3733 189.162 33.2797H189.3C189.217 33.5095 189.102 33.6839 188.951 33.8009C188.8 33.9179 188.645 33.9753 188.485 33.9753C188.377 33.9753 188.271 33.9455 188.168 33.886C188.064 33.8264 187.988 33.7392 187.939 33.6286C187.89 33.5158 187.864 33.3435 187.864 33.1117V30.9355H187.352V30.8185C187.481 30.7675 187.613 30.6781 187.749 30.5548C187.885 30.4314 188.005 30.2846 188.111 30.1144C188.164 30.0251 188.241 29.8613 188.336 29.623H188.445V29.6252Z" fill="#231F20"/>
<path d="M190.63 30.5935V33.1929C190.63 33.395 190.644 33.529 190.674 33.5971C190.704 33.663 190.747 33.7141 190.804 33.7481C190.861 33.7822 190.968 33.797 191.121 33.797V33.9247H189.551V33.797C189.708 33.797 189.815 33.7822 189.868 33.7503C189.921 33.7205 189.966 33.6694 189.998 33.5992C190.03 33.529 190.045 33.3929 190.045 33.1929V31.9464C190.045 31.5954 190.034 31.3678 190.013 31.2657C189.996 31.1912 189.97 31.138 189.934 31.1083C189.898 31.0785 189.851 31.0636 189.789 31.0636C189.723 31.0636 189.643 31.0806 189.549 31.1168L189.5 30.9891L190.474 30.5935H190.63ZM190.336 28.9023C190.434 28.9023 190.519 28.9364 190.589 29.0066C190.659 29.0768 190.693 29.1597 190.693 29.2597C190.693 29.3597 190.659 29.4427 190.589 29.515C190.519 29.5873 190.436 29.6213 190.336 29.6213C190.236 29.6213 190.153 29.5852 190.081 29.515C190.011 29.4448 189.974 29.3597 189.974 29.2597C189.974 29.1597 190.008 29.0768 190.079 29.0066C190.151 28.9364 190.236 28.9023 190.336 28.9023Z" fill="#231F20"/>
<path d="M193.101 30.5938C193.59 30.5938 193.984 30.7788 194.279 31.1511C194.53 31.468 194.658 31.8339 194.658 32.2466C194.658 32.5359 194.588 32.8294 194.449 33.1251C194.311 33.4208 194.12 33.6463 193.875 33.7952C193.63 33.9462 193.36 34.0207 193.06 34.0207C192.573 34.0207 192.186 33.8271 191.899 33.4378C191.656 33.1102 191.535 32.7444 191.535 32.3359C191.535 32.0402 191.607 31.7446 191.756 31.451C191.903 31.1575 192.097 30.9405 192.337 30.8022C192.58 30.6639 192.833 30.5938 193.101 30.5938ZM192.992 30.8235C192.867 30.8235 192.741 30.8596 192.616 30.9341C192.49 31.0086 192.388 31.1383 192.309 31.3234C192.231 31.5084 192.192 31.7488 192.192 32.0402C192.192 32.5104 192.286 32.9167 192.473 33.2591C192.66 33.5995 192.907 33.7718 193.214 33.7718C193.441 33.7718 193.63 33.6782 193.779 33.4889C193.928 33.2996 194.003 32.9762 194.003 32.5167C194.003 31.9424 193.879 31.4893 193.633 31.1596C193.465 30.9362 193.252 30.8235 192.992 30.8235Z" fill="#231F20"/>
<path d="M196.078 31.2787C196.457 30.8214 196.819 30.5938 197.161 30.5938C197.338 30.5938 197.489 30.6384 197.616 30.7256C197.744 30.815 197.844 30.9596 197.921 31.1617C197.972 31.3021 197.999 31.5191 197.999 31.8105V33.1911C197.999 33.3953 198.016 33.5357 198.048 33.608C198.074 33.6676 198.116 33.7122 198.174 33.7463C198.231 33.7803 198.338 33.7952 198.493 33.7952V33.9228H196.893V33.7952H196.961C197.112 33.7952 197.216 33.7718 197.278 33.7271C197.338 33.6825 197.38 33.6144 197.404 33.525C197.412 33.4889 197.419 33.3783 197.419 33.1932V31.8679C197.419 31.5744 197.38 31.3595 197.304 31.2277C197.227 31.0936 197.097 31.0277 196.917 31.0277C196.636 31.0277 196.357 31.1809 196.081 31.4872V33.1932C196.081 33.4123 196.093 33.5484 196.119 33.5995C196.151 33.6676 196.198 33.7186 196.255 33.7505C196.312 33.7824 196.429 33.7973 196.606 33.7973V33.925H195.006V33.7973H195.077C195.24 33.7973 195.353 33.7548 195.41 33.6718C195.468 33.5889 195.498 33.4293 195.498 33.1932V31.9934C195.498 31.6042 195.489 31.3681 195.47 31.283C195.451 31.1979 195.425 31.1404 195.389 31.1107C195.353 31.0809 195.304 31.0639 195.242 31.0639C195.176 31.0639 195.098 31.0809 195.006 31.117L194.953 30.9894L195.927 30.5938H196.078V31.2787Z" fill="#231F20"/>
</svg>
