<svg width="130" height="50" viewBox="0 0 130 50" fill="none" xmlns="http://www.w3.org/2000/svg">
<path d="M129.161 8.92285H0V50.0004H129.161V8.92285Z" fill="#753282"/>
<path d="M129.161 47.1768H0V50H129.161V47.1768Z" fill="#7A98A2"/>
<path d="M129.161 8.92285H0V11.746H129.161V8.92285Z" fill="#7A98A2"/>
<path d="M0 47.1772V11.7461H129.161" fill="#641878"/>
<path d="M129.161 47.1772H0V11.7461" fill="#590368"/>
<path d="M28.7283 40.9812H24.3905L16.9649 31.5147C16.6944 31.1706 16.5062 30.8765 16.4062 30.6295H16.3385V40.9812H13.0742V19.9131H16.3385V29.8413H16.4062C16.5326 29.5884 16.7238 29.2914 16.9767 28.9561L24.117 19.9131H28.0872L19.6558 30.006L28.7283 40.9812Z" fill="white"/>
<path d="M31.241 26.9446C32.7731 26.0388 34.5464 25.583 36.558 25.583C40.3575 25.583 42.2573 27.5475 42.2573 31.4735V40.9812H39.1577V38.6962H39.09C38.0666 40.4548 36.5433 41.3341 34.52 41.3341C33.0407 41.3341 31.8791 40.9341 31.0322 40.1372C30.1852 39.3402 29.7617 38.2639 29.7617 36.914C29.7617 34.0849 31.4439 32.4351 34.8082 31.9646L39.1753 31.3676C39.1753 29.1267 38.1901 28.0092 36.2227 28.0092C34.4171 28.0092 32.7584 28.5944 31.2439 29.7649V26.9446H31.241ZM35.8522 33.9908C34.7641 34.1349 33.9965 34.4114 33.5466 34.8202C33.0966 35.2289 32.8731 35.8259 32.8731 36.6141C32.8731 37.2757 33.1143 37.8169 33.5936 38.2403C34.073 38.6609 34.6906 38.8726 35.4434 38.8726C36.5139 38.8726 37.402 38.4933 38.1078 37.7375C38.8136 36.9817 39.1694 36.0259 39.1694 34.8731V33.5409L35.8522 33.9908Z" fill="white"/>
<path d="M55.0324 28.9852C54.5618 28.6764 53.9354 28.5235 53.1561 28.5235C52.1239 28.5235 51.2857 28.9764 50.6476 29.8851C50.0094 30.7909 49.6889 31.9936 49.6889 33.4905V40.9838H46.4922V25.9385H49.6889V28.9293H49.7565C50.5005 26.7619 51.8151 25.6797 53.7002 25.6797C54.2619 25.6797 54.7059 25.7444 55.0324 25.8708V28.9852Z" fill="white"/>
<path d="M57.1406 20.7687C57.1406 20.2335 57.323 19.7924 57.6906 19.4424C58.0582 19.0925 58.5228 18.9189 59.0845 18.9189C59.6374 18.9189 60.105 19.0925 60.4843 19.4424C60.8637 19.7924 61.0549 20.2335 61.0549 20.7687C61.0549 21.304 60.8637 21.7451 60.4843 22.095C60.105 22.445 59.6374 22.6185 59.0845 22.6185C58.5316 22.6185 58.0699 22.4421 57.6964 22.0892C57.3259 21.7363 57.1406 21.2951 57.1406 20.7687ZM57.4524 40.9811V25.9387H60.649V40.9811H57.4524Z" fill="white"/>
<path d="M64.4453 37.4845C65.851 38.4374 67.3097 38.9138 68.8242 38.9138C70.8181 38.9138 71.818 38.2962 71.818 37.064C71.818 36.5464 71.6092 36.1229 71.1916 35.7936C70.774 35.4612 69.8359 35.026 68.3772 34.4819C66.845 33.8938 65.8099 33.2644 65.2776 32.5969C64.7423 31.9293 64.4747 31.0941 64.4747 30.0883C64.4747 28.7003 65.0541 27.6033 66.2157 26.7976C67.3773 25.9918 68.8124 25.5859 70.527 25.5859C71.8415 25.5859 73.0708 25.8036 74.2118 26.2388V29.0679C73.0708 28.3621 71.7915 28.0062 70.377 28.0062C69.5712 28.0062 68.9183 28.1739 68.4184 28.5091C67.9184 28.8444 67.6714 29.2855 67.6714 29.8296C67.6714 30.3648 67.8537 30.7853 68.2213 31.0941C68.5889 31.4029 69.433 31.8117 70.7593 32.3175C72.3914 32.9174 73.5031 33.5526 74.0971 34.229C74.6912 34.9054 74.9882 35.7465 74.9882 36.7523C74.9882 38.1756 74.4088 39.2961 73.2472 40.1107C72.0856 40.9283 70.5622 41.3341 68.6772 41.3341C67.0627 41.3341 65.654 41.0518 64.4483 40.4901V37.4845H64.4453Z" fill="white"/>
<path d="M100.557 40.9812H97.3603V32.3587C97.3603 30.8706 97.1192 29.7972 96.6398 29.1355C96.1604 28.4738 95.3929 28.1415 94.3401 28.1415C93.4343 28.1415 92.652 28.5591 91.9992 29.3914C91.3463 30.2266 91.0199 31.247 91.0199 32.4528V40.9812H87.8379V32.141C87.8379 29.4767 86.8174 28.1415 84.7765 28.1415C83.8325 28.1415 83.0502 28.5444 82.4297 29.3531C81.8092 30.1589 81.4975 31.2029 81.4975 32.4822V40.9841H78.3008V25.9388H81.4975V28.3062H81.5651C82.6444 26.4917 84.2207 25.5859 86.2969 25.5859C88.4084 25.5859 89.8377 26.5888 90.5817 28.5915C91.7051 26.5888 93.3843 25.5859 95.6134 25.5859C98.9042 25.5859 100.551 27.621 100.551 31.694V40.9812H100.557Z" fill="white"/>
<path d="M105.151 26.9446C106.683 26.0388 108.457 25.583 110.468 25.583C114.268 25.583 116.167 27.5475 116.167 31.4735V40.9812H113.068V38.6962H113C111.977 40.4548 110.453 41.3341 108.43 41.3341C106.951 41.3341 105.789 40.9341 104.942 40.1372C104.095 39.3402 103.672 38.2639 103.672 36.914C103.672 34.0849 105.354 32.4351 108.718 31.9646L113.085 31.3676C113.085 29.1267 112.1 28.0092 110.133 28.0092C108.327 28.0092 106.669 28.5944 105.154 29.7649V26.9446H105.151ZM109.762 33.9908C108.674 34.1349 107.907 34.4114 107.457 34.8202C107.007 35.2289 106.783 35.8259 106.783 36.6141C106.783 37.2757 107.024 37.8169 107.504 38.2403C107.983 38.6609 108.601 38.8726 109.354 38.8726C110.424 38.8726 111.312 38.4933 112.018 37.7375C112.727 36.9817 113.08 36.0259 113.08 34.8731V33.5409L109.762 33.9908Z" fill="white"/>
<path d="M57.0479 17.1865H61.0709L63.6648 19.7803L59.2006 24.2445L54.7188 19.7627L57.0479 17.1865Z" fill="#CF58E7"/>
<path d="M57.2773 19.7861L59.2006 24.1739L61.071 19.7861" stroke="white" stroke-width="0.25" stroke-miterlimit="10" stroke-linecap="round"/>
<path d="M58.3684 17.2129L57.2773 19.7861" stroke="white" stroke-width="0.25" stroke-miterlimit="10" stroke-linecap="round"/>
<path d="M61.0697 19.7861L59.9492 17.2129" stroke="white" stroke-width="0.25" stroke-miterlimit="10" stroke-linecap="round"/>
<path d="M63.6648 19.7803H54.7188V19.7832H63.6648V19.7803Z" fill="white"/>
<path d="M63.6648 19.7803H54.7188V19.7832H63.6648V19.7803Z" fill="white"/>
<path d="M59.711 5.78223L58.6523 8.09372" stroke="white" stroke-width="0.25" stroke-miterlimit="10"/>
<path d="M61.3203 5.74414L62.2055 8.12915" stroke="white" stroke-width="0.25" stroke-miterlimit="10"/>
<path d="M4.27193 3.76425L5.0189 3.95246C4.86303 4.5671 4.58071 5.03469 4.17488 5.35524C3.76905 5.67579 3.27204 5.83754 2.68388 5.83754C2.07513 5.83754 1.58107 5.71402 1.19876 5.46699C0.816452 5.21996 0.52825 4.86118 0.328274 4.39065C0.128297 3.92012 0.03125 3.41723 0.03125 2.87612C0.03125 2.28795 0.143002 1.77625 0.369445 1.33807C0.595889 0.899883 0.910558 0.57051 1.32522 0.344066C1.73987 0.117622 2.1957 0.00292969 2.6927 0.00292969C3.25734 0.00292969 3.73376 0.14703 4.11606 0.435232C4.50131 0.723433 4.76893 1.12633 4.92185 1.64685L4.18664 1.82036C4.05725 1.40865 3.86609 1.11162 3.61612 0.92341C3.36909 0.735196 3.05442 0.644031 2.678 0.644031C2.24275 0.644031 1.88103 0.74696 1.58989 0.955759C1.29875 1.16456 1.09583 1.441 0.975257 1.79095C0.854683 2.14091 0.798807 2.50264 0.798807 2.87612C0.798807 3.35548 0.869387 3.77602 1.00761 4.13186C1.14582 4.4877 1.36639 4.75825 1.66047 4.9347C1.95455 5.11115 2.2751 5.19938 2.61918 5.19938C3.03678 5.19938 3.39262 5.0788 3.68082 4.83766C3.97196 4.59945 4.169 4.24067 4.27193 3.76425Z" fill="#460A5E"/>
<path d="M7.11251 5.74306V0.767178H5.25391V0.0996094H9.72691V0.767178H7.85948V5.746H7.11251V5.74306Z" fill="#460A5E"/>
<path d="M9.91406 2.99671C9.91406 2.05858 10.164 1.32631 10.6699 0.796965C11.1727 0.264675 11.8227 0 12.6167 0C13.1372 0 13.6077 0.123515 14.0253 0.373485C14.4429 0.623456 14.7635 0.970474 14.9811 1.41454C15.2017 1.8586 15.3105 2.36443 15.3105 2.92907C15.3105 3.50253 15.1958 4.01423 14.9635 4.46418C14.7311 4.91707 14.4047 5.2582 13.9812 5.49053C13.5578 5.72286 13.1019 5.83755 12.6108 5.83755C12.0785 5.83755 11.605 5.70815 11.1874 5.4523C10.7698 5.19645 10.4522 4.84649 10.2376 4.40242C10.0229 3.9613 9.91406 3.49077 9.91406 2.99671ZM10.6846 3.00847C10.6846 3.6878 10.8669 4.22303 11.2345 4.6171C11.5992 5.00823 12.0579 5.20527 12.6108 5.20527C13.1725 5.20527 13.6342 5.00823 13.9989 4.61122C14.3606 4.21715 14.5429 3.65545 14.5429 2.92907C14.5429 2.4703 14.4665 2.0674 14.3106 1.72627C14.1547 1.38219 13.9283 1.11752 13.6283 0.929302C13.3284 0.741089 12.9931 0.646983 12.6226 0.646983C12.0932 0.646983 11.6374 0.829314 11.258 1.19104C10.8757 1.54982 10.6846 2.15857 10.6846 3.00847Z" fill="#460A5E"/>
<path d="M16.25 5.74306V0.0996094H17.3734L18.7085 4.0962C18.832 4.46968 18.9203 4.74612 18.9791 4.93139C19.0438 4.72554 19.1438 4.42557 19.2791 4.02562L20.6318 0.0996094H21.6376V5.74306H20.9171V1.02009L19.2761 5.74306H18.6027L16.9705 0.937746V5.74306H16.25Z" fill="#460A5E"/>
<path d="M22.2227 5.74306L24.39 0.0996094H25.1958L27.5073 5.74306H26.6574L25.9987 4.03444H23.6372L23.0167 5.74306H22.2227ZM23.8519 3.42569H25.7664L25.1782 1.86117C24.9988 1.38475 24.8665 0.996563 24.7782 0.690716C24.7047 1.05538 24.6018 1.41416 24.4724 1.77L23.8519 3.42569Z" fill="#460A5E"/>
<path d="M28.9211 5.74306V0.767178H27.0625V0.0996094H31.5355V0.767178H29.6681V5.746H28.9211V5.74306Z" fill="#460A5E"/>
<path d="M31.7227 2.99669C31.7227 2.05857 31.9726 1.3263 32.4784 0.796954C32.9813 0.267604 33.6313 0.00292969 34.4282 0.00292969C34.9487 0.00292969 35.4193 0.126445 35.8369 0.376415C36.2545 0.626386 36.575 0.973404 36.7926 1.41747C37.0132 1.86153 37.122 2.36736 37.122 2.932C37.122 3.50546 37.0073 4.01716 36.775 4.46711C36.5427 4.92 36.2162 5.26113 35.7928 5.49346C35.3693 5.72579 34.9135 5.84048 34.4223 5.84048C33.89 5.84048 33.4166 5.71108 32.999 5.45523C32.5814 5.19938 32.2638 4.84942 32.0491 4.40535C31.8315 3.96129 31.7227 3.49075 31.7227 2.99669ZM32.4932 3.00846C32.4932 3.68779 32.6755 4.22302 33.0431 4.61709C33.4078 5.00822 33.8665 5.20526 34.4194 5.20526C34.9811 5.20526 35.4428 5.00822 35.8075 4.61121C36.1692 4.21714 36.3515 3.65544 36.3515 2.92906C36.3515 2.47029 36.2751 2.06739 36.1192 1.72626C35.9633 1.38218 35.7369 1.1175 35.4369 0.929291C35.137 0.741078 34.8017 0.646972 34.4312 0.646972C33.9018 0.646972 33.446 0.829303 33.0666 1.19103C32.6843 1.54981 32.4932 2.15856 32.4932 3.00846Z" fill="#460A5E"/>
<path d="M38.406 0.0996094H41.9408V5.74306H41.1939V0.767178H39.1529V3.67272C39.1529 4.26382 39.1265 4.69613 39.0706 4.96962C39.0147 5.24312 38.9 5.4578 38.7206 5.61073C38.5442 5.76365 38.3177 5.84011 38.0472 5.84011C37.8825 5.84011 37.6855 5.8107 37.4531 5.74894L37.5796 5.08726C37.7031 5.13725 37.809 5.16372 37.8943 5.16372C38.0648 5.16372 38.1913 5.09902 38.2766 4.97257C38.3618 4.84611 38.403 4.54614 38.403 4.07267V0.0996094H38.406Z" fill="#460A5E"/>
<path d="M42.9414 2.99669C42.9414 2.05857 43.1914 1.3263 43.6972 0.796954C44.2001 0.267604 44.85 0.00292969 45.647 0.00292969C46.1675 0.00292969 46.638 0.126445 47.0556 0.376415C47.4732 0.626386 47.7938 0.973404 48.0114 1.41747C48.232 1.86153 48.3408 2.36736 48.3408 2.932C48.3408 3.50546 48.2261 4.01716 47.9938 4.46711C47.7614 4.92 47.435 5.26113 47.0115 5.49346C46.588 5.72579 46.1322 5.84048 45.6411 5.84048C45.1088 5.84048 44.6353 5.71108 44.2177 5.45523C43.8001 5.19938 43.4825 4.84942 43.2678 4.40535C43.0502 3.96129 42.9414 3.49075 42.9414 2.99669ZM43.7119 3.00846C43.7119 3.68779 43.8942 4.22302 44.2618 4.61709C44.6265 5.00822 45.0853 5.20526 45.6381 5.20526C46.1998 5.20526 46.6616 5.00822 47.0262 4.61121C47.3879 4.21714 47.5703 3.65544 47.5703 2.92906C47.5703 2.47029 47.4938 2.06739 47.338 1.72626C47.1821 1.38218 46.9556 1.1175 46.6557 0.929291C46.3557 0.741078 46.0205 0.646972 45.6499 0.646972C45.1206 0.646972 44.6647 0.829303 44.2854 1.19103C43.9031 1.54981 43.7119 2.15856 43.7119 3.00846Z" fill="#460A5E"/>
<path d="M49.3125 0.0996094H52.9621V0.767178H50.0595V5.746H49.3125V0.0996094Z" fill="#460A5E"/>
<path d="M53.585 0.0996094H54.2614V4.56967L57.264 0.0996094H58.0139V5.74306H57.3375V1.28476L54.329 5.74306H53.582V0.0996094H53.585Z" fill="#460A5E"/>
<path d="M63.2673 5.74306H62.5203V3.4698C61.8498 3.71977 61.2646 3.84329 60.7617 3.84329C60.3676 3.84329 60.0235 3.75212 59.7206 3.56685C59.4207 3.38452 59.2207 3.14925 59.1178 2.86693C59.0148 2.58461 58.9648 2.21407 58.9648 1.75824V0.0996094H59.7118V1.6906C59.7118 2.30817 59.8236 2.71107 60.05 2.90516C60.2735 3.09926 60.5441 3.1963 60.8617 3.1963C61.3881 3.1963 61.941 3.07867 62.5203 2.84634V0.0996094H63.2673V5.74306Z" fill="#460A5E"/>
<path d="M64.5117 5.74306V0.0996094H68.5936V0.767178H65.2587V2.49639H68.3819V3.15807H65.2587V5.07843H68.723V5.74306H64.5117Z" fill="#460A5E"/>
<path d="M73.7836 3.76426L74.5306 3.95248C74.3748 4.56711 74.0924 5.0347 73.6866 5.35525C73.2808 5.6758 72.7838 5.83755 72.1956 5.83755C71.5868 5.83755 71.0928 5.71403 70.7105 5.467C70.3282 5.21997 70.04 4.86119 69.84 4.39066C69.64 3.92013 69.543 3.41724 69.543 2.87613C69.543 2.28797 69.6547 1.77626 69.8812 1.33808C70.1076 0.899894 70.4252 0.56758 70.8399 0.341136C71.2545 0.114692 71.7104 0 72.2074 0C72.772 0 73.2484 0.144101 73.6307 0.432302C74.016 0.720503 74.2836 1.1234 74.4365 1.64392L73.7013 1.81743C73.569 1.40572 73.3808 1.10869 73.1308 0.92048C72.8808 0.732267 72.5691 0.63816 72.1927 0.63816C71.7574 0.63816 71.3957 0.741089 71.1045 0.949888C70.8134 1.15869 70.6075 1.43807 70.4899 1.78802C70.3723 2.13798 70.3135 2.49971 70.3135 2.87319C70.3135 3.35255 70.384 3.77309 70.5223 4.12893C70.6605 4.48477 70.881 4.75532 71.1751 4.93177C71.4692 5.10822 71.7898 5.19645 72.1338 5.19645C72.5514 5.19645 72.9073 5.07587 73.1955 4.83473C73.4837 4.59946 73.6807 4.24068 73.7836 3.76426Z" fill="#460A5E"/>
<path d="M75.46 0.0996094H76.2069V2.57285C76.5481 2.57285 76.7892 2.50815 76.9274 2.37581C77.0657 2.24347 77.2421 1.92587 77.4597 1.42298C77.6156 1.05244 77.745 0.790704 77.8479 0.640722C77.9479 0.487799 78.095 0.358402 78.2802 0.255473C78.4684 0.152544 78.6743 0.0996094 78.9007 0.0996094C79.189 0.0996094 79.3389 0.10255 79.3536 0.108432V0.755415C79.3272 0.755415 79.2772 0.755415 79.2037 0.752474C79.1213 0.749533 79.0713 0.749533 79.0537 0.749533C78.8155 0.749533 78.639 0.80835 78.5214 0.923042C78.4037 1.03773 78.2685 1.28476 78.1155 1.66119C77.9244 2.1376 77.7656 2.44051 77.6333 2.56403C77.5009 2.68754 77.345 2.78753 77.1627 2.86105C77.5274 2.96104 77.8862 3.29629 78.242 3.86975L79.4036 5.74894H78.4743L77.5303 4.21677C77.2715 3.79329 77.0539 3.50215 76.8804 3.34335C76.7069 3.18454 76.4804 3.10808 76.204 3.10808V5.74894H75.457V0.0996094H75.46Z" fill="#460A5E"/>
<path d="M79.4258 5.74306L81.5932 0.0996094H82.399L84.7105 5.74306H83.8605L83.2018 4.03444H80.8403L80.2198 5.74306H79.4258ZM81.055 3.42569H82.9695L82.3813 1.86117C82.2019 1.38475 82.0666 0.996563 81.9814 0.690716C81.9078 1.05244 81.8079 1.41122 81.6755 1.77L81.055 3.42569Z" fill="#460A5E"/>
<path d="M89.0228 5.74307V3.23749H88.1553C87.9642 3.23749 87.823 3.24631 87.7406 3.26395C87.626 3.29336 87.5113 3.34336 87.3995 3.41394C87.2878 3.48452 87.1613 3.61097 87.0201 3.79036C86.879 3.96975 86.6996 4.22855 86.482 4.56674L85.735 5.74013H84.7969L85.7791 4.20502C85.9732 3.90506 86.182 3.65508 86.3996 3.45511C86.5026 3.36394 86.6525 3.26984 86.8496 3.17279C86.3085 3.09927 85.9085 2.92282 85.6497 2.64932C85.3909 2.37582 85.2615 2.03763 85.2615 1.63768C85.2615 1.32595 85.3409 1.04363 85.4968 0.787775C85.6527 0.531923 85.8615 0.352532 86.1232 0.249603C86.3849 0.149615 86.7672 0.0966797 87.2701 0.0966797H89.7728V5.74013H89.0228V5.74307ZM89.0228 0.723077H87.2378C86.8202 0.723077 86.5143 0.808361 86.3202 0.98187C86.1261 1.15244 86.0291 1.373 86.0291 1.64062C86.0291 1.82295 86.0791 1.99057 86.1791 2.14644C86.2791 2.3023 86.4261 2.41405 86.6172 2.48463C86.8084 2.55521 87.076 2.5905 87.4172 2.5905H89.0228V0.723077Z" fill="#460A5E"/>
<path d="M93.1983 0.0996094H93.9452V2.57285C94.2864 2.57285 94.5275 2.50815 94.6657 2.37581C94.8039 2.24347 94.9804 1.92587 95.198 1.42298C95.3539 1.05244 95.4833 0.790704 95.5862 0.640722C95.6862 0.487799 95.8332 0.358402 96.0185 0.255473C96.2067 0.152544 96.4126 0.0996094 96.639 0.0996094C96.9272 0.0996094 97.0772 0.10255 97.0919 0.108432V0.755415C97.0654 0.755415 97.0155 0.755415 96.9419 0.752474C96.8596 0.749533 96.8096 0.749533 96.792 0.749533C96.5537 0.749533 96.3773 0.80835 96.2597 0.923042C96.142 1.03773 96.0067 1.28476 95.8538 1.66119C95.6627 2.1376 95.5039 2.44051 95.3715 2.56403C95.2392 2.68754 95.0833 2.78753 94.901 2.86105C95.2657 2.96104 95.6244 3.29629 95.9803 3.86975L97.1419 5.74894H96.2126L95.2686 4.21677C95.0098 3.79329 94.7922 3.50215 94.6187 3.34335C94.4452 3.18454 94.2187 3.10808 93.9423 3.10808V5.74894H93.1953V0.0996094H93.1983Z" fill="#460A5E"/>
<path d="M98.195 0.0996094H101.73V5.74306H100.983V0.767178H98.942V3.67272C98.942 4.26382 98.9155 4.69613 98.8596 4.96962C98.8038 5.24312 98.6891 5.4578 98.5097 5.61073C98.3332 5.76365 98.1068 5.84011 97.8362 5.84011C97.6716 5.84011 97.4745 5.8107 97.2422 5.74894L97.3686 5.08726C97.4922 5.13725 97.598 5.16372 97.6833 5.16372C97.8539 5.16372 97.9803 5.09902 98.0656 4.97257C98.1509 4.84611 98.1921 4.54614 98.1921 4.07267V0.0996094H98.195Z" fill="#460A5E"/>
<path d="M102.968 0.0996094H103.644V4.56967L106.647 0.0996094H107.397V5.74306H106.72V1.28476L103.712 5.74306H102.965V0.0996094H102.968Z" fill="#460A5E"/>
<path d="M108.648 5.74306V0.0996094H109.395V2.41698H112.33V0.0996094H113.077V5.74306H112.33V3.08161H109.395V5.74306H108.648Z" fill="#460A5E"/>
<path d="M114.331 0.0996094H115.007V4.56967L118.01 0.0996094H118.76V5.74306H118.084V1.28476L115.075 5.74306H114.328V0.0996094H114.331Z" fill="#460A5E"/>
<path d="M119.999 0.0996094H120.746V2.57285C121.087 2.57285 121.328 2.50815 121.467 2.37581C121.605 2.24347 121.781 1.92587 121.999 1.42298C122.155 1.05244 122.284 0.790704 122.387 0.640722C122.487 0.487799 122.634 0.358402 122.819 0.255473C123.008 0.152544 123.213 0.0996094 123.44 0.0996094C123.728 0.0996094 123.878 0.10255 123.893 0.108432V0.755415C123.866 0.755415 123.816 0.755415 123.743 0.752474C123.66 0.749533 123.61 0.749533 123.593 0.749533C123.355 0.749533 123.178 0.80835 123.06 0.923042C122.943 1.03773 122.808 1.28476 122.655 1.66119C122.463 2.1376 122.305 2.44051 122.172 2.56403C122.04 2.68754 121.884 2.78753 121.702 2.86105C122.066 2.96104 122.425 3.29629 122.781 3.86975L123.943 5.74894H123.013L122.069 4.21677C121.811 3.79329 121.593 3.50215 121.419 3.34335C121.246 3.18454 121.02 3.10808 120.743 3.10808V5.74894H119.996V0.0996094H119.999Z" fill="#460A5E"/>
<path d="M123.961 5.74306L126.128 0.0996094H126.934L129.246 5.74306H128.396L127.737 4.03444H125.375L124.755 5.74306H123.961ZM125.59 3.42569H127.505L126.916 1.86117C126.737 1.38475 126.602 0.996563 126.517 0.690716C126.443 1.05244 126.343 1.41122 126.211 1.77L125.59 3.42569Z" fill="#460A5E"/>
</svg>
