<svg width="220" height="37" viewBox="0 0 220 37" fill="none" xmlns="http://www.w3.org/2000/svg">
<g clip-path="url(#clip0)">
<path d="M84.2069 18.7393L77.8276 9.80829V23.3643H71.7672V0.717773H77.9073L85.8814 12.36L93.8556 0.717773H99.9957V23.4441H93.8556V9.88803L87.4763 18.8191L84.2069 18.7393Z" fill="#034EA2"/>
<path d="M105.179 23.4441V22.0885L115.306 0.717773H121.446L131.573 22.0885V23.4441H125.991L123.998 19.0583H112.595L110.681 23.4441H105.179ZM121.765 13.9548L118.336 6.14019L114.907 13.8751L121.765 13.9548Z" fill="#034EA2"/>
<path d="M142.897 0.717773V9.56907H154.778V0.717773H160.918V23.4441H154.778V14.9117H142.897V23.3643H136.756V0.717773H142.897Z" fill="#034EA2"/>
<path d="M166.261 23.4441V22.0885L176.388 0.717773H182.528L192.655 22.0885V23.4441H187.153L185.159 19.0583H173.756L171.843 23.4441H166.261ZM182.847 13.9548L179.418 6.14019L175.989 13.8751L182.847 13.9548Z" fill="#034EA2"/>
<path d="M196.483 11.1638C196.483 5.02371 199.194 0 208.763 0H209.959C212.909 0 215.86 0.398707 218.731 1.11638V6.61854C215.86 5.82112 212.83 5.42241 209.799 5.34267C202.703 5.34267 202.702 8.13362 202.702 11.9612C202.702 15.7888 202.703 18.6595 209.799 18.6595C212.83 18.6595 215.78 18.181 218.731 17.3836V22.9655C215.86 23.6832 212.909 24.0819 209.959 24.0819H208.763C199.194 24.0819 196.483 19.0582 196.483 12.9181V11.1638Z" fill="#034EA2"/>
<path d="M77.3491 30.3815V35.2457H76.5517V31.7371L74.7176 34.6875H74.3189L72.5646 31.6574V35.166H71.7672V30.3018H72.6444L74.5582 33.5712L76.472 30.3018H77.3491V30.3815Z" fill="#034EA2"/>
<path d="M84.2866 33.093H80.3793C80.459 33.4917 80.6185 33.8905 80.9375 34.1297C81.2564 34.3689 81.7349 34.5284 82.1336 34.5284C82.6918 34.5284 83.1702 34.3689 83.5689 33.9702L84.0474 34.5284C83.8082 34.7676 83.5689 35.0068 83.25 35.0866C82.4526 35.4055 81.5754 35.3258 80.778 35.0068C80.3793 34.8474 80.0603 34.5284 79.8211 34.1297C79.5819 33.731 79.5021 33.3323 79.5021 32.8538C79.5021 32.3754 79.5819 31.9767 79.8211 31.578C80.0603 31.1792 80.2995 30.94 80.6983 30.7008C81.097 30.4616 81.4957 30.3818 81.9741 30.3818C82.3728 30.3818 82.8513 30.4616 83.25 30.7008C83.5689 30.94 83.8879 31.1792 84.1271 31.578C84.3664 31.9767 84.4461 32.4551 84.4461 32.8538C84.2866 32.9336 84.2866 33.0133 84.2866 33.093ZM80.8577 31.4982C80.5388 31.7374 80.3793 32.1361 80.3793 32.5349H83.4892C83.4892 32.1361 83.25 31.8172 83.0108 31.4982C82.3728 30.94 81.4957 30.94 80.8577 31.4982Z" fill="#034EA2"/>
<path d="M90.8253 33.1721H89.8684V35.2454H88.9913V33.1721H88.0344L86.6788 35.2454H85.6422L87.3167 32.7734L85.8016 30.4609H86.7585L88.0344 32.5342H88.9913V30.5407H89.8684V32.614H90.8253L92.1012 30.5407H93.0581L91.543 32.8532L93.2176 35.3252H92.1809L90.8253 33.1721Z" fill="#034EA2"/>
<path d="M99.9957 34.448V36.3618H99.1983V35.2454H95.1315V36.3618H94.3341V34.448H94.5733C94.8923 34.448 95.1315 34.2088 95.2113 33.8101C95.3707 33.2519 95.4505 32.614 95.4505 32.0558L95.5302 30.4609H99.2781V34.5277L99.9957 34.448ZM96.0884 33.5708C96.0884 33.8898 95.9289 34.2088 95.6897 34.448H98.4009V31.0989H96.3276L96.2479 32.0558C96.2479 32.5342 96.1682 33.0924 96.0884 33.5708Z" fill="#034EA2"/>
<path d="M106.375 30.3818L104.062 35.7245C103.903 36.1232 103.664 36.5219 103.345 36.7611C103.026 37.0004 102.707 37.0801 102.308 37.0801C102.069 37.0801 101.83 37.0801 101.59 37.0004C101.351 36.9206 101.192 36.8409 101.032 36.6814L101.431 36.0435C101.67 36.2827 101.989 36.4422 102.308 36.4422C102.468 36.4422 102.707 36.3624 102.866 36.2827C103.026 36.1232 103.185 35.9637 103.265 35.7245L103.425 35.4055L101.272 30.5413H102.149L103.823 34.3689L105.498 30.5413H106.375V30.3818Z" fill="#034EA2"/>
<path d="M108.209 30.3818H109.086V32.4551H111.797V30.3818H112.675V35.2461H111.797V33.2525H109.086V35.2461H108.209V30.3818Z" fill="#034EA2"/>
<path d="M118.575 30.7802C118.974 31.1789 119.134 31.7371 119.134 32.2156V35.166H118.336V34.528C118.177 34.7673 117.938 34.9268 117.698 35.0862C117.379 35.2457 117.06 35.2457 116.741 35.2457C116.263 35.2457 115.784 35.166 115.466 34.847C114.907 34.3686 114.828 33.4914 115.306 32.9332C115.386 32.8535 115.386 32.8535 115.466 32.7737C115.864 32.4548 116.422 32.375 116.981 32.375H118.336V32.2156C118.336 31.8966 118.256 31.5776 118.017 31.3384C117.778 31.0992 117.379 31.0194 117.06 31.0194C116.741 31.0194 116.502 31.0992 116.183 31.1789C115.944 31.2587 115.705 31.4181 115.466 31.5776L115.067 30.9397C115.306 30.7005 115.625 30.541 115.944 30.4612C116.263 30.3815 116.662 30.3018 117.06 30.3018C117.619 30.3018 118.177 30.4612 118.575 30.7802ZM117.698 34.3686C117.938 34.2091 118.097 33.9699 118.256 33.7306V33.0927H116.901C116.183 33.0927 115.784 33.3319 115.784 33.8104C115.784 34.0496 115.864 34.2888 116.103 34.3686C116.343 34.528 116.582 34.6078 116.901 34.6078C117.14 34.6078 117.459 34.528 117.698 34.3686Z" fill="#034EA2"/>
<path d="M125.433 30.6204C125.832 30.8596 126.071 31.0988 126.31 31.4975C126.709 32.295 126.709 33.2519 126.31 34.0493C126.071 34.448 125.832 34.6872 125.433 34.9264C125.034 35.1656 124.636 35.2454 124.157 35.2454C123.838 35.2454 123.519 35.1656 123.2 35.0062C122.881 34.8467 122.642 34.6872 122.483 34.448V36.92H121.606V30.3014H122.483V31.0988C122.642 30.8596 122.961 30.6204 123.2 30.4609C123.519 30.3014 123.838 30.2217 124.157 30.2217C124.636 30.3014 125.034 30.4609 125.433 30.6204ZM124.955 34.2885C125.194 34.129 125.433 33.9695 125.513 33.6506C125.832 33.0924 125.832 32.4544 125.513 31.8962C125.353 31.657 125.194 31.4178 124.955 31.2583C124.716 31.0988 124.397 31.0191 124.157 31.0191C123.838 31.0191 123.599 31.0988 123.36 31.2583C123.121 31.4178 122.881 31.5773 122.802 31.8962C122.642 32.1355 122.562 32.4544 122.562 32.7734C122.562 33.0924 122.642 33.4113 122.802 33.6506C122.961 33.8898 123.121 34.129 123.36 34.2885C123.838 34.6075 124.476 34.6075 124.955 34.2885Z" fill="#034EA2"/>
<path d="M129.58 34.9264C129.181 34.6871 128.862 34.4479 128.702 34.0492C128.304 33.2518 128.304 32.2949 128.702 31.4975C128.942 31.0988 129.261 30.8595 129.58 30.6203C130.377 30.2216 131.334 30.2216 132.131 30.6203C132.53 30.8595 132.849 31.0988 133.009 31.4975C133.407 32.2949 133.407 33.2518 133.009 34.0492C132.769 34.4479 132.45 34.6871 132.131 34.9264C131.334 35.3251 130.377 35.3251 129.58 34.9264ZM131.653 34.2884C131.892 34.1289 132.131 33.9695 132.211 33.6505C132.53 33.0923 132.53 32.4544 132.211 31.8962C132.052 31.657 131.892 31.4177 131.653 31.2582C131.095 31.019 130.537 31.019 129.978 31.2582C129.739 31.4177 129.5 31.5772 129.42 31.8962C129.101 32.4544 129.101 33.0923 129.42 33.6505C129.58 33.8897 129.739 34.1289 129.978 34.2884C130.537 34.5276 131.174 34.5276 131.653 34.2884Z" fill="#034EA2"/>
<path d="M140.425 34.448V36.3618H139.627V35.2454H135.56V36.3618H134.763V34.448H135.002C135.321 34.448 135.56 34.2088 135.64 33.8101C135.8 33.2519 135.879 32.614 135.879 32.0558L135.959 30.4609H139.707V34.5277L140.425 34.448ZM136.517 33.5708C136.517 33.8898 136.358 34.2088 136.119 34.448H138.83V31.0989H136.756L136.677 32.0558C136.677 32.5342 136.597 33.0924 136.517 33.5708Z" fill="#034EA2"/>
<path d="M142.498 30.3818H143.375V32.4551H146.086V30.3818H146.963V35.2461H146.086V33.2525H143.375V35.2461H142.498V30.3818Z" fill="#034EA2"/>
<path d="M153.183 32.4551C153.502 32.7741 153.662 33.1728 153.662 33.6512C153.662 34.1297 153.502 34.5284 153.103 34.8474C152.705 35.1663 152.147 35.3258 151.588 35.2461H149.515V30.3818H150.392V31.9767H151.668C152.306 31.9767 152.784 32.1361 153.183 32.4551ZM152.466 34.2892C152.705 34.1297 152.784 33.8107 152.784 33.5715C152.784 33.3323 152.705 33.0133 152.466 32.8538C152.226 32.6943 151.907 32.6146 151.588 32.6146H150.472V34.5284H151.588C151.907 34.5284 152.226 34.4486 152.466 34.2892ZM154.379 30.3818H155.256V35.2461H154.379V30.3818Z" fill="#034EA2"/>
<path d="M157.888 30.3816H158.765V33.8902L161.716 30.3816H162.513V35.2458H161.636V31.7372L158.685 35.2458H157.888V30.3816ZM159.084 29.4247C158.845 29.1854 158.685 28.8665 158.685 28.4678H159.244C159.244 28.707 159.323 28.8665 159.483 29.026C159.642 29.1854 159.881 29.2652 160.121 29.2652C160.36 29.2652 160.519 29.1854 160.759 29.026C160.918 28.8665 160.998 28.707 160.998 28.4678H161.636C161.636 28.7867 161.476 29.1854 161.237 29.4247C160.918 29.6639 160.599 29.7436 160.2 29.7436C159.802 29.7436 159.403 29.6639 159.084 29.4247Z" fill="#034EA2"/>
<path d="M171.763 30.7802C172.162 31.1789 172.321 31.7371 172.321 32.2156V35.166H171.524V34.528C171.364 34.7673 171.125 34.9268 170.886 35.0862C170.567 35.2457 170.248 35.2457 169.929 35.2457C169.45 35.2457 168.972 35.166 168.653 34.847C168.095 34.3686 168.015 33.4914 168.493 32.9332C168.573 32.8535 168.573 32.8535 168.653 32.7737C169.052 32.4548 169.61 32.375 170.168 32.375H171.524V32.2156C171.524 31.8966 171.444 31.5776 171.205 31.3384C170.965 31.0992 170.567 31.0194 170.248 31.0194C169.929 31.0194 169.69 31.0992 169.371 31.1789C169.131 31.2587 168.892 31.4181 168.653 31.5776L168.254 30.9397C168.493 30.7005 168.812 30.541 169.131 30.4612C169.45 30.3815 169.849 30.3018 170.248 30.3018C170.806 30.3018 171.364 30.4612 171.763 30.7802ZM170.886 34.3686C171.125 34.2091 171.284 33.9699 171.444 33.7306V33.0927H170.088C169.371 33.0927 168.972 33.3319 168.972 33.8104C168.972 34.0496 169.052 34.2888 169.291 34.3686C169.53 34.528 169.769 34.6078 170.088 34.6078C170.328 34.6078 170.646 34.528 170.886 34.3686Z" fill="#034EA2"/>
<path d="M177.425 30.6207C177.823 30.8599 178.142 31.0992 178.381 31.4979C178.86 32.2953 178.86 33.2522 178.381 34.0496C178.142 34.4483 177.823 34.7673 177.425 34.9268C177.026 35.166 176.547 35.2457 176.069 35.2457C175.67 35.2457 175.272 35.166 174.953 35.0065C174.634 34.847 174.315 34.6875 174.075 34.4483L174.554 33.9699C174.953 34.3686 175.511 34.528 176.069 34.528C176.547 34.528 176.946 34.3686 177.265 34.1293C177.584 33.8901 177.823 33.4914 177.903 33.0927H175.511V32.4548H177.903C177.823 32.0561 177.584 31.6574 177.265 31.4181C176.946 31.1789 176.468 31.0194 176.069 31.0194C175.511 31.0194 174.953 31.1789 174.554 31.5776L174.075 31.0992C174.315 30.8599 174.634 30.6207 174.953 30.541C175.351 30.3815 175.67 30.3018 176.069 30.3018C176.547 30.3018 177.026 30.3815 177.425 30.6207Z" fill="#034EA2"/>
<path d="M184.681 30.6204C185.08 30.8596 185.319 31.0988 185.558 31.4975C185.957 32.295 185.957 33.2519 185.558 34.0493C185.319 34.448 185.08 34.6872 184.681 34.9264C184.282 35.1656 183.884 35.2454 183.405 35.2454C183.086 35.2454 182.767 35.1656 182.448 35.0062C182.129 34.8467 181.89 34.6872 181.731 34.448V36.92H180.854V30.3014H181.731V31.0988C181.89 30.8596 182.209 30.6204 182.448 30.4609C182.767 30.3014 183.086 30.2217 183.405 30.2217C183.884 30.3014 184.282 30.3812 184.681 30.6204ZM184.203 34.2885C184.442 34.129 184.681 33.9695 184.761 33.6506C185.08 33.0924 185.08 32.4544 184.761 31.8962C184.601 31.657 184.442 31.4178 184.203 31.2583C183.963 31.0988 183.644 31.0191 183.405 31.0191C183.086 31.0191 182.847 31.0988 182.608 31.2583C182.369 31.4178 182.129 31.5773 182.05 31.8962C181.89 32.1355 181.81 32.4544 181.81 32.7734C181.81 33.0924 181.89 33.4113 182.05 33.6506C182.209 33.8898 182.369 34.129 182.608 34.2885C183.086 34.5277 183.724 34.5277 184.203 34.2885Z" fill="#034EA2"/>
<path d="M188.828 34.9264C188.429 34.6871 188.11 34.4479 187.95 34.0492C187.552 33.2518 187.552 32.2949 187.95 31.4975C188.19 31.0988 188.509 30.8595 188.828 30.6203C189.625 30.2216 190.582 30.2216 191.379 30.6203C191.778 30.8595 192.097 31.0988 192.256 31.4975C192.655 32.2949 192.655 33.2518 192.256 34.0492C192.017 34.4479 191.698 34.6871 191.379 34.9264C190.582 35.3251 189.625 35.3251 188.828 34.9264ZM190.901 34.2884C191.14 34.1289 191.379 33.9695 191.459 33.6505C191.778 33.0923 191.778 32.4544 191.459 31.8962C191.3 31.657 191.14 31.4177 190.901 31.2582C190.343 31.019 189.784 31.019 189.226 31.2582C188.987 31.4177 188.748 31.5772 188.668 31.8962C188.349 32.4544 188.349 33.0923 188.668 33.6505C188.828 33.8897 188.987 34.1289 189.226 34.2884C189.784 34.5276 190.422 34.5276 190.901 34.2884Z" fill="#034EA2"/>
<path d="M199.274 30.3818V35.2461H198.397V31.0995H195.685V35.1663H194.808V30.3818H199.274Z" fill="#034EA2"/>
<path d="M202.623 34.9264C202.224 34.6871 201.905 34.4479 201.746 34.0492C201.347 33.2518 201.347 32.2949 201.746 31.4975C201.985 31.0988 202.304 30.8595 202.623 30.6203C203.42 30.2216 204.377 30.2216 205.175 30.6203C205.573 30.8595 205.892 31.0988 206.052 31.4975C206.45 32.2949 206.45 33.2518 206.052 34.0492C205.812 34.4479 205.494 34.6871 205.175 34.9264C204.457 35.3251 203.42 35.3251 202.623 34.9264ZM204.776 34.2884C205.015 34.1289 205.254 33.9695 205.334 33.6505C205.653 33.0923 205.653 32.4544 205.334 31.8962C205.175 31.657 205.015 31.4177 204.776 31.2582C204.218 31.019 203.659 31.019 203.101 31.2582C202.862 31.4177 202.623 31.5772 202.543 31.8962C202.224 32.4544 202.224 33.0923 202.543 33.6505C202.703 33.8897 202.862 34.1289 203.101 34.2884C203.659 34.5276 204.297 34.5276 204.776 34.2884Z" fill="#034EA2"/>
<path d="M212.431 30.6204C212.83 30.8596 213.069 31.0988 213.308 31.4975C213.707 32.295 213.707 33.2519 213.308 34.0493C213.069 34.448 212.83 34.6872 212.431 34.9264C212.032 35.1656 211.634 35.2454 211.155 35.2454C210.836 35.2454 210.517 35.1656 210.198 35.0062C209.879 34.8467 209.64 34.6872 209.481 34.448V36.92H208.604V30.3014H209.401V31.0988C209.56 30.8596 209.879 30.6204 210.119 30.4609C210.438 30.3014 210.757 30.2217 211.075 30.2217C211.634 30.3014 212.112 30.4609 212.431 30.6204ZM211.953 34.2885C212.192 34.129 212.431 33.9695 212.511 33.6506C212.83 33.0924 212.83 32.4544 212.511 31.8962C212.351 31.657 212.192 31.4178 211.953 31.2583C211.713 31.0988 211.394 31.0191 211.155 31.0191C210.836 31.0191 210.597 31.0988 210.358 31.2583C210.119 31.4178 209.879 31.5773 209.72 31.8165C209.56 32.0557 209.481 32.3747 209.481 32.6937C209.481 33.0126 209.56 33.3316 209.72 33.5708C209.879 33.81 210.039 34.0493 210.278 34.2087C210.836 34.5277 211.474 34.5277 211.953 34.2885Z" fill="#034EA2"/>
<path d="M219.289 31.0992H217.534V35.166H216.657V31.0992H214.903V30.3018H219.289V31.0992Z" fill="#034EA2"/>
<path d="M13.7953 0.797852V7.2569L31.0194 14.2741L48.3233 7.2569V0.797852H13.7953Z" fill="#034EA2"/>
<path d="M18.0216 19.6167L13.7953 16.0283V35.4055H24.3211L26.0755 26.315L18.0216 19.6167Z" fill="#034EA2"/>
<path d="M25.1185 35.4055H48.3233V16.0283L46.4892 17.6231L25.1185 35.4055Z" fill="#034EA2"/>
<path d="M33.3319 14.6725L37 16.1876L45.6919 16.666L62.0388 3.03027L33.3319 14.6725Z" fill="#034EA2"/>
<path d="M0 3.03027L27.3513 25.8363L25.9159 33.1725L45.6918 16.666L36.1228 17.7027L0 3.03027Z" fill="#034EA2"/>
</g>
<defs>
<clipPath id="clip0">
<rect width="219.289" height="37" fill="white"/>
</clipPath>
</defs>
</svg>
