<svg width="227" height="37" viewBox="0 0 227 37" fill="none" xmlns="http://www.w3.org/2000/svg">
<g clip-path="url(#clip0)">
<path fill-rule="evenodd" clip-rule="evenodd" d="M11.0347 0L22.0737 6.36917V19.1162L11.0347 25.4853L0 19.1162V6.36917L11.0347 0Z" fill="#003287"/>
<path fill-rule="evenodd" clip-rule="evenodd" d="M22.2555 0.00390625L33.2902 6.3774V19.1201L22.2555 25.4936L17.9315 22.9943L23.3624 19.8595V5.62504L17.9402 2.4945L22.2555 0.00390625Z" fill="#239A27"/>
<path fill-rule="evenodd" clip-rule="evenodd" d="M33.4716 0.00878906L44.5106 6.38228V19.125L33.4716 25.4984L29.1476 22.9992L34.5828 19.8643V5.63424L29.1563 2.50371L33.4716 0.00878906Z" fill="#BDBFC0"/>
<path fill-rule="evenodd" clip-rule="evenodd" d="M51.8613 22.701C51.8613 16.4702 51.8527 10.2351 51.8657 4.00428C51.8657 3.45514 52.3327 3.24759 52.7521 3.07896C53.392 2.81952 56.3669 2.95356 57.0025 2.95356C58.451 2.95356 58.5375 3.45082 58.8532 4.01293C59.9947 6.05383 66.1131 16.6043 67.3281 18.71C70.0089 14.0618 72.6898 9.41786 75.3663 4.76962C76.1057 3.33407 76.4257 3.02707 77.4202 3.02275L80.7885 3.00113C81.6922 2.9968 82.7213 3.19138 82.7948 4.06914C82.7948 9.37895 82.7992 17.3869 82.7992 22.701C81.4717 22.701 80.1443 22.701 78.8168 22.701C78.8168 17.3912 78.8168 12.0771 78.8168 6.76296C77.1478 9.65135 72.5947 17.6074 70.7916 20.7336C70.4067 21.3995 69.8057 22.701 69.0101 22.6967L65.7239 22.701C64.9024 22.701 64.3705 21.5595 63.8776 20.725C61.1967 16.0767 58.5202 11.4328 55.8437 6.7889C55.8437 12.0944 55.8437 17.3955 55.8437 22.701C54.5162 22.701 53.1888 22.701 51.8613 22.701Z" fill="#003287"/>
<path fill-rule="evenodd" clip-rule="evenodd" d="M86.2153 7.06496C86.2153 11.6873 86.2153 16.3096 86.2153 20.9318C86.2153 21.8615 87.0153 22.6657 87.9449 22.6657H103.541V19.1979H89.6788V15.7301H103.541V12.2667H89.6788V8.79886H103.541V5.33105C99.4942 5.33105 91.9878 5.33105 87.9449 5.33105C86.9763 5.33538 86.2153 6.10936 86.2153 7.06496Z" fill="#003287"/>
<path fill-rule="evenodd" clip-rule="evenodd" d="M106.953 7.06496C106.953 11.6873 106.953 16.3096 106.953 20.9318C106.953 21.8615 107.757 22.6657 108.683 22.6657H124.279V15.4275H120.811V19.1979H110.412C110.412 8.9156 110.412 19.0812 110.412 8.79886H124.275V5.33105C120.232 5.33105 112.721 5.33105 108.678 5.33105C107.718 5.33538 106.953 6.10936 106.953 7.06496Z" fill="#003287"/>
<path fill-rule="evenodd" clip-rule="evenodd" d="M135.698 15.735L139.698 8.80374L143.702 15.735H135.698ZM127.695 22.6663C130.7 17.4603 133.705 12.2542 136.71 7.04822C137.268 5.98453 138.262 5.40944 139.698 5.33594C141.19 5.4743 142.201 6.07101 142.742 7.13902L151.705 22.6663H147.701L145.699 19.1985H133.696L131.694 22.6663H127.695Z" fill="#003287"/>
<path fill-rule="evenodd" clip-rule="evenodd" d="M155.117 4.77808C155.117 10.0922 155.117 15.402 155.117 20.7161C155.117 21.7885 156.038 22.7052 157.106 22.7052H175.033V18.7228H159.099C159.099 6.90546 159.099 18.5888 159.099 6.77142H175.033V2.78906C170.385 2.78906 161.75 2.78906 157.106 2.78906C155.995 2.78906 155.117 3.67547 155.117 4.77808Z" fill="#003287"/>
<path fill-rule="evenodd" clip-rule="evenodd" d="M181.913 12.3107C182.103 10.0753 183.37 9.05049 185.376 8.84727C186.53 8.84727 187.685 8.84727 188.839 8.84727C191.006 9.08509 192.16 10.2353 192.303 12.3107C192.303 13.4652 192.307 14.6197 192.312 15.7742C192.056 17.733 191.092 19.0604 188.865 19.2723C187.702 19.2637 186.535 19.2507 185.372 19.242C183.309 19.0431 182.094 17.9492 181.908 15.7742C181.913 14.6197 181.913 13.4652 181.913 12.3107ZM178.458 15.7742C178.458 14.6068 178.453 13.4782 178.449 12.3107C178.427 11.0611 178.786 9.91961 179.374 8.84727C179.949 7.82249 180.806 6.98365 181.913 6.30911C183.002 5.66917 184.165 5.40541 185.376 5.38379C186.53 5.38379 187.685 5.38379 188.839 5.38379C190.059 5.38811 191.205 5.73835 192.303 6.32641C193.349 6.92744 194.193 7.77493 194.85 8.84727C195.49 9.9542 195.801 11.1087 195.771 12.3107C195.771 13.4652 195.771 14.6197 195.771 15.7742C195.818 17.0282 195.494 18.174 194.889 19.242C194.231 20.3663 193.358 21.2051 192.307 21.8105C191.209 22.3855 190.037 22.7401 188.844 22.7055C187.676 22.7142 186.543 22.6969 185.38 22.7055C184.17 22.7488 183.024 22.459 181.917 21.8105C181.017 21.3089 180.157 20.5435 179.366 19.242C178.73 18.187 178.471 16.9936 178.458 15.7742Z" fill="#003287"/>
<path fill-rule="evenodd" clip-rule="evenodd" d="M199.187 22.6488C199.187 17.2352 199.183 11.8173 199.191 6.40377C199.191 5.92381 199.598 5.74653 199.961 5.59951C200.514 5.37467 203.1 5.48709 203.654 5.48709C204.912 5.48709 204.99 5.91948 205.262 6.40809C206.257 8.18523 211.571 17.352 212.63 19.181C214.961 15.1425 217.287 11.1039 219.618 7.06533C220.262 5.81571 220.539 5.55195 221.399 5.54763L224.326 5.53033C225.109 5.52601 226.008 5.69464 226.073 6.45998C226.073 11.078 226.078 18.0352 226.078 22.6532C224.923 22.6532 223.769 22.6532 222.614 22.6532C222.614 18.0352 222.614 13.4172 222.614 8.79923C221.166 11.3071 217.205 18.2254 215.64 20.9409C215.302 21.5203 214.783 22.6488 214.092 22.6445L211.238 22.6532C210.524 22.6575 210.062 21.663 209.629 20.9365C207.303 16.898 204.972 12.8594 202.646 8.82518C202.646 13.4345 202.646 18.0438 202.646 22.6532C201.496 22.6488 200.341 22.6488 199.187 22.6488Z" fill="#003287"/>
<path fill-rule="evenodd" clip-rule="evenodd" d="M120.106 35.2925H118.359V34.1251H120.106V35.2925ZM120.115 28.6985L119.933 33.3943H118.532L118.351 28.6985H120.115ZM117.486 36.5249H116.111V35.2925H115.441V33.1608H113.837V35.2925H112.289V30.32H113.837V32.0409H115.441V30.32H116.993V34.1986H117.49V36.5249H117.486ZM109.871 32.8149C109.871 32.5209 109.85 32.2744 109.798 32.0755C109.746 31.8809 109.681 31.721 109.595 31.6042C109.504 31.4788 109.4 31.3923 109.288 31.3448C109.171 31.2972 109.041 31.2713 108.894 31.2713C108.756 31.2713 108.63 31.2929 108.514 31.3361C108.401 31.3794 108.298 31.4615 108.202 31.5826C108.116 31.6993 108.042 31.855 107.991 32.0582C107.939 32.2615 107.913 32.5122 107.913 32.8149C107.913 33.1219 107.939 33.3641 107.986 33.5543C108.038 33.7402 108.099 33.8916 108.181 33.9997C108.263 34.1164 108.367 34.2029 108.488 34.2548C108.613 34.3067 108.752 34.3326 108.899 34.3326C109.024 34.3326 109.149 34.3067 109.279 34.2548C109.409 34.2029 109.513 34.1207 109.586 34.017C109.677 33.8873 109.75 33.7359 109.794 33.5543C109.846 33.3814 109.871 33.1349 109.871 32.8149ZM111.463 32.8063C111.463 33.6278 111.238 34.2721 110.788 34.7434C110.338 35.2147 109.707 35.4482 108.89 35.4482C108.077 35.4482 107.446 35.2147 106.996 34.7434C106.546 34.2721 106.321 33.6278 106.321 32.8063C106.321 31.9804 106.546 31.3318 106.996 30.8648C107.446 30.3978 108.077 30.1643 108.89 30.1643C109.703 30.1643 110.338 30.3978 110.784 30.8691C111.238 31.3405 111.463 31.9847 111.463 32.8063ZM104.272 32.8149C104.272 32.5209 104.25 32.2744 104.198 32.0755C104.147 31.8809 104.082 31.721 103.995 31.6042C103.904 31.4788 103.801 31.3923 103.684 31.3448C103.567 31.2972 103.437 31.2713 103.29 31.2713C103.152 31.2713 103.027 31.2929 102.91 31.3361C102.797 31.3794 102.694 31.4615 102.599 31.5826C102.512 31.6993 102.439 31.855 102.387 32.0582C102.335 32.2615 102.309 32.5122 102.309 32.8149C102.309 33.1219 102.335 33.3641 102.382 33.5543C102.434 33.7402 102.499 33.8916 102.577 33.9997C102.659 34.1164 102.763 34.2029 102.884 34.2548C103.009 34.3067 103.148 34.3326 103.295 34.3326C103.42 34.3326 103.546 34.3067 103.675 34.2548C103.805 34.2029 103.909 34.1207 103.982 34.017C104.073 33.8873 104.147 33.7359 104.19 33.5543C104.246 33.3814 104.272 33.1349 104.272 32.8149ZM105.863 32.8063C105.863 33.6278 105.638 34.2721 105.189 34.7434C104.743 35.2147 104.108 35.4482 103.29 35.4482C102.478 35.4482 101.846 35.2147 101.397 34.7434C100.947 34.2721 100.722 33.6278 100.722 32.8063C100.722 31.9804 100.947 31.3318 101.397 30.8648C101.846 30.3978 102.478 30.1643 103.29 30.1643C104.103 30.1643 104.735 30.3978 105.184 30.8691C105.638 31.3405 105.863 31.9847 105.863 32.8063ZM98.2617 34.177V31.414H97.1677C97.1158 31.9674 97.0337 32.4776 96.9126 32.949C96.7915 33.4203 96.6488 33.831 96.4802 34.177H98.2617ZM100.298 36.5249H98.9232V35.2752H96.0435V36.5249H94.6641V34.177H95.023C95.2479 33.71 95.4251 33.1392 95.5592 32.4647C95.6932 31.7945 95.7581 31.0767 95.7581 30.3157H99.8053V34.1726H100.298V36.5249ZM94.0285 35.2925H92.4805V33.1608H90.8764V35.2925H89.3241V30.32H90.8764V32.0409H92.4805V30.32H94.0285V35.2925ZM86.6346 34.765C86.5308 34.8558 86.4313 34.9336 86.3492 35.0028C86.2627 35.072 86.1546 35.1412 86.0119 35.2147C85.8692 35.2839 85.7395 35.3358 85.6055 35.3704C85.4714 35.405 85.2898 35.4223 85.052 35.4223C84.611 35.4223 84.2477 35.2752 83.9537 34.9812C83.6597 34.6872 83.517 34.3153 83.517 33.8656C83.517 33.4981 83.5905 33.1954 83.7375 32.9706C83.8845 32.7457 84.0964 32.5641 84.3731 32.4301C84.6542 32.296 84.9915 32.1966 85.3806 32.1447C85.7698 32.0928 86.1892 32.0539 86.6389 32.0193V31.9977C86.6389 31.7253 86.5394 31.5307 86.3362 31.4269C86.133 31.3232 85.8303 31.2713 85.4282 31.2713C85.2466 31.2713 85.0304 31.3059 84.7839 31.3707C84.5375 31.4356 84.2996 31.5221 84.0661 31.6258H83.9321V30.4281C84.0878 30.3849 84.3342 30.3286 84.6758 30.2681C85.0174 30.2076 85.3633 30.1773 85.7136 30.1773C86.5697 30.1773 87.1967 30.32 87.5858 30.6054C87.9793 30.8908 88.1739 31.3232 88.1739 31.9112V35.2969H86.6302V34.765H86.6346ZM86.6346 33.9954V32.9576C86.3708 32.9836 86.1589 33.0052 85.9989 33.0268C85.8346 33.0484 85.6747 33.083 85.519 33.1392C85.3806 33.1868 85.2768 33.2603 85.2033 33.3554C85.1298 33.4549 85.0909 33.5803 85.0909 33.7402C85.0909 33.9737 85.1515 34.1337 85.2768 34.2202C85.4022 34.3067 85.5882 34.3499 85.8346 34.3499C85.973 34.3499 86.1114 34.3197 86.2497 34.2548C86.3924 34.1943 86.5178 34.1078 86.6346 33.9954ZM83.2576 31.401H81.7139V35.2925H80.1659V31.401H78.6223V30.32H83.2576V31.401ZM75.3231 35.2925H73.7708V33.1608H72.1666V35.2925H70.6187V30.32H72.1666V32.0409H73.7708V30.32H75.3231V35.2925ZM69.4339 35.2925H67.9119V32.2701L66.0094 35.2925H64.7122V30.32H66.2385V33.0225L67.9811 30.32H69.4382V35.2925H69.4339ZM63.5188 35.2925H61.9665V33.1608H60.3623V35.2925H58.81V30.32H60.3623V32.0409H61.9665V30.32H63.5188V35.2925ZM56.488 32.1663C56.4794 31.8377 56.4059 31.5869 56.2589 31.4183C56.1162 31.2453 55.8956 31.1632 55.6016 31.1632C55.2989 31.1632 55.0654 31.254 54.8925 31.4356C54.7239 31.6129 54.6287 31.8593 54.6114 32.1706H56.488V32.1663ZM55.9735 35.4266C55.0352 35.4266 54.3131 35.2017 53.8158 34.7564C53.3142 34.3067 53.0635 33.6667 53.0635 32.8365C53.0635 32.0236 53.2969 31.375 53.7639 30.8908C54.2309 30.4065 54.8838 30.1643 55.7227 30.1643C56.4837 30.1643 57.0588 30.3676 57.4436 30.7783C57.8284 31.1891 58.0187 31.7772 58.0187 32.5425V33.1003H54.6201C54.633 33.3295 54.6849 33.524 54.7671 33.6797C54.8492 33.8354 54.9573 33.9608 55.0957 34.0516C55.2254 34.1467 55.3811 34.2116 55.5584 34.2505C55.7357 34.2894 55.9302 34.311 56.1378 34.311C56.3151 34.311 56.4967 34.2894 56.6696 34.2505C56.8426 34.2116 57.0026 34.1597 57.1496 34.0948C57.275 34.0386 57.3961 33.9781 57.5042 33.9132C57.6123 33.8483 57.6987 33.7921 57.7679 33.7402H57.9322V35.0201C57.8068 35.072 57.6901 35.1196 57.5863 35.1585C57.4825 35.2017 57.3355 35.245 57.1539 35.2882C56.9853 35.3358 56.8123 35.366 56.635 35.392C56.4491 35.4136 56.2329 35.4266 55.9735 35.4266ZM51.0831 35.4266C50.6723 35.4266 50.2961 35.3747 49.9545 35.2709C49.6129 35.1671 49.3189 35.0072 49.0681 34.791C48.8217 34.5748 48.6271 34.3024 48.4887 33.9781C48.3504 33.6538 48.2812 33.2646 48.2812 32.8236C48.2812 32.3479 48.359 31.9415 48.506 31.6085C48.6574 31.2756 48.8606 30.9989 49.1157 30.7827C49.3665 30.5794 49.6562 30.4238 49.9891 30.3243C50.3221 30.2249 50.6723 30.1773 51.0355 30.1773C51.3123 30.1773 51.5847 30.2119 51.8614 30.2724C52.1381 30.333 52.4105 30.4367 52.6916 30.5751V31.9026H52.4884C52.4278 31.842 52.35 31.7772 52.2592 31.708C52.1684 31.6388 52.0733 31.5739 51.9652 31.5134C51.8484 31.4529 51.723 31.3967 51.5847 31.3577C51.442 31.3145 51.282 31.2929 51.109 31.2929C50.7112 31.2929 50.4042 31.4313 50.188 31.708C49.9718 31.9847 49.8637 32.3566 49.8637 32.8236C49.8637 33.3251 49.9805 33.697 50.214 33.9435C50.4431 34.1899 50.7545 34.311 51.1393 34.311C51.3339 34.311 51.5068 34.2894 51.6539 34.2461C51.8009 34.2029 51.9263 34.1467 52.0344 34.0862C52.1381 34.0213 52.2289 33.9608 52.3024 33.8916C52.3759 33.8267 52.4408 33.7662 52.4927 33.7143H52.6959V35.0417C52.6051 35.0807 52.5057 35.1239 52.3846 35.1715C52.2679 35.2234 52.1511 35.2666 52.03 35.2969C51.8787 35.3358 51.736 35.3704 51.6063 35.392C51.4722 35.4179 51.2993 35.4266 51.0831 35.4266ZM44.9042 32.9965H41.9682V31.7642H44.9042V32.9965ZM38.855 35.2925H37.0692L35.8931 33.3208H35.4909V35.2925H33.943V30.32H35.4953V32.3177C35.7115 32.3177 35.8758 32.2831 35.9839 32.2225C36.092 32.162 36.2087 32.002 36.3384 31.7426C36.3774 31.6561 36.4249 31.5566 36.4682 31.4529C36.5157 31.3448 36.559 31.2496 36.5979 31.1675C36.7535 30.8432 36.9438 30.6184 37.1773 30.4973C37.4065 30.3762 37.6832 30.3157 38.0118 30.3157C38.1242 30.3157 38.2323 30.3157 38.3404 30.32C38.4442 30.3243 38.5177 30.3243 38.5609 30.3243V31.6518H38.2583C38.1631 31.6518 38.081 31.6691 38.0032 31.708C37.9296 31.7426 37.8648 31.7901 37.8086 31.8464C37.7524 31.9069 37.7091 31.9631 37.6832 32.0236C37.6529 32.0842 37.627 32.1404 37.601 32.1966C37.5318 32.3566 37.4843 32.469 37.454 32.5382C37.4194 32.6074 37.3632 32.6722 37.2811 32.7371L38.855 35.2925ZM31.6167 32.1663C31.608 31.8377 31.5302 31.5869 31.3875 31.4183C31.2448 31.2453 31.0243 31.1632 30.7303 31.1632C30.4276 31.1632 30.1941 31.254 30.0212 31.4356C29.8525 31.6129 29.7574 31.8593 29.7401 32.1706H31.6167V32.1663ZM31.1021 35.4266C30.1638 35.4266 29.4417 35.2017 28.9445 34.7564C28.4429 34.3067 28.1921 33.6667 28.1921 32.8365C28.1921 32.0236 28.4256 31.375 28.8926 30.8908C29.3596 30.4065 30.0125 30.1643 30.8513 30.1643C31.6124 30.1643 32.1875 30.3676 32.568 30.7783C32.9528 31.1891 33.1474 31.7772 33.1474 32.5425V33.1003H29.7487C29.766 33.3295 29.8136 33.524 29.8958 33.6797C29.9779 33.8354 30.0903 33.9608 30.2244 34.0516C30.3584 34.1467 30.5098 34.2116 30.687 34.2505C30.8643 34.2894 31.0589 34.311 31.2664 34.311C31.4437 34.311 31.6253 34.2894 31.7983 34.2505C31.9713 34.2116 32.1312 34.1597 32.2739 34.0948C32.3993 34.0386 32.5204 33.9781 32.6242 33.9132C32.7323 33.8483 32.8231 33.7921 32.8879 33.7402H33.0522V35.0201C32.9268 35.072 32.8101 35.1196 32.702 35.1585C32.5982 35.2017 32.4512 35.245 32.2696 35.2882C32.101 35.3358 31.928 35.366 31.7507 35.392C31.5778 35.4136 31.3616 35.4266 31.1021 35.4266ZM27.3706 35.2925H25.8183V33.5846C25.6021 33.6321 25.3686 33.6797 25.1221 33.7186C24.8757 33.7575 24.6205 33.7792 24.3741 33.7792C24.1492 33.7792 23.9417 33.7489 23.7471 33.6927C23.5525 33.6365 23.3839 33.5457 23.2412 33.4203C23.0942 33.2992 22.9818 33.1392 22.8996 32.9446C22.8175 32.7501 22.7785 32.5166 22.7785 32.2485V30.3157H24.3395V31.4486C24.3395 31.6518 24.3481 31.8247 24.3654 31.9631C24.3827 32.1015 24.426 32.2269 24.4952 32.3306C24.56 32.4301 24.6551 32.5079 24.7849 32.5598C24.9146 32.616 25.0919 32.642 25.3253 32.642C25.3902 32.642 25.4724 32.6376 25.5718 32.629C25.6756 32.6247 25.7577 32.6117 25.8226 32.5987V30.3114H27.3749V35.2925H27.3706ZM20.6468 32.1663C20.6382 31.8377 20.5604 31.5869 20.4177 31.4183C20.275 31.2453 20.0545 31.1632 19.7604 31.1632C19.4578 31.1632 19.2243 31.254 19.0513 31.4356C18.8827 31.6129 18.7875 31.8593 18.7702 32.1706H20.6468V32.1663ZM20.128 35.4266C19.1897 35.4266 18.4676 35.2017 17.9703 34.7564C17.4687 34.3067 17.218 33.6667 17.218 32.8365C17.218 32.0236 17.4514 31.375 17.9184 30.8908C18.3854 30.4065 19.0383 30.1643 19.8772 30.1643C20.6382 30.1643 21.2133 30.3676 21.5981 30.7783C21.9829 31.1891 22.1732 31.7772 22.1732 32.5425V33.1003H18.7746C18.7919 33.3295 18.8394 33.524 18.9216 33.6797C19.0037 33.8354 19.1162 33.9608 19.2502 34.0516C19.3842 34.1467 19.5356 34.2116 19.7129 34.2505C19.8901 34.2894 20.0847 34.311 20.2923 34.311C20.4696 34.311 20.6512 34.2894 20.8241 34.2505C20.9971 34.2116 21.1571 34.1597 21.2998 34.0948C21.4251 34.0386 21.5462 33.9781 21.6543 33.9132C21.7624 33.8483 21.8489 33.7921 21.9181 33.7402H22.0824V35.0201C21.957 35.072 21.8402 35.1196 21.7321 35.1585C21.6284 35.2017 21.4814 35.245 21.2998 35.2882C21.1311 35.3358 20.9582 35.366 20.7809 35.392C20.6036 35.4136 20.3874 35.4266 20.128 35.4266ZM16.3964 35.2925H14.8441V31.414H13.6248C13.6161 31.6258 13.6118 31.7988 13.6031 31.9285C13.5988 32.0582 13.5945 32.2052 13.5902 32.3696C13.5685 32.8452 13.5296 33.2343 13.4691 33.5327C13.4086 33.8354 13.335 34.0818 13.2442 34.2721C13.1578 34.4623 13.067 34.6137 12.9718 34.7218C12.881 34.8299 12.7773 34.9293 12.6692 35.0245C12.5654 35.1109 12.4184 35.1888 12.2324 35.245C12.0465 35.3012 11.8692 35.3315 11.7136 35.3315C11.5795 35.3315 11.4498 35.3271 11.3201 35.3185C11.1904 35.3098 11.1082 35.3012 11.0823 35.3012V34.0429H11.1255C11.1385 34.0429 11.1558 34.0429 11.186 34.0472C11.212 34.0516 11.2423 34.0516 11.2682 34.0516C11.3374 34.0516 11.4152 34.0429 11.4887 34.0256C11.5666 34.0083 11.6271 33.9781 11.679 33.9262C11.8822 33.7186 12.0119 33.4462 12.0725 33.1003C12.1287 32.7544 12.1676 32.3652 12.1892 31.9372C12.2022 31.7037 12.2151 31.4442 12.2238 31.1545C12.2368 30.8691 12.2454 30.5924 12.2497 30.3243H16.3964V35.2925ZM9.32675 32.1663C9.3181 31.8377 9.24027 31.5869 9.09758 31.4183C8.95057 31.2453 8.73437 31.1632 8.44034 31.1632C8.13767 31.1632 7.90417 31.254 7.73121 31.4356C7.56258 31.6129 7.46745 31.8593 7.45016 32.1706H9.32675V32.1663ZM8.8122 35.4266C7.8739 35.4266 7.15181 35.2017 6.65455 34.7564C6.15297 34.3067 5.90219 33.6667 5.90219 32.8365C5.90219 32.0236 6.13568 31.375 6.60266 30.8908C7.06965 30.4065 7.72257 30.1643 8.56141 30.1643C9.32243 30.1643 9.89751 30.3676 10.2823 30.7783C10.6672 31.1891 10.8574 31.7772 10.8574 32.5425V33.1003H7.45881C7.4761 33.3295 7.52366 33.524 7.60582 33.6797C7.68797 33.8354 7.8004 33.9608 7.93444 34.0516C8.06416 34.1467 8.22414 34.2116 8.3971 34.2505C8.57438 34.2894 8.76896 34.311 8.97651 34.311C9.15812 34.311 9.3354 34.2894 9.50836 34.2505C9.68131 34.2116 9.8413 34.1597 9.98399 34.0948C10.1094 34.0386 10.2305 33.9781 10.3386 33.9132C10.4467 33.8483 10.5331 33.7921 10.6023 33.7402H10.7666V35.0201C10.6412 35.072 10.5245 35.1196 10.4164 35.1585C10.3126 35.2017 10.1656 35.245 9.98399 35.2882C9.81536 35.3358 9.6424 35.366 9.46512 35.392C9.28351 35.4136 9.06731 35.4266 8.8122 35.4266ZM5.81571 35.2925H3.83966L2.07549 32.629H1.65607V35.2925H0V28.6985H1.65607V31.388C1.91551 31.375 2.11009 31.3188 2.23548 31.2151C2.36087 31.1113 2.51654 30.8821 2.69382 30.5319C2.74571 30.4281 2.80192 30.307 2.8711 30.1643C2.93596 30.0216 2.99649 29.9006 3.04838 29.7925C3.23864 29.3947 3.47645 29.1136 3.75318 28.9407C4.02992 28.772 4.39313 28.6855 4.84282 28.6855C4.98983 28.6855 5.11523 28.6855 5.21035 28.6942C5.30548 28.6985 5.38331 28.7028 5.4352 28.7028V30.1168H5.05469C4.86444 30.1168 4.70013 30.1773 4.55744 30.2941C4.41907 30.4108 4.27206 30.6443 4.12937 30.9945C4.01262 31.2713 3.90452 31.4831 3.80507 31.6258C3.70562 31.7685 3.61049 31.868 3.51969 31.9155L5.81571 35.2925Z" fill="#302679"/>
<path fill-rule="evenodd" clip-rule="evenodd" d="M226.069 35.2921H224.434V34.1981H226.069V35.2921ZM226.077 29.1175L225.909 33.515H224.599L224.43 29.1175H226.077ZM222.091 32.9312C222.091 32.4772 222.022 32.1486 221.879 31.9454C221.741 31.7378 221.524 31.6384 221.226 31.6384C221.096 31.6384 220.967 31.66 220.841 31.6989C220.711 31.7378 220.586 31.8027 220.461 31.8848V34.2284C220.538 34.2587 220.625 34.2846 220.716 34.2976C220.807 34.3149 220.919 34.3192 221.044 34.3192C221.399 34.3192 221.663 34.2025 221.831 33.9733C222.004 33.7398 222.091 33.3939 222.091 32.9312ZM223.574 32.901C223.574 33.6447 223.384 34.2457 223.007 34.6997C222.631 35.1537 222.164 35.3829 221.611 35.3829C221.382 35.3829 221.178 35.357 221.005 35.3051C220.832 35.2532 220.651 35.171 220.456 35.0586V37.0001H219.003V30.6352H220.456V31.1238C220.668 30.9379 220.889 30.7909 221.105 30.6784C221.325 30.566 221.585 30.5098 221.875 30.5098C222.415 30.5098 222.83 30.7217 223.124 31.1498C223.427 31.5778 223.574 32.1616 223.574 32.901ZM216.751 32.9745C216.751 32.6977 216.725 32.4686 216.681 32.2826C216.634 32.0967 216.573 31.9497 216.491 31.8416C216.405 31.7248 216.31 31.647 216.202 31.5994C216.093 31.5519 215.972 31.5303 215.834 31.5303C215.704 31.5303 215.588 31.5476 215.479 31.5908C215.376 31.6297 215.281 31.7075 215.19 31.82C215.108 31.9281 215.043 32.0751 214.991 32.2653C214.939 32.4513 214.913 32.6891 214.913 32.9745C214.913 33.2598 214.939 33.489 214.982 33.6663C215.03 33.8436 215.09 33.9819 215.164 34.0857C215.242 34.1938 215.337 34.2716 215.453 34.3235C215.57 34.3754 215.7 34.4014 215.838 34.4014C215.955 34.4014 216.072 34.3754 216.193 34.3235C216.314 34.276 216.409 34.1981 216.483 34.0987C216.569 33.9776 216.634 33.8349 216.677 33.6663C216.725 33.502 216.751 33.2685 216.751 32.9745ZM218.238 32.9658C218.238 33.7311 218.031 34.3365 217.611 34.7775C217.192 35.2186 216.599 35.4391 215.834 35.4391C215.073 35.4391 214.481 35.2186 214.061 34.7775C213.642 34.3365 213.43 33.7355 213.43 32.9658C213.43 32.1918 213.642 31.5821 214.061 31.1454C214.485 30.7087 215.073 30.4882 215.834 30.4882C216.599 30.4882 217.187 30.7087 217.611 31.1498C218.026 31.5951 218.238 32.1961 218.238 32.9658ZM211.207 34.1376C211.294 34.0295 211.367 33.8955 211.424 33.7398C211.48 33.5841 211.506 33.3593 211.506 33.0739C211.506 32.7366 211.419 32.4686 211.246 32.2653C211.078 32.0621 210.848 31.9583 210.567 31.9583C210.438 31.9583 210.299 31.9756 210.157 32.0102C210.014 32.0448 209.863 32.1053 209.707 32.1918C209.707 32.2221 209.707 32.261 209.703 32.3086C209.703 32.3605 209.703 32.408 209.703 32.4469C209.703 32.8491 209.716 33.1517 209.742 33.3593C209.767 33.5668 209.824 33.7571 209.91 33.9344C209.979 34.0857 210.079 34.1981 210.2 34.276C210.321 34.3538 210.459 34.3927 210.624 34.3927C210.714 34.3927 210.814 34.3711 210.926 34.3322C211.03 34.2933 211.13 34.2284 211.207 34.1376ZM212.422 31.3746C212.6 31.5519 212.738 31.7767 212.842 32.0405C212.946 32.3042 212.993 32.6329 212.993 33.0263C212.993 33.7528 212.777 34.3365 212.345 34.7775C211.912 35.2186 211.328 35.4391 210.593 35.4391C209.785 35.4391 209.188 35.1753 208.79 34.6522C208.397 34.129 208.202 33.3463 208.202 32.3042C208.202 32.1053 208.211 31.9021 208.232 31.6946C208.25 31.487 208.297 31.2406 208.362 30.9465C208.418 30.7044 208.501 30.4579 208.613 30.2201C208.721 29.978 208.851 29.7791 209.006 29.6234C209.179 29.4461 209.413 29.2948 209.707 29.1651C210.001 29.0353 210.416 28.9489 210.952 28.8927C211.203 28.871 211.501 28.8451 211.847 28.8278C212.193 28.8148 212.466 28.8019 212.673 28.7975V29.8872C212.496 29.8958 212.34 29.9045 212.193 29.9088C212.046 29.9174 211.882 29.9261 211.692 29.939C211.575 29.9477 211.424 29.9607 211.238 29.978C211.047 29.9953 210.892 30.0169 210.758 30.0428C210.598 30.0774 210.446 30.125 210.312 30.1985C210.174 30.2677 210.062 30.3585 209.975 30.4709C209.906 30.5574 209.854 30.6698 209.811 30.8125C209.767 30.9552 209.737 31.1281 209.72 31.3357C209.923 31.1887 210.139 31.0719 210.369 30.9811C210.593 30.8946 210.84 30.8514 211.104 30.8514C211.363 30.8514 211.605 30.8946 211.83 30.9811C212.059 31.0719 212.254 31.2016 212.422 31.3746ZM207.32 35.2921H205.867V30.6352H207.32V35.2921ZM203.8 34.1333C203.848 34.0727 203.878 34.0079 203.896 33.943C203.913 33.8782 203.922 33.809 203.922 33.7441C203.922 33.5452 203.861 33.3982 203.744 33.2988C203.623 33.2036 203.455 33.1517 203.23 33.1517H202.706V34.3495H203.23C203.377 34.3495 203.502 34.3279 203.597 34.2846C203.688 34.2414 203.757 34.1938 203.8 34.1333ZM205.396 33.7268C205.396 33.9646 205.353 34.1852 205.253 34.3841C205.162 34.583 205.037 34.7473 204.886 34.877C204.695 35.0283 204.501 35.1364 204.302 35.197C204.103 35.2575 203.831 35.2878 203.493 35.2878H201.254V30.6352H202.702V32.2048H203.498C203.831 32.2048 204.103 32.2307 204.311 32.274C204.518 32.3215 204.713 32.4123 204.899 32.5507C205.063 32.6761 205.184 32.8361 205.271 33.0436C205.357 33.2555 205.396 33.4804 205.396 33.7268ZM198.992 33.8393C198.992 33.6403 198.936 33.4977 198.824 33.4155C198.711 33.3333 198.543 33.2901 198.318 33.2901H197.535V34.3581H198.344C198.547 34.3581 198.707 34.3106 198.819 34.2198C198.936 34.129 198.992 34.0036 198.992 33.8393ZM198.785 32.0405C198.785 31.8632 198.733 31.7378 198.629 31.6686C198.525 31.5994 198.357 31.5649 198.132 31.5649H197.531V32.4945H198.158C198.361 32.4945 198.517 32.4556 198.62 32.3734C198.733 32.2913 198.785 32.1789 198.785 32.0405ZM200.471 33.8868C200.471 34.1117 200.428 34.3106 200.337 34.4835C200.25 34.6608 200.129 34.8035 199.982 34.9202C199.796 35.0673 199.593 35.1667 199.386 35.2186C199.178 35.2705 198.927 35.2964 198.642 35.2964H196.091V30.6352H198.521C198.858 30.6352 199.109 30.6482 199.269 30.6655C199.433 30.6914 199.589 30.7433 199.74 30.8298C199.905 30.9163 200.026 31.033 200.103 31.18C200.186 31.327 200.225 31.5 200.225 31.7032C200.225 31.9324 200.164 32.1356 200.039 32.3086C199.913 32.4815 199.758 32.6112 199.567 32.7021V32.7496C199.827 32.8145 200.039 32.9442 200.212 33.1344C200.389 33.3247 200.471 33.5798 200.471 33.8868ZM192.108 28.5684C192.108 29.018 191.957 29.3856 191.654 29.6666C191.352 29.9477 190.902 30.0904 190.292 30.0904C189.687 30.0904 189.233 29.952 188.935 29.6666C188.632 29.3813 188.481 29.018 188.481 28.5684H189.614C189.618 28.8408 189.67 29.0483 189.769 29.1867C189.869 29.325 190.042 29.3899 190.292 29.3899C190.543 29.3899 190.716 29.3207 190.816 29.1867C190.915 29.0526 190.967 28.8451 190.971 28.5684H192.108ZM192.493 35.2921H191.066V32.4642L189.285 35.2921H188.07V30.6352H189.497V33.1647L191.127 30.6352H192.493V35.2921ZM185.808 32.9745C185.808 32.6977 185.787 32.4686 185.739 32.2826C185.696 32.0967 185.631 31.9497 185.549 31.8416C185.463 31.7248 185.367 31.647 185.259 31.5994C185.151 31.5519 185.03 31.5303 184.892 31.5303C184.762 31.5303 184.645 31.5476 184.537 31.5908C184.433 31.6297 184.338 31.7075 184.248 31.82C184.165 31.9281 184.101 32.0751 184.049 32.2653C183.997 32.4513 183.971 32.6891 183.971 32.9745C183.971 33.2598 183.992 33.489 184.04 33.6663C184.088 33.8436 184.148 33.9819 184.222 34.0857C184.299 34.1938 184.395 34.2716 184.511 34.3235C184.628 34.3754 184.758 34.4014 184.896 34.4014C185.013 34.4014 185.13 34.3754 185.251 34.3235C185.372 34.276 185.467 34.1981 185.536 34.0987C185.623 33.9776 185.687 33.8349 185.731 33.6663C185.787 33.502 185.808 33.2685 185.808 32.9745ZM187.296 32.9658C187.296 33.7311 187.088 34.3365 186.669 34.7775C186.25 35.2186 185.661 35.4391 184.892 35.4391C184.131 35.4391 183.538 35.2186 183.119 34.7775C182.695 34.3365 182.488 33.7355 182.488 32.9658C182.488 32.1918 182.695 31.5821 183.119 31.1454C183.543 30.7087 184.131 30.4882 184.892 30.4882C185.657 30.4882 186.245 30.7087 186.669 31.1498C187.088 31.5951 187.296 32.1961 187.296 32.9658ZM180.564 33.8393C180.564 33.6403 180.507 33.4977 180.395 33.4155C180.282 33.3333 180.114 33.2901 179.889 33.2901H179.106V34.3581H179.915C180.118 34.3581 180.278 34.3106 180.395 34.2198C180.507 34.129 180.564 34.0036 180.564 33.8393ZM180.356 32.0405C180.356 31.8632 180.304 31.7378 180.2 31.6686C180.097 31.5994 179.932 31.5649 179.703 31.5649H179.102V32.4945H179.729C179.928 32.4945 180.084 32.4556 180.192 32.3734C180.3 32.2913 180.356 32.1789 180.356 32.0405ZM182.042 33.8868C182.042 34.1117 181.999 34.3106 181.913 34.4835C181.826 34.6608 181.705 34.8035 181.554 34.9202C181.368 35.0673 181.169 35.1667 180.957 35.2186C180.749 35.2705 180.503 35.2964 180.213 35.2964H177.662V30.6352H180.092C180.434 30.6352 180.685 30.6482 180.845 30.6655C181.009 30.6914 181.165 30.7433 181.316 30.8298C181.48 30.9163 181.601 31.033 181.683 31.18C181.761 31.327 181.805 31.5 181.805 31.7032C181.805 31.9324 181.74 32.1356 181.619 32.3086C181.493 32.4815 181.338 32.6112 181.152 32.7021V32.7496C181.407 32.8145 181.623 32.9442 181.792 33.1344C181.96 33.3247 182.042 33.5798 182.042 33.8868ZM177.07 31.647H175.626V35.2921H174.173V31.647H172.729V30.6352H177.07V31.647ZM169.745 33.1431H166.995V31.9929H169.745V33.1431ZM162.429 32.3648C162.42 32.0578 162.351 31.8243 162.213 31.6643C162.079 31.5043 161.871 31.4222 161.599 31.4222C161.313 31.4222 161.097 31.5086 160.933 31.6773C160.773 31.8459 160.686 32.0751 160.669 32.3648H162.429ZM161.945 35.4175C161.067 35.4175 160.392 35.2056 159.921 34.7862C159.454 34.3668 159.216 33.7657 159.216 32.9918C159.216 32.2307 159.432 31.6254 159.873 31.1714C160.31 30.7174 160.92 30.4925 161.707 30.4925C162.42 30.4925 162.956 30.6871 163.315 31.0676C163.674 31.4524 163.856 32.0016 163.856 32.7193V33.2425H160.673C160.686 33.4587 160.734 33.6403 160.812 33.783C160.885 33.9301 160.993 34.0425 161.119 34.129C161.24 34.2154 161.387 34.276 161.551 34.3106C161.715 34.3495 161.897 34.3668 162.096 34.3668C162.265 34.3668 162.433 34.3495 162.593 34.3106C162.758 34.276 162.905 34.2241 163.043 34.1635C163.16 34.1117 163.272 34.0554 163.372 33.9949C163.475 33.9344 163.557 33.8782 163.618 33.8306H163.769V35.0283C163.653 35.0759 163.544 35.1191 163.445 35.1581C163.346 35.197 163.212 35.2402 163.039 35.2791C162.883 35.3224 162.719 35.357 162.55 35.3786C162.39 35.4045 162.187 35.4175 161.945 35.4175ZM157.383 32.3648C157.374 32.0578 157.305 31.8243 157.167 31.6643C157.033 31.5043 156.825 31.4222 156.553 31.4222C156.267 31.4222 156.051 31.5086 155.891 31.6773C155.731 31.8459 155.645 32.0751 155.627 32.3648H157.383ZM156.903 35.4175C156.021 35.4175 155.351 35.2056 154.879 34.7862C154.412 34.3668 154.174 33.7657 154.174 32.9918C154.174 32.2307 154.395 31.6254 154.832 31.1714C155.268 30.7174 155.878 30.4925 156.665 30.4925C157.379 30.4925 157.915 30.6871 158.274 31.0676C158.632 31.4524 158.814 32.0016 158.814 32.7193V33.2425H155.632C155.645 33.4587 155.692 33.6403 155.77 33.783C155.848 33.9301 155.952 34.0425 156.077 34.129C156.202 34.2154 156.345 34.276 156.509 34.3106C156.674 34.3495 156.86 34.3668 157.054 34.3668C157.223 34.3668 157.392 34.3495 157.552 34.3106C157.716 34.276 157.863 34.2241 157.997 34.1635C158.114 34.1117 158.226 34.0554 158.325 33.9949C158.429 33.9344 158.511 33.8782 158.576 33.8306H158.728V35.0283C158.611 35.0759 158.503 35.1191 158.403 35.1581C158.304 35.197 158.17 35.2402 157.997 35.2791C157.841 35.3224 157.677 35.357 157.508 35.3786C157.348 35.4045 157.145 35.4175 156.903 35.4175ZM153.777 36.4423H152.488V35.2921H146.59V30.6352H148.034V34.2846H149.228V30.6352H150.676V34.2846H151.87V30.6352H153.318V34.2846H153.777V36.4423ZM146.045 30.6352L143.693 37.0001H142.132L142.841 35.184L141.129 30.6352H142.656L143.637 33.5625L144.554 30.6352H146.045ZM139.058 34.2457V31.66H138.033C137.986 32.1789 137.908 32.6545 137.795 33.0955C137.683 33.5366 137.549 33.9214 137.389 34.2457H139.058ZM140.961 36.4423H139.672V35.2748H136.978V36.4423H135.69V34.2457H136.027C136.234 33.809 136.407 33.2771 136.528 32.6458C136.654 32.0145 136.719 31.3487 136.719 30.6352H140.507V34.2457H140.961V36.4423ZM135.664 30.6352L133.311 37.0001H131.751L132.46 35.184L130.747 30.6352H132.274L133.255 33.5625L134.172 30.6352H135.664ZM128.927 33.3636C128.927 33.2642 128.918 33.1647 128.892 33.0739C128.871 32.9831 128.823 32.8966 128.745 32.8231C128.668 32.7453 128.568 32.6891 128.438 32.6458C128.309 32.6026 128.131 32.581 127.902 32.581H127.115V34.1506H127.902C128.218 34.1506 128.469 34.0814 128.65 33.9473C128.836 33.809 128.927 33.6144 128.927 33.3636ZM130.527 33.3204C130.527 33.6231 130.471 33.8998 130.354 34.1506C130.241 34.4057 130.081 34.6089 129.883 34.7689C129.645 34.9592 129.39 35.0932 129.113 35.1753C128.836 35.2532 128.503 35.2921 128.11 35.2921H125.572V29.1175H130.06V30.2936H127.115V31.4351H128.136C128.508 31.4351 128.841 31.4611 129.13 31.5173C129.424 31.5735 129.688 31.6902 129.917 31.8719C130.133 32.0362 130.285 32.2437 130.38 32.4945C130.479 32.7453 130.527 33.022 130.527 33.3204Z" fill="#302679"/>
</g>
<defs>
<clipPath id="clip0">
<rect width="226.077" height="37" fill="white"/>
</clipPath>
</defs>
</svg>
