<svg width="142" height="50" viewBox="0 0 142 50" fill="none" xmlns="http://www.w3.org/2000/svg">
<path d="M26.8385 0C28.0809 0.207072 29.3393 0.366359 30.5658 0.653074C32.9232 1.17872 35.1692 2.03887 37.2717 3.26537C37.3992 3.34501 37.5266 3.44059 37.7177 3.56802C35.0258 4.49188 32.4454 5.51131 30.2313 7.13603C28.7499 8.21918 27.3163 8.55368 25.4527 8.47404C16.7397 8.07582 9.31698 14.8136 8.50462 23.4947C7.72412 31.8414 13.3947 39.3278 21.1042 41.1437C31.8082 43.6445 41.7477 35.6802 41.668 24.6894C41.668 24.562 41.6999 24.4186 41.6521 24.2912C41.1583 22.6983 41.7795 21.4718 42.7193 20.1816C44.3281 17.9516 45.5069 15.4508 46.4307 12.8385C46.4626 12.7429 46.5263 12.6633 46.7334 12.2969C47.482 14.0809 48.2784 15.626 48.7881 17.2507C52.3243 28.6556 48.1191 40.0287 37.9407 46.3523C33.0029 49.4106 27.5553 50.5734 21.7891 49.7133C11.9452 48.2478 5.12775 42.7843 1.60752 33.5616C-2.295 23.3195 1.12966 11.8668 9.84262 5.17681C13.6177 2.2778 17.9025 0.541574 22.6811 0.143358C22.8563 0.127429 23.0156 0.0477859 23.1908 0C24.4014 0 25.6279 0 26.8385 0Z" fill="#312F2D"/>
<path d="M45.189 5.11328C44.0422 12.2015 41.3343 18.4137 36.1097 23.3356C31.4108 27.7638 25.6764 29.8664 19.2891 30.5195C20.3881 19.7198 28.2728 7.16808 45.189 5.11328Z" fill="#D71925"/>
<path d="M97.2606 36.7629C95.9863 36.7629 94.7757 36.7629 93.4696 36.7629C93.4696 35.9506 93.4696 35.1223 93.4696 34.1188C92.0997 35.5842 90.6343 36.5399 88.8344 36.8744C86.7636 37.2567 84.7088 37.193 82.8133 36.1576C80.3444 34.8356 79.1179 32.2711 79.6117 29.5632C80.0577 27.0305 81.9054 25.2943 84.8681 24.9757C87.1778 24.7209 89.5193 24.7687 91.8449 24.6731C92.2431 24.6572 92.6254 24.6731 92.9917 24.6731C93.5492 22.1723 92.1634 20.2449 89.7264 19.9901C87.7353 19.7671 85.8875 20.2131 84.1513 21.1688C83.7372 21.3918 83.323 21.6467 82.8452 21.9174C82.2399 21.0732 81.6346 20.229 80.9815 19.337C83.0523 17.6964 85.3141 16.6769 87.8946 16.5176C89.2326 16.438 90.6184 16.4698 91.9245 16.7406C95.2854 17.4574 97.0854 19.4644 97.2447 23.0962C97.404 27.6358 97.2606 32.1596 97.2606 36.7629ZM93.0554 27.7155C90.9369 27.7155 88.914 27.6836 86.8751 27.7314C86.3336 27.7473 85.792 27.9544 85.2823 28.1455C84.3743 28.496 83.8328 29.1968 83.7531 30.1844C83.6575 31.2357 83.9761 32.1277 84.8681 32.733C86.8911 34.1347 90.5706 33.6568 92.1953 31.8091C93.2466 30.6145 93.0554 29.165 93.0554 27.7155Z" fill="#312F2D"/>
<path d="M67.3913 16.4383C72.7911 16.1835 77.7289 20.5638 78.0794 25.7725C78.5413 32.2714 73.6831 36.9225 67.9647 37.1137C62.0711 37.3208 57.2925 33.0997 56.9899 27.2539C56.7031 21.4877 61.0835 16.4861 67.3913 16.4383ZM61.195 26.7282C61.195 30.5989 63.7914 33.3386 67.4709 33.3545C71.2141 33.3705 73.8901 30.6148 73.9061 26.7601C73.922 22.985 71.2141 20.1816 67.5346 20.1816C63.8073 20.1975 61.195 22.8735 61.195 26.7282Z" fill="#312F2D"/>
<path d="M115.066 18.4295C114.493 19.5285 113.999 20.5161 113.474 21.5515C111.674 20.4683 109.778 19.8471 107.707 20.0223C107.038 20.086 106.354 20.2772 105.732 20.532C105.016 20.8347 104.729 21.4878 104.761 22.2842C104.793 23.0328 105.254 23.4629 105.876 23.67C107.102 24.0841 108.376 24.3709 109.587 24.8169C110.782 25.2469 111.944 25.7566 113.075 26.3141C116.389 27.9548 115.958 32.6697 114.35 34.5333C112.629 36.5085 110.383 37.1775 107.867 37.0819C104.808 36.9704 102.005 36.0147 99.4883 34.0873C100.173 32.9883 100.826 31.921 101.384 31.029C102.977 31.7617 104.458 32.606 106.051 33.1157C107.086 33.4502 108.281 33.3387 109.412 33.3068C109.81 33.2909 110.272 33.0201 110.606 32.7493C111.674 31.921 111.706 30.4875 110.543 29.8344C109.268 29.1176 107.851 28.6557 106.481 28.0982C105.509 27.6999 104.49 27.3814 103.55 26.8876C99.329 24.6735 100.11 19.7197 103.295 17.8083C106.433 15.9287 109.699 16.1198 112.996 17.3941C113.697 17.633 114.334 18.0472 115.066 18.4295Z" fill="#312F2D"/>
<path d="M140.714 18.4452C140.172 19.5283 139.663 20.5478 139.137 21.5831C137.321 20.3726 135.378 19.8469 133.275 20.0062C132.654 20.054 132.033 20.2292 131.459 20.4841C130.743 20.7867 130.392 21.4079 130.408 22.2043C130.424 22.9689 130.87 23.4309 131.555 23.6539C133.084 24.1476 134.645 24.5777 136.174 25.1034C136.923 25.3582 137.624 25.7246 138.357 26.0591C142.402 27.8749 142.004 33.7526 138.611 35.8074C136.302 37.2091 133.849 37.3047 131.332 36.8268C129.102 36.3968 127.031 35.5526 125.184 34.0712C125.853 32.988 126.506 31.9208 127.191 30.8217C128.799 31.9686 130.424 32.9562 132.351 33.2588C133.196 33.3863 134.104 33.45 134.948 33.3066C135.521 33.211 136.143 32.8447 136.557 32.4146C137.385 31.5863 137.305 30.4076 136.286 29.8501C135.012 29.1333 133.594 28.6714 132.224 28.0979C131.173 27.6519 130.09 27.3174 129.086 26.7759C124.881 24.4821 125.964 19.3691 129.214 17.6488C132.431 15.9444 135.728 16.0718 138.994 17.5213C139.567 17.7762 140.109 18.1107 140.714 18.4452Z" fill="#312F2D"/>
<path d="M122.664 36.7639C121.247 36.7639 119.925 36.7639 118.555 36.7639C118.555 30.0898 118.555 23.4635 118.555 16.7734C119.893 16.7734 121.247 16.7734 122.664 16.7734C122.664 23.4316 122.664 30.0898 122.664 36.7639Z" fill="#312F2D"/>
<path d="M123.256 10.8319C123.256 12.377 122.189 13.476 120.644 13.476C119.131 13.476 118.016 12.3451 118.016 10.8319C118.016 9.3346 119.115 8.25145 120.596 8.23552C122.157 8.2196 123.256 9.30274 123.256 10.8319Z" fill="#D71925"/>
</svg>
