<svg width="191" height="37" viewBox="0 0 191 37" fill="none" xmlns="http://www.w3.org/2000/svg">
<path fill-rule="evenodd" clip-rule="evenodd" d="M45.0504 29.0066H49.4902V22.5671H53.1736C57.8725 22.5671 61.675 20.07 61.675 15.2002V15.1432C61.675 10.8796 58.6288 7.89037 53.6088 7.89037H45.0504V29.0066ZM83.8895 29.0066H88.3293L88.2723 20.3031H89.1945L97.8979 29.0066H103.897L93.3804 18.4899L103.897 7.97326H97.8979L89.4535 16.4177H88.2672L88.3242 7.89037H83.8844V29.0066H83.8895ZM73.2744 29.3537C77.305 29.3537 79.7709 27.9031 81.9209 25.6133L79.0767 22.7432C77.393 24.2819 75.8855 25.2662 73.4195 25.2662C69.705 25.2662 67.125 22.163 67.125 18.4485V18.3915C67.125 14.677 69.7672 11.6308 73.4195 11.6308C75.6264 11.6308 77.2791 12.5581 78.9317 14.0657L81.7758 10.7863C79.7761 8.86951 77.4552 7.53809 73.4506 7.53809C66.98 7.53809 62.4521 12.4131 62.4521 18.4485V18.5055C62.4521 24.5668 67.0681 29.3537 73.2744 29.3537ZM49.4902 18.5935V11.9209H53.2306C55.6655 11.9209 57.1783 13.0503 57.1783 15.2261V15.2831C57.1783 17.1689 55.7588 18.5884 53.3187 18.5884H49.4902V18.5935Z" fill="#004386"/>
<path fill-rule="evenodd" clip-rule="evenodd" d="M108.865 29.0057H118.439C123.459 29.0057 126.272 26.5086 126.272 22.4211V22.3901C126.272 18.2974 123.459 16.1526 118.61 16.1526H113.185V11.8319H123.661L125.334 7.88432H108.86V29.0057H108.865ZM170.411 29.0057H174.85L174.793 20.3023H175.716L184.419 29.0057H190.418L179.902 18.489L190.418 7.97239H184.419L175.975 16.4168H174.788L174.845 7.8895H170.405V29.0057H170.411ZM149.398 29.0057H153.838V20.4473H162.717V29.0057H167.183V7.88432H162.717V16.3287H153.838V7.88432H149.398V29.0057ZM125.733 29.0057L134.84 7.73926H138.959L148.041 29.0057H143.368L141.394 24.1877H132.255L130.282 29.0057H125.733ZM133.861 20.2453H139.809L136.851 13.0805L133.861 20.2453ZM113.191 25.0581V20.0122H118.558C120.62 20.0122 121.806 20.8825 121.806 22.4781V22.5092C121.806 24.1618 120.469 25.0633 118.527 25.0633H113.191V25.0581Z" fill="#004386"/>
<path fill-rule="evenodd" clip-rule="evenodd" d="M37 37C24.6649 37 12.3351 37 0 37C0 24.6649 0 12.3351 0 0C12.3351 0 24.6649 0 37 0C37 12.3351 37 24.6649 37 37ZM4.24293 32.7571C13.7494 32.7571 23.2506 32.7571 32.7571 32.7571C32.7571 23.2506 32.7571 13.7494 32.7571 4.24293C23.2506 4.24293 13.7494 4.24293 4.24293 4.24293C4.24293 13.7494 4.24293 23.2506 4.24293 32.7571Z" fill="#004386"/>
<path fill-rule="evenodd" clip-rule="evenodd" d="M16.5987 7.92578L27.1154 18.4476L16.5987 28.9643H10.5995L21.1214 18.4476L10.5995 7.92578H16.5987Z" fill="#004386"/>
</svg>
