<svg width="244" height="37" viewBox="0 0 244 37" fill="none" xmlns="http://www.w3.org/2000/svg">
<g clip-path="url(#clip0)">
<path fill-rule="evenodd" clip-rule="evenodd" d="M22.3272 0H3.76729C1.15999 0 0 2.20327 0 3.81686C0 13.0213 0 21.234 0 30.4384C0 31.9153 1.13583 34.1293 3.22488 34.1293H18.3289C18.5626 34.1293 18.7129 33.7648 18.439 33.4941C14.6073 29.9506 7.11569 25.1179 7.20699 19.2961C7.32245 11.7508 17.2522 4.60758 22.7111 0.431542C22.7756 0.380614 22.8132 0.310924 22.8132 0.238554C22.8132 0.107215 22.7058 0.00268038 22.5769 0.00268038H22.3272V0ZM243.421 32.0306V29.5378C243.421 28.9589 243.214 28.4657 242.803 28.0529C242.393 27.6401 241.896 27.4364 241.316 27.4364H240.741C240.172 27.4364 239.67 27.6428 239.24 28.0529C238.829 28.463 238.623 28.9589 238.623 29.5378V32.0306C238.623 32.6176 238.829 33.1188 239.24 33.5289C239.651 33.931 240.151 34.132 240.741 34.132H241.316C241.904 34.132 242.401 33.931 242.803 33.5289C243.217 33.1161 243.421 32.6176 243.421 32.0306ZM47.9893 32.0306V29.5378C47.9893 28.9589 47.7825 28.4657 47.3717 28.0529C46.9609 27.6428 46.4641 27.4364 45.8841 27.4364H45.3095C44.7402 27.4364 44.2381 27.6428 43.8085 28.0529C43.3977 28.463 43.1909 28.9589 43.1909 29.5378V32.0306C43.1909 32.6176 43.3977 33.1188 43.8085 33.5289C44.2193 33.931 44.7188 34.132 45.3095 34.132H45.8841C46.4722 34.132 46.9689 33.931 47.3717 33.5289C47.7825 33.1161 47.9893 32.6176 47.9893 32.0306ZM47.0361 32.0306C47.0361 32.3469 46.9233 32.6176 46.7004 32.8427C46.4749 33.0679 46.2037 33.1778 45.8868 33.1778H45.3122C44.9953 33.1778 44.7241 33.0652 44.4986 32.8427C44.273 32.6176 44.1629 32.3469 44.1629 32.0306V29.5378C44.1629 29.2215 44.2757 28.9508 44.4986 28.7257C44.7214 28.5032 44.9926 28.3906 45.3122 28.3906H45.8868C46.2037 28.3906 46.4749 28.5032 46.7004 28.7257C46.926 28.9508 47.0361 29.2189 47.0361 29.5378V32.0306ZM242.468 32.0306C242.468 32.3469 242.355 32.6176 242.132 32.8427C241.907 33.0679 241.638 33.1778 241.319 33.1778H240.744C240.427 33.1778 240.156 33.0652 239.93 32.8427C239.705 32.6176 239.595 32.3469 239.595 32.0306V29.5378C239.595 29.2215 239.707 28.9508 239.93 28.7257C240.156 28.5032 240.427 28.3906 240.744 28.3906H241.319C241.635 28.3906 241.907 28.5032 242.132 28.7257C242.358 28.9508 242.468 29.2189 242.468 29.5378V32.0306ZM52.7716 28.3906V33.6549C52.7716 33.805 52.8199 33.9202 52.9193 34.006C53.0186 34.0891 53.1314 34.132 53.263 34.132C53.4026 34.132 53.5181 34.0918 53.6067 34.0141C53.6953 33.9336 53.7382 33.8157 53.7382 33.6576V28.3933H54.6915C54.9627 28.3933 55.1882 28.4871 55.3708 28.6721C55.5534 28.8597 55.6447 29.0822 55.6447 29.3448V33.6576C55.6447 33.8077 55.693 33.9229 55.7924 34.0087C55.8917 34.0918 56.0045 34.1347 56.1361 34.1347C56.2757 34.1347 56.3912 34.0945 56.4798 34.0167C56.5684 33.9363 56.614 33.8184 56.614 33.6602V29.3475C56.614 28.8168 56.4261 28.3638 56.0528 27.9886C55.6877 27.624 55.2339 27.4418 54.6915 27.4418H50.3871C50.0596 27.4418 49.8958 27.5999 49.8958 27.9189V33.6576C49.8958 33.8077 49.9441 33.9229 50.0434 34.0087C50.1428 34.0918 50.2556 34.1347 50.3871 34.1347C50.5268 34.1347 50.6422 34.0945 50.7308 34.0167C50.8195 33.9363 50.8651 33.8184 50.8651 33.6602V28.396H52.7716V28.3906ZM60.4565 30.9933L62.3791 33.9604C62.4623 34.0811 62.5805 34.1427 62.7309 34.1427C62.8517 34.1427 62.9645 34.0971 63.0665 34.0087C63.1685 33.9202 63.2196 33.805 63.2196 33.6656C63.2196 33.5718 63.182 33.4646 63.1068 33.344L61.1305 30.291L63.0665 28.2754C63.1685 28.1547 63.2196 28.0341 63.2196 27.9108C63.2196 27.7714 63.1712 27.6481 63.0719 27.5463C62.9752 27.4444 62.8597 27.3935 62.7282 27.3935C62.6154 27.3935 62.5187 27.4444 62.4328 27.5463L59.3878 30.7252V27.9108C59.3878 27.7527 59.3395 27.6321 59.2401 27.5543C59.1408 27.4739 59.0334 27.4364 58.9099 27.4364C58.7702 27.4364 58.6548 27.4793 58.5662 27.5624C58.4776 27.6455 58.4346 27.7634 58.4346 27.9135V33.6522C58.4346 33.8023 58.4802 33.9176 58.5742 34.0033C58.6682 34.0864 58.781 34.1293 58.9099 34.1293C59.0495 34.1293 59.165 34.0891 59.2536 34.0114C59.3422 33.931 59.3878 33.813 59.3878 33.6549V32.1137L60.4565 30.9933ZM66.1947 33.1778V28.3906H68.1012C68.3724 28.3906 68.6006 28.4844 68.7886 28.6694C68.9765 28.857 69.0705 29.0795 69.0705 29.3421V32.2128C69.0705 32.4836 68.9765 32.7114 68.7886 32.899C68.6006 33.0866 68.3724 33.1805 68.1012 33.1805H66.1947V33.1778ZM66.1947 34.1293H68.1012C68.6436 34.1293 69.0974 33.947 69.4626 33.5825C69.8358 33.2099 70.0238 32.7516 70.0238 32.2102V29.3395C70.0238 28.8088 69.8358 28.3558 69.4626 27.9805C69.0974 27.616 68.6436 27.4337 68.1012 27.4337H65.7168C65.3892 27.4337 65.2254 27.5919 65.2254 27.9108V36.5202C65.2254 36.6703 65.2737 36.7856 65.3731 36.8713C65.4724 36.9544 65.5852 36.9973 65.7168 36.9973C65.8564 36.9973 65.9719 36.9571 66.0605 36.8794C66.1491 36.799 66.1947 36.681 66.1947 36.5229V34.1293ZM77.6819 33.6549V27.9162C77.6819 27.758 77.6335 27.6374 77.5422 27.5597C77.4482 27.4793 77.3355 27.4418 77.2066 27.4418C77.075 27.4418 76.9622 27.4846 76.8709 27.5677C76.777 27.6508 76.7313 27.7688 76.7313 27.9189V33.6576C76.7313 33.8077 76.7796 33.9229 76.879 34.0087C76.9783 34.0918 77.0858 34.1347 77.2093 34.1347C77.3489 34.1347 77.4644 34.0945 77.553 34.0167C77.6362 33.931 77.6819 33.813 77.6819 33.6549ZM72.8969 31.2586H73.8501C74.167 31.2586 74.4113 31.3551 74.5805 31.5535C74.7309 31.7304 74.806 31.9502 74.806 32.2128C74.806 32.4728 74.7228 32.7007 74.5536 32.891C74.3845 33.0813 74.1509 33.1778 73.8528 33.1778H72.8996V31.2586H72.8969ZM72.8969 30.3071V27.9135C72.8969 27.7554 72.8486 27.6347 72.7492 27.557C72.6499 27.4766 72.5425 27.4391 72.4189 27.4391C72.2793 27.4391 72.1612 27.482 72.0672 27.5651C71.9732 27.6481 71.9276 27.7661 71.9276 27.9162V33.6549C71.9276 33.9712 72.0913 34.132 72.4189 34.132H73.8501C74.4677 34.132 74.9484 33.931 75.2947 33.5289C75.6116 33.1831 75.7727 32.7462 75.7727 32.2128C75.7727 31.6794 75.6143 31.2425 75.2947 30.8968C74.9403 30.5054 74.457 30.3098 73.8501 30.3098H72.8969V30.3071ZM82.4776 28.3906V33.6549C82.4776 33.805 82.5259 33.9202 82.6253 34.006C82.7246 34.0891 82.8374 34.132 82.9689 34.132C83.1086 34.132 83.224 34.0918 83.3127 34.0141C83.4013 33.9336 83.4469 33.8157 83.4469 33.6576V28.3933H84.4001C84.6713 28.3933 84.8969 28.4871 85.0795 28.6721C85.2621 28.8597 85.3534 29.0822 85.3534 29.3448V33.6576C85.3534 33.8077 85.4017 33.9229 85.5011 34.0087C85.6004 34.0918 85.7132 34.1347 85.8448 34.1347C85.9844 34.1347 86.0999 34.0945 86.1885 34.0167C86.2771 33.9363 86.3227 33.8184 86.3227 33.6602V29.3475C86.3227 28.8168 86.1348 28.3638 85.7615 27.9886C85.3963 27.624 84.9426 27.4418 84.4001 27.4418H80.0958C79.7682 27.4418 79.6044 27.5999 79.6044 27.9189V33.6576C79.6044 33.8077 79.6528 33.9229 79.7521 34.0087C79.8515 34.0918 79.9643 34.1347 80.0958 34.1347C80.2355 34.1347 80.3509 34.0945 80.4395 34.0167C80.5281 33.9363 80.5711 33.8184 80.5711 33.6602V28.396H82.4776V28.3906ZM93.0249 32.0306V29.5378C93.0249 28.9589 92.8181 28.4657 92.4073 28.0529C91.9965 27.6428 91.4997 27.4364 90.9197 27.4364H90.3451C89.7732 27.4364 89.2737 27.6428 88.8441 28.0529C88.4333 28.463 88.2265 28.9589 88.2265 29.5378V32.0306C88.2265 32.6176 88.4333 33.1188 88.8441 33.5289C89.2549 33.931 89.757 34.132 90.3451 34.132H90.9197C91.5078 34.132 92.0045 33.931 92.4073 33.5289C92.8181 33.1161 93.0249 32.6176 93.0249 32.0306ZM92.0717 32.0306C92.0717 32.3469 91.9589 32.6176 91.736 32.8427C91.5105 33.0679 91.2393 33.1778 90.9224 33.1778H90.3478C90.0309 33.1778 89.7597 33.0652 89.5342 32.8427C89.3086 32.6176 89.1985 32.3469 89.1985 32.0306V29.5378C89.1985 29.2215 89.3113 28.9508 89.5342 28.7257C89.7597 28.5032 90.0309 28.3906 90.3478 28.3906H90.9224C91.2393 28.3906 91.5105 28.5032 91.736 28.7257C91.9616 28.9508 92.0717 29.2189 92.0717 29.5378V32.0306ZM95.9007 30.3071V29.3421C95.9007 29.0822 95.992 28.857 96.1746 28.6694C96.3572 28.4817 96.5827 28.3906 96.854 28.3906H97.8072C98.0784 28.3906 98.3066 28.4844 98.4946 28.6694C98.6825 28.857 98.7738 29.0795 98.7738 29.3421V30.3071H95.9007ZM95.9007 31.2586H99.2518C99.5686 31.2586 99.7298 31.1005 99.7298 30.7815V29.3395C99.7298 28.8088 99.5418 28.3558 99.1686 27.9805C98.8034 27.616 98.3496 27.4337 97.8072 27.4337H96.854C96.3196 27.4337 95.8685 27.6213 95.4926 27.9939C95.1193 28.3584 94.9314 28.8061 94.9314 29.3368V32.2075C94.9314 32.7489 95.1193 33.2046 95.4926 33.5798C95.8658 33.9444 96.3196 34.1266 96.854 34.1266H99.2518C99.4022 34.1266 99.5176 34.0784 99.6009 33.9792C99.6841 33.88 99.7271 33.7701 99.7271 33.6495C99.7271 33.5101 99.6868 33.3949 99.6062 33.3064C99.5257 33.218 99.4075 33.1724 99.2491 33.1724H96.8513C96.5801 33.1724 96.3545 33.0786 96.1719 32.891C95.9893 32.7034 95.898 32.4755 95.898 32.2048V31.2586H95.9007ZM111.228 32.2128C111.228 32.4836 111.134 32.7114 110.946 32.899C110.758 33.0866 110.53 33.1805 110.258 33.1805H109.305C109.034 33.1805 108.808 33.0866 108.626 32.899C108.443 32.7114 108.352 32.4836 108.352 32.2128V29.3421C108.352 29.0822 108.443 28.857 108.626 28.6694C108.808 28.4817 109.034 28.3906 109.305 28.3906H111.228V32.2128ZM111.692 33.4994C111.888 33.7514 112.151 33.947 112.479 34.0864C112.543 34.124 112.611 34.1427 112.675 34.1427C112.815 34.1427 112.93 34.0918 113.019 33.9899C113.107 33.8881 113.153 33.7701 113.153 33.6388C113.153 33.4431 113.051 33.3038 112.844 33.218C112.648 33.1242 112.49 32.9875 112.366 32.8052C112.245 32.6229 112.184 32.4246 112.184 32.2102V27.9108C112.184 27.5945 112.025 27.4337 111.706 27.4337H109.308C108.776 27.4337 108.322 27.6213 107.946 27.9939C107.573 28.3665 107.385 28.8141 107.385 29.3368V32.2075C107.385 32.7489 107.573 33.2046 107.946 33.5798C108.32 33.9444 108.773 34.1266 109.308 34.1266H110.261C110.54 34.1266 110.809 34.0677 111.061 33.9524C111.314 33.8372 111.523 33.687 111.692 33.4994ZM116.026 30.9933L117.949 33.9604C118.032 34.0811 118.15 34.1427 118.3 34.1427C118.421 34.1427 118.534 34.0971 118.636 34.0087C118.738 33.9202 118.789 33.805 118.789 33.6656C118.789 33.5718 118.751 33.4646 118.676 33.344L116.7 30.291L118.636 28.2754C118.738 28.1547 118.789 28.0341 118.789 27.9108C118.789 27.7714 118.741 27.6481 118.641 27.5463C118.542 27.4444 118.429 27.3935 118.298 27.3935C118.185 27.3935 118.088 27.4444 118.002 27.5463L114.957 30.7252V27.9108C114.957 27.7527 114.909 27.6321 114.81 27.5543C114.71 27.4739 114.603 27.4364 114.479 27.4364C114.34 27.4364 114.224 27.4793 114.136 27.5624C114.047 27.6455 114.001 27.7634 114.001 27.9135V33.6522C114.001 33.8023 114.047 33.9176 114.141 34.0033C114.235 34.0864 114.348 34.1293 114.477 34.1293C114.616 34.1293 114.732 34.0891 114.82 34.0114C114.909 33.931 114.955 33.813 114.955 33.6549V32.1137L116.026 30.9933ZM124.637 33.1778H122.715C122.444 33.1778 122.218 33.084 122.035 32.8963C121.853 32.7087 121.762 32.4809 121.762 32.2102V27.9108C121.762 27.7527 121.713 27.6321 121.614 27.5543C121.515 27.4739 121.407 27.4364 121.284 27.4364C121.144 27.4364 121.026 27.4793 120.932 27.5624C120.838 27.6455 120.792 27.7634 120.792 27.9135V32.2128C120.792 32.7543 120.98 33.2099 121.353 33.5852C121.727 33.9497 122.18 34.132 122.715 34.132H125.591V34.5099C125.591 34.6681 125.639 34.7887 125.738 34.8745C125.838 34.9576 125.945 35.0004 126.069 35.0004C126.208 35.0004 126.324 34.9576 126.412 34.8745C126.501 34.7914 126.547 34.6681 126.547 34.5099V33.6549C126.547 33.3386 126.388 33.1778 126.069 33.1778H125.591V27.9135C125.591 27.7554 125.545 27.6347 125.451 27.557C125.357 27.4766 125.244 27.4391 125.115 27.4391C124.984 27.4391 124.874 27.482 124.78 27.5651C124.686 27.6481 124.64 27.7661 124.64 27.9162V33.1778H124.637ZM133.262 33.6549V27.9162C133.262 27.758 133.216 27.6374 133.122 27.5597C133.029 27.4793 132.916 27.4418 132.787 27.4418C132.655 27.4418 132.542 27.4846 132.451 27.5677C132.357 27.6508 132.312 27.7688 132.312 27.9189V33.1831H130.389C130.118 33.1831 129.892 33.0893 129.71 32.9017C129.527 32.7141 129.436 32.4862 129.436 32.2155V27.9162C129.436 27.758 129.387 27.6374 129.288 27.5597C129.189 27.4793 129.079 27.4418 128.958 27.4418C128.818 27.4418 128.7 27.4846 128.606 27.5677C128.512 27.6508 128.466 27.7688 128.466 27.9189V32.2182C128.466 32.7596 128.654 33.2153 129.028 33.5906C129.401 33.9551 129.855 34.1374 130.389 34.1374H132.787C133.104 34.1293 133.262 33.9712 133.262 33.6549ZM139.967 32.0306V29.5378C139.967 28.9589 139.76 28.4657 139.349 28.0529C138.939 27.6428 138.442 27.4364 137.862 27.4364H137.287C136.718 27.4364 136.216 27.6428 135.786 28.0529C135.375 28.463 135.169 28.9589 135.169 29.5378V32.0306C135.169 32.6176 135.375 33.1188 135.786 33.5289C136.197 33.931 136.696 34.132 137.287 34.132H137.862C138.45 34.132 138.947 33.931 139.349 33.5289C139.76 33.1161 139.967 32.6176 139.967 32.0306ZM139.014 32.0306C139.014 32.3469 138.901 32.6176 138.678 32.8427C138.455 33.0679 138.184 33.1778 137.864 33.1778H137.29C136.973 33.1778 136.702 33.0652 136.476 32.8427C136.251 32.6176 136.141 32.3469 136.141 32.0306V29.5378C136.141 29.2215 136.253 28.9508 136.476 28.7257C136.699 28.5032 136.973 28.3906 137.29 28.3906H137.864C138.181 28.3906 138.453 28.5032 138.678 28.7257C138.904 28.9508 139.014 29.2189 139.014 29.5378V32.0306ZM145.716 30.3071H142.84V27.9135C142.84 27.7554 142.792 27.6347 142.692 27.557C142.593 27.4766 142.483 27.4391 142.362 27.4391C142.223 27.4391 142.104 27.482 142.01 27.5651C141.916 27.6481 141.871 27.7661 141.871 27.9162V33.6549C141.871 33.805 141.919 33.9202 142.018 34.006C142.118 34.0891 142.231 34.132 142.362 34.132C142.502 34.132 142.617 34.0918 142.706 34.0141C142.794 33.9336 142.84 33.8157 142.84 33.6576V31.264H145.716V33.6576C145.716 33.8077 145.762 33.9229 145.856 34.0087C145.95 34.0918 146.062 34.1347 146.191 34.1347C146.331 34.1347 146.446 34.0945 146.535 34.0167C146.624 33.9363 146.669 33.8184 146.669 33.6602V27.9215C146.669 27.7634 146.624 27.6428 146.53 27.5651C146.436 27.4846 146.323 27.4471 146.194 27.4471C146.062 27.4471 145.95 27.49 145.858 27.5731C145.764 27.6562 145.719 27.7741 145.719 27.9242V30.3071H145.716ZM149.545 30.3071V29.3421C149.545 29.0822 149.636 28.857 149.819 28.6694C150.001 28.4817 150.227 28.3906 150.498 28.3906H151.451C151.723 28.3906 151.951 28.4844 152.139 28.6694C152.327 28.857 152.421 29.0795 152.421 29.3421V30.3071H149.545ZM149.545 31.2586H152.896C153.213 31.2586 153.374 31.1005 153.374 30.7815V29.3395C153.374 28.8088 153.186 28.3558 152.813 27.9805C152.448 27.616 151.994 27.4337 151.451 27.4337H150.498C149.967 27.4337 149.513 27.6213 149.137 27.9939C148.764 28.3584 148.576 28.8061 148.576 29.3368V32.2075C148.576 32.7489 148.764 33.2046 149.137 33.5798C149.51 33.9444 149.964 34.1266 150.498 34.1266H152.896C153.046 34.1266 153.162 34.0784 153.248 33.9792C153.331 33.88 153.374 33.7701 153.374 33.6495C153.374 33.5101 153.334 33.3949 153.256 33.3064C153.178 33.218 153.057 33.1724 152.899 33.1724H150.501C150.23 33.1724 150.004 33.0786 149.822 32.891C149.639 32.7034 149.548 32.4755 149.548 32.2048V31.2586H149.545ZM156.25 33.1778V28.3906H158.156C158.427 28.3906 158.656 28.4844 158.844 28.6694C159.032 28.857 159.126 29.0795 159.126 29.3421V32.2128C159.126 32.4836 159.032 32.7114 158.844 32.899C158.656 33.0866 158.427 33.1805 158.156 33.1805H156.25V33.1778ZM156.25 34.1293H158.156C158.699 34.1293 159.152 33.947 159.518 33.5825C159.891 33.2099 160.079 32.7516 160.079 32.2102V29.3395C160.079 28.8088 159.891 28.3558 159.518 27.9805C159.152 27.616 158.699 27.4337 158.156 27.4337H155.772C155.444 27.4337 155.28 27.5919 155.28 27.9108V36.5202C155.28 36.6703 155.329 36.7856 155.428 36.8713C155.528 36.9544 155.64 36.9973 155.772 36.9973C155.911 36.9973 156.027 36.9571 156.116 36.8794C156.204 36.799 156.25 36.681 156.25 36.5229V34.1293ZM165.831 30.3071H162.955V27.9135C162.955 27.7554 162.906 27.6347 162.807 27.557C162.708 27.4766 162.598 27.4391 162.477 27.4391C162.337 27.4391 162.219 27.482 162.125 27.5651C162.031 27.6481 161.985 27.7661 161.985 27.9162V33.6549C161.985 33.805 162.034 33.9202 162.133 34.006C162.232 34.0891 162.345 34.132 162.477 34.132C162.616 34.132 162.732 34.0918 162.82 34.0141C162.909 33.9336 162.955 33.8157 162.955 33.6576V31.264H165.831V33.6576C165.831 33.8077 165.876 33.9229 165.97 34.0087C166.064 34.0918 166.177 34.1347 166.306 34.1347C166.445 34.1347 166.561 34.0945 166.649 34.0167C166.738 33.9363 166.784 33.8184 166.784 33.6602V27.9215C166.784 27.7634 166.738 27.6428 166.644 27.5651C166.55 27.4846 166.437 27.4471 166.308 27.4471C166.177 27.4471 166.064 27.49 165.973 27.5731C165.879 27.6562 165.833 27.7741 165.833 27.9242V30.3071H165.831ZM173.486 32.0306V29.5378C173.486 28.9589 173.279 28.4657 172.868 28.0529C172.457 27.6428 171.961 27.4364 171.381 27.4364H170.806C170.237 27.4364 169.735 27.6428 169.305 28.0529C168.894 28.463 168.688 28.9589 168.688 29.5378V32.0306C168.688 32.6176 168.894 33.1188 169.305 33.5289C169.716 33.931 170.218 34.132 170.806 34.132H171.381C171.969 34.132 172.466 33.931 172.868 33.5289C173.282 33.1161 173.486 32.6176 173.486 32.0306ZM172.533 32.0306C172.533 32.3469 172.42 32.6176 172.197 32.8427C171.971 33.0679 171.703 33.1778 171.383 33.1778H170.809C170.492 33.1778 170.221 33.0652 169.995 32.8427C169.77 32.6176 169.66 32.3469 169.66 32.0306V29.5378C169.66 29.2215 169.772 28.9508 169.995 28.7257C170.221 28.5032 170.492 28.3906 170.809 28.3906H171.383C171.7 28.3906 171.971 28.5032 172.197 28.7257C172.423 28.9508 172.533 29.2189 172.533 29.5378V32.0306ZM176.362 30.3071V29.3421C176.362 29.0822 176.453 28.857 176.636 28.6694C176.818 28.4817 177.044 28.3906 177.315 28.3906H178.268C178.539 28.3906 178.768 28.4844 178.956 28.6694C179.144 28.857 179.235 29.0795 179.235 29.3421V30.3071H176.362ZM176.362 31.2586H179.713C180.03 31.2586 180.191 31.1005 180.191 30.7815V29.3395C180.191 28.8088 180.003 28.3558 179.63 27.9805C179.264 27.616 178.811 27.4337 178.268 27.4337H177.315C176.783 27.4337 176.33 27.6213 175.954 27.9939C175.58 28.3584 175.392 28.8061 175.392 29.3368V32.2075C175.392 32.7489 175.58 33.2046 175.954 33.5798C176.327 33.9444 176.781 34.1266 177.315 34.1266H179.713C179.863 34.1266 179.979 34.0784 180.065 33.9792C180.148 33.88 180.191 33.7701 180.191 33.6495C180.191 33.5101 180.15 33.3949 180.073 33.3064C179.992 33.218 179.874 33.1724 179.715 33.1724H177.318C177.046 33.1724 176.821 33.0786 176.638 32.891C176.456 32.7034 176.364 32.4755 176.364 32.2048V31.2586H176.362ZM192.645 32.0306V29.5378C192.645 28.9589 192.438 28.4657 192.027 28.0529C191.616 27.6428 191.119 27.4364 190.539 27.4364H189.965C189.396 27.4364 188.893 27.6428 188.464 28.0529C188.053 28.463 187.846 28.9589 187.846 29.5378V32.0306C187.846 32.6176 188.053 33.1188 188.464 33.5289C188.875 33.931 189.377 34.132 189.965 34.132H190.539C191.13 34.132 191.624 33.931 192.027 33.5289C192.441 33.1161 192.645 32.6176 192.645 32.0306ZM191.691 32.0306C191.691 32.3469 191.579 32.6176 191.356 32.8427C191.133 33.0679 190.859 33.1778 190.542 33.1778H189.967C189.651 33.1778 189.379 33.0652 189.154 32.8427C188.928 32.6176 188.818 32.3469 188.818 32.0306V29.5378C188.818 29.2215 188.931 28.9508 189.154 28.7257C189.379 28.5032 189.651 28.3906 189.967 28.3906H190.542C190.859 28.3906 191.133 28.5032 191.356 28.7257C191.581 28.9508 191.691 29.2189 191.691 29.5378V32.0306ZM198.396 32.2128C198.396 32.4836 198.302 32.7114 198.114 32.899C197.926 33.0866 197.698 33.1805 197.427 33.1805H196.474C196.202 33.1805 195.974 33.0866 195.794 32.899C195.612 32.7114 195.52 32.4836 195.52 32.2128V29.3421C195.52 29.0822 195.612 28.857 195.794 28.6694C195.977 28.4817 196.202 28.3906 196.474 28.3906H197.427C197.698 28.3906 197.926 28.4844 198.114 28.6694C198.302 28.857 198.396 29.0795 198.396 29.3421V32.2128ZM196.852 27.4364H196.474C195.939 27.4364 195.488 27.624 195.112 27.9966C194.739 28.3692 194.551 28.8168 194.551 29.3395V32.2102C194.551 32.7516 194.739 33.2073 195.112 33.5825C195.485 33.947 195.939 34.1293 196.474 34.1293H197.427C197.969 34.1293 198.423 33.947 198.788 33.5825C199.161 33.2099 199.349 32.7516 199.349 32.2102V29.3395C199.349 28.8624 199.194 28.4469 198.888 28.0931L198.775 27.9403L196.237 25.5172H198.874C199.025 25.5172 199.14 25.469 199.226 25.3698C199.309 25.2706 199.352 25.1608 199.352 25.0401C199.352 24.9008 199.312 24.7828 199.231 24.689C199.151 24.5952 199.033 24.5496 198.874 24.5496H195.045C194.868 24.5496 194.736 24.5925 194.653 24.6756C194.57 24.7587 194.527 24.8632 194.527 24.9838C194.527 25.1339 194.589 25.2626 194.709 25.3752L196.852 27.4364ZM205.098 33.1778V27.9135C205.098 27.7554 205.05 27.6347 204.951 27.557C204.854 27.4766 204.741 27.4391 204.62 27.4391C204.481 27.4391 204.363 27.482 204.269 27.5651C204.175 27.6481 204.129 27.7661 204.129 27.9162V33.1805H203.176C202.905 33.1805 202.679 33.0866 202.496 32.899C202.314 32.7114 202.223 32.4836 202.223 32.2128V27.9135C202.223 27.7554 202.174 27.6347 202.075 27.557C201.976 27.4766 201.865 27.4391 201.745 27.4391C201.605 27.4391 201.487 27.482 201.393 27.5651C201.299 27.6481 201.253 27.7661 201.253 27.9162V32.2155C201.253 32.757 201.441 33.2126 201.814 33.5879C202.188 33.9524 202.641 34.1347 203.176 34.1347H207.972V34.6118C207.972 34.7699 208.017 34.8879 208.111 34.9683C208.205 35.0487 208.318 35.0862 208.447 35.0862C208.586 35.0862 208.702 35.046 208.79 34.9683C208.879 34.8879 208.922 34.7699 208.922 34.6118V33.6602C208.922 33.344 208.764 33.1831 208.444 33.1831H207.966V27.9189C207.966 27.7607 207.918 27.6401 207.818 27.5624C207.719 27.482 207.609 27.4444 207.488 27.4444C207.349 27.4444 207.23 27.4873 207.136 27.5704C207.042 27.6535 206.997 27.7714 206.997 27.9215V33.1858H205.098V33.1778ZM211.817 30.3071V29.3421C211.817 29.0822 211.908 28.857 212.091 28.6694C212.273 28.4817 212.499 28.3906 212.77 28.3906H213.723C213.994 28.3906 214.223 28.4844 214.411 28.6694C214.598 28.857 214.69 29.0795 214.69 29.3421V30.3071H211.817ZM211.817 31.2586H215.168C215.485 31.2586 215.646 31.1005 215.646 30.7815V29.3395C215.646 28.8088 215.458 28.3558 215.085 27.9805C214.719 27.616 214.266 27.4337 213.723 27.4337H212.77C212.238 27.4337 211.784 27.6213 211.409 27.9939C211.035 28.3584 210.847 28.8061 210.847 29.3368V32.2075C210.847 32.7489 211.035 33.2046 211.409 33.5798C211.782 33.9444 212.236 34.1266 212.77 34.1266H215.168C215.318 34.1266 215.434 34.0784 215.52 33.9792C215.603 33.88 215.646 33.7701 215.646 33.6495C215.646 33.5101 215.605 33.3949 215.525 33.3064C215.444 33.218 215.326 33.1724 215.168 33.1724H212.77C212.499 33.1724 212.27 33.0786 212.091 32.891C211.908 32.7034 211.817 32.4755 211.817 32.2048V31.2586ZM220.919 34.1293C221.07 34.1293 221.185 34.0811 221.271 33.9819C221.354 33.8827 221.397 33.7728 221.397 33.6522C221.397 33.5128 221.357 33.3976 221.279 33.3091C221.199 33.2207 221.08 33.1751 220.922 33.1751H219.477C219.206 33.1751 218.981 33.0813 218.798 32.8937C218.616 32.706 218.524 32.4782 218.524 32.2075V29.3368C218.524 29.0768 218.616 28.8516 218.798 28.664C218.981 28.4764 219.206 28.3853 219.477 28.3853H220.922C221.072 28.3853 221.188 28.337 221.274 28.2378C221.357 28.1387 221.4 28.0314 221.4 27.9081C221.4 27.7688 221.36 27.6535 221.282 27.5651C221.201 27.4766 221.083 27.431 220.925 27.431H219.48C218.946 27.431 218.495 27.6187 218.119 27.9912C217.745 28.3638 217.558 28.8114 217.558 29.3341V32.2048C217.558 32.7462 217.745 33.2019 218.119 33.5772C218.492 33.9417 218.946 34.124 219.48 34.124H220.919V34.1293ZM226.18 28.3906V33.6549C226.18 33.805 226.228 33.9202 226.327 34.006C226.427 34.0891 226.539 34.132 226.671 34.132C226.811 34.132 226.926 34.0918 227.015 34.0141C227.103 33.9336 227.149 33.8157 227.149 33.6576V28.3933H228.102C228.373 28.3933 228.602 28.4871 228.782 28.6721C228.964 28.8597 229.055 29.0822 229.055 29.3448V33.6576C229.055 33.8077 229.104 33.9229 229.203 34.0087C229.302 34.0918 229.415 34.1347 229.547 34.1347C229.686 34.1347 229.802 34.0945 229.891 34.0167C229.979 33.9363 230.025 33.8184 230.025 33.6602V29.3475C230.025 28.8168 229.837 28.3638 229.464 27.9886C229.098 27.624 228.645 27.4418 228.102 27.4418H223.795C223.468 27.4418 223.304 27.5999 223.304 27.9189V33.6576C223.304 33.8077 223.352 33.9229 223.451 34.0087C223.551 34.0918 223.664 34.1347 223.795 34.1347C223.935 34.1347 224.05 34.0945 224.139 34.0167C224.227 33.9363 224.273 33.8184 224.273 33.6602V28.396H226.18V28.3906ZM235.774 32.2128C235.774 32.4836 235.68 32.7114 235.492 32.899C235.304 33.0866 235.076 33.1805 234.804 33.1805H233.851C233.58 33.1805 233.354 33.0866 233.172 32.899C232.989 32.7114 232.898 32.4836 232.898 32.2128V29.3421C232.898 29.0822 232.989 28.857 233.172 28.6694C233.354 28.4817 233.58 28.3906 233.851 28.3906H234.804C235.076 28.3906 235.304 28.4844 235.492 28.6694C235.68 28.857 235.774 29.0795 235.774 29.3421V32.2128ZM232.898 27.7607V26.2919C232.898 26.048 232.973 25.863 233.123 25.7317C233.274 25.6003 233.451 25.536 233.655 25.536C233.862 25.536 234.042 25.6003 234.195 25.7317C234.348 25.863 234.426 26.048 234.426 26.2919C234.426 26.45 234.364 26.6055 234.243 26.7529C234.179 26.836 234.047 26.9539 233.851 27.104C233.787 27.1496 233.706 27.2086 233.612 27.2783C233.518 27.3479 233.411 27.4257 233.29 27.5088C233.244 27.5463 233.188 27.5865 233.121 27.6267C233.056 27.6696 232.981 27.7125 232.898 27.7607ZM234.804 27.4659C235.011 27.3265 235.156 27.1657 235.247 26.9834C235.336 26.8011 235.382 26.5653 235.382 26.2758C235.382 25.7424 235.204 25.3135 234.847 24.9865C234.53 24.697 234.138 24.5523 233.669 24.5523C233.191 24.5523 232.793 24.697 232.476 24.9865C232.111 25.3135 231.929 25.7478 231.929 26.2892V32.2102C231.929 32.7516 232.117 33.2073 232.49 33.5825C232.863 33.947 233.317 34.1293 233.848 34.1293H234.802C235.344 34.1293 235.798 33.947 236.163 33.5825C236.536 33.2099 236.724 32.7516 236.724 32.2102V29.3395C236.724 28.7793 236.566 28.337 236.246 28.01C235.895 27.6481 235.414 27.4659 234.804 27.4659ZM193.3 0V18.4544H196.21V0H193.3ZM203.917 0L197.926 6.75992C197.008 7.79723 197.008 9.62525 197.926 10.7993L203.92 18.4571H207.612L200.04 8.78093L207.612 0H203.917ZM94.4158 5.77622C94.4158 3.14141 95.8819 1.42864 98.2771 1.42864H102.963V0H98.3523C94.9904 0 92.9792 2.04513 92.9792 5.77622V18.4544H94.4158V5.77622ZM134.457 5.71458V3.99913C134.457 0.943495 132.647 0 129.847 0H123.351V1.43132H129.847C131.742 1.43132 133.02 1.69668 133.02 3.9214V5.55911C133.02 7.36837 131.963 8.09476 130 8.17249H126.146V9.60649H130C131.809 9.60649 133.203 10.2015 133.02 12.2681V14.0774C133.02 16.1037 131.831 17.0177 129.847 17.0177H123.351V18.4518H129.847C132.561 18.4518 134.457 16.6077 134.457 13.9273V12.118C134.457 10.3838 133.778 9.22856 132.416 8.77557C133.778 8.47537 134.457 7.52115 134.457 5.71458ZM154.456 0H162.313V2.90553H155.404C153.919 2.90553 152.703 4.12779 152.703 5.61272V12.8551C152.703 14.3374 153.919 15.5516 155.404 15.5516H162.313L166.996 2.70987C167.519 1.2705 168.384 0.00268038 169.896 0.00268038C171.408 0.00268038 172.267 1.25978 172.796 2.70987L178.537 18.4571H175.441L169.896 3.24862L164.351 18.4571H154.456C151.894 18.4571 149.8 16.3664 149.8 13.8093V4.64778C149.8 2.09338 151.894 0 154.456 0ZM161.301 7.45414H154.725V10.0059H161.301V7.45414ZM72.0269 18.4571H73.3614V0H72.0269V18.4571ZM70.6924 14.7823V12.0483C70.6924 9.15083 69.1001 7.4461 66.1625 7.4461H59.8389V8.77557H66.2377C68.359 8.77557 69.3578 9.99247 69.3578 12.0456V14.5518C69.3578 16.2056 67.8327 17.1196 66.2377 17.1196H58.5044V0H57.1699V18.4544H66.2377C68.41 18.4571 70.6924 17.1464 70.6924 14.7823ZM90.278 3.67212V5.50819C90.278 8.40568 88.6857 10.1104 85.7481 10.1104H79.4245V8.78093H85.8233C87.9446 8.78093 88.9434 7.56404 88.9434 5.51087V3.90264C88.9434 2.24884 87.4183 1.33483 85.8233 1.33483H78.09V18.4571H76.7555V0H85.8233C87.9956 0 90.278 1.31071 90.278 3.67212ZM119.095 18.4571H120.43V0H119.095V18.4571ZM117.761 14.7823V12.0483C117.761 9.15083 116.168 7.4461 113.231 7.4461H106.907V8.77557H113.306C115.427 8.77557 116.426 9.99247 116.426 12.0456V14.5518C116.426 16.2056 114.901 17.1196 113.306 17.1196H105.573V0H104.238V18.4544H113.306C115.481 18.4571 117.761 17.1464 117.761 14.7823ZM183.193 0C180.631 0 178.537 2.0907 178.537 4.64778V13.8067C178.537 16.3637 180.631 18.4544 183.193 18.4544H191.05V15.5489H184.141C182.656 15.5489 181.439 14.3347 181.439 12.8524V5.61272C181.439 4.13047 182.656 2.90553 184.141 2.90553H191.05V0H183.193V0ZM190.037 7.45414V10.0059H183.461V7.45414H190.037ZM229.77 2.09874C229.372 0.814836 228.47 0 227.243 0C225.296 0 224.195 1.21957 224.195 3.09316V18.4571H227.106V3.09316L231.225 16.1707C231.735 17.5458 232.157 18.4571 233.808 18.4571C235.454 18.4571 235.878 17.5538 236.391 16.1707L240.51 3.09316V18.4571H243.421V3.09316C243.421 1.21957 242.317 0 240.373 0C239.149 0 238.244 0.814836 237.847 2.09874C237.449 3.37996 233.808 14.533 233.808 14.533C233.808 14.533 230.17 3.37996 229.77 2.09874ZM212.418 0H216.935C219.496 0 221.591 2.0907 221.591 4.64778V13.8067C221.591 16.3637 219.496 18.4544 216.935 18.4544H212.418C209.856 18.4544 207.762 16.3611 207.762 13.8067V4.64778C207.759 2.0907 209.856 0 212.418 0ZM213.366 2.90553C211.881 2.90553 210.665 4.12779 210.665 5.61272V12.8551C210.665 14.3374 211.881 15.5516 213.366 15.5516H215.987C217.472 15.5516 218.688 14.3374 218.688 12.8551V5.61272C218.688 4.13047 217.472 2.90553 215.987 2.90553H213.366ZM143.678 2.90553L143.681 18.4544H140.77L140.767 2.90553H136.691V0H147.757V2.90553H143.678ZM53.4482 0L44.5254 7.9527V0H43.1909V18.4544H44.5254V9.59845L53.5449 18.4571H55.4514L45.5995 8.78093L55.4514 0H53.4482Z" fill="#008BD2"/>
<path fill-rule="evenodd" clip-rule="evenodd" d="M29.9423 0.00536508C25.5117 0.254641 9.22621 9.0865 10.5795 17.6316C11.4898 23.4587 25.7695 33.2341 30.5169 34.0918C31.3949 34.2365 34.1929 34.1132 34.1929 30.9799C34.1983 26.4473 34.1929 14.5089 34.1929 6.85374C34.1929 5.23747 34.1956 6.34179 34.1929 4.15996C34.1902 1.2437 33.4867 -0.00267607 30.2645 4.3134e-06C30.1598 4.3134e-06 30.0524 0.0026847 29.9423 0.00536508Z" fill="#E5310E"/>
</g>
<defs>
<clipPath id="clip0">
<rect width="243.421" height="37" fill="white"/>
</clipPath>
</defs>
</svg>
