<svg width="134" height="40" viewBox="0 0 134 40" fill="none" xmlns="http://www.w3.org/2000/svg">
<g clip-path="url(#clip0)">
<path d="M44.7539 32.8665C44.7539 32.5867 44.7539 32.307 44.8938 32.0273C45.0336 31.7476 45.1735 31.6077 45.3133 31.328C45.4532 31.1881 45.7329 30.9084 46.0126 30.9084C46.2924 30.7686 46.5721 30.7686 46.9917 30.7686C47.2714 30.7686 47.691 30.7686 47.9707 30.9084C48.2504 31.0483 48.5301 31.1881 48.67 31.328C48.8098 31.4679 48.9497 31.7476 49.0896 32.0273C49.2294 32.307 49.2294 32.5867 49.2294 32.8665C49.2294 33.1462 49.2294 33.4259 49.0896 33.7056C48.9497 33.9853 48.8098 34.1252 48.67 34.4049C48.5301 34.5448 48.2504 34.8245 47.9707 34.8245C47.691 34.9644 47.4112 34.9644 46.9917 34.9644C46.7119 34.9644 46.5721 34.9644 46.2924 34.8245C46.1525 34.8245 45.8728 34.6846 45.7329 34.5448C45.5931 34.4049 45.4532 34.2651 45.3133 34.2651C45.1735 34.1252 45.0336 33.9853 45.0336 33.8455C44.8938 33.7056 44.8938 33.5658 44.8938 33.286C44.7539 33.1462 44.7539 33.0063 44.7539 32.8665ZM45.4532 32.8665C45.4532 33.1462 45.4532 33.286 45.5931 33.5658C45.7329 33.7056 45.7329 33.9853 45.8728 34.1252C46.0126 34.2651 46.1525 34.4049 46.4322 34.4049C46.5721 34.5448 46.8518 34.5448 47.1315 34.5448C47.4112 34.5448 47.5511 34.5448 47.8308 34.4049C47.9707 34.2651 48.2504 34.2651 48.3903 34.1252C48.5301 33.9853 48.67 33.8455 48.67 33.5658C48.8098 33.4259 48.8099 33.1462 48.8099 32.8665C48.8099 32.5867 48.8098 32.4469 48.67 32.1672C48.5301 32.0273 48.5301 31.7476 48.3903 31.6077C48.2504 31.4679 48.1106 31.328 47.8308 31.328C47.691 31.1881 47.4112 31.1881 47.1315 31.1881C46.8518 31.1881 46.7119 31.1881 46.4322 31.328C46.2924 31.4679 46.0126 31.4679 45.8728 31.6077C45.7329 31.7476 45.5931 31.8874 45.5931 32.1672C45.4532 32.307 45.4532 32.5867 45.4532 32.8665Z" fill="#00437B"/>
<path d="M53.0051 30.7686V31.328H51.6065V34.9644H51.047V31.328H49.6484V30.7686H53.0051Z" fill="#00437B"/>
<path d="M57.062 30.6289L58.8801 34.8247H58.3207L57.7613 33.566H55.9431L55.3837 34.8247H54.8242L56.6424 30.6289H57.062ZM56.7823 31.6079L56.2228 33.1464H57.4816L56.7823 31.6079Z" fill="#00437B"/>
<path d="M63.2137 30.7686V34.9644H62.6543V31.7476L61.3955 33.4259H61.2557L59.9969 31.7476V34.9644H59.4375V30.7686H59.9969L61.3955 32.4469L62.7941 30.7686H63.2137Z" fill="#00437B"/>
<path d="M66.5729 30.7686V31.328H64.7548V32.5867H66.4331V33.1462H64.7548V34.4049H66.5729V34.9644H64.1953V30.7686H66.5729Z" fill="#00437B"/>
<path d="M67.1328 30.7686H68.5314C68.8111 30.7686 68.951 30.7686 69.0909 30.9084C69.2307 30.9084 69.3706 31.0483 69.5104 31.1881C69.6503 31.328 69.6503 31.4679 69.7902 31.6077C69.7902 31.7476 69.93 31.8874 69.93 32.0273C69.93 32.1672 69.93 32.307 69.7902 32.4469C69.7902 32.5867 69.6503 32.7266 69.5104 32.8665C69.3706 33.0063 69.2307 33.0063 69.0909 33.1462C68.951 33.1462 68.6713 33.286 68.5314 33.286H67.972V35.1042H67.1328V30.7686ZM67.8321 31.1881V32.4469H68.5314C68.6713 32.4469 68.8111 32.4469 68.8111 32.4469C68.951 32.4469 68.951 32.307 69.0909 32.307L69.2307 32.1672C69.2307 32.0273 69.2307 32.0273 69.2307 31.8874C69.2307 31.7476 69.2307 31.7476 69.2307 31.6077C69.2307 31.4679 69.2307 31.4679 69.0909 31.4679C69.0909 31.4679 68.951 31.328 68.8111 31.328C68.6713 31.328 68.6713 31.328 68.5314 31.328H67.8321V31.1881Z" fill="#00437B"/>
<path d="M73.2847 31.8874L70.6274 34.9644H70.3477V30.7686H70.9071V33.9853L73.5644 30.7686H73.8442V34.9644H73.2847V31.8874Z" fill="#00437B"/>
<path d="M74.8235 30.7686H75.3829V32.4469C75.5228 32.4469 75.6626 32.4469 75.6626 32.4469C75.8025 32.4469 75.8025 32.4469 75.9423 32.307C76.0822 32.307 76.0822 32.1672 76.0822 32.0273C76.0822 31.8874 76.2221 31.7476 76.2221 31.6077C76.3619 31.4679 76.3619 31.328 76.5018 31.1881C76.6416 31.0483 76.6416 30.9084 76.7815 30.9084C76.9214 30.7686 76.9214 30.7686 77.0612 30.7686C77.2011 30.7686 77.3409 30.7686 77.4808 30.7686H77.6207V31.328C77.4808 31.328 77.3409 31.328 77.3409 31.328C77.2011 31.328 77.2011 31.328 77.0612 31.4679C77.0612 31.4679 76.9214 31.6077 76.9214 31.7476C76.9214 31.8874 76.7815 31.8874 76.7815 32.0273C76.7815 32.1672 76.7815 32.1672 76.6416 32.307C76.6416 32.4469 76.5018 32.4469 76.5018 32.5867L76.3619 32.7266L76.2221 32.8665C76.3619 32.8665 76.3619 33.0063 76.5018 33.0063C76.6416 33.0063 76.6416 33.1462 76.6416 33.1462C76.6416 33.286 76.7815 33.286 76.7815 33.4259C76.7815 33.5658 76.9214 33.7056 77.0612 33.8455L77.7605 35.1042H77.0612L76.3619 33.9853C76.2221 33.8455 76.2221 33.7056 76.0822 33.5658C75.9423 33.4259 75.9423 33.4259 75.8025 33.286C75.6626 33.286 75.6626 33.1462 75.5228 33.1462C75.3829 33.1462 75.3829 33.1462 75.243 33.1462V35.1042H74.6836V30.7686H74.8235Z" fill="#00437B"/>
<path d="M80.1401 30.6289L81.9583 34.8247H81.3988L80.8394 33.566H79.0212L78.4618 34.8247H77.9023L79.7205 30.6289H80.1401ZM80.0002 31.6079L79.4408 33.1464H80.6995L80.0002 31.6079Z" fill="#00437B"/>
<path d="M86.0121 30.7686V34.9644H85.4527V33.1462H83.0751V34.9644H82.5156V30.7686H83.0751V32.5867H85.4527V30.7686H86.0121Z" fill="#00437B"/>
<path d="M90.4887 34.545C90.3488 34.545 90.3488 34.6848 90.209 34.6848C90.0691 34.6848 89.9293 34.8247 89.9293 34.8247C89.7894 34.8247 89.6495 34.8247 89.5097 34.9646C89.3698 34.9646 89.23 34.9646 89.0901 34.9646C88.8104 34.9646 88.5307 34.9646 88.3908 34.8247C88.1111 34.8247 87.9712 34.6848 87.8313 34.545C87.6915 34.4051 87.5516 34.2653 87.4118 34.1254C87.2719 33.9855 87.132 33.8457 87.132 33.7058C86.9922 33.566 86.9922 33.4261 86.9922 33.2862C86.9922 33.1464 86.9922 33.0065 86.9922 32.8667C86.9922 32.5869 86.9922 32.4471 87.132 32.3072C87.132 32.1674 87.2719 31.8876 87.4118 31.7478C87.5516 31.6079 87.6915 31.4681 87.6915 31.3282C87.8313 31.1883 87.9712 31.0485 88.1111 31.0485C88.2509 30.9086 88.5307 30.9086 88.6705 30.7688C88.8104 30.7688 89.0901 30.6289 89.3698 30.6289C89.5097 30.6289 89.6495 30.6289 89.6495 30.6289C89.7894 30.6289 89.9293 30.6289 89.9293 30.6289C90.0691 30.6289 90.209 30.6289 90.3488 30.7688C90.4887 30.7688 90.6286 30.9086 90.7684 30.9086V31.6079C90.6286 31.4681 90.4887 31.4681 90.3488 31.4681C90.209 31.4681 90.0691 31.3282 89.9293 31.3282C89.7894 31.3282 89.6495 31.3282 89.6495 31.1883C89.5097 31.1883 89.3698 31.1883 89.23 31.1883C88.9502 31.1883 88.8104 31.1883 88.5306 31.3282C88.3908 31.4681 88.1111 31.4681 87.9712 31.6079C87.8314 31.7478 87.6915 31.8876 87.6915 32.1674C87.5516 32.3072 87.5516 32.5869 87.5516 32.8667C87.5516 33.1464 87.5516 33.2862 87.6915 33.566C87.8313 33.7058 87.8314 33.9855 87.9712 34.1254C88.1111 34.2653 88.2509 34.4051 88.5306 34.4051C88.6705 34.545 88.9502 34.545 89.23 34.545C89.5097 34.545 89.6495 34.545 89.9293 34.4051C90.209 34.2653 90.4887 34.2653 90.6286 33.9855V34.545H90.4887Z" fill="#00437B"/>
<path d="M91.3281 30.7686H91.8876V32.4469C92.0274 32.4469 92.1673 32.4469 92.1673 32.4469C92.3071 32.4469 92.3071 32.4469 92.447 32.307C92.5869 32.307 92.5869 32.1672 92.5869 32.0273C92.5869 31.8874 92.7267 31.7476 92.7267 31.6077C92.8666 31.4679 92.8666 31.328 93.0064 31.1881C93.1463 31.0483 93.1463 30.9084 93.2862 30.9084C93.426 30.7686 93.426 30.7686 93.5659 30.7686C93.7057 30.7686 93.8456 30.7686 93.9855 30.7686H94.1253V31.328C93.9855 31.328 93.8456 31.328 93.8456 31.328C93.7057 31.328 93.7057 31.328 93.5659 31.4679C93.5659 31.4679 93.426 31.6077 93.426 31.7476C93.426 31.8874 93.2862 31.8874 93.2862 32.0273C93.2862 32.1672 93.2862 32.1672 93.1463 32.307C93.1463 32.4469 93.0064 32.4469 93.0064 32.5867L92.8666 32.7266L92.7267 32.8665C92.8666 32.8665 92.8666 33.0063 93.0064 33.0063C93.1463 33.0063 93.1463 33.1462 93.1463 33.1462C93.1463 33.286 93.2862 33.286 93.2862 33.4259C93.2862 33.5658 93.426 33.7056 93.5659 33.8455L94.2652 35.1042H93.7057L93.0064 33.9853C92.8666 33.8455 92.8666 33.7056 92.7267 33.5658C92.5869 33.4259 92.5869 33.4259 92.447 33.286C92.3071 33.286 92.3071 33.1462 92.1673 33.1462C92.0274 33.1462 92.0274 33.1462 91.8876 33.1462V35.1042H91.3281V30.7686Z" fill="#00437B"/>
<path d="M94.6836 32.8665C94.6836 32.5867 94.6836 32.307 94.8235 32.0273C94.9633 31.7476 95.1032 31.6077 95.243 31.328C95.3829 31.1881 95.6626 30.9084 95.9423 30.9084C96.2221 30.7686 96.5018 30.7686 96.9214 30.7686C97.2011 30.7686 97.6207 30.7686 97.9004 30.9084C98.1801 31.0483 98.4598 31.1881 98.5997 31.328C98.7395 31.4679 98.8794 31.7476 99.0193 32.0273C99.1591 32.307 99.1591 32.5867 99.1591 32.8665C99.1591 33.1462 99.1591 33.4259 99.0193 33.7056C98.8794 33.9853 98.7395 34.1252 98.5997 34.4049C98.4598 34.5448 98.1801 34.8245 97.9004 34.8245C97.6207 34.9644 97.3409 34.9644 96.9214 34.9644C96.6416 34.9644 96.5018 34.9644 96.2221 34.8245C96.0822 34.8245 95.8025 34.6846 95.6626 34.5448C95.5228 34.4049 95.3829 34.2651 95.243 34.2651C95.1032 34.1252 94.9633 33.9853 94.9633 33.8455C94.8235 33.7056 94.8235 33.5658 94.8235 33.286C94.6836 33.1462 94.6836 33.0063 94.6836 32.8665ZM95.243 32.8665C95.243 33.1462 95.243 33.286 95.3829 33.5658C95.5228 33.7056 95.5228 33.9853 95.6626 34.1252C95.8025 34.2651 95.9423 34.4049 96.2221 34.4049C96.3619 34.5448 96.6416 34.5448 96.9214 34.5448C97.2011 34.5448 97.3409 34.5448 97.6207 34.4049C97.7605 34.2651 98.0402 34.2651 98.1801 34.1252C98.32 33.9853 98.4598 33.8455 98.4598 33.5658C98.5997 33.4259 98.5997 33.1462 98.5997 32.8665C98.5997 32.5867 98.5997 32.4469 98.4598 32.1672C98.32 32.0273 98.32 31.7476 98.1801 31.6077C98.0402 31.4679 97.9004 31.328 97.6207 31.328C97.4808 31.1881 97.2011 31.1881 96.9214 31.1881C96.6416 31.1881 96.5018 31.1881 96.2221 31.328C96.0822 31.4679 95.8025 31.4679 95.6626 31.6077C95.5228 31.7476 95.3829 31.8874 95.3829 32.1672C95.243 32.307 95.243 32.5867 95.243 32.8665Z" fill="#00437B"/>
<path d="M102.237 30.7686V31.328H100.419V34.9644H99.8594V30.7686H102.237Z" fill="#00437B"/>
<path d="M102.375 32.8665C102.375 32.5867 102.375 32.307 102.515 32.0273C102.655 31.7476 102.795 31.6077 102.934 31.328C103.074 31.1881 103.354 30.9084 103.634 30.9084C103.913 30.7686 104.193 30.7686 104.613 30.7686C104.892 30.7686 105.312 30.7686 105.592 30.9084C105.872 31.0483 106.151 31.1881 106.291 31.328C106.431 31.4679 106.571 31.7476 106.711 32.0273C106.851 32.307 106.851 32.5867 106.851 32.8665C106.851 33.1462 106.851 33.4259 106.711 33.7056C106.571 33.9853 106.431 34.1252 106.291 34.4049C106.151 34.5448 105.872 34.8245 105.592 34.8245C105.312 34.9644 105.032 34.9644 104.613 34.9644C104.333 34.9644 104.193 34.9644 103.913 34.8245C103.774 34.8245 103.494 34.6846 103.354 34.5448C103.214 34.4049 103.074 34.2651 102.934 34.2651C102.795 34.1252 102.655 33.9853 102.655 33.8455C102.515 33.7056 102.515 33.5658 102.515 33.286C102.515 33.1462 102.375 33.0063 102.375 32.8665ZM103.074 32.8665C103.074 33.1462 103.074 33.286 103.214 33.5658C103.354 33.7056 103.354 33.9853 103.494 34.1252C103.634 34.2651 103.774 34.4049 104.053 34.4049C104.193 34.5448 104.473 34.5448 104.753 34.5448C105.032 34.5448 105.172 34.5448 105.452 34.4049C105.592 34.2651 105.872 34.2651 106.011 34.1252C106.151 33.9853 106.291 33.8455 106.291 33.5658C106.431 33.4259 106.431 33.1462 106.431 32.8665C106.431 32.5867 106.431 32.4469 106.291 32.1672C106.151 32.0273 106.151 31.7476 106.011 31.6077C105.872 31.4679 105.732 31.328 105.452 31.328C105.312 31.1881 105.032 31.1881 104.753 31.1881C104.473 31.1881 104.333 31.1881 104.053 31.328C103.913 31.4679 103.634 31.4679 103.494 31.6077C103.354 31.7476 103.214 31.8874 103.214 32.1672C103.074 32.307 103.074 32.5867 103.074 32.8665Z" fill="#00437B"/>
<path d="M112.868 30.7686V34.9644H112.308V33.1462H109.931V34.9644H109.371V30.7686H109.931V32.5867H112.308V30.7686H112.868Z" fill="#00437B"/>
<path d="M115.523 30.6289L117.341 34.8247H116.782L116.222 33.566H114.404L113.845 34.8247H113.285L115.103 30.6289H115.523ZM115.383 31.6079L114.684 33.1464H116.082L115.383 31.6079Z" fill="#00437B"/>
<path d="M117.902 30.7686H119.161C119.441 30.7686 119.581 30.7686 119.721 30.9084C119.86 30.9084 120 31.0483 120.14 31.1881C120.28 31.328 120.28 31.4679 120.42 31.6077C120.42 31.7476 120.56 31.8874 120.56 32.0273C120.56 32.1672 120.56 32.307 120.42 32.4469C120.42 32.5867 120.28 32.7266 120.14 32.8665C120 33.0063 119.86 33.0063 119.721 33.1462C119.581 33.1462 119.301 33.286 119.021 33.286H118.462V35.1042H117.902V30.7686ZM118.462 31.1881V32.4469H119.161C119.301 32.4469 119.441 32.4469 119.441 32.4469C119.581 32.4469 119.581 32.307 119.721 32.307L119.86 32.1672C119.86 32.0273 119.86 32.0273 119.86 31.8874C119.86 31.7476 119.86 31.7476 119.86 31.6077C119.86 31.4679 119.86 31.4679 119.721 31.4679C119.721 31.4679 119.581 31.328 119.441 31.328C119.301 31.328 119.301 31.328 119.161 31.328H118.462V31.1881Z" fill="#00437B"/>
<path d="M120.84 32.8665C120.84 32.5867 120.84 32.307 120.98 32.0273C121.12 31.7476 121.259 31.6077 121.399 31.328C121.539 31.1881 121.819 30.9084 122.099 30.9084C122.378 30.7686 122.658 30.7686 123.078 30.7686C123.357 30.7686 123.777 30.7686 124.057 30.9084C124.336 31.0483 124.616 31.1881 124.756 31.328C124.896 31.4679 125.036 31.7476 125.176 32.0273C125.315 32.307 125.315 32.5867 125.315 32.8665C125.315 33.1462 125.315 33.4259 125.176 33.7056C125.036 33.9853 124.896 34.1252 124.756 34.4049C124.616 34.5448 124.336 34.8245 124.057 34.8245C123.777 34.8245 123.357 34.9644 123.078 34.9644C122.798 34.9644 122.658 34.9644 122.378 34.8245C122.238 34.8245 121.959 34.6846 121.819 34.5448C121.679 34.4049 121.539 34.2651 121.399 34.2651C121.259 34.1252 121.12 33.9853 121.12 33.8455C120.98 33.7056 120.98 33.5658 120.98 33.286C120.84 33.1462 120.84 33.0063 120.84 32.8665ZM121.399 32.8665C121.399 33.1462 121.399 33.286 121.539 33.5658C121.679 33.7056 121.679 33.9853 121.819 34.1252C121.959 34.2651 122.099 34.4049 122.378 34.4049C122.518 34.5448 122.798 34.5448 123.078 34.5448C123.357 34.5448 123.497 34.5448 123.777 34.4049C123.917 34.2651 124.197 34.2651 124.336 34.1252C124.476 33.9853 124.616 33.8455 124.616 33.5658C124.756 33.4259 124.756 33.1462 124.756 32.8665C124.756 32.5867 124.756 32.4469 124.616 32.1672C124.476 32.0273 124.476 31.7476 124.336 31.6077C124.197 31.4679 124.057 31.328 123.777 31.328C123.637 31.1881 123.357 31.1881 123.078 31.1881C122.798 31.1881 122.658 31.1881 122.378 31.328C122.238 31.4679 121.959 31.4679 121.819 31.6077C121.679 31.7476 121.539 31.8874 121.539 32.1672C121.539 32.307 121.399 32.5867 121.399 32.8665Z" fill="#00437B"/>
<path d="M129.51 34.4049V35.6637H128.95V34.9644H126.153V35.6637H125.594V34.4049H125.873L127.272 30.7686H127.692L129.09 34.4049H129.51ZM127.412 31.6077L126.433 34.4049H128.531L127.412 31.6077Z" fill="#00437B"/>
<path d="M131.746 30.6289L133.564 34.8247H133.004L132.445 33.566H130.627L130.067 34.8247H129.508L131.326 30.6289H131.746ZM131.606 31.6079L131.046 33.1464H132.305L131.606 31.6079Z" fill="#00437B"/>
<path d="M63.6382 7.13281V18.0419C63.6382 24.3356 59.3025 26.5734 54.1277 26.5734C48.5333 26.5734 44.6172 24.0559 44.6172 18.0419V7.13281H49.3724V18.1818C49.3724 20.979 51.3305 22.6573 54.1277 22.6573C56.6452 22.6573 59.0228 21.3985 59.0228 17.902V7.13281H63.6382Z" fill="#00437B"/>
<path d="M80.4211 12.0281C77.6239 10.7694 75.9456 10.3498 74.4071 10.3498C72.7288 10.3498 71.6099 10.9092 71.6099 11.8883C71.6099 14.8253 81.4001 13.9862 81.4001 20.6995C81.4001 24.3358 78.3232 26.5736 73.9876 26.5736C70.6309 26.5736 68.9526 25.7344 67.1344 24.7554V20.5596C69.9316 22.3778 71.6099 23.0771 73.7078 23.0771C75.526 23.0771 76.505 22.3778 76.505 21.2589C76.505 18.0421 66.7148 19.3009 66.7148 12.4477C66.7148 9.09107 69.512 6.99316 73.9876 6.99316C76.0855 6.99316 78.0435 7.41274 80.4211 8.53163V12.0281Z" fill="#00437B"/>
<path d="M103.917 26.2939H98.7418L97.2033 22.3778H88.6719L87.2733 26.154H82.2383L89.9306 6.99316H95.525L103.917 26.2939ZM92.7278 11.6085L89.9306 19.0211H95.8047L92.7278 11.6085Z" fill="#00437B"/>
<path d="M110.771 7.13281H106.016V26.2936H110.771V7.13281Z" fill="#00437B"/>
<path d="M123.356 7.13281C130.349 7.13281 133.985 11.4685 133.985 16.7832C133.985 22.2377 130.489 26.2936 122.796 26.2936H114.824V7.13281H123.356ZM119.719 22.6573H122.796C127.552 22.6573 129.09 19.4405 129.09 16.6433C129.09 13.4265 127.272 10.6293 122.796 10.6293H119.719V22.6573Z" fill="#00437B"/>
<path d="M0.140625 19.9998C0.140625 9.0907 9.09167 0.139648 20.0008 0.139648C30.9099 0.139648 39.8609 9.0907 39.8609 19.9998C39.8609 30.9089 30.9099 39.8599 20.0008 39.8599C9.09167 39.8599 0.140625 31.0487 0.140625 19.9998Z" fill="white"/>
<path d="M19.9995 35.8037C28.8107 35.8037 35.8037 28.6708 35.8037 19.9995C35.8037 11.3282 28.8107 4.19531 19.9995 4.19531C11.3282 4.19531 4.19531 11.3282 4.19531 19.9995C4.19531 28.8107 11.3282 35.8037 19.9995 35.8037Z" fill="white"/>
<path d="M0 20C0 31.049 8.95105 40 20 40C31.049 40 40 31.049 40 20C40 8.95105 31.049 0 20 0C8.95105 0 0 8.95105 0 20ZM0.27972 20C0.27972 9.09091 9.09091 0.27972 20 0.27972C30.9091 0.27972 39.7203 9.09091 39.7203 20C39.7203 30.9091 30.9091 39.7203 20 39.7203C9.23077 39.7203 0.27972 30.9091 0.27972 20Z" fill="#00437B"/>
<path d="M4.05469 19.9997C4.05469 28.8109 11.1876 35.9438 19.9987 35.9438C28.8099 35.9438 35.9428 28.8109 35.9428 19.9997C35.9428 11.1885 28.8099 4.05566 19.9987 4.05566C11.1876 4.05566 4.05469 11.1885 4.05469 19.9997ZM4.33441 19.9997C4.33441 11.3284 11.3274 4.33538 19.9987 4.33538C28.6701 4.33538 35.6631 11.3284 35.6631 19.9997C35.6631 28.671 28.6701 35.6641 19.9987 35.6641C11.3274 35.6641 4.33441 28.671 4.33441 19.9997Z" fill="#00437B"/>
<path d="M29.2318 25.7344H10.9102V28.6714H29.2318V25.7344Z" fill="#00437B"/>
<path d="M29.2318 9.09082H10.9102V14.4055H29.2318V9.09082Z" fill="#00437B"/>
<path d="M29.2318 9.09082H10.9102V14.4055H29.2318V9.09082Z" fill="#00437B"/>
<path d="M37.9033 16.7829V17.6221L37.4837 16.9228L36.6445 17.2025L37.204 16.6431L36.6445 15.9438L37.4837 16.2235L37.9033 15.6641V16.3634L38.6026 16.6431L37.9033 16.7829Z" fill="#00437B"/>
<path d="M2.09774 16.3634V15.6641L2.51732 16.2235L3.21662 15.9438L2.79704 16.6431L3.21662 17.2025L2.51732 16.9228L2.09774 17.6221V16.7829L1.39844 16.6431L2.09774 16.3634Z" fill="#00437B"/>
<path d="M3.49465 10.6299L4.61353 11.1893C5.31283 11.469 5.31283 12.0285 5.03311 12.5879C4.75339 13.1474 4.19395 13.4271 3.63451 13.1474L2.51562 12.5879L2.79535 12.1683L3.91423 12.7278C4.19395 12.8676 4.47367 12.7278 4.61353 12.4481C4.75339 12.1683 4.75339 11.8886 4.33381 11.7488L3.21493 11.1893L3.49465 10.6299Z" fill="#00437B"/>
<path d="M6.85427 9.51069L6.57455 9.93027L4.75637 10.0701L5.87525 10.9093L5.59553 11.3289L3.77734 10.0701L4.19692 9.65055L5.87525 9.51069L4.75637 8.67153L5.17595 8.25195L6.85427 9.51069Z" fill="#00437B"/>
<path d="M5.92024 7.29574L5.55078 7.71582L7.23112 9.19364L7.60057 8.77355L5.92024 7.29574Z" fill="#00437B"/>
<path d="M8.11115 5.73382L7.55171 6.29326L8.67059 7.552L8.39087 7.97158L7.13213 6.71284L6.57269 7.27228L6.29297 6.99256L7.83143 5.4541L8.11115 5.73382Z" fill="#00437B"/>
<path d="M10.7675 6.01447L9.50874 6.85363L8.25 5.17531L9.50874 4.19629L9.78846 4.47601L8.9493 5.17531L9.22902 5.45503L9.92832 4.89559L10.208 5.31517L9.36888 5.87461L9.6486 6.29419L10.6276 5.59489L10.7675 6.01447Z" fill="#00437B"/>
<path d="M10.9095 3.35632C11.6088 2.93674 12.1682 3.21646 12.4479 3.7759C12.7277 4.33534 12.5878 4.89478 11.8885 5.31436L11.0493 5.73394L10.0703 3.91576L10.9095 3.35632ZM11.3291 5.1745L11.6088 5.03464C12.0284 4.75492 12.0284 4.33534 11.8885 4.05562C11.7486 3.7759 11.4689 3.49618 11.0493 3.7759L10.7696 3.91576L11.3291 5.1745Z" fill="#00437B"/>
<path d="M14.9662 2.23813C14.6865 2.23813 14.4068 2.23813 14.2669 2.23813C14.1271 2.23813 13.9872 2.37799 13.9872 2.51785C14.1271 2.79757 15.1061 2.37799 15.3858 3.07729C15.5257 3.49687 15.246 3.77659 14.8264 3.91645C14.4068 4.19617 14.2669 4.19617 13.9872 4.19617L13.8474 3.63673C14.2669 3.77659 14.4068 3.77659 14.6865 3.63673C14.8264 3.63673 14.9662 3.49687 14.9662 3.35701C14.8264 3.07729 13.8474 3.49687 13.5676 2.79757C13.4278 2.37799 13.7075 2.09827 14.1271 1.95841C14.4068 1.81855 14.5467 1.81855 14.8264 1.95841L14.9662 2.23813Z" fill="#00437B"/>
<path d="M17.4839 1.53851L16.6447 1.67837L17.0643 3.49655L16.5048 3.63641L16.2251 1.81823L15.386 1.95809L15.2461 1.67837L17.344 1.25879L17.4839 1.53851Z" fill="#00437B"/>
<path d="M20.0019 3.21704H19.4424L19.1627 2.79746L18.1837 2.93732L18.0438 3.3569H17.4844L18.1837 1.11914H18.7431L20.0019 3.21704ZM18.6033 1.67858L18.3235 2.51774H19.0228L18.6033 1.67858Z" fill="#00437B"/>
<path d="M21.8167 1.53893H20.9775V3.21725H20.4181V1.39907H19.7188V0.979492L21.8167 1.11935V1.53893Z" fill="#00437B"/>
<path d="M23.6354 3.63662L21.957 3.3569L22.3766 1.11914L23.9151 1.39886V1.81844L22.7962 1.67858V2.09816L23.7752 2.23802L23.6354 2.6576L22.6563 2.51774V3.07718L23.6354 3.21704V3.63662Z" fill="#00437B"/>
<path d="M25.7322 2.51758C25.4525 2.23786 25.3127 2.23786 25.1728 2.098C25.0329 2.098 24.8931 2.098 24.7532 2.23786C24.6134 2.51758 25.7322 2.79731 25.5924 3.49661C25.4525 3.91619 25.0329 4.05605 24.6134 3.91619C24.1938 3.77633 24.0539 3.63647 23.9141 3.49661L24.0539 3.07703C24.3336 3.35675 24.4735 3.49661 24.7532 3.49661C24.8931 3.49661 25.0329 3.49661 25.1728 3.35675C25.3127 3.07703 24.1938 2.79731 24.3336 2.098C24.4735 1.67842 24.7532 1.53856 25.3127 1.67842C25.5924 1.67842 25.7322 1.81828 26.012 2.098L25.7322 2.51758Z" fill="#00437B"/>
<path d="M28.2534 5.31457L27.6939 5.03485V4.61527L26.8548 4.19569L26.5751 4.47541L26.0156 4.19569L27.6939 2.65723L28.2534 2.93695V5.31457ZM27.8338 3.35653L27.1345 4.05583L27.8338 4.19569V3.35653Z" fill="#00437B"/>
<path d="M30.9089 5.17437C30.769 4.89465 30.6292 4.75479 30.3495 4.61493C29.79 4.33521 29.5103 4.47507 29.3704 4.75479C29.0907 5.03451 29.2306 5.45409 29.6502 5.73381C29.79 5.87367 29.79 5.87367 29.9299 5.87367L30.0697 5.59395L29.79 5.45409L30.0697 5.17437L30.769 5.59395L30.3495 6.29325C30.0697 6.29325 29.6502 6.29325 29.3704 6.01353C28.6711 5.59395 28.5313 4.89465 28.9509 4.33521C29.3704 3.77577 30.0697 3.63591 30.6292 4.05549C30.9089 4.19535 31.1886 4.47507 31.1886 4.61493L30.9089 5.17437Z" fill="#00437B"/>
<path d="M31.6103 7.83215L30.3516 6.85313L31.89 5.1748L33.0089 6.15383L32.7292 6.43355L32.0299 5.73425L31.6103 6.15383L32.4495 6.85313L32.1697 7.13285L31.4704 6.43355L31.0509 6.85313L31.89 7.55243L31.6103 7.83215Z" fill="#00437B"/>
<path d="M33.2853 9.79003L33.0056 9.37045L33.2853 7.55226L32.1664 8.53128L31.8867 8.1117L33.565 6.57324L33.8448 6.99282L33.565 8.811L34.5441 7.83198L34.9636 8.25156L33.2853 9.79003Z" fill="#00437B"/>
<path d="M34.8261 11.6088C34.5464 11.4689 34.4065 11.3291 34.1268 11.0494C33.7072 10.3501 33.8471 9.65077 34.4065 9.37105C34.8261 9.09132 35.6652 9.09133 36.0848 9.79063C36.2247 10.0703 36.3645 10.3501 36.3645 10.6298L35.945 10.9095C35.945 10.6298 35.8051 10.3501 35.6652 10.2102C35.5254 9.79063 35.1058 9.65077 34.6862 9.79063C34.4065 10.0703 34.2666 10.4899 34.5464 10.7696C34.8261 11.0494 34.9659 11.1892 35.2457 11.3291L34.8261 11.6088Z" fill="#00437B"/>
<path d="M36.0845 12.1679L36.7838 10.9092L37.0635 11.4686L36.6439 12.3078L37.3432 12.4476L37.623 13.0071L36.2243 12.7274L35.3852 13.1469L35.1055 12.5875L36.0845 12.1679Z" fill="#00437B"/>
<path d="M3.34557 20.3759L1.10938 20.46L1.13038 21.019L3.36657 20.935L3.34557 20.3759Z" fill="#00437B"/>
<path d="M1.39691 23.9159V23.4963L2.65565 22.0977L1.25705 22.2376L1.11719 21.6782L3.35495 21.3984V21.9579L2.23607 23.2166L3.49481 23.0768L3.63467 23.6362L1.39691 23.9159Z" fill="#00437B"/>
<path d="M3.91431 26.0141L3.63459 25.175L1.95627 25.7344L1.81641 25.175L3.49473 24.6155L3.21501 23.9162L3.63459 23.7764L4.33389 25.8743L3.91431 26.0141Z" fill="#00437B"/>
<path d="M3.07821 28.3913L2.37891 26.9927L4.33695 26.0137L5.03625 27.5521L4.61667 27.692L4.19709 26.713L3.77751 26.8528L4.19709 27.8319L3.77751 27.9717L3.49779 27.1326L2.93835 27.2724L3.35793 28.2514L3.07821 28.3913Z" fill="#00437B"/>
<path d="M5.73309 28.6712C6.01281 29.0908 5.87295 29.3705 5.59323 29.6502C5.45337 29.7901 5.17365 29.7901 4.89393 29.6502C4.89393 29.9299 4.75407 30.0698 4.33449 30.6292L4.05477 30.0698C4.19463 29.6502 4.61421 29.3705 4.47435 29.0908L4.33449 28.9509L3.63519 29.3705L3.35547 28.9509L5.17365 27.832L5.73309 28.6712ZM4.61421 28.8111L4.75407 29.0908C4.89393 29.2306 4.89393 29.3705 5.17365 29.2306C5.31351 29.0908 5.31351 28.9509 5.17365 28.8111L5.03379 28.5313L4.61421 28.8111Z" fill="#00437B"/>
<path d="M5.87516 32.7273L5.59544 32.3077L6.01502 30.4895L4.89614 31.3287L4.47656 30.9091L6.29474 29.6504L6.57446 30.07L6.29474 31.7483L7.27376 30.9091L7.55348 31.3287L5.87516 32.7273Z" fill="#00437B"/>
<path d="M7.97053 34.6857L7.55095 34.2661L7.69081 33.8465L6.9915 33.2871L6.57192 33.4269L6.15234 33.0073L8.39011 32.0283L8.80969 32.4479L7.97053 34.6857ZM8.25025 32.7276L7.41109 33.1472L7.97053 33.5668L8.25025 32.7276Z" fill="#00437B"/>
<path d="M10.769 34.5455L10.0697 33.9861L9.09069 35.3847L8.53125 35.1049L9.65013 33.7063L8.95083 33.2868L9.23055 32.8672L10.9089 34.1259L10.769 34.5455Z" fill="#00437B"/>
<path d="M11.2517 34.2499L10.1055 36.1719L10.586 36.4584L11.7322 34.5364L11.2517 34.2499Z" fill="#00437B"/>
<path d="M12.166 37.3428C11.4667 37.063 11.3268 36.3637 11.4667 35.8043C11.7464 35.3847 12.3059 34.9651 13.0052 35.2449C13.7045 35.5246 13.8443 36.3637 13.7045 36.7833C13.5646 37.3428 12.8653 37.6225 12.166 37.3428ZM12.8653 35.6644C12.4457 35.5246 12.166 35.6644 12.0261 35.9442C11.8863 36.3637 12.0261 36.6435 12.4457 36.7833C12.8653 36.9232 13.145 36.7833 13.2849 36.5036C13.4247 36.2239 13.2849 35.8043 12.8653 35.6644Z" fill="#00437B"/>
<path d="M16.0823 38.6017L15.6627 38.4618L14.8235 36.7835L14.404 38.1821L13.9844 38.0422L14.5438 35.9443L14.9634 36.0842L15.8026 37.6227L16.0823 36.3639L16.6417 36.5038L16.0823 38.6017Z" fill="#00437B"/>
<path d="M19.0214 39.021H18.4619L18.3221 38.6014L17.3431 38.4615L17.0633 38.8811H16.5039L17.6228 36.7832L18.1822 36.9231L19.0214 39.021ZM17.9025 37.2028L17.4829 38.0419L18.1822 38.1818L17.9025 37.2028Z" fill="#00437B"/>
<path d="M21.1197 39.021H19.4414V36.7832H20.0008V38.6014H21.1197V39.021Z" fill="#00437B"/>
<path d="M23.0767 36.5037C23.9158 36.3638 24.3354 36.7834 24.4753 37.3428C24.6151 37.9023 24.3354 38.4617 23.3564 38.6016L22.5172 38.7414L22.0977 36.6435L23.0767 36.5037ZM22.9368 38.3219H23.2165C23.776 38.182 23.9158 37.7624 23.776 37.4827C23.776 37.0631 23.4963 36.7834 22.9368 36.9232H22.6571L22.9368 38.3219Z" fill="#00437B"/>
<path d="M26.7112 37.762L25.1727 38.3214L24.6133 36.2235L26.0119 35.6641L26.1517 36.0836L25.1727 36.3634L25.3126 36.7829L26.2916 36.5032L26.4315 36.9228L25.4524 37.2025L25.5923 37.762L26.5713 37.3424L26.7112 37.762Z" fill="#00437B"/>
<path d="M28.2502 37.203H28.1104L26.1523 35.6646L26.7118 35.3848L27.6908 36.3639V34.9653L28.2502 34.6855V37.203Z" fill="#00437B"/>
<path d="M30.9081 35.6641L29.5095 36.5033L28.3906 34.6851L29.7892 33.7061L29.9291 34.1256L29.0899 34.6851L29.3696 35.1047L30.2088 34.5452L30.3487 34.8249L29.5095 35.3844L29.7892 35.804L30.7682 35.2445L30.9081 35.6641Z" fill="#00437B"/>
<path d="M32.7277 34.2652L31.3291 35.2442L30.0703 33.5659L30.4899 33.2861L31.6088 34.5449L32.4479 33.8456L32.7277 34.2652Z" fill="#00437B"/>
<path d="M33.8481 33.0067C33.2887 33.5661 32.5894 33.5661 32.1698 33.1466C31.7502 32.727 31.6103 32.0277 32.1698 31.4682C32.7292 30.9088 33.4285 30.9088 33.8481 31.3284C34.2677 31.748 34.4075 32.4473 33.8481 33.0067ZM32.5893 31.8878C32.3096 32.1675 32.3096 32.5871 32.5893 32.8668C32.8691 33.1466 33.2887 33.1466 33.5684 32.8668C33.8481 32.5871 33.8481 32.1675 33.5684 31.8878C33.2887 31.4682 32.8691 31.6081 32.5893 31.8878Z" fill="#00437B"/>
<path d="M33.8446 29.5108C34.1243 29.0912 34.5439 29.0912 34.8236 29.2311C35.1033 29.371 35.2432 29.7906 34.9635 30.2101L34.6838 30.6297L35.3831 31.1892L35.1033 31.6087L33.2852 30.35L33.8446 29.5108ZM34.404 30.4899L34.5439 30.35C34.6838 30.2101 34.6838 30.0703 34.5439 29.9304C34.404 29.7905 34.2642 29.9304 34.1243 30.0703L33.9845 30.2101L34.404 30.4899Z" fill="#00437B"/>
<path d="M35.2454 27.1325L35.5251 26.7129L37.4832 27.6919L37.2035 28.1115L35.9447 27.5521L36.3643 28.3912H36.2244L35.3853 28.6709L36.644 29.2304L36.3643 29.7898L34.4062 28.8108L34.686 28.3912L35.665 28.1115L35.2454 27.1325Z" fill="#00437B"/>
<path d="M38.1815 25.4542L37.6221 26.9926L35.6641 26.2933L36.0836 24.7549L36.5032 24.8947L36.2235 25.8738L36.6431 26.0136L36.9228 25.1745L37.3424 25.3143L36.9228 26.1535L37.4822 26.2933L37.762 25.3143L38.1815 25.4542Z" fill="#00437B"/>
<path d="M38.88 22.6569L38.7401 23.2163L37.0618 24.0555L38.4604 24.3352L38.3206 24.8946L36.2227 24.4751L36.3625 23.9156L37.901 23.0765L36.5024 22.7967L36.6422 22.2373L38.88 22.6569Z" fill="#00437B"/>
<path d="M37.204 20V20.6993L39.0222 20.8392L38.8823 21.3986L37.204 21.2587L37.0641 22.0979H36.6445L36.7844 20H37.204Z" fill="#00437B"/>
<path fill-rule="evenodd" clip-rule="evenodd" d="M17.2055 21.8178C17.0656 21.8178 17.0656 21.8178 17.2055 21.8178C17.0656 21.8178 17.0656 21.8178 17.2055 21.8178C17.0656 21.8178 17.0656 21.8178 17.2055 21.8178C17.0656 21.6779 17.0656 21.6779 17.2055 21.8178C17.0656 21.8178 17.0656 21.8178 17.2055 21.8178C17.0656 21.8178 17.0656 21.8178 17.2055 21.8178C17.0656 21.8178 17.0656 21.8178 17.0656 21.8178C17.0656 21.8178 16.9258 21.8178 16.9258 21.9576C16.9258 21.9576 17.0656 21.9576 17.2055 21.8178C17.0656 21.9576 17.0656 21.9576 17.2055 21.8178C17.0656 21.9576 17.0656 21.9576 17.2055 21.8178C17.0656 21.9576 17.0656 21.9576 17.2055 21.8178C17.0656 21.9576 17.2055 21.9576 17.2055 21.8178C17.2055 21.9576 17.2055 21.9576 17.2055 21.8178C17.2055 21.9576 17.2055 21.8178 17.2055 21.8178Z" fill="#00437B"/>
<path fill-rule="evenodd" clip-rule="evenodd" d="M18.1833 16.7832C18.1833 16.9231 18.1833 16.9231 18.1833 16.7832C18.3231 16.9231 18.3231 17.0629 18.3231 17.0629V16.9231C18.1833 16.7832 18.1833 16.7832 18.1833 16.7832C18.0434 16.7832 18.1833 16.7832 18.1833 16.7832Z" fill="#00437B"/>
<path fill-rule="evenodd" clip-rule="evenodd" d="M18.3227 17.3424C18.3227 17.3424 18.3227 17.4823 18.3227 17.3424C18.3227 17.4823 18.1828 17.4823 18.3227 17.3424C18.1828 17.4823 18.1828 17.4823 18.3227 17.3424C18.1828 17.4823 18.1828 17.4823 18.3227 17.3424C18.1828 17.4823 18.1828 17.4823 18.1828 17.4823C18.1828 17.4823 18.1828 17.4823 18.043 17.4823C18.043 17.4823 18.043 17.4823 18.043 17.3424C18.043 17.3424 18.043 17.3424 18.1828 17.3424C18.1828 17.3424 18.1828 17.3424 18.3227 17.3424C18.3227 17.3424 18.3227 17.3424 18.4625 17.3424C18.3227 17.4823 18.3227 17.4823 18.3227 17.3424C18.3227 17.4823 18.3227 17.4823 18.3227 17.3424C18.3227 17.3424 18.4625 17.2026 18.3227 17.3424C18.3227 17.2026 18.3227 17.3424 18.3227 17.3424Z" fill="#00437B"/>
<path fill-rule="evenodd" clip-rule="evenodd" d="M17.6242 17.4824C17.6242 17.4824 17.6242 17.6223 17.6242 17.4824C17.4844 17.6223 17.4844 17.6223 17.4844 17.6223C17.4844 17.6223 17.4844 17.6223 17.6242 17.6223L17.7641 17.4824C17.6242 17.6223 17.6242 17.4824 17.6242 17.4824Z" fill="#00437B"/>
<path fill-rule="evenodd" clip-rule="evenodd" d="M17.343 17.6221C17.2031 17.6221 17.2031 17.6221 17.343 17.6221C17.2031 17.6221 17.2031 17.6221 17.343 17.6221C17.2031 17.6221 17.2031 17.6221 17.343 17.6221C17.2031 17.6221 17.2031 17.6221 17.343 17.6221C17.2031 17.7619 17.2031 17.7619 17.2031 17.7619C17.2031 17.7619 17.2031 17.7619 17.2031 17.9018C17.2031 17.9018 17.2031 17.9018 17.343 17.9018C17.2031 17.7619 17.2031 17.7619 17.343 17.6221C17.2031 17.7619 17.2031 17.6221 17.343 17.6221C17.2031 17.6221 17.2031 17.6221 17.343 17.6221C17.2031 17.6221 17.343 17.6221 17.343 17.6221Z" fill="#00437B"/>
<path fill-rule="evenodd" clip-rule="evenodd" d="M17.0638 17.6221C16.9239 17.6221 16.9239 17.6221 17.0638 17.6221C16.9239 17.6221 16.9239 17.6221 17.0638 17.6221C16.9239 17.6221 16.9239 17.6221 17.0638 17.6221C16.9239 17.6221 16.9239 17.6221 17.0638 17.6221C16.9239 17.6221 16.9239 17.6221 16.9239 17.7619C16.784 17.7619 16.784 17.7619 17.0638 17.6221C16.9239 17.7619 16.9239 17.7619 17.0638 17.6221C16.9239 17.7619 16.9239 17.7619 17.0638 17.6221C16.9239 17.7619 16.9239 17.7619 17.0638 17.6221C16.9239 17.6221 16.9239 17.6221 17.0638 17.6221C16.9239 17.6221 16.9239 17.6221 17.0638 17.6221Z" fill="#00437B"/>
<path fill-rule="evenodd" clip-rule="evenodd" d="M27.832 17.9023C27.832 18.0422 27.832 17.9023 27.832 17.9023C27.832 17.9023 27.9719 17.9023 27.832 17.9023C27.9719 17.9023 27.9719 17.9023 27.832 17.9023C27.9719 17.9023 27.9719 17.9023 27.832 17.9023C27.9719 17.9023 27.9719 17.9023 27.832 17.9023C27.9719 17.9023 27.9719 17.9023 27.832 17.9023C27.9719 17.9023 27.9719 17.9023 27.9719 17.9023C27.9719 17.9023 27.9719 17.9023 27.832 17.9023Z" fill="#00437B"/>
<path fill-rule="evenodd" clip-rule="evenodd" d="M20.0025 18.4611C19.8626 18.3213 19.8626 18.3213 20.0025 18.4611C19.8626 18.3213 19.8626 18.3213 19.8626 18.3213C19.8626 18.3213 19.8626 18.3213 19.7227 18.3213C19.7227 18.3213 19.7227 18.3213 19.5829 18.3213C19.5829 18.3213 19.5829 18.3213 19.443 18.3213C19.443 18.3213 19.443 18.3213 19.3032 18.3213C19.3032 18.3213 19.3032 18.3213 19.1633 18.3213H19.0234H19.1633C19.1633 18.3213 19.3032 18.3213 19.3032 18.4611C19.3032 18.4611 19.3032 18.4611 19.3032 18.601C19.3032 18.601 19.3032 18.601 19.443 18.601C19.443 18.601 19.443 18.601 19.3032 18.7409H19.443H19.5829C19.8626 18.4611 19.8626 18.4611 20.0025 18.4611C19.8626 18.601 19.8626 18.601 20.0025 18.4611C19.8626 18.601 19.8626 18.601 19.8626 18.601C20.0025 18.601 20.0025 18.601 20.0025 18.4611C20.0025 18.601 20.1423 18.601 20.0025 18.4611Z" fill="#00437B"/>
<path fill-rule="evenodd" clip-rule="evenodd" d="M25.0344 18.3213C25.0344 18.3213 24.8945 18.3213 25.0344 18.3213C24.8945 18.3213 24.8945 18.3213 25.0344 18.3213C24.8945 18.3213 24.8945 18.3213 25.0344 18.3213C24.8945 18.3213 24.8945 18.3213 25.0344 18.3213C24.8945 18.3213 24.8945 18.3213 25.0344 18.3213C24.8945 18.3213 24.8945 18.3213 25.0344 18.3213C24.8945 18.4612 24.8945 18.4611 24.8945 18.4611C24.8945 18.4611 24.8945 18.4611 25.0344 18.4611C24.8945 18.4611 24.8945 18.4612 25.0344 18.3213C24.8945 18.3213 24.8945 18.3213 25.0344 18.3213C24.8945 18.3213 24.8945 18.3213 25.0344 18.3213C24.8945 18.3213 24.8945 18.3213 25.0344 18.3213C24.8945 18.3213 24.8945 18.3213 25.0344 18.3213Z" fill="#00437B"/>
<path fill-rule="evenodd" clip-rule="evenodd" d="M20.0024 18.8811C19.8625 18.8811 19.8625 18.8811 20.0024 18.8811C19.8625 18.8811 19.8625 18.8811 20.0024 18.8811C19.8625 18.8811 19.8625 18.8811 20.0024 18.8811C19.8625 18.8811 19.8625 19.0209 19.7227 19.0209C19.8625 19.0209 19.8625 19.0209 20.0024 18.8811C19.8625 19.0209 19.8625 19.0209 20.0024 18.8811C19.8625 19.0209 19.8625 19.0209 20.0024 18.8811C19.8625 19.0209 20.0024 18.8811 20.0024 18.8811C20.1422 18.8811 20.1422 18.8811 20.1422 18.7412C20.1422 18.7412 20.0024 18.7412 20.0024 18.8811Z" fill="#00437B"/>
<path fill-rule="evenodd" clip-rule="evenodd" d="M15.5251 19.3008C15.3852 19.3008 15.3852 19.3008 15.5251 19.3008C15.3852 19.3008 15.3852 19.3008 15.5251 19.3008C15.3852 19.3008 15.3852 19.3008 15.5251 19.3008C15.3852 19.3008 15.3852 19.3008 15.3852 19.3008C15.3852 19.3008 15.2453 19.3008 15.2453 19.4406C15.2453 19.4406 15.2453 19.4406 15.1055 19.5805C15.1055 19.5805 15.1055 19.5805 15.2453 19.5805C15.5251 19.4406 15.5251 19.4406 15.5251 19.3008C15.5251 19.4406 15.5251 19.4406 15.5251 19.3008C15.5251 19.4406 15.5251 19.4406 15.5251 19.3008Z" fill="#00437B"/>
<path fill-rule="evenodd" clip-rule="evenodd" d="M15.9438 19.3008C15.8039 19.3008 15.8039 19.3008 15.9438 19.3008C15.8039 19.3008 15.8039 19.4406 15.9438 19.3008C15.8039 19.4406 15.8039 19.4406 15.9438 19.3008C15.8039 19.4406 15.8039 19.4406 15.9438 19.3008C15.8039 19.4406 15.8039 19.4406 15.8039 19.4406L15.6641 19.5805H15.8039C15.8039 19.4406 15.8039 19.4406 15.9438 19.3008C15.9438 19.4406 15.9438 19.4406 15.9438 19.3008C15.9438 19.4406 15.9438 19.4406 15.9438 19.3008Z" fill="#00437B"/>
<path fill-rule="evenodd" clip-rule="evenodd" d="M15.9438 19.5801C15.8039 19.5801 15.8039 19.5801 15.9438 19.5801C15.8039 19.5801 15.8039 19.5801 15.9438 19.5801C15.8039 19.5801 15.8039 19.5801 15.9438 19.5801C15.8039 19.5801 15.8039 19.5801 15.8039 19.5801C15.8039 19.5801 15.6641 19.5801 15.6641 19.7199C15.6641 19.7199 15.8039 19.7199 15.9438 19.5801Z" fill="#00437B"/>
<path fill-rule="evenodd" clip-rule="evenodd" d="M24.7548 19.7204C24.7548 19.7204 24.6149 19.7204 24.7548 19.7204C24.6149 19.7204 24.6149 19.7204 24.6149 19.7204C24.475 19.7204 24.475 19.7204 24.3352 19.7204H24.1953H24.3352C24.3352 19.7204 24.3352 19.7204 24.475 19.7204C24.6149 19.8602 24.6149 19.7204 24.7548 19.7204C24.6149 19.7204 24.6149 19.7204 24.7548 19.7204C24.6149 19.7204 24.6149 19.7204 24.7548 19.7204C24.7548 19.5805 24.7548 19.7204 24.7548 19.7204Z" fill="#00437B"/>
<path fill-rule="evenodd" clip-rule="evenodd" d="M17.0656 19.7207C16.9258 19.8606 16.9258 19.8606 16.9258 19.8606C16.9258 19.8606 17.0656 19.8606 17.0656 19.7207C17.0656 19.8606 17.0656 19.8606 17.0656 19.7207C17.2055 19.7207 17.2055 19.7207 17.0656 19.7207C17.2055 19.7207 17.0656 19.7207 17.0656 19.7207Z" fill="#00437B"/>
<path fill-rule="evenodd" clip-rule="evenodd" d="M21.8195 19.86C21.6797 19.9999 21.6797 19.9999 21.6797 19.9999C21.6797 19.9999 21.6797 19.9999 21.8195 19.86C21.6797 19.86 21.8195 19.86 21.8195 19.86C21.9594 19.86 21.9594 19.7202 21.8195 19.86Z" fill="#00437B"/>
<path fill-rule="evenodd" clip-rule="evenodd" d="M16.225 19.8604C16.0852 19.8604 16.0852 19.8604 16.225 19.8604C16.0852 19.8604 16.0852 19.8604 16.225 19.8604C16.0852 19.8604 16.0852 19.8604 16.0852 19.8604L15.9453 20.0002C15.9453 20.0002 15.9453 20.0002 16.0852 20.0002C16.0852 20.0002 16.0852 20.0002 16.225 19.8604C16.0852 20.0002 16.0852 20.0002 16.225 19.8604C16.0852 20.0002 16.0852 19.8604 16.225 19.8604C16.0852 19.8604 16.0852 19.8604 16.225 19.8604C16.0852 19.8604 16.0852 19.8604 16.225 19.8604Z" fill="#00437B"/>
<path fill-rule="evenodd" clip-rule="evenodd" d="M17.7649 19.8604C17.7649 20.0002 17.625 20.0002 17.7649 19.8604C17.625 19.8604 17.625 19.8604 17.625 20.0002C17.625 20.0002 17.625 20.0002 17.7649 20.0002C17.625 20.0002 17.625 20.0002 17.7649 19.8604C17.625 20.0002 17.625 20.0002 17.7649 19.8604C17.625 20.0002 17.625 20.0002 17.7649 19.8604C17.625 20.0002 17.625 20.0002 17.7649 19.8604C17.625 20.0002 17.625 20.0002 17.7649 19.8604C17.625 20.0002 17.625 20.0002 17.7649 19.8604C17.625 20.0002 17.625 20.0002 17.7649 19.8604C17.7649 20.0002 17.7649 20.0002 17.7649 19.8604C17.7649 20.0002 17.7649 20.0002 17.7649 19.8604Z" fill="#00437B"/>
<path fill-rule="evenodd" clip-rule="evenodd" d="M21.9594 20C21.9594 20 21.8195 20 21.9594 20C21.8195 20 21.8195 20 21.9594 20C21.8195 20 21.8195 20 21.9594 20C21.8195 20 21.8195 20 21.9594 20C21.8195 20 21.8195 20 21.8195 20H21.6797C21.8195 20.1399 21.8195 20.1399 21.9594 20C21.8195 20.1399 21.8195 20.1399 21.9594 20C21.8195 20.1399 21.8195 20.1399 21.9594 20C21.8195 20.1399 21.8195 20.1399 21.9594 20C21.9594 20 22.0993 20 21.9594 20Z" fill="#00437B"/>
<path fill-rule="evenodd" clip-rule="evenodd" d="M22.2375 20C22.2375 20 22.0977 20 22.2375 20C22.0977 20.1399 22.0977 20.1399 22.2375 20C22.0977 20.1399 22.0977 20.1399 22.2375 20C22.0977 20.1399 22.0977 20.1399 22.2375 20C22.0977 20.1399 22.0977 20.1399 22.0977 20.1399C22.0977 20.1399 22.0977 20.1399 22.2375 20.1399C22.2375 20.1399 22.2375 20.1399 22.3774 20.1399C22.0977 20.1399 22.0977 20.1399 22.2375 20C22.2375 20.1399 22.2375 20.1399 22.2375 20C22.2375 20.1399 22.2375 20.1399 22.2375 20Z" fill="#00437B"/>
<path fill-rule="evenodd" clip-rule="evenodd" d="M12.0273 21.2587C12.1672 21.2587 12.1672 21.2587 12.0273 21.2587C12.1672 21.2587 12.1672 21.2587 12.0273 21.2587C12.1672 21.2587 12.1672 21.2587 12.0273 21.2587C12.1672 21.2587 12.1672 21.2587 12.1672 21.1188C12.1672 21.1188 12.3071 21.1188 12.3071 20.9789C12.3071 20.9789 12.3071 20.9789 12.4469 20.8391C12.4469 20.8391 12.4469 20.8391 12.5868 20.8391L12.7266 20.6992C12.7266 20.6992 12.7266 20.6992 12.5868 20.8391C12.5868 20.8391 12.5868 20.8391 12.4469 20.8391C12.4469 20.8391 12.4469 20.8391 12.3071 20.8391C12.1672 21.1188 12.1672 21.1188 12.0273 21.2587C12.0273 21.1188 12.0273 21.1188 12.0273 21.2587Z" fill="#00437B"/>
<path fill-rule="evenodd" clip-rule="evenodd" d="M26.9962 20.4193C26.8563 20.4193 26.8563 20.4193 26.9962 20.4193C26.8563 20.4193 26.8563 20.4193 26.9962 20.4193C26.8563 20.5592 26.8563 20.5592 26.8563 20.5592C26.8563 20.5592 26.8563 20.5592 26.7165 20.6991C26.7165 20.6991 26.7165 20.6991 26.5766 20.8389L26.4367 20.9788C26.4367 20.9788 26.2969 20.9788 26.2969 21.1186C26.4367 21.1186 26.7165 21.1186 26.8563 21.1186C26.8563 21.1186 26.8563 21.1186 26.9962 21.1186C26.9962 21.1186 26.9962 21.1186 27.136 21.1186L27.2759 20.9788L27.4158 20.8389C27.4158 20.8389 27.4158 20.8389 27.5556 20.6991C27.5556 20.6991 27.5556 20.6991 27.4158 20.8389L27.5556 20.6991C27.5556 20.6991 27.6955 20.6991 27.6955 20.5592C26.8563 20.5592 26.8563 20.5592 26.9962 20.4193C26.8563 20.4193 26.8563 20.4193 26.9962 20.4193C26.8563 20.4193 26.8563 20.4193 26.9962 20.4193C26.8563 20.4193 26.8563 20.4193 26.9962 20.4193C26.8563 20.4193 26.8563 20.4193 26.9962 20.4193C26.8563 20.4193 26.8563 20.4193 26.9962 20.4193C26.8563 20.4193 26.8563 20.4193 26.9962 20.4193C26.8563 20.4193 26.9962 20.4193 26.9962 20.4193C26.9962 20.2795 26.9962 20.2795 26.9962 20.4193C26.9962 20.2795 26.9962 20.2795 26.9962 20.4193C26.9962 20.2795 26.9962 20.2795 26.9962 20.4193C26.9962 20.2795 26.9962 20.2795 26.9962 20.4193C26.9962 20.2795 26.9962 20.2795 26.9962 20.4193Z" fill="#00437B"/>
<path fill-rule="evenodd" clip-rule="evenodd" d="M26.1563 20.4193C26.0165 20.4193 26.0165 20.4193 26.1563 20.4193C26.0165 20.4193 26.0165 20.4193 26.1563 20.4193C26.0165 20.4193 26.0165 20.4193 26.1563 20.4193C26.0165 20.5592 26.0165 20.5592 25.8766 20.5592C25.8766 20.5592 25.8766 20.5592 25.7368 20.6991L25.5969 20.8389C25.5969 20.8389 25.457 20.8389 25.457 20.9788C25.457 20.9788 25.457 20.9788 25.5969 20.9788C25.5969 20.9788 25.5969 20.9788 25.7368 20.9788H25.8766H26.0165H26.1563C26.1563 20.9788 26.2962 20.9788 26.2962 20.8389C26.2962 20.8389 26.4361 20.8389 26.4361 20.6991C26.4361 20.6991 26.4361 20.6991 26.4361 20.5592C26.4361 20.5592 26.4361 20.5592 26.2962 20.6991C26.2962 20.6991 26.2962 20.6991 26.1563 20.8389C26.1563 20.8389 26.1563 20.8389 26.0165 20.9788C26.0165 20.9788 26.0165 20.9788 25.8766 20.9788C25.8766 20.9788 25.8766 20.9788 25.7368 20.9788H25.5969C25.5969 20.9788 25.5969 20.9788 25.7368 20.8389L25.8766 20.6991C25.8766 20.6991 25.8766 20.6991 26.0165 20.5592C26.0165 20.4193 26.0165 20.4193 26.1563 20.4193C26.0165 20.4193 26.0165 20.4193 26.1563 20.4193C26.0165 20.4193 26.1563 20.4193 26.1563 20.4193C26.1563 20.4193 26.1563 20.2795 26.1563 20.4193C26.1563 20.2795 26.1563 20.2795 26.1563 20.4193C26.1563 20.2795 26.1563 20.2795 26.1563 20.4193Z" fill="#00437B"/>
<path fill-rule="evenodd" clip-rule="evenodd" d="M12.5883 20.4193C12.4485 20.5592 12.4485 20.5592 12.4485 20.5592C12.4485 20.5592 12.4485 20.5592 12.3086 20.6991C12.3086 20.6991 12.3086 20.6991 12.4485 20.6991C12.4485 20.6991 12.4485 20.6991 12.5883 20.6991C12.5883 20.6991 12.5883 20.6991 12.7282 20.5592C12.5883 20.5592 12.5883 20.4193 12.5883 20.4193C12.7282 20.4193 12.7282 20.4193 12.5883 20.4193C12.7282 20.2795 12.7282 20.2795 12.5883 20.4193C12.7282 20.2795 12.7282 20.2795 12.5883 20.4193Z" fill="#00437B"/>
<path fill-rule="evenodd" clip-rule="evenodd" d="M20.4211 20.4192C20.4211 20.4192 20.2812 20.4192 20.2812 20.559C20.2812 20.559 20.2813 20.559 20.4211 20.4192C20.4211 20.4192 20.4211 20.4192 20.561 20.2793C20.2812 20.559 20.2813 20.559 20.4211 20.4192Z" fill="#00437B"/>
<path fill-rule="evenodd" clip-rule="evenodd" d="M27.6945 20.4199C27.6945 20.5598 27.6945 20.5598 27.6945 20.4199C27.6945 20.5598 27.6945 20.5598 27.6945 20.4199C27.6945 20.5598 27.6945 20.5598 27.6945 20.4199C27.6945 20.5598 27.6945 20.5598 27.6945 20.4199C27.5547 20.5598 27.5547 20.5598 27.5547 20.5598C27.5547 20.5598 27.5547 20.5598 27.5547 20.6996C27.6945 20.5598 27.6945 20.5598 27.6945 20.4199C27.6945 20.5598 27.6945 20.5598 27.6945 20.4199C27.6945 20.5598 27.6945 20.5598 27.6945 20.4199Z" fill="#00437B"/>
<path fill-rule="evenodd" clip-rule="evenodd" d="M12.0297 20.5596C12.0297 20.5596 11.8899 20.5596 12.0297 20.5596C11.8899 20.5596 11.8899 20.5596 11.8899 20.6994C11.8899 20.6994 11.75 20.6994 11.75 20.8393C11.75 20.8393 11.75 20.8393 11.75 20.9791C11.75 20.9791 11.75 20.9791 11.75 21.119C11.75 21.119 11.75 21.119 11.8899 21.119H12.0297C12.0297 21.119 12.0297 21.119 12.1696 21.119C12.1696 21.119 12.1696 21.119 12.3094 20.9791C12.3094 20.9791 12.3094 20.9791 12.3094 20.8393C12.3094 20.8393 12.3094 20.8393 12.3094 20.6994C12.0297 20.5596 12.0297 20.5596 12.0297 20.5596Z" fill="#00437B"/>
<path fill-rule="evenodd" clip-rule="evenodd" d="M27.972 20.5596C27.972 20.6994 27.972 20.6994 27.972 20.5596C27.972 20.6994 27.8321 20.6994 27.972 20.5596C27.8321 20.6994 27.8321 20.6994 27.8321 20.6994C27.8321 20.6994 27.8321 20.6994 27.6923 20.6994C27.6923 20.6994 27.5524 20.6994 27.5524 20.8393C27.5524 20.8393 27.4125 20.9791 27.2727 20.9791C27.2727 20.9791 27.1328 20.9791 27.1328 21.119C27.1328 21.119 27.1328 21.119 27.2727 21.119C27.972 20.6994 27.972 20.6994 27.972 20.5596C27.972 20.6994 27.972 20.6994 27.972 20.5596C27.972 20.6994 27.972 20.6994 27.972 20.5596C27.972 20.6994 27.972 20.5596 27.972 20.5596C27.972 20.5596 28.1118 20.5596 27.972 20.5596C28.1118 20.5596 28.1118 20.5596 27.972 20.5596C28.1118 20.5596 27.972 20.5596 27.972 20.5596Z" fill="#00437B"/>
<path fill-rule="evenodd" clip-rule="evenodd" d="M27.6945 21.259C27.8344 21.259 27.8344 21.259 27.6945 21.259C27.8344 21.1191 27.8344 21.1191 27.8344 21.1191C27.8344 21.1191 27.8344 21.1191 27.6945 21.1191C27.6945 21.1191 27.6945 21.1191 27.6945 21.259C27.5547 21.259 27.5547 21.259 27.5547 21.259C27.5547 21.3989 27.6945 21.3989 27.6945 21.259Z" fill="#00437B"/>
<path fill-rule="evenodd" clip-rule="evenodd" d="M20.5617 20.5596C20.5617 20.5596 20.5617 20.6994 20.5617 20.5596C20.4219 20.6994 20.4219 20.6994 20.4219 20.6994C20.5617 20.6994 20.5617 20.6994 20.5617 20.5596C20.5617 20.6994 20.5617 20.6994 20.5617 20.5596C20.5617 20.6994 20.5617 20.6994 20.5617 20.5596C20.5617 20.6994 20.5617 20.6994 20.5617 20.5596C20.5617 20.6994 20.5617 20.6994 20.5617 20.5596C20.5617 20.6994 20.5617 20.6994 20.5617 20.5596C20.5617 20.5596 20.7016 20.5596 20.5617 20.5596Z" fill="#00437B"/>
<path fill-rule="evenodd" clip-rule="evenodd" d="M20.8422 20.6992C20.8422 20.6992 20.7024 20.6992 20.8422 20.6992C20.7024 20.8391 20.7024 20.8391 20.8422 20.6992C20.7024 20.8391 20.7024 20.8391 20.8422 20.6992C20.7024 20.8391 20.7024 20.8391 20.7024 20.8391C20.7024 20.8391 20.7024 20.8391 20.5625 20.9789H20.7024C20.7024 20.9789 20.7024 20.9789 20.8422 20.9789C20.7024 20.8391 20.7024 20.8391 20.8422 20.6992C20.8422 20.8391 20.8422 20.8391 20.8422 20.6992C20.8422 20.8391 20.8422 20.8391 20.8422 20.6992Z" fill="#00437B"/>
<path fill-rule="evenodd" clip-rule="evenodd" d="M27.4133 20.6992C27.2734 20.8391 27.2734 20.8391 27.4133 20.6992C27.2734 20.8391 27.2734 20.8391 27.4133 20.6992C27.2734 20.8391 27.2734 20.8391 27.4133 20.6992C27.2734 20.8391 27.2734 20.8391 27.2734 20.8391C27.2734 20.9789 27.2734 20.8391 27.4133 20.6992C27.2734 20.8391 27.2734 20.8391 27.4133 20.6992C27.2734 20.8391 27.2734 20.8391 27.4133 20.6992C27.2734 20.8391 27.2734 20.8391 27.4133 20.6992C27.2734 20.8391 27.2734 20.8391 27.4133 20.6992C27.4133 20.8391 27.4133 20.8391 27.4133 20.6992Z" fill="#00437B"/>
<path fill-rule="evenodd" clip-rule="evenodd" d="M27.9721 21.3991C28.1119 21.3991 28.1119 21.3991 28.1119 21.2592C28.1119 21.2592 28.1119 21.2592 28.1119 21.1194C28.1119 21.1194 28.1119 21.1194 28.1119 20.9795C28.1119 21.2592 28.1119 21.2592 27.9721 21.3991C27.9721 21.2592 27.9721 21.2592 27.9721 21.3991C27.9721 21.2592 27.9721 21.2592 27.9721 21.3991C27.8322 21.3991 27.8322 21.3991 27.9721 21.3991C27.8322 21.3991 27.9721 21.3991 27.9721 21.3991Z" fill="#00437B"/>
<path fill-rule="evenodd" clip-rule="evenodd" d="M20.9789 20.8389C20.9789 20.8389 20.8391 20.9787 20.9789 20.8389C20.8391 20.9787 20.8391 20.9787 20.8391 20.9787L20.6992 21.1186C20.9789 20.9787 20.9789 20.9787 20.9789 20.8389C20.9789 20.9787 20.9789 20.9787 20.9789 20.8389C20.9789 20.9787 20.9789 20.9787 20.9789 20.8389C20.9789 20.9787 20.9789 20.9787 20.9789 20.8389C21.1188 20.8389 21.1188 20.8389 20.9789 20.8389Z" fill="#00437B"/>
<path fill-rule="evenodd" clip-rule="evenodd" d="M21.261 20.9795C21.1211 21.1194 21.1211 21.1194 21.261 20.9795C21.1211 20.9795 21.1211 21.1194 21.1211 21.1194C21.1211 21.1194 21.1211 21.1194 21.261 21.1194C21.1211 21.2592 21.1211 21.1194 21.261 20.9795C21.1211 21.1194 21.1211 21.1194 21.261 20.9795C21.1211 21.1194 21.1211 21.1194 21.261 20.9795C21.1211 21.1194 21.1211 21.1194 21.261 20.9795C21.1211 21.1194 21.1211 21.1194 21.261 20.9795C21.1211 21.1194 21.1211 21.1194 21.261 20.9795C21.1211 21.1194 21.1211 21.1194 21.261 20.9795C21.1211 21.1194 21.261 21.1194 21.261 20.9795Z" fill="#00437B"/>
<path fill-rule="evenodd" clip-rule="evenodd" d="M21.6789 21.1191C21.5391 21.1191 21.5391 21.1191 21.6789 21.1191C21.5391 21.1191 21.5391 21.1191 21.6789 21.1191C21.5391 21.1191 21.5391 21.1191 21.6789 21.1191C21.5391 21.259 21.5391 21.259 21.5391 21.259H21.6789H21.8188C21.8188 21.259 21.8188 21.259 21.9586 21.259L21.8188 21.3989H21.9586C21.9586 21.3989 21.9586 21.3989 22.0985 21.259C22.0985 21.259 22.0985 21.259 21.9586 21.3989C21.5391 21.259 21.5391 21.259 21.6789 21.1191C21.5391 21.259 21.5391 21.259 21.6789 21.1191C21.5391 21.1191 21.5391 21.1191 21.6789 21.1191C21.5391 21.1191 21.6789 21.1191 21.6789 21.1191Z" fill="#00437B"/>
<path fill-rule="evenodd" clip-rule="evenodd" d="M19.3001 19.3012C19.3001 19.4411 19.3001 19.4411 19.3001 19.3012C19.3001 19.4411 19.3001 19.4411 19.3001 19.3012C19.1602 19.4411 19.1602 19.4411 19.3001 19.3012C19.1602 19.4411 19.1602 19.4411 19.3001 19.3012C19.1602 19.4411 19.1602 19.4411 19.3001 19.3012C19.1602 19.4411 19.1602 19.4411 19.1602 19.4411H19.3001C19.3001 19.4411 19.44 19.4411 19.44 19.3012C19.44 19.3012 19.44 19.3012 19.5798 19.3012C19.5798 19.3012 19.5798 19.3012 19.5798 19.4411C19.5798 19.4411 19.5798 19.4411 19.44 19.4411C19.44 19.4411 19.44 19.4411 19.3001 19.4411C19.3001 19.4411 19.3001 19.4411 19.44 19.3012V19.1613C19.44 19.1613 19.3001 19.1613 19.3001 19.3012C19.3001 19.3012 19.3001 19.3012 19.1602 19.3012C19.0204 19.3012 19.0204 19.4411 18.8805 19.4411C18.8805 19.4411 18.8805 19.4411 19.0204 19.3012L19.1602 19.1613C19.1602 19.1613 19.1602 19.1613 19.1602 19.0215C19.1602 19.0215 19.0204 19.0215 19.0204 19.1613C19.0204 19.1613 18.8805 19.1613 18.8805 19.3012C18.8805 19.3012 18.8805 19.3012 18.7407 19.3012C18.7407 19.3012 18.7407 19.3012 18.6008 19.3012C18.6008 19.3012 18.6008 19.3012 18.4609 19.3012C18.4609 19.3012 18.4609 19.3012 18.6008 19.3012H18.7407C18.7407 19.3012 18.8805 19.3012 18.8805 19.1613L18.7407 19.3012C19.1602 19.4411 19.1602 19.4411 19.3001 19.3012C19.1602 19.4411 19.3001 19.4411 19.3001 19.3012Z" fill="#00437B"/>
<path fill-rule="evenodd" clip-rule="evenodd" d="M19.8617 20.0002C19.7219 20.0002 19.7219 20.1401 19.8617 20.0002C19.7219 20.1401 19.7219 20.1401 19.8617 20.0002C19.7219 20.1401 19.7219 20.1401 19.7219 20.1401C19.7219 20.1401 19.7219 20.1401 19.582 20.1401C19.582 20.1401 19.7219 20.1401 19.7219 20.0002C19.7219 20.0002 19.7219 20.0002 19.8617 19.8604C19.7219 20.1401 19.7219 20.0002 19.8617 20.0002C19.7219 20.0002 19.7219 20.0002 19.8617 20.0002Z" fill="#00437B"/>
<path fill-rule="evenodd" clip-rule="evenodd" d="M14.6867 20C14.6867 20.1399 14.5469 20.1399 14.6867 20C14.5469 20.1399 14.5469 20.1399 14.6867 20C14.5469 20.1399 14.5469 20.1399 14.5469 20.1399L14.6867 20Z" fill="#00437B"/>
<path fill-rule="evenodd" clip-rule="evenodd" d="M13.8486 20.1396C13.7087 20.1396 13.7087 20.1396 13.8486 20.1396C13.7087 20.2795 13.7087 20.2795 13.7087 20.2795L13.5689 20.4194C13.5689 20.4194 13.5689 20.4194 13.429 20.5592C13.429 20.5592 13.429 20.5592 13.2891 20.6991C13.2891 20.6991 13.2891 20.6991 13.429 20.6991C13.429 20.6991 13.429 20.6991 13.5689 20.6991C13.5689 20.6991 13.5689 20.6991 13.7087 20.5592C13.7087 20.5592 13.7087 20.5592 13.8486 20.5592L13.7087 20.6991C13.7087 20.6991 13.7087 20.6991 13.7087 20.8389C13.7087 20.8389 13.7087 20.8389 13.5689 20.8389L13.429 20.9788C13.429 20.9788 13.429 20.9788 13.2891 21.1187C13.2891 21.1187 13.2891 21.1187 13.1493 21.1187C13.0094 21.1187 12.7297 21.1187 12.5898 21.1187C12.5898 21.1187 12.7297 20.9788 12.8696 20.9788C12.8696 20.9788 12.8696 20.9788 13.0094 20.9788C13.7087 20.2795 13.7087 20.2795 13.8486 20.1396C13.7087 20.2795 13.7087 20.1396 13.8486 20.1396C13.7087 20.1396 13.7087 20.1396 13.8486 20.1396C13.7087 20.1396 13.7087 20.1396 13.8486 20.1396C13.7087 20.1396 13.7087 20.1396 13.8486 20.1396C13.7087 20.1396 13.7087 20.1396 13.8486 20.1396C13.7087 20.1396 13.8486 20.1396 13.8486 20.1396Z" fill="#00437B"/>
<path fill-rule="evenodd" clip-rule="evenodd" d="M25.3164 20.559C25.4563 20.559 25.4563 20.559 25.3164 20.559C25.4563 20.4192 25.4563 20.4192 25.4563 20.4192C25.4563 20.4192 25.4563 20.4192 25.5961 20.2793C25.5961 20.2793 25.5961 20.2793 25.4563 20.4192C25.4563 20.559 25.4563 20.559 25.3164 20.559Z" fill="#00437B"/>
<path fill-rule="evenodd" clip-rule="evenodd" d="M11.3305 20.6992C11.1906 20.6992 11.1906 20.8391 11.1906 20.8391C11.1906 20.8391 11.0508 20.8391 11.0508 20.9789V21.1188C11.1906 20.8391 11.1906 20.8391 11.3305 20.6992C11.1906 20.8391 11.3305 20.8391 11.3305 20.6992C11.3305 20.8391 11.3305 20.8391 11.3305 20.6992C11.3305 20.8391 11.3305 20.8391 11.3305 20.6992C11.3305 20.8391 11.3305 20.8391 11.3305 20.6992C11.3305 20.8391 11.3305 20.8391 11.3305 20.6992C11.3305 20.8391 11.3305 20.8391 11.3305 20.6992C11.3305 20.8391 11.3305 20.8391 11.3305 20.6992Z" fill="#00437B"/>
<path fill-rule="evenodd" clip-rule="evenodd" d="M29.2319 21.6786H29.0921H28.9522H28.8123C28.8123 21.6786 28.8123 21.6786 28.6725 21.6786H28.5326H28.3928C28.3928 21.6786 28.3928 21.6786 28.2529 21.6786C28.2529 21.6786 28.113 21.6786 27.9732 21.6786C27.8333 21.6786 27.8333 21.6786 27.6935 21.6786C27.5536 21.6786 27.5536 21.6786 27.4137 21.6786C27.2739 21.6786 27.2739 21.6786 27.134 21.6786C27.134 21.6786 27.134 21.6786 26.9942 21.6786H26.8543H26.7144H26.5746H26.4347C26.2949 21.6786 26.0151 21.6786 25.8753 21.6786C25.7354 21.6786 25.7354 21.6786 25.5956 21.6786H25.4557H25.3158C25.3158 21.6786 25.3158 21.6786 25.176 21.6786H25.0361C25.0361 21.6786 25.0361 21.6786 24.8962 21.6786C24.8962 21.6786 24.8963 21.6786 24.7564 21.6786H24.6165C24.4767 21.6786 24.4767 21.6786 24.3368 21.8185C24.3368 21.8185 24.1969 21.8185 24.1969 21.9584C24.1969 21.9584 24.197 21.9584 24.0571 21.9584H23.9172C23.9172 21.9584 23.7774 22.0982 23.7774 21.9584C23.7774 21.9584 23.7774 21.9584 23.9172 21.8185C23.9172 21.8185 23.9172 21.8185 24.0571 21.6786L24.1969 21.5388C24.1969 21.5388 24.3368 21.5388 24.3368 21.3989C24.3368 21.3989 24.3368 21.3989 24.3368 21.2591C24.3368 21.2591 24.3368 21.2591 24.1969 21.2591C24.1969 21.2591 24.197 21.2591 24.0571 21.2591C24.0571 21.2591 24.0571 21.2591 23.9172 21.2591C23.9172 21.2591 23.9172 21.2591 23.7774 21.2591C23.7774 21.2591 23.9172 21.2591 23.9172 21.1192C23.9172 21.1192 23.9172 21.1192 24.0571 20.9793C24.0571 20.9793 24.0571 20.9793 23.9172 20.9793L23.7774 21.1192C23.7774 21.1192 23.7774 21.1192 23.6375 21.1192C23.6375 21.1192 23.6375 21.1192 23.7774 20.9793L23.6375 21.1192C23.6375 21.1192 23.6375 21.1192 23.4976 21.1192L23.6375 20.9793H23.4976C23.4976 20.9793 23.4977 20.9793 23.3578 20.9793C23.3578 20.9793 23.3578 20.9793 23.3578 20.8395C23.3578 20.8395 23.3578 20.8395 23.3578 20.9793C23.3578 20.9793 23.3578 20.9793 23.3578 21.1192C23.3578 21.1192 23.3578 21.1192 23.3578 20.9793C23.3578 20.9793 23.3578 20.9793 23.2179 20.9793V20.8395C23.2179 20.8395 23.2179 20.8395 23.2179 20.6996C23.2179 20.6996 23.2179 20.6996 23.2179 20.5598C23.2179 20.5598 23.2179 20.5598 23.2179 20.4199C23.2179 20.4199 23.2179 20.4199 23.0781 20.4199V20.28L22.9382 20.4199C22.9382 20.4199 22.9382 20.4199 22.7983 20.4199C22.7983 20.4199 22.7984 20.4199 22.6585 20.4199C22.6585 20.4199 22.5186 20.28 22.6585 20.28C22.6585 20.28 22.7983 20.28 22.7983 20.1402C22.7983 20.1402 22.7983 20.1402 22.9382 20.1402C22.9382 20.1402 22.9382 20.1402 22.9382 20.28V20.4199C22.9382 20.4199 22.9382 20.4199 22.9382 20.5598V20.4199C22.9382 20.4199 22.9382 20.4199 22.9382 20.28C22.9382 20.28 22.9382 20.28 22.9382 20.1402C22.9382 20.1402 22.9382 20.1402 22.9382 20.0003C22.9382 20.0003 22.9382 20.0003 22.9382 19.8605C22.9382 19.8605 22.9382 19.8605 22.9382 19.7206C22.9382 19.7206 22.9382 19.7206 22.9382 19.5807C22.9382 19.5807 22.9382 19.5807 22.7983 19.4409C22.7983 19.4409 22.7984 19.4409 22.6585 19.301C22.6585 19.301 22.6585 19.4409 22.7983 19.4409C22.7983 19.4409 22.7983 19.5807 22.9382 19.5807C22.9382 19.5807 22.9382 19.5807 22.9382 19.7206C22.9382 19.7206 22.9382 19.7206 22.9382 19.8605H23.0781C23.0781 19.8605 23.0781 19.8605 22.9382 19.8605C22.9382 19.8605 22.9382 19.8605 22.9382 19.7206C22.9382 19.7206 22.9382 19.7206 22.9382 19.5807C22.9382 19.5807 22.7983 19.5807 22.7983 19.7206C22.7983 19.7206 22.7983 19.7206 22.9382 19.7206C22.9382 19.7206 22.9382 19.7206 22.9382 19.5807L22.7983 19.7206C22.7983 19.7206 22.6585 19.7206 22.6585 19.8605L22.5186 20.0003C22.5186 20.0003 22.5186 20.0003 22.3788 20.0003L22.2389 20.1402C22.2389 20.1402 22.2389 20.0003 22.3788 20.0003C22.3788 20.0003 22.3788 20.0003 22.5186 19.8605H22.3788H22.2389C22.2389 19.8605 22.099 19.8605 22.099 20.0003C22.099 20.0003 22.099 20.0003 22.099 19.8605H21.9592C21.9592 19.8605 21.9592 19.8605 21.8193 19.8605C21.8193 19.8605 21.6795 19.8605 21.6795 20.0003H21.5396H21.3997C21.3997 20.0003 21.2599 20.0003 21.2599 20.1402C21.2599 20.1402 21.2599 20.1402 21.12 20.1402C21.12 20.1402 21.12 20.1402 20.9802 20.1402C20.9802 20.1402 20.9802 20.1402 20.8403 20.1402H20.7004L20.8403 20.0003C20.8403 20.0003 20.7004 20.0003 20.7004 20.1402H20.5606C20.5606 20.1402 20.4207 20.1402 20.4207 20.28C20.4207 20.28 20.4207 20.28 20.2809 20.28C20.2809 20.28 20.2809 20.28 20.141 20.28C20.141 20.28 20.141 20.28 20.0011 20.28C20.0011 20.28 19.8613 20.28 19.8613 20.4199C19.8613 20.4199 19.8613 20.4199 19.7214 20.4199C19.5816 20.4199 19.5816 20.4199 19.4417 20.4199C19.4417 20.4199 19.4417 20.4199 19.4417 20.28C19.4417 20.28 19.4417 20.28 19.4417 20.1402V20.28C19.4417 20.28 19.4417 20.28 19.4417 20.4199C19.4417 20.4199 19.4417 20.4199 19.4417 20.5598C19.4417 20.5598 19.4417 20.5598 19.4417 20.6996C19.4417 20.6996 19.3018 20.6996 19.3018 20.8395H19.162C19.162 20.8395 19.162 20.8395 19.0221 20.8395C18.8823 20.8395 18.8823 20.8395 18.7424 20.8395C18.7424 20.8395 18.7424 20.8395 18.6025 20.8395C18.6025 20.8395 18.6025 20.8395 18.4627 20.8395H18.3228C18.3228 20.8395 18.3228 20.8395 18.183 20.8395C18.183 20.8395 18.183 20.8395 18.183 20.6996C18.183 20.6996 18.183 20.6996 18.3228 20.6996C18.3228 20.6996 18.3228 20.6996 18.4627 20.6996C18.4627 20.6996 18.6025 20.6996 18.6025 20.8395H18.7424C18.7424 20.8395 18.7424 20.8395 18.8823 20.8395C18.8823 20.8395 18.8823 20.8395 19.0221 20.8395V20.6996H19.162C19.162 20.6996 19.162 20.6996 19.3018 20.6996H19.4417C19.4417 20.6996 19.4417 20.6996 19.5816 20.6996C19.5816 20.6996 19.5816 20.6996 19.7214 20.6996H19.8613H20.0011H20.141C20.2809 20.6996 20.2809 20.6996 20.4207 20.6996H20.5606C20.5606 20.6996 20.5606 20.6996 20.7004 20.6996H20.8403H20.9802C20.9802 20.6996 20.9802 20.6996 21.12 20.6996H21.2599C21.2599 20.6996 21.2599 20.6996 21.3997 20.6996C21.3997 20.6996 21.3997 20.6996 21.5396 20.6996C21.5396 20.6996 21.5396 20.6996 21.6795 20.6996C21.6795 20.6996 21.6795 20.6996 21.8193 20.6996C21.8193 20.6996 21.8193 20.6996 21.8193 20.8395C21.8193 20.8395 21.8193 20.8395 21.9592 20.8395C21.9592 20.8395 21.9592 20.8395 22.099 20.8395C22.099 20.8395 22.099 20.8395 22.2389 20.8395H22.3788H22.5186C22.5186 20.8395 22.5186 20.8395 22.6585 20.8395C22.6585 20.8395 22.6585 20.8395 22.7983 20.8395H22.9382H23.0781C23.0781 20.8395 23.0781 20.8395 23.0781 20.9793C23.0781 20.9793 23.0781 20.9793 23.0781 20.8395C23.0781 20.8395 23.0781 20.8395 23.0781 20.6996V20.5598V20.4199C23.0781 20.4199 23.0781 20.4199 23.0781 20.5598C23.0781 20.5598 23.0781 20.5598 23.2179 20.5598C23.2179 20.5598 23.2179 20.5598 23.3578 20.5598C23.3578 20.5598 23.3578 20.5598 23.2179 20.6996C23.2179 20.6996 23.0781 20.6996 23.0781 20.8395C23.0781 20.8395 23.2179 20.8395 23.2179 20.6996C23.2179 20.6996 23.2179 20.6996 23.3578 20.6996C23.3578 20.6996 23.4976 20.6996 23.4976 20.5598C23.4976 20.5598 23.4976 20.5598 23.6375 20.5598C23.6375 20.5598 23.6375 20.5598 23.7774 20.5598C23.7774 20.5598 23.9172 20.5598 23.9172 20.4199H24.0571H24.1969C24.1969 20.4199 24.197 20.4199 24.0571 20.4199C24.0571 20.4199 24.1969 20.4199 24.1969 20.28C24.1969 20.28 24.1969 20.28 24.3368 20.28C24.3368 20.28 24.3368 20.28 24.4767 20.28C24.4767 20.28 24.4767 20.28 24.6165 20.28C24.6165 20.28 24.6165 20.28 24.7564 20.28C24.7564 20.28 24.7564 20.28 24.8962 20.28H25.0361C25.0361 20.28 25.0361 20.28 25.176 20.28C25.176 20.28 25.176 20.28 25.3158 20.28C25.3158 20.28 25.3158 20.28 25.4557 20.28C25.4557 20.28 25.4557 20.28 25.5956 20.28C25.5956 20.28 25.5956 20.28 25.5956 20.4199C25.5956 20.4199 25.5956 20.4199 25.7354 20.4199C25.7354 20.4199 25.7354 20.4199 25.8753 20.4199C25.8753 20.4199 25.8753 20.4199 26.0151 20.4199C26.0151 20.4199 26.0151 20.4199 26.155 20.4199C26.155 20.4199 26.2949 20.4199 26.4347 20.4199C26.4347 20.4199 26.4347 20.4199 26.5746 20.4199C26.5746 20.4199 26.5746 20.4199 26.7144 20.4199H26.8543H26.9942C27.134 20.4199 27.134 20.4199 27.2739 20.4199H27.4137H27.5536H27.6935C27.6935 20.4199 27.6935 20.5598 27.5536 20.5598C27.5536 20.5598 27.6935 20.5598 27.6935 20.4199H27.8333C27.8333 20.4199 27.8333 20.4199 27.9732 20.4199V20.1402C27.9732 20.1402 27.9732 20.1402 27.8333 20.1402H27.6935C27.5536 20.1402 27.4137 20.1402 27.2739 20.1402C27.134 20.1402 27.134 20.1402 26.9942 20.1402C26.9942 20.1402 26.9942 20.1402 26.8543 20.1402C26.8543 20.1402 26.8543 20.1402 26.7144 20.1402H26.5746C26.4347 20.1402 26.4347 20.1402 26.2949 20.1402H26.155C26.155 20.1402 26.155 20.1402 26.0151 20.1402C25.8753 20.1402 25.8753 20.1402 25.7354 20.1402C25.7354 20.1402 25.7354 20.1402 25.5956 20.1402H25.4557H25.3158C25.3158 20.1402 25.3158 20.1402 25.176 20.1402C25.0361 20.1402 24.8963 20.1402 24.7564 20.1402C24.6165 20.1402 24.6165 20.1402 24.4767 20.1402H24.3368H24.1969C24.1969 20.1402 24.197 20.1402 24.0571 20.1402H23.9172C23.9172 20.1402 23.9172 20.1402 23.7774 20.1402H23.6375C23.4976 20.1402 23.3578 20.1402 23.0781 20.1402C23.0781 20.1402 23.0781 20.1402 22.9382 20.1402C22.9382 20.1402 22.9382 20.1402 22.7983 20.1402C22.6585 20.1402 22.5186 20.1402 22.5186 20.1402H22.3788C22.3788 20.1402 22.3788 20.1402 22.2389 20.1402C22.2389 20.1402 22.2389 20.1402 22.099 20.1402C22.099 20.1402 22.099 20.1402 21.9592 20.1402C21.9592 20.1402 21.9592 20.1402 21.8193 20.1402C21.8193 20.1402 21.8193 20.1402 21.6795 20.1402H21.5396C21.5396 20.1402 21.5396 20.1402 21.3997 20.1402C21.3997 20.1402 21.3997 20.1402 21.2599 20.1402C21.2599 20.1402 21.2599 20.1402 21.12 20.1402C21.12 20.1402 21.12 20.1402 20.9802 20.1402H20.8403C20.8403 20.1402 20.8403 20.1402 20.7004 20.1402H20.5606C20.5606 20.1402 20.5606 20.1402 20.4207 20.1402H20.2809C20.2809 20.1402 20.2809 20.1402 20.141 20.1402H20.0011H19.8613H19.7214C19.7214 20.1402 19.7214 20.1402 19.5816 20.1402H19.4417C19.3018 20.1402 19.3018 20.1402 19.162 20.1402L19.0221 20.28H18.8823C18.7424 20.28 18.7424 20.28 18.6025 20.4199C18.6025 20.4199 18.4627 20.4199 18.3228 20.4199C18.183 20.4199 18.183 20.4199 18.0431 20.4199C18.0431 20.4199 18.0431 20.4199 18.0431 20.5598C18.0431 20.5598 18.0431 20.5598 17.9032 20.5598C17.9032 20.5598 17.9032 20.5598 17.7634 20.5598C17.6235 20.5598 17.6235 20.5598 17.4837 20.5598C17.4837 20.5598 17.4837 20.5598 17.3438 20.5598C17.2039 20.5598 17.2039 20.5598 17.0641 20.5598C16.9242 20.5598 16.9242 20.5598 16.7844 20.5598C16.7844 20.5598 16.7844 20.5598 16.6445 20.5598H16.5046H16.3648C16.3648 20.5598 16.3648 20.5598 16.2249 20.5598C16.2249 20.5598 16.2249 20.5598 16.0851 20.5598C15.9452 20.5598 15.9452 20.5598 15.8053 20.5598C15.8053 20.5598 15.8053 20.5598 15.6655 20.5598H15.5256H15.3858C15.2459 20.5598 15.2459 20.5598 15.106 20.5598H14.9662H14.8263C14.8263 20.5598 14.8263 20.5598 14.6865 20.5598H14.5466H14.4067H14.2669C14.127 20.5598 13.9872 20.5598 13.9872 20.5598C13.8473 20.5598 13.8473 20.5598 13.7074 20.5598C13.7074 20.5598 13.7074 20.5598 13.5676 20.5598C13.5676 20.5598 13.5676 20.5598 13.4277 20.5598C13.2879 20.5598 13.2879 20.5598 13.148 20.5598H10.9102V20.8395C10.9102 20.8395 10.9102 20.8395 11.0501 20.8395C11.0501 20.8395 11.0501 20.8395 11.0501 20.9793C11.0501 20.9793 11.0501 20.9793 10.9102 21.1192C10.9102 21.1192 10.9102 21.1192 11.0501 21.1192C11.0501 21.1192 11.0501 21.1192 11.19 21.1192C11.19 21.1192 11.19 21.1192 11.3298 21.1192H11.4697C11.4697 21.1192 11.4697 21.1192 11.6095 21.1192C11.6095 21.1192 11.6095 21.1192 11.7494 21.1192C11.7494 21.1192 11.7494 21.1192 11.8893 21.1192L11.7494 21.2591C11.7494 21.2591 11.7494 21.2591 11.8893 21.2591H12.0291C12.0291 21.2591 12.0291 21.2591 12.169 21.2591C12.169 21.2591 12.169 21.2591 12.3088 21.2591C12.3088 21.2591 12.3088 21.2591 12.169 21.3989C12.169 21.3989 12.0291 21.3989 12.0291 21.5388C12.0291 21.5388 12.0291 21.5388 12.169 21.5388C12.169 21.5388 12.169 21.5388 12.3088 21.5388C12.3088 21.5388 12.3088 21.5388 12.4487 21.5388C12.4487 21.5388 12.4487 21.5388 12.4487 21.6786C12.4487 21.6786 12.5886 21.6786 12.5886 21.5388C12.5886 21.5388 12.5886 21.5388 12.7284 21.5388C12.7284 21.5388 12.7284 21.5388 12.8683 21.5388H13.0081H13.148H13.2879C13.5676 21.5388 13.8473 21.5388 14.127 21.5388C14.2669 21.5388 14.4067 21.5388 14.5466 21.5388C14.5466 21.5388 14.5466 21.5388 14.6865 21.5388H14.8263C14.8263 21.5388 14.8263 21.5388 14.9662 21.5388C14.9662 21.5388 14.9662 21.5388 15.106 21.5388C15.106 21.5388 15.106 21.5388 15.2459 21.5388C15.2459 21.5388 15.2459 21.5388 15.2459 21.6786C15.2459 21.6786 15.2459 21.6786 15.3858 21.6786C15.3858 21.6786 15.5256 21.6786 15.5256 21.5388C15.5256 21.5388 15.5256 21.5388 15.6655 21.5388C15.6655 21.5388 15.6655 21.5388 15.8053 21.5388H15.9452C15.9452 21.5388 15.9452 21.6786 15.8053 21.6786C15.8053 21.6786 15.9452 21.6786 15.9452 21.5388C15.9452 21.5388 15.9452 21.5388 16.0851 21.5388H16.2249H16.3648H16.5046C16.5046 21.5388 16.5046 21.5388 16.5046 21.6786C16.5046 21.6786 16.6445 21.6786 16.6445 21.5388C16.6445 21.5388 16.6445 21.5388 16.7844 21.5388C16.7844 21.5388 16.7844 21.5388 16.9242 21.5388C16.9242 21.5388 16.9242 21.5388 17.0641 21.5388C17.0641 21.5388 17.0641 21.5388 17.2039 21.5388C17.2039 21.5388 17.2039 21.5388 17.3438 21.5388C17.3438 21.5388 17.3438 21.5388 17.4837 21.5388C17.4837 21.5388 17.4837 21.5388 17.6235 21.5388C17.6235 21.5388 17.6235 21.5388 17.7634 21.5388H17.9032H18.0431H18.183H18.3228H18.4627C18.4627 21.5388 18.4627 21.5388 18.6025 21.5388H18.7424C18.7424 21.5388 18.7424 21.5388 18.8823 21.5388H19.0221C19.0221 21.5388 19.0221 21.5388 19.162 21.5388H19.3018H19.4417C19.4417 21.5388 19.4417 21.5388 19.5816 21.5388C19.7214 21.5388 19.5816 21.5388 19.7214 21.5388C19.7214 21.5388 19.7214 21.5388 19.8613 21.5388C19.8613 21.5388 19.8613 21.5388 20.0011 21.6786C20.0011 21.6786 20.0011 21.6786 20.0011 21.8185C20.0011 21.8185 20.0011 21.8185 20.0011 21.9584C20.0011 21.9584 20.0011 21.9584 20.0011 22.0982V22.2381C20.0011 22.2381 20.0011 22.2381 20.0011 22.378C20.0011 22.378 20.0011 22.378 20.0011 22.5178V22.6577C20.0011 22.6577 20.0011 22.6577 20.0011 22.7975C20.0011 22.7975 20.0011 22.7975 19.8613 22.7975C19.8613 22.7975 19.8613 22.7975 19.7214 22.7975C19.7214 22.7975 19.7214 22.7975 19.5816 22.7975H19.4417C19.4417 22.7975 19.4417 22.7975 19.5816 22.7975H19.7214C19.7214 22.7975 19.7214 22.7975 19.7214 22.6577C19.7214 22.6577 19.7214 22.6577 19.5816 22.6577C19.5816 22.6577 19.5816 22.6577 19.4417 22.6577C19.4417 22.6577 19.4417 22.6577 19.5816 22.6577H19.4417C19.4417 22.6577 19.4417 22.6577 19.3018 22.6577H19.4417C19.4417 22.6577 19.4417 22.6577 19.3018 22.6577H19.162C19.162 22.6577 19.162 22.6577 19.0221 22.6577C19.0221 22.6577 19.0221 22.6577 19.162 22.6577L19.3018 22.5178C19.3018 22.5178 19.3018 22.5178 19.162 22.5178H19.0221V22.378C19.0221 22.378 19.0221 22.378 18.8823 22.378C18.8823 22.378 18.8823 22.3779 18.8823 22.2381C18.8823 22.2381 18.8823 22.2381 18.7424 22.2381C18.7424 22.2381 18.7424 22.2381 18.6025 22.2381C18.6025 22.2381 18.6025 22.2381 18.4627 22.2381H18.6025C18.6025 22.2381 18.6025 22.2381 18.4627 22.2381C18.4627 22.2381 18.3228 22.2381 18.3228 22.0982C18.3228 22.0982 18.3228 22.0982 18.183 22.0982C18.183 22.0982 18.183 22.0982 18.0431 22.0982C18.0431 22.0982 18.0431 22.0982 18.183 22.0982C18.0431 22.0982 18.0431 22.0982 17.9032 22.2381C17.9032 22.2381 17.9032 22.2381 17.7634 22.2381C17.7634 22.2381 17.7634 22.2381 17.9032 22.0982H17.7634C17.7634 22.0982 17.7634 22.0982 17.6235 22.0982H17.4837C17.4837 22.0982 17.4837 22.0982 17.6235 22.0982C17.6235 22.0982 17.6235 22.0982 17.4837 22.0982C17.4837 22.0982 17.4837 22.0982 17.3438 22.0982C17.3438 22.0982 17.3438 22.0982 17.4837 22.0982H17.3438H17.2039C17.2039 22.0982 17.2039 22.0982 17.0641 22.0982C17.0641 22.0982 17.0641 22.0982 16.9242 22.0982C16.9242 22.0982 17.0641 22.0982 17.0641 21.9584H16.9242C16.9242 21.9584 16.9242 21.9584 17.0641 21.9584C17.0641 21.9584 17.0641 21.9584 17.2039 21.9584C17.2039 21.9584 17.2039 21.9584 17.3438 21.9584C17.3438 21.9584 17.3438 21.9584 17.2039 21.9584C17.2039 21.9584 17.2039 21.9584 17.0641 21.9584C17.0641 21.9584 17.0641 21.9584 16.9242 21.9584V22.0982C16.9242 22.0982 16.9242 22.0982 17.0641 22.0982C17.0641 22.0982 17.0641 22.0982 17.2039 22.0982C17.2039 22.0982 17.2039 22.2381 17.3438 22.2381C17.3438 22.2381 17.3438 22.2381 17.3438 22.378C17.3438 22.378 17.3438 22.378 17.3438 22.5178C17.3438 22.5178 17.3438 22.5178 17.3438 22.6577C17.3438 22.6577 17.3438 22.6577 17.2039 22.7975C17.2039 22.7975 17.2039 22.7975 17.0641 22.7975C17.0641 22.7975 17.0641 22.7975 16.9242 22.7975H17.0641C17.0641 22.7975 17.0641 22.7975 17.2039 22.7975C17.2039 22.7975 17.2039 22.7975 17.2039 22.9374C17.2039 22.9374 17.2039 22.9374 17.3438 22.9374C17.3438 22.9374 17.3438 22.9374 17.3438 23.0773C17.3438 23.0773 17.3438 23.0773 17.2039 23.0773C17.2039 23.0773 17.2039 23.0773 17.3438 23.0773C17.3438 23.0773 17.3438 23.0773 17.4837 23.0773C17.4837 23.0773 17.4837 23.0773 17.6235 23.0773V23.2171C17.6235 23.2171 17.6235 23.2171 17.4837 23.2171H17.3438H17.4837C17.4837 23.2171 17.4837 23.2171 17.3438 23.2171C17.3438 23.2171 17.3438 23.2171 17.3438 23.0773C17.3438 23.0773 17.3438 23.0773 17.2039 23.0773C17.2039 23.0773 17.2039 23.0773 17.3438 22.9374C17.3438 22.9374 17.2039 22.9374 17.2039 23.0773C17.2039 23.0773 17.2039 23.0773 17.0641 23.0773L17.2039 22.9374C17.2039 22.9374 17.2039 22.9374 17.0641 22.9374C17.0641 22.9374 17.2039 22.9374 17.2039 23.0773H17.3438C17.3438 23.0773 17.3438 23.0773 17.3438 23.2171H17.2039H17.0641C17.0641 23.2171 17.0641 23.2171 16.9242 23.2171H16.7844C16.7844 23.2171 16.7844 23.2171 16.6445 23.2171H16.5046C16.5046 23.2171 16.5046 23.2171 16.3648 23.2171C16.3648 23.2171 16.3648 23.2171 16.5046 23.2171C16.5046 23.2171 16.5046 23.2171 16.6445 23.2171H16.5046C16.5046 23.2171 16.5046 23.2171 16.3648 23.2171C16.3648 23.2171 16.3648 23.2171 16.2249 23.2171C16.2249 23.2171 16.2249 23.2171 16.3648 23.2171H16.2249H16.0851C16.0851 23.2171 16.0851 23.2171 15.9452 23.2171C15.9452 23.2171 15.9452 23.2171 16.0851 23.2171C16.0851 23.2171 16.0851 23.2171 15.9452 23.2171H15.8053C15.8053 23.2171 15.8053 23.2171 15.6655 23.2171C15.6655 23.2171 15.6655 23.2171 15.8053 23.2171H15.6655H15.5256C15.5256 23.2171 15.5256 23.2171 15.6655 23.0773C15.6655 23.0773 15.6655 23.0773 15.8053 22.9374H15.6655C15.6655 22.9374 15.6655 22.9374 15.5256 22.9374C15.5256 22.9374 15.6655 22.9374 15.6655 22.7975C15.5256 22.7975 15.5256 22.9374 15.3858 22.9374C15.3858 22.9374 15.2459 22.9374 15.2459 23.0773C15.2459 23.0773 15.2459 23.0773 15.106 23.0773C15.106 23.0773 15.106 23.0773 15.2459 23.0773C15.2459 23.0773 15.2459 23.0773 15.3858 23.0773H15.2459C15.2459 23.0773 15.2459 23.0773 15.106 23.0773C15.106 23.0773 15.106 23.0773 14.9662 23.0773C14.9662 23.0773 14.9662 23.0773 14.8263 23.0773C14.8263 23.0773 14.8263 23.0773 14.9662 22.9374H14.8263C14.8263 22.9374 14.8263 22.9374 14.6865 22.9374C14.6865 22.9374 14.6865 22.9374 14.5466 22.9374C14.5466 22.9374 14.5466 22.9374 14.6865 22.7975L14.8263 22.6577C14.8263 22.6577 14.9662 22.6577 14.9662 22.5178C14.9662 22.5178 14.9662 22.5178 15.106 22.378C15.106 22.378 15.106 22.3779 15.106 22.2381C15.106 22.2381 14.9662 22.2381 14.9662 22.378C14.9662 22.378 14.9662 22.378 14.8263 22.378L14.6865 22.5178C14.6865 22.5178 14.6865 22.5178 14.5466 22.5178C14.5466 22.5178 14.5466 22.5178 14.6865 22.378C14.8263 22.378 14.8263 22.2381 14.8263 22.2381C14.8263 22.2381 14.8263 22.2381 14.8263 22.0982C14.8263 22.0982 14.6865 22.0982 14.6865 22.2381C14.6865 22.2381 14.6865 22.2381 14.5466 22.2381C14.5466 22.2381 14.5466 22.2381 14.4067 22.2381C14.4067 22.2381 14.4067 22.2381 14.5466 22.0982C14.5466 22.0982 14.5466 22.0982 14.6865 21.9584C14.6865 21.9584 14.8263 21.9584 14.8263 21.8185C14.8263 21.8185 14.8263 21.8185 14.9662 21.6786C14.9662 21.6786 14.9662 21.6786 14.8263 21.6786L14.6865 21.8185C14.6865 21.8185 14.6865 21.8185 14.5466 21.9584C14.5466 21.9584 14.4067 21.9584 14.4067 22.0982C14.4067 22.0982 14.4067 22.0982 14.2669 22.0982C14.2669 22.0982 14.4067 22.0982 14.4067 21.9584C14.4067 21.9584 14.4067 21.9584 14.2669 21.9584C14.2669 21.9584 14.2669 21.9584 14.127 22.0982L14.2669 21.9584L14.4067 21.8185C14.4067 21.8185 14.4067 21.8185 14.2669 21.9584C14.2669 21.9584 14.2669 21.9584 14.127 22.0982L13.9872 22.2381C13.9872 22.2381 13.9872 22.2381 13.8473 22.2381C13.8473 22.2381 13.8473 22.2381 13.7074 22.2381C13.7074 22.2381 13.7074 22.2381 13.5676 22.378L13.4277 22.5178C13.4277 22.5178 13.4277 22.5178 13.4277 22.378C13.4277 22.378 13.4277 22.3779 13.4277 22.2381L13.2879 22.378C13.2879 22.378 13.2879 22.378 13.148 22.5178L13.0081 22.6577C13.0081 22.6577 13.0081 22.6577 13.0081 22.5178L13.148 22.378C13.148 22.378 13.148 22.3779 13.2879 22.2381C13.2879 22.2381 13.2879 22.2381 13.4277 22.0982C13.4277 22.0982 13.4277 22.0982 13.2879 22.0982C13.2879 22.0982 13.2879 22.0982 13.148 22.0982L13.0081 22.2381C13.0081 22.2381 13.0081 22.2381 12.8683 22.378C12.8683 22.378 12.8683 22.378 12.7284 22.5178C12.7284 22.5178 12.7284 22.5178 12.5886 22.6577C12.5886 22.6577 12.4487 22.6577 12.4487 22.7975C12.4487 22.7975 12.4487 22.7975 12.3088 22.7975C12.3088 22.7975 12.3088 22.7975 12.169 22.7975L12.0291 22.9374H11.8893H11.7494H11.6095C11.6095 22.9374 11.6095 22.9374 11.4697 22.9374C11.3298 22.9374 11.3298 22.9374 11.19 22.9374H11.0501H10.9102C10.9102 22.9374 10.9102 22.9374 10.7704 22.9374C10.7704 22.9374 10.7704 22.9374 10.6305 22.9374C10.4907 22.9374 10.3508 22.9374 10.2109 22.9374V23.2171C10.3508 23.2171 10.3508 23.2171 10.4907 23.2171H10.6305C10.7704 23.2171 10.7704 23.2171 10.9102 23.2171C10.9102 23.2171 10.9102 23.2171 11.0501 23.2171C11.19 23.2171 11.3298 23.2171 11.4697 23.2171H11.6095H11.7494C11.8893 23.2171 12.169 23.2171 12.3088 23.2171H12.4487H12.5886H12.7284H12.8683C12.8683 23.2171 12.8683 23.2171 13.0081 23.2171C13.148 23.2171 13.148 23.2171 13.2879 23.2171C13.4277 23.2171 13.7074 23.2171 13.8473 23.2171V23.357C13.8473 23.357 13.8473 23.357 13.8473 23.4968C13.8473 23.4968 13.8473 23.4968 13.8473 23.6367C13.8473 23.6367 13.8473 23.6367 13.8473 23.7766H13.9872C13.9872 23.7766 13.9872 23.7766 14.127 23.7766C14.127 23.7766 14.127 23.7766 14.2669 23.7766C14.2669 23.7766 14.2669 23.7766 14.4067 23.7766C14.4067 23.7766 14.5466 23.7766 14.6865 23.7766H14.8263C14.8263 23.7766 14.8263 23.7766 14.9662 23.9164C14.9662 23.9164 14.9662 23.9164 15.106 23.9164C15.106 23.9164 15.106 23.9164 15.2459 23.9164H15.3858C15.3858 23.9164 15.3858 23.9164 15.3858 24.0563H15.5256C15.5256 24.0563 15.5256 24.0563 15.6655 24.0563H15.8053H15.9452H16.0851C16.0851 24.0563 16.2249 24.0563 16.2249 24.1961C16.2249 24.1961 16.2249 24.1961 16.3648 24.1961C16.3648 24.1961 16.3648 24.1961 16.5046 24.1961V24.0563H16.6445C16.6445 24.0563 16.6445 24.0563 16.7844 24.0563C16.7844 24.0563 16.7844 24.0563 16.9242 23.9164L17.0641 23.7766C17.0641 23.7766 17.0641 23.7766 17.0641 23.6367V23.4968C17.0641 23.4968 17.0641 23.4968 17.2039 23.4968C17.2039 23.4968 17.2039 23.4968 17.3438 23.4968C17.3438 23.4968 17.3438 23.4968 17.4837 23.357H17.6235C17.6235 23.357 17.6235 23.357 17.7634 23.357H17.9032C17.9032 23.357 17.9032 23.357 18.0431 23.357C18.183 23.357 18.3228 23.357 18.4627 23.357C18.6025 23.357 18.6025 23.357 18.7424 23.357C18.8823 23.357 19.162 23.357 19.3018 23.357C19.4417 23.357 19.4417 23.357 19.5816 23.357H19.7214H19.8613C19.8613 23.357 19.8613 23.357 20.0011 23.357C20.2809 23.357 20.5606 23.357 20.9802 23.357H21.12C21.12 23.357 21.12 23.357 21.2599 23.357C21.2599 23.357 21.2599 23.357 21.3997 23.357C21.3997 23.357 21.3997 23.357 21.5396 23.357H21.6795C21.8193 23.357 21.9592 23.357 22.099 23.357C22.5186 23.357 23.0781 23.357 23.4976 23.4968V21.6786H29.2319ZM16.9242 17.2031C17.0641 17.2031 17.0641 17.2031 16.9242 17.2031C17.0641 17.2031 17.0641 17.2031 17.0641 17.2031C17.0641 17.2031 17.0641 17.2031 17.2039 17.2031C17.0641 17.2031 17.0641 17.343 16.9242 17.2031C17.0641 17.2031 17.0641 17.2031 16.9242 17.2031C17.0641 17.2031 16.9242 17.2031 16.9242 17.2031ZM19.0221 22.0982C19.0221 22.2381 19.0221 22.2381 19.0221 22.0982C19.162 22.2381 19.162 22.2381 19.162 22.2381C19.162 22.2381 19.162 22.2381 19.0221 22.2381C19.0221 22.2381 19.0221 22.2381 18.8823 22.2381C18.8823 22.2381 18.8823 22.2381 18.7424 22.2381C18.8823 22.2381 18.8823 22.2381 19.0221 22.0982C18.8823 22.2381 18.8823 22.2381 19.0221 22.0982C18.8823 22.2381 18.8823 22.2381 19.0221 22.0982C18.8823 22.2381 18.8823 22.2381 18.8823 22.2381C18.7424 22.2381 18.8823 22.2381 19.0221 22.0982C18.8823 22.0982 18.8823 22.0982 19.0221 22.0982C18.8823 22.0982 18.8823 22.0982 19.0221 22.0982C18.8823 22.0982 18.8823 22.0982 19.0221 22.0982C18.8823 22.0982 18.8823 22.0982 19.0221 22.0982C18.8823 22.0982 18.8823 22.0982 19.0221 22.0982ZM18.6025 22.7975C18.6025 22.6577 18.6025 22.6577 18.6025 22.7975C18.7424 22.6577 18.7424 22.6577 18.6025 22.7975C18.7424 22.6577 18.7424 22.6577 18.6025 22.7975C18.7424 22.6577 18.7424 22.6577 18.6025 22.7975C18.7424 22.7975 18.7424 22.7975 18.7424 22.7975C18.7424 22.7975 18.7424 22.7975 18.6025 22.7975C18.7424 22.7975 18.7424 22.7975 18.6025 22.7975C18.7424 22.7975 18.6025 22.7975 18.6025 22.7975ZM18.4627 20.8395C18.4627 20.8395 18.4627 20.6996 18.4627 20.8395C18.4627 20.6996 18.4627 20.6996 18.4627 20.8395C18.6025 20.6996 18.6025 20.6996 18.4627 20.8395C18.6025 20.6996 18.6025 20.6996 18.4627 20.8395C18.6025 20.6996 18.6025 20.6996 18.6025 20.6996C18.6025 20.6996 18.6025 20.6996 18.6025 20.8395C18.6025 20.8395 18.6025 20.8395 18.4627 20.8395C18.6025 20.9793 18.4627 20.9793 18.4627 20.8395C18.4627 20.9793 18.4627 20.9793 18.4627 20.9793C18.4627 20.9793 18.3228 20.9793 18.3228 21.1192C18.3228 21.1192 18.3228 21.1192 18.183 21.1192C18.3228 20.9793 18.3228 20.8395 18.4627 20.8395ZM17.7634 21.1192C17.9032 20.9793 17.9032 20.9793 17.9032 20.9793C17.9032 20.9793 18.0431 20.9793 18.0431 20.8395C18.0431 20.8395 18.0431 20.8395 18.183 20.8395C18.183 20.8395 18.183 20.8395 18.0431 20.9793C18.0431 20.9793 18.0431 20.9793 17.9032 20.9793C17.9032 20.9793 17.9032 20.9793 17.7634 20.9793C17.7634 21.1192 17.7634 21.1192 17.7634 21.1192C17.7634 21.1192 17.7634 21.2591 17.7634 21.1192C17.6235 21.1192 17.6235 21.1192 17.7634 21.1192ZM17.7634 21.3989C17.7634 21.3989 17.7634 21.2591 17.7634 21.3989C17.7634 21.2591 17.7634 21.2591 17.7634 21.3989C17.7634 21.2591 17.7634 21.2591 17.7634 21.3989C17.7634 21.2591 17.7634 21.2591 17.7634 21.3989C17.7634 21.2591 17.7634 21.2591 17.7634 21.3989C17.7634 21.2591 17.9032 21.2591 17.7634 21.3989C17.9032 21.2591 17.9032 21.2591 17.9032 21.2591C17.9032 21.2591 17.9032 21.2591 17.7634 21.3989C17.9032 21.3989 17.9032 21.3989 17.7634 21.3989ZM16.6445 21.3989C16.7844 21.3989 16.7844 21.3989 16.6445 21.3989C16.7844 21.3989 16.7844 21.3989 16.6445 21.3989C16.7844 21.3989 16.7844 21.3989 16.6445 21.3989C16.7844 21.2591 16.7844 21.2591 16.7844 21.2591H16.9242C16.9242 21.2591 16.9242 21.2591 17.0641 21.2591C17.0641 21.2591 17.0641 21.2591 17.2039 21.2591C17.2039 21.2591 17.2039 21.2591 17.2039 21.3989L17.0641 21.2591H16.9242C16.7844 21.3989 16.7844 21.3989 16.6445 21.3989C16.7844 21.3989 16.7844 21.5388 16.6445 21.3989C16.6445 21.5388 16.6445 21.5388 16.6445 21.3989C16.6445 21.5388 16.6445 21.5388 16.6445 21.3989ZM17.6235 22.2381C17.6235 22.2381 17.6235 22.0982 17.6235 22.2381C17.6235 22.0982 17.6235 22.0982 17.6235 22.2381C17.6235 22.0982 17.6235 22.0982 17.6235 22.2381C17.7634 22.0982 17.7634 22.0982 17.7634 22.0982C17.7634 22.2381 17.7634 22.2381 17.6235 22.2381C17.7634 22.2381 17.7634 22.2381 17.6235 22.2381ZM16.6445 21.6786C16.7844 21.5388 16.7844 21.5388 16.7844 21.5388C16.7844 21.5388 16.7844 21.5388 16.9242 21.5388C16.6445 21.8185 16.5046 21.8185 16.6445 21.6786C16.5046 21.6786 16.6445 21.6786 16.6445 21.6786ZM15.8053 22.0982C15.8053 22.0982 15.6655 22.2381 15.8053 22.0982C15.6655 22.0982 15.6655 22.0982 15.6655 22.0982C15.6655 21.9584 15.6655 21.9584 15.8053 22.0982C15.6655 22.0982 15.6655 22.0982 15.8053 22.0982C15.6655 22.0982 15.6655 22.0982 15.8053 22.0982C15.6655 22.0982 15.6655 22.0982 15.8053 22.0982C15.6655 22.0982 15.6655 22.0982 15.8053 22.0982C15.6655 22.0982 15.6655 22.0982 15.8053 22.0982ZM16.2249 21.6786C16.2249 21.6786 16.0851 21.6786 16.2249 21.6786C16.0851 21.8185 16.0851 21.8185 16.2249 21.6786C16.0851 21.8185 16.0851 21.8185 16.0851 21.8185C16.0851 21.8185 16.0851 21.8185 16.2249 21.8185C16.2249 21.8185 16.2249 21.8185 16.0851 21.8185C16.0851 21.8185 16.0851 21.8185 15.9452 21.8185C15.9452 21.8185 15.9452 21.8185 16.0851 21.8185C16.0851 21.8185 16.0851 21.8185 15.9452 21.8185C15.9452 21.8185 15.9452 21.8185 15.8053 21.8185C15.8053 21.8185 15.9452 21.8185 15.9452 21.6786C15.9452 21.6786 15.9452 21.6786 16.0851 21.6786C16.0851 21.6786 16.0851 21.6786 16.2249 21.6786C16.2249 21.6786 16.2249 21.6786 16.3648 21.6786C16.3648 21.6786 16.3648 21.6786 16.3648 21.8185C16.2249 21.5388 16.2249 21.6786 16.2249 21.6786ZM17.2039 22.5178C17.0641 22.5178 17.0641 22.5178 17.2039 22.5178C17.0641 22.5178 17.0641 22.5178 17.2039 22.5178C17.0641 22.5178 17.0641 22.5178 17.2039 22.5178C17.0641 22.5178 17.0641 22.5178 17.2039 22.5178C17.0641 22.5178 17.0641 22.5178 17.2039 22.5178C17.0641 22.5178 17.0641 22.5178 17.2039 22.5178C17.0641 22.5178 17.0641 22.6577 17.2039 22.5178C17.0641 22.6577 17.0641 22.6577 17.0641 22.6577C17.0641 22.6577 17.0641 22.6577 16.9242 22.6577H16.7844C16.7844 22.6577 16.7844 22.6577 16.6445 22.6577C16.6445 22.6577 16.6445 22.6577 16.6445 22.5178C16.6445 22.5178 16.6445 22.5178 16.7844 22.5178C16.7844 22.5178 16.7844 22.5178 16.9242 22.5178H17.0641C17.0641 22.5178 17.0641 22.5178 17.0641 22.6577C17.0641 22.6577 17.0641 22.6577 17.2039 22.6577H17.3438C17.3438 22.6577 17.3438 22.6577 17.2039 22.6577C16.9242 22.378 16.9242 22.378 17.2039 22.5178C17.0641 22.378 17.0641 22.378 17.2039 22.5178C17.2039 22.378 17.2039 22.378 17.2039 22.378C17.2039 22.378 17.2039 22.378 17.2039 22.5178C17.3438 22.378 17.3438 22.378 17.2039 22.5178C17.3438 22.378 17.3438 22.378 17.2039 22.5178C17.2039 22.378 17.2039 22.378 17.2039 22.5178C17.2039 22.378 17.2039 22.378 17.2039 22.5178ZM18.3228 22.7975C18.3228 22.7975 18.183 22.7975 18.3228 22.7975C18.183 22.7975 18.183 22.9374 18.183 22.9374C18.183 22.9374 18.0431 22.9374 18.0431 23.0773H17.9032H17.7634C17.7634 23.0773 17.7634 23.0773 17.7634 22.9374C17.7634 22.9374 17.7634 22.9374 17.9032 22.9374H18.0431C18.0431 22.9374 18.0431 22.9374 18.183 22.9374C18.183 22.9374 18.183 22.9374 18.0431 22.9374H17.9032H17.7634H17.6235C17.6235 22.9374 17.6235 22.9374 17.7634 22.9374H17.6235C17.6235 22.9374 17.6235 22.9374 17.4837 22.9374C17.4837 22.9374 17.4837 22.9374 17.3438 22.9374H17.2039H17.0641H17.2039H17.0641H16.9242C16.9242 22.9374 16.9242 22.9374 17.0641 22.9374C17.0641 22.9374 17.0641 22.9374 17.2039 22.9374C17.2039 22.7975 17.0641 22.7975 17.0641 22.7975C17.0641 22.7975 17.0641 22.7975 16.9242 22.7975C16.9242 22.7975 16.9242 22.7975 16.7844 22.7975C16.7844 22.7975 16.7844 22.9374 16.6445 22.9374V23.0773C16.6445 23.0773 16.6445 23.0773 16.6445 23.2171C16.6445 23.2171 16.6445 23.2171 16.7844 23.2171C16.9242 23.2171 16.9242 23.2171 16.9242 23.2171C16.9242 23.2171 16.9242 23.2171 16.9242 23.357V23.4968C16.9242 23.4968 16.9242 23.4968 16.9242 23.6367C16.9242 23.6367 16.9242 23.6367 16.9242 23.7766C18.4627 22.6577 18.4627 22.6577 18.3228 22.7975C18.4627 22.6577 18.3228 22.6577 18.3228 22.7975C18.3228 22.6577 18.3228 22.6577 18.3228 22.7975C18.3228 22.6577 18.3228 22.6577 18.3228 22.7975C18.3228 22.6577 18.3228 22.6577 18.3228 22.7975ZM18.6025 21.8185C18.6025 21.8185 18.4627 21.8185 18.6025 21.8185C18.4627 21.9584 18.3228 21.9584 18.3228 21.9584H18.4627C18.4627 21.9584 18.4627 21.9584 18.3228 21.9584C18.3228 21.9584 18.3228 21.9584 18.183 21.9584C18.183 21.9584 18.183 21.9584 18.183 21.8185C18.183 21.8185 18.183 21.8185 18.3228 21.6786H18.4627C18.6025 21.6786 18.6025 21.6786 18.6025 21.8185C18.6025 21.6786 18.6025 21.6786 18.6025 21.8185C18.6025 21.6786 18.6025 21.6786 18.6025 21.8185C18.6025 21.6786 18.6025 21.6786 18.6025 21.8185C18.6025 21.6786 18.6025 21.6786 18.6025 21.8185C18.6025 21.6786 18.6025 21.6786 18.6025 21.8185C18.6025 21.6786 18.6025 21.6786 18.6025 21.8185ZM19.162 23.0773C19.162 23.0773 19.162 23.2171 19.162 23.0773C19.162 23.2171 19.162 23.2171 19.162 23.2171H19.3018H19.4417H19.3018C19.3018 23.2171 19.3018 23.2171 19.4417 23.2171H19.5816C19.5816 23.2171 19.5816 23.2171 19.7214 23.2171C19.7214 23.2171 19.7214 23.2171 19.5816 23.2171C19.5816 23.2171 19.5816 23.2171 19.4417 23.2171C19.4417 23.2171 19.4417 23.2171 19.3018 23.2171H19.162C19.162 23.2171 19.162 23.2171 19.3018 23.2171C19.3018 23.2171 19.3018 23.2171 19.4417 23.2171C19.3018 23.2171 19.3018 23.2171 19.3018 23.2171C19.3018 23.2171 19.3018 23.2171 19.162 23.2171H19.3018H19.4417L19.5816 23.0773C19.5816 23.0773 19.5816 23.0773 19.5816 22.9374L19.4417 22.7975C19.4417 22.7975 19.5816 22.7975 19.5816 22.9374C19.5816 22.9374 19.5816 22.9374 19.5816 23.0773C19.3018 22.9374 19.3018 22.9374 19.162 23.0773C19.3018 22.9374 19.3018 22.9374 19.162 23.0773C19.3018 22.9374 19.3018 22.9374 19.162 23.0773C19.3018 22.9374 19.3018 22.9374 19.162 23.0773C19.3018 22.9374 19.3018 22.9374 19.162 23.0773C19.3018 23.0773 19.3018 23.0773 19.162 23.0773ZM20.4207 23.357C20.4207 23.4968 20.4207 23.4968 20.4207 23.357C20.4207 23.4968 20.4207 23.4968 20.4207 23.357C20.4207 23.4968 20.4207 23.4968 20.4207 23.357C20.4207 23.4968 20.4207 23.4968 20.4207 23.357C20.2809 23.4968 20.2809 23.4968 20.2809 23.4968H20.141C20.141 23.4968 20.141 23.4968 20.0011 23.357C20.0011 23.357 20.0011 23.357 20.0011 23.2171C20.141 23.2171 20.141 23.2171 20.2809 23.2171C20.2809 23.2171 20.2809 23.2171 20.4207 23.2171C20.4207 23.2171 20.4207 23.2171 20.2809 23.2171C20.2809 23.2171 20.2809 23.2171 20.4207 23.2171C20.4207 23.2171 20.4207 23.2171 20.4207 23.357C20.4207 23.357 20.4207 23.357 20.2809 23.357C20.2809 23.357 20.2809 23.357 20.4207 23.357C20.4207 23.357 20.4207 23.357 20.5606 23.357C20.5606 23.357 20.5606 23.357 20.7004 23.357C20.2809 23.357 20.4207 23.357 20.4207 23.357C20.4207 23.2171 20.4207 23.2171 20.4207 23.357C20.5606 23.357 20.5606 23.357 20.4207 23.357ZM21.3997 22.7975C21.3997 22.9374 21.2599 22.9374 21.2599 22.9374C21.2599 22.9374 21.2599 22.9374 21.12 22.9374H20.9802C20.9802 22.9374 20.9802 22.9374 20.8403 22.9374L20.7004 22.7975C20.7004 22.7975 20.7004 22.7975 20.5606 22.7975C20.5606 22.7975 20.5606 22.7975 20.4207 22.7975C20.4207 22.7975 20.4207 22.7975 20.2809 22.7975C20.2809 22.7975 20.2809 22.7975 20.141 22.7975C20.141 22.7975 20.141 22.7975 20.2809 22.7975C20.2809 22.7975 20.2809 22.7975 20.141 22.7975C20.141 22.7975 20.141 22.7975 20.2809 22.7975C20.2809 22.7975 20.2809 22.7975 20.4207 22.7975C20.4207 22.7975 20.4207 22.7975 20.5606 22.7975C21.2599 22.7975 21.2599 22.7975 21.3997 22.7975C21.2599 22.6577 21.2599 22.7975 21.3997 22.7975C21.2599 22.6577 21.2599 22.6577 21.3997 22.7975C21.3997 22.6577 21.3997 22.6577 21.3997 22.7975C21.3997 22.6577 21.3997 22.6577 21.3997 22.7975ZM22.9382 21.6786C22.7983 21.8185 22.7983 21.8185 22.7983 21.8185C22.7983 21.8185 22.7984 21.8185 22.6585 21.8185H22.5186C22.5186 21.8185 22.5186 21.8185 22.6585 21.8185C22.6585 21.8185 22.7983 21.8185 22.7983 21.6786H22.9382C22.7983 21.6786 22.9382 21.6786 22.9382 21.6786C22.9382 21.5388 22.9382 21.5388 22.9382 21.6786C22.9382 21.5388 22.9382 21.5388 22.9382 21.6786Z" fill="#00437B"/>
<path fill-rule="evenodd" clip-rule="evenodd" d="M29.2336 21.1191C29.2336 21.1191 29.0938 21.1191 29.2336 21.1191C29.0938 21.1191 29.0938 21.259 29.2336 21.1191C29.0938 21.259 29.0938 21.259 29.2336 21.1191C29.0938 21.259 29.0938 21.259 29.2336 21.1191C29.0938 21.259 29.0938 21.259 29.0938 21.259C29.0938 21.259 29.0938 21.259 29.2336 21.259V21.1191Z" fill="#00437B"/>
<path fill-rule="evenodd" clip-rule="evenodd" d="M29.2305 20.6992C29.0907 20.8391 29.0907 20.8391 29.2305 20.6992C29.0907 20.8391 28.9508 20.8391 28.9508 20.9789C28.9508 20.9789 28.811 21.1188 28.6711 21.1188C28.6711 21.1188 28.6711 21.1188 28.5312 21.1188H28.6711C28.6711 21.1188 28.6711 21.1188 28.811 20.9789L28.9508 20.8391C29.0907 20.9789 29.0907 20.8391 29.2305 20.6992C29.0907 20.8391 29.0907 20.8391 29.2305 20.6992C29.0907 20.8391 29.0907 20.8391 29.2305 20.6992C29.2305 20.8391 29.2305 20.8391 29.2305 20.6992Z" fill="#00437B"/>
<path d="M10.9102 28.9512C10.9102 28.9512 11.05 30.2099 12.4486 31.1889V28.9512H10.9102Z" fill="#CD163F"/>
<path d="M13.2891 28.9512H15.387V32.3078C15.387 32.3078 14.1282 32.0281 13.2891 31.6085V28.9512Z" fill="#CD163F"/>
<path d="M16.0859 28.9512V32.4477C16.0859 32.4477 16.7852 32.5875 16.9251 32.5875C17.065 32.5875 17.7643 32.7274 18.1838 32.8673V28.9512H16.0859Z" fill="#CD163F"/>
<path d="M29.2299 28.9512C29.2299 28.9512 29.09 30.2099 27.6914 31.1889V28.9512H29.2299Z" fill="#CD163F"/>
<path d="M26.8557 28.9512H24.7578V32.3078C24.7578 32.3078 26.0166 32.0281 26.8557 31.6085V28.9512Z" fill="#CD163F"/>
<path d="M24.0588 28.9512V32.4477C24.0588 32.4477 23.3595 32.5875 23.2197 32.5875C23.0798 32.5875 22.3805 32.7274 21.9609 32.8673V28.9512H24.0588Z" fill="#CD163F"/>
<path d="M20.1392 34.1262C19.7196 33.4269 19.1602 33.1472 19.1602 33.1472V28.8115H21.2581V33.1472C21.1182 33.1472 20.4189 33.5668 20.1392 34.1262Z" fill="#CD163F"/>
<path d="M12.7283 26.8536H13.4276L12.8681 27.2732L13.1478 27.9725L12.5884 27.5529L12.029 27.9725L12.1688 27.2732L11.6094 26.8536H12.3087L12.5884 26.1543L12.7283 26.8536Z" fill="white"/>
<path d="M15.2439 26.8536H15.9432L15.3837 27.2732L15.6635 27.9725L15.104 27.5529L14.5446 27.9725L14.6844 27.2732L14.125 26.8536H14.8243L15.104 26.1543L15.2439 26.8536Z" fill="white"/>
<path d="M17.7634 26.8536H18.4627L17.9033 27.2732L18.183 27.9725L17.6236 27.5529L17.0641 27.9725L17.204 27.2732L16.6445 26.8536H17.3438L17.6236 26.1543L17.7634 26.8536Z" fill="white"/>
<path d="M20.2829 26.8536H20.9822L20.4228 27.2732L20.7025 27.9725L20.1431 27.5529L19.5836 27.9725L19.7235 27.2732L19.1641 26.8536H19.8634L20.1431 26.1543L20.2829 26.8536Z" fill="white"/>
<path d="M22.7986 26.8536H23.4979L22.9384 27.2732L23.2182 27.9725L22.6587 27.5529L22.0993 27.9725L22.2391 27.2732L21.6797 26.8536H22.379L22.6587 26.1543L22.7986 26.8536Z" fill="white"/>
<path d="M25.3142 26.8536H26.0135L25.4541 27.2732L25.7338 27.9725L25.1743 27.5529L24.6149 27.9725L24.7548 27.2732L24.1953 26.8536H24.8946L25.1743 26.1543L25.3142 26.8536Z" fill="white"/>
<path d="M27.8337 26.8536H28.533L27.9736 27.2732L28.2533 27.9725L27.6939 27.5529L27.1344 27.9725L27.2743 27.2732L26.7148 26.8536H27.4141L27.6939 26.1543L27.8337 26.8536Z" fill="white"/>
<path d="M15.9441 10.0703V11.7486C15.9441 12.7277 15.2448 13.1472 14.4056 13.1472C13.5665 13.1472 12.8672 12.7277 12.8672 11.7486V10.0703H13.5665V11.7486C13.7063 12.3081 13.9861 12.5878 14.4056 12.5878C14.8252 12.5878 15.105 12.4479 15.105 11.8885V10.0703H15.9441Z" fill="white"/>
<path d="M18.601 10.9095C18.1815 10.7696 17.9017 10.6298 17.622 10.6298C17.3423 10.6298 17.2024 10.7696 17.2024 10.9095C17.2024 11.3291 18.7409 11.1892 18.7409 12.3081C18.7409 12.8675 18.3213 13.2871 17.622 13.2871C17.0626 13.2871 16.7829 13.1472 16.5031 13.0074V12.3081C16.9227 12.5878 17.2024 12.5878 17.4822 12.5878C17.7619 12.5878 17.9017 12.4479 17.9017 12.3081C17.9017 11.7486 16.3633 12.0284 16.3633 10.9095C16.3633 10.35 16.7829 10.0703 17.4822 10.0703C17.7619 10.0703 18.1815 10.2102 18.4612 10.35V10.9095H18.601Z" fill="white"/>
<path d="M22.3786 13.1472H21.5394L21.2597 12.5878H19.8611L19.5813 13.1472H18.7422L20.0009 10.0703H20.98L22.3786 13.1472ZM20.5604 10.9095L20.1408 12.0284H20.98L20.5604 10.9095Z" fill="white"/>
<path d="M23.3595 10.0703H22.6602V13.1472H23.3595V10.0703Z" fill="white"/>
<path d="M25.4541 10.0703C26.5729 10.0703 27.1324 10.7696 27.1324 11.6088C27.1324 12.4479 26.5729 13.1472 25.4541 13.1472H24.1953V10.0703H25.4541ZM24.8946 12.5878H25.4541C26.1534 12.5878 26.4331 12.0284 26.4331 11.6088C26.4331 11.0493 26.1534 10.6298 25.4541 10.6298H25.0345V12.5878H24.8946Z" fill="white"/>
</g>
<defs>
<clipPath id="clip0">
<rect width="133.986" height="40" fill="white"/>
</clipPath>
</defs>
</svg>
